<?xml version="1.0" encoding="utf-8" ?>
<svg xmlns="http://www.w3.org/2000/svg" xmlns:xlink="http://www.w3.org/1999/xlink" width="1024" height="1024">
	<path fill="#F97316" d="M0 0L1024 0L1024 350.117L1024 371.764L1024 619.628L1024 746.909L1024 1024L976.458 1024L898.172 1024L329.114 1024L109.8 1024L0 1024L0 256.433L0 0Z"/>
	<path fill="#DEF6EC" d="M283.476 185.058L283.817 183.878C284.372 184.299 284.919 184.721 285.457 185.163L285.952 184.176L285.854 184.314L285.73 183.305L286.491 182.891C287.137 183.744 286.845 183.262 287.327 184.362L287.978 184.236L288.202 182.671C288.376 182.742 288.549 182.816 288.724 182.883C289.492 183.174 289.181 183.088 290.023 183.164L290.506 182.927C292.202 182.112 293.8 181.604 295.627 181.172L296.186 181.648L296.275 183.316L297.002 182.18L297.704 182.12C297.917 183.006 298.016 183.842 298.088 184.749C299.325 184.293 298.497 184.683 299.27 184.172C299.907 183.75 300.521 183.711 301.257 183.594L301.337 182.994L299.627 183.021C298.841 182.02 298.977 181.949 298.858 180.752C299.968 180.385 300.657 180.103 301.83 180.585C302.245 180.755 302.826 181.227 303.194 181.506L303.626 179.768C304.783 179.832 304.237 179.675 305.259 180.249L306.184 179.103C306.986 179.646 307.384 180.046 308.002 180.766L308.708 180.76L308.081 179.487C308.988 178.553 309.452 178.81 310.705 178.708L312.577 180.121C313.552 179.729 314.451 179.349 315.483 179.137C316.304 178.969 316.794 178.481 317.434 177.975L317.945 178.197C318.43 179.467 318.465 180.018 319.598 180.816L319.804 180.798L319.61 180.182C319.43 179.601 319.279 179.033 319.144 178.441C320.044 178.772 320.858 179.103 321.69 179.581C321.4 178.893 321.109 178.302 320.739 177.645C324.493 176.95 325.76 180.364 329.353 177.276C329.682 177.965 330.018 178.638 330.373 179.315C330.863 178.43 331.126 177.668 331.431 176.711C332.519 175.967 333.196 175.732 334.544 175.902C336.019 176.089 337.625 176.68 339.016 177.186C339.576 176.395 339.779 175.927 340.083 175.033C341.177 174.949 341.698 175.158 342.459 176.044C343.27 176.987 343.216 177.711 343.139 178.835C344.146 178.075 343.69 177.233 344.835 176.927C346.385 176.512 347.479 175.327 349.07 175.389L349.277 175.937L348.853 176.446L350.439 176.398L351.767 174.983L352.281 175.152L352.042 177.033C355.042 175.491 351.81 174.337 357.296 174.559L357.145 176.283C358.168 176.326 358.36 176.075 359.236 175.604L359.253 174.878L362.501 175.656C362.645 175.522 362.786 175.385 362.933 175.255C363.621 174.646 363.348 174.862 364.262 174.404C364.482 175.256 364.288 175.847 364.136 176.699L364.352 177.066L364.667 176.622C365.364 175.65 365.627 175.117 366.729 174.568C368.17 175.182 368.674 176.558 369.389 177.862L369.91 177.951L369.963 176.874C371.029 176.905 371.098 177.371 371.806 178.115C372.098 177.267 372.065 177.031 372.767 176.427C375.816 176.189 379.799 175.418 382.761 175.981C383.936 177.609 385.121 179.672 386.691 180.921L386.975 180.549C388.4 178.703 389.821 177.252 391.838 176.065L392.598 176.117C392.421 177.543 390.97 178.252 391.279 179.532C392.713 178.974 393.646 177.356 394.615 176.152C394.556 177.101 394.435 177.825 394.115 178.721L396.245 176.645Q396.429 177.696 396.585 178.752C397.36 178.73 398.097 178.68 398.864 178.568L398.759 179.352C402.823 177.181 402.479 178.971 404.97 177.564C405.755 178.207 405.953 178.767 406.308 179.702C407.594 179.213 407.898 178.844 409.213 179.36L409.908 180.267C409.396 181.59 408.406 182.151 407.3 182.941L408.043 183.787C409.34 183.745 410.28 183.445 411.083 182.398C411.481 181.877 411.702 180.973 411.935 180.356L412.204 179.662L412.367 179.224L413.291 179.329L412.954 181.203L413.477 181.952C413.965 181.471 414.151 181.07 414.456 180.466C415.521 180.558 415.358 180.351 416.15 181.223L416.236 182.374L419.03 180.547L419.88 180.773C420.42 182.475 420.482 183.762 421.924 184.864L422.531 184.893C422.132 184.233 421.732 183.621 421.283 182.989C422.058 182.055 422.934 181.649 424.209 181.601C424.844 181.577 425.102 181.662 425.675 181.783C425.847 182.005 426.013 182.23 426.19 182.448C426.717 183.098 427.027 183.407 427.72 183.822L428.381 182.528C429.531 182.956 429.074 182.598 429.765 183.584L429.613 184.727L430.553 184.901L431.304 183.724L431.942 184.009L432.183 185.46C433.723 185.483 433.243 184.554 434.26 184.308C435.268 184.065 443.474 186.849 444.544 187.483L444.996 188.886C446.235 188.361 445.852 187.369 447.18 187.835L447.868 189.57L448.665 189.876C448.878 189.056 448.864 189.486 448.649 188.586L450.871 189.589L450.987 190.265L449.89 191.678L450.934 191.757C451.791 191.018 452.643 190.29 453.535 189.594C454.634 190.203 454.874 191.986 455.724 191.942L456.511 191.159C457.66 191.617 459.034 193.602 459.849 193.791C459.944 193.813 462.303 193.288 463.782 193.729C463.765 193.88 463.736 194.03 463.73 194.181C463.698 194.886 463.902 195.228 464.215 195.833C464.475 195.684 464.731 195.529 464.993 195.385C465.962 194.858 467.017 194.642 468.123 194.828C468.609 194.91 468.873 195.103 469.27 195.336C469.279 196.196 469.138 196.791 468.865 197.604C469.849 196.967 470.581 196.341 471.766 196.187C471.639 197.566 470.296 197.865 469.855 199.221L470.647 199.402C471.519 198.54 472.362 197.693 473.349 196.958C474.719 197.541 475.29 198.557 476.192 199.698C476.667 199.264 477.101 198.835 477.542 198.37C480.542 199.663 484.184 201.957 486.726 203.989L487.493 203.528L488.031 204.196C487.961 204.44 487.885 204.682 487.821 204.928C487.534 206.018 487.608 205.585 487.644 206.77C487.753 206.66 487.861 206.549 487.972 206.44C488.661 205.762 489.006 205.221 490.028 205.27C492.414 205.383 519.185 221.145 520.943 223.267L521.478 223.751C528.785 227.893 535.138 233.483 541.501 238.905Q544.752 241.719 547.895 244.653Q551.038 247.587 554.069 250.637Q557.099 253.688 560.013 256.85Q562.926 260.012 565.719 263.282Q568.511 266.552 571.179 269.924Q573.846 273.296 576.385 276.767Q578.924 280.237 581.33 283.801Q583.736 287.364 586.006 291.016Q588.277 294.667 590.408 298.402Q592.54 302.136 594.529 305.948Q596.518 309.76 598.363 313.644Q600.207 317.528 601.904 321.479Q603.601 325.43 605.148 329.441Q606.696 333.453 608.091 337.52Q609.486 341.588 610.727 345.705Q611.968 349.821 613.053 353.982C614.698 360.048 620.759 394.257 618.813 398.014L617.983 398.362L618.078 398.827L618.229 399.603C618.592 401.422 618.767 402.922 618.72 404.771C618.713 405.081 618.714 405.392 618.707 405.702C618.686 406.672 618.694 406.373 618.582 407.449C618.812 408.956 618.551 410.203 618.271 411.674C618.682 420.218 617.586 428.874 616.28 437.294Q615.64 441.222 614.861 445.125Q614.083 449.028 613.166 452.901Q612.25 456.775 611.197 460.613Q610.144 464.451 608.956 468.249Q607.767 472.048 606.445 475.802Q605.124 479.556 603.669 483.261Q602.215 486.966 600.631 490.617Q599.047 494.268 597.334 497.861Q595.621 501.453 593.783 504.983Q591.944 508.513 589.981 511.975Q588.019 515.438 585.935 518.829Q583.851 522.219 581.648 525.534Q579.445 528.849 577.127 532.084Q574.808 535.319 572.376 538.469Q569.944 541.62 567.402 544.683Q564.861 547.745 562.212 550.716C551.326 562.694 539.991 573.556 526.844 583.046C525.064 584.194 523.167 585.689 521.181 586.42L520.342 587.45C510.015 593.377 498.404 603.495 487.016 606.714C479.756 611.409 471.7 613.845 464.064 617.706C457.306 620.422 440.861 627.003 434.284 627.851C427.725 629.853 420.059 632.385 413.243 633.034C411.004 633.556 408.58 634.348 406.277 634.313Q401.711 635.227 397.095 635.843C399.426 644.261 408.026 673.308 407.243 681.013C406.409 689.22 409.502 687.758 409.785 692.228C409.964 695.062 408.422 699.029 408.988 701.568C409.752 704.998 412.948 705.685 411.889 709.875C410.746 710.304 409.812 710.226 408.611 710.199L408.426 710.867C409.325 711.171 410.078 711.283 411.012 711.364C412.065 711.455 412.604 711.599 413.484 712.238L413.918 713.308C413.071 713.824 412.729 713.79 411.764 713.837C412.21 715.722 414.203 718.47 413.916 720.235C413.794 720.99 412.964 722.015 412.954 722.734C412.934 724.335 416.454 724.693 414.16 728.557C413.799 729.166 413.624 729.299 413.17 729.764C411.935 729.423 412.55 729.616 411.326 729.182C410.595 733.924 414.582 736.463 414.819 740.755C414.064 741.103 413.723 741.187 412.928 741.279C412.572 742.379 412.661 742.944 413.2 743.992C413.667 744.9 414.289 745.764 414.855 746.614L414.786 747.398L413.459 748.056C413.103 749.529 413.312 750.493 414.098 751.763C414.487 752.392 414.923 752.993 415.355 753.592L415.254 754.72L413.75 755.136C413.763 760.527 415.652 767.932 413.511 772.833C412.515 775.114 413.61 778.531 413.978 780.9C414.868 786.617 411.808 795.247 413.564 799.304C414.29 800.981 415.92 801.819 417.13 803.072L415.156 803.78C414.441 803.269 413.769 802.743 413.103 802.17C412.323 802.771 411.876 803.256 411.353 804.091C411.233 805.484 411.14 806.811 411.21 808.21C411.476 813.506 408.492 831.49 406.336 836.719C404.243 841.798 405.382 847.193 403.673 852.238C402.499 855.702 400.444 858.898 399.367 862.393C397.105 869.73 396.016 877.583 394.055 885.032C391.469 894.847 387.601 904.361 384.151 913.889C382.479 918.506 381.242 923.225 379.35 927.771C375.988 935.852 372.052 943.671 368.598 951.709C364.457 961.343 360.718 971.6 355.559 980.744C353.67 984.091 351.371 987.197 349.447 990.524C347.66 993.612 346.148 996.852 344.172 999.829C339.239 1007.26 331.85 1015.49 329.114 1024L109.8 1024L0 1024L0 256.433C5.08239 254.865 10.851 257.331 15.9919 257.968C44.3112 261.478 72.7781 269.858 99.3095 280.25Q109.84 284.438 120.209 289.011C123.432 290.406 126.929 292.367 130.276 293.301C137.455 285.521 139.983 276.737 149.15 270.211C149.28 270.118 149.412 270.03 149.543 269.94L149.469 269.378L149.04 269.065C149.552 265.056 158.071 256.906 161.24 253.758C162.897 252.113 163.261 251.3 165.66 251.315C166.684 249.482 167.725 247.836 169.614 246.804C170.457 246.344 170.95 245.95 171.589 245.205L170.97 244.635C171.096 244.339 171.181 244.023 171.347 243.747C172.019 242.625 173.672 241.027 174.925 240.627L175.171 241.631L175.601 241.649C176.174 239.934 176.732 239 177.965 237.671C179.009 238.284 178.472 238.073 179.563 238.341C180.064 237.496 180.594 236.67 181.099 235.828C181.431 235.275 181.72 234.706 182.144 234.213C183.903 232.169 188.017 230.415 190.329 228.813C195.351 225.333 203.264 217.199 209.2 216.515C209.604 216.867 210.013 217.212 210.408 217.573C210.528 217.683 210.641 217.8 210.757 217.914C211.269 216.781 211.439 216.562 211.271 215.35L209.822 214.848L209.768 214.44C209.937 214.311 210.097 214.17 210.275 214.054C211.476 213.268 213.06 212.712 214.499 213.005C215.808 213.271 218.774 209.182 220.442 208.374C221.833 207.702 222 207.851 223.373 208.351L223.621 206.684C225.362 205.238 228.359 206.019 230.496 204.873C232.051 201.459 237.562 200.434 240.914 198.875L241.087 199.265L239.717 201.958C241.443 201.332 241.223 199.013 243.284 198.114C246.213 199.539 245.539 196.423 248.098 195.739C248.378 196.614 248.683 197.465 249.021 198.32L249.97 198.341C249.907 197.998 249.842 197.654 249.807 197.307C249.673 195.953 249.432 195.751 250.302 194.669C251.51 194.336 251.836 193.934 252.996 194.518L253.35 196.595C256.172 196.627 255.619 193.949 257.26 192.491C257.514 192.749 257.665 193.208 258.022 193.263C259.594 193.508 263.399 188.047 270.197 189.151L270.843 189.261L271.065 187.546C273.909 186.939 276.619 185.322 279.485 185.591C279.705 185.428 279.914 185.249 280.145 185.103C281.417 184.299 282.105 184.746 283.476 185.058Z"/>
	<path fill="#2B464D" d="M283.476 185.058L283.817 183.878C284.372 184.299 284.919 184.721 285.457 185.163L285.952 184.176L285.854 184.314L285.73 183.305L286.491 182.891C287.137 183.744 286.845 183.262 287.327 184.362L287.978 184.236L288.202 182.671C288.376 182.742 288.549 182.816 288.724 182.883C289.492 183.174 289.181 183.088 290.023 183.164L290.506 182.927C292.202 182.112 293.8 181.604 295.627 181.172L296.186 181.648L296.275 183.316L297.002 182.18L297.704 182.12C297.917 183.006 298.016 183.842 298.088 184.749C299.325 184.293 298.497 184.683 299.27 184.172C299.907 183.75 300.521 183.711 301.257 183.594L301.337 182.994L299.627 183.021C298.841 182.02 298.977 181.949 298.858 180.752C299.968 180.385 300.657 180.103 301.83 180.585C302.245 180.755 302.826 181.227 303.194 181.506L303.626 179.768C304.783 179.832 304.237 179.675 305.259 180.249L306.184 179.103C306.986 179.646 307.384 180.046 308.002 180.766L308.708 180.76L308.081 179.487C308.988 178.553 309.452 178.81 310.705 178.708L312.577 180.121C313.552 179.729 314.451 179.349 315.483 179.137C316.304 178.969 316.794 178.481 317.434 177.975L317.945 178.197C318.43 179.467 318.465 180.018 319.598 180.816L319.804 180.798L319.61 180.182C319.43 179.601 319.279 179.033 319.144 178.441C320.044 178.772 320.858 179.103 321.69 179.581C321.4 178.893 321.109 178.302 320.739 177.645C324.493 176.95 325.76 180.364 329.353 177.276C329.682 177.965 330.018 178.638 330.373 179.315C330.863 178.43 331.126 177.668 331.431 176.711C332.519 175.967 333.196 175.732 334.544 175.902C336.019 176.089 337.625 176.68 339.016 177.186C339.576 176.395 339.779 175.927 340.083 175.033C341.177 174.949 341.698 175.158 342.459 176.044C343.27 176.987 343.216 177.711 343.139 178.835C344.146 178.075 343.69 177.233 344.835 176.927C346.385 176.512 347.479 175.327 349.07 175.389L349.277 175.937L348.853 176.446L350.439 176.398L351.767 174.983L352.281 175.152L352.042 177.033C355.042 175.491 351.81 174.337 357.296 174.559L357.145 176.283C358.168 176.326 358.36 176.075 359.236 175.604L359.253 174.878L362.501 175.656C362.645 175.522 362.786 175.385 362.933 175.255C363.621 174.646 363.348 174.862 364.262 174.404C364.482 175.256 364.288 175.847 364.136 176.699L364.352 177.066L364.667 176.622C365.364 175.65 365.627 175.117 366.729 174.568C368.17 175.182 368.674 176.558 369.389 177.862L369.91 177.951L369.963 176.874C371.029 176.905 371.098 177.371 371.806 178.115C372.098 177.267 372.065 177.031 372.767 176.427C375.816 176.189 379.799 175.418 382.761 175.981C383.936 177.609 385.121 179.672 386.691 180.921L386.975 180.549C388.4 178.703 389.821 177.252 391.838 176.065L392.598 176.117C392.421 177.543 390.97 178.252 391.279 179.532C392.713 178.974 393.646 177.356 394.615 176.152C394.556 177.101 394.435 177.825 394.115 178.721L396.245 176.645Q396.429 177.696 396.585 178.752C397.36 178.73 398.097 178.68 398.864 178.568L398.759 179.352C402.823 177.181 402.479 178.971 404.97 177.564C405.755 178.207 405.953 178.767 406.308 179.702C407.594 179.213 407.898 178.844 409.213 179.36L409.908 180.267C409.396 181.59 408.406 182.151 407.3 182.941L408.043 183.787C409.34 183.745 410.28 183.445 411.083 182.398C411.481 181.877 411.702 180.973 411.935 180.356L412.204 179.662L412.367 179.224L413.291 179.329L412.954 181.203L413.477 181.952C413.965 181.471 414.151 181.07 414.456 180.466C415.521 180.558 415.358 180.351 416.15 181.223L416.236 182.374L419.03 180.547L419.88 180.773C420.42 182.475 420.482 183.762 421.924 184.864L422.531 184.893C422.132 184.233 421.732 183.621 421.283 182.989C422.058 182.055 422.934 181.649 424.209 181.601C424.844 181.577 425.102 181.662 425.675 181.783C425.847 182.005 426.013 182.23 426.19 182.448C426.717 183.098 427.027 183.407 427.72 183.822L428.381 182.528C429.531 182.956 429.074 182.598 429.765 183.584L429.613 184.727L430.553 184.901L431.304 183.724L431.942 184.009L432.183 185.46C433.723 185.483 433.243 184.554 434.26 184.308C435.268 184.065 443.474 186.849 444.544 187.483L444.996 188.886C446.235 188.361 445.852 187.369 447.18 187.835L447.868 189.57L448.665 189.876C448.878 189.056 448.864 189.486 448.649 188.586L450.871 189.589L450.987 190.265L449.89 191.678L450.934 191.757C451.791 191.018 452.643 190.29 453.535 189.594C454.634 190.203 454.874 191.986 455.724 191.942L456.511 191.159C457.66 191.617 459.034 193.602 459.849 193.791C459.944 193.813 462.303 193.288 463.782 193.729C463.765 193.88 463.736 194.03 463.73 194.181C463.698 194.886 463.902 195.228 464.215 195.833C464.475 195.684 464.731 195.529 464.993 195.385C465.962 194.858 467.017 194.642 468.123 194.828C468.609 194.91 468.873 195.103 469.27 195.336C469.279 196.196 469.138 196.791 468.865 197.604C469.849 196.967 470.581 196.341 471.766 196.187C471.639 197.566 470.296 197.865 469.855 199.221L470.647 199.402C471.519 198.54 472.362 197.693 473.349 196.958C474.719 197.541 475.29 198.557 476.192 199.698C476.667 199.264 477.101 198.835 477.542 198.37C480.542 199.663 484.184 201.957 486.726 203.989L487.493 203.528L488.031 204.196C487.961 204.44 487.885 204.682 487.821 204.928C487.534 206.018 487.608 205.585 487.644 206.77C487.753 206.66 487.861 206.549 487.972 206.44C488.661 205.762 489.006 205.221 490.028 205.27C492.414 205.383 519.185 221.145 520.943 223.267L521.478 223.751C528.785 227.893 535.138 233.483 541.501 238.905Q544.752 241.719 547.895 244.653Q551.038 247.587 554.069 250.637Q557.099 253.688 560.013 256.85Q562.926 260.012 565.719 263.282Q568.511 266.552 571.179 269.924Q573.846 273.296 576.385 276.767Q578.924 280.237 581.33 283.801Q583.736 287.364 586.006 291.016Q588.277 294.667 590.408 298.402Q592.54 302.136 594.529 305.948Q596.518 309.76 598.363 313.644Q600.207 317.528 601.904 321.479Q603.601 325.43 605.148 329.441Q606.696 333.453 608.091 337.52Q609.486 341.588 610.727 345.705Q611.968 349.821 613.053 353.982C614.698 360.048 620.759 394.257 618.813 398.014L617.983 398.362L618.078 398.827L618.229 399.603C618.592 401.422 618.767 402.922 618.72 404.771C618.713 405.081 618.714 405.392 618.707 405.702C618.686 406.672 618.694 406.373 618.582 407.449C618.812 408.956 618.551 410.203 618.271 411.674C618.682 420.218 617.586 428.874 616.28 437.294Q615.64 441.222 614.861 445.125Q614.083 449.028 613.166 452.901Q612.25 456.775 611.197 460.613Q610.144 464.451 608.956 468.249Q607.767 472.048 606.445 475.802Q605.124 479.556 603.669 483.261Q602.215 486.966 600.631 490.617Q599.047 494.268 597.334 497.861Q595.621 501.453 593.783 504.983Q591.944 508.513 589.981 511.975Q588.019 515.438 585.935 518.829Q583.851 522.219 581.648 525.534Q579.445 528.849 577.127 532.084Q574.808 535.319 572.376 538.469Q569.944 541.62 567.402 544.683Q564.861 547.745 562.212 550.716C551.326 562.694 539.991 573.556 526.844 583.046C525.064 584.194 523.167 585.689 521.181 586.42L519.037 583.834C519.277 584.845 519.333 585.632 519.277 586.669C515.227 585.836 498.036 568.975 494.342 565.111C493.209 564.265 492.567 563.91 492.14 562.498C493.069 562.798 493.364 562.823 494.295 562.765L494.216 562.213C492.613 561.405 492.169 561.466 490.434 561.534C487.364 558.935 485.386 555.465 483.268 552.099L482.023 552.454C479.697 550.31 474.606 545.713 473.64 542.805C472.389 539.037 469.76 539.118 468.037 536.315C467.23 535.003 467.341 533.125 466.572 531.719C463.741 526.541 459.557 524.615 457.55 517.575C456.77 514.837 453.614 512.068 452.08 509.382C450.169 506.037 448.814 502.492 447.531 498.871L446.573 499.369C445.409 496.897 444.178 494.366 443.235 491.801C442.299 489.255 441.92 488.362 443.047 485.869L441.397 486.544C436.175 489.381 422.026 488.803 415.772 488.66L416.47 489.014L415.501 489.23L415.319 490.17C409.552 490.198 403.669 488.297 397.991 489.817C398.612 490.358 399.371 490.584 400.123 490.905L399.505 491.52C398.19 491.086 396.79 490.309 395.5 489.956C392.819 489.223 388.245 491.624 385.302 491.524C382.812 491.44 380.361 490.452 377.854 490.343C369.62 489.983 361.234 490.837 353.01 490.964C351.03 490.994 349.057 490.664 347.064 490.664L346.82 490.461C343.107 481.225 337.063 472.361 331.858 463.885C326.863 455.751 322.024 447.378 316.616 439.519C312.968 434.218 308.782 429.173 304.812 424.109C288.515 403.325 271.003 385.079 251.281 367.487C240.507 357.878 226.735 350.69 217.223 339.899L213.674 340.06C207.955 343.057 194.826 345.248 187.972 347.149C170.189 352.083 151.181 358.447 134.939 367.29C124.7 372.865 113.65 380.083 105.891 388.827C103.736 391.256 102.687 396.464 100.124 398.097C99.5283 397.83 98.7951 397.561 98.2369 397.23C98.6696 387.964 98.1709 378.058 101.229 369.175L101.213 368.9C100.934 364.732 102.834 361.076 102.996 356.976C103.234 356.27 103.451 355.522 103.729 354.829C104.578 352.707 104.461 350.266 105.629 348.357L106.705 348.267L107.075 347.583L106.139 346.74C105.36 340.925 125.612 299.485 130.276 293.301C137.455 285.521 139.983 276.737 149.15 270.211C149.28 270.118 149.412 270.03 149.543 269.94L149.469 269.378L149.04 269.065C149.552 265.056 158.071 256.906 161.24 253.758C162.897 252.113 163.261 251.3 165.66 251.315C166.684 249.482 167.725 247.836 169.614 246.804C170.457 246.344 170.95 245.95 171.589 245.205L170.97 244.635C171.096 244.339 171.181 244.023 171.347 243.747C172.019 242.625 173.672 241.027 174.925 240.627L175.171 241.631L175.601 241.649C176.174 239.934 176.732 239 177.965 237.671C179.009 238.284 178.472 238.073 179.563 238.341C180.064 237.496 180.594 236.67 181.099 235.828C181.431 235.275 181.72 234.706 182.144 234.213C183.903 232.169 188.017 230.415 190.329 228.813C195.351 225.333 203.264 217.199 209.2 216.515C209.604 216.867 210.013 217.212 210.408 217.573C210.528 217.683 210.641 217.8 210.757 217.914C211.269 216.781 211.439 216.562 211.271 215.35L209.822 214.848L209.768 214.44C209.937 214.311 210.097 214.17 210.275 214.054C211.476 213.268 213.06 212.712 214.499 213.005C215.808 213.271 218.774 209.182 220.442 208.374C221.833 207.702 222 207.851 223.373 208.351L223.621 206.684C225.362 205.238 228.359 206.019 230.496 204.873C232.051 201.459 237.562 200.434 240.914 198.875L241.087 199.265L239.717 201.958C241.443 201.332 241.223 199.013 243.284 198.114C246.213 199.539 245.539 196.423 248.098 195.739C248.378 196.614 248.683 197.465 249.021 198.32L249.97 198.341C249.907 197.998 249.842 197.654 249.807 197.307C249.673 195.953 249.432 195.751 250.302 194.669C251.51 194.336 251.836 193.934 252.996 194.518L253.35 196.595C256.172 196.627 255.619 193.949 257.26 192.491C257.514 192.749 257.665 193.208 258.022 193.263C259.594 193.508 263.399 188.047 270.197 189.151L270.843 189.261L271.065 187.546C273.909 186.939 276.619 185.322 279.485 185.591C279.705 185.428 279.914 185.249 280.145 185.103C281.417 184.299 282.105 184.746 283.476 185.058Z"/>
	<path fill="#F97316" d="M217.223 339.899C225.452 338.857 234.166 337.12 242.261 335.282C245.05 334.649 247.772 333.433 250.589 333.001C260.264 331.518 270.372 332.127 279.858 329.302C280.941 328.979 281.106 329.797 282.303 330.114L283.748 328.579L284.39 328.665C283.948 329.604 283.948 329.164 284.174 329.965C285.589 330.024 286.36 329.552 287.551 328.889C289.019 328.072 297.119 329.275 299.202 329.369C299.113 328.283 299.126 328.807 299.149 327.796C302.272 327.525 305.603 329.138 308.758 328.595C309.666 328.439 310.014 327.416 310.492 326.682L312.402 327.289C315.296 328.229 317.616 328.974 320.69 328.314C320.15 327.416 320.203 327.858 320.323 327.03C327.565 327.615 334.499 327.014 341.707 326.352L342.242 327.429C343.129 326.987 344.173 326.346 345.123 326.094C346.781 325.654 347.798 326.667 349.143 327.491C351.922 327.351 354.627 326.176 357.289 326.108C360.134 326.036 365.069 327.938 367.584 326.901L368.221 325.104L368.764 325.384L368.729 326.723C370.858 327.055 373.433 326.52 375.594 326.322L375.136 327.391L375.928 326.654L376.174 327.119L376.589 327.228L377.887 325.455C378.799 325.451 378.565 325.335 379.258 325.682C386.23 329.164 389.455 325.859 395.679 327.748C400.259 329.138 404.992 327.227 409.696 327.521C412.493 327.695 415.294 328.475 418.062 328.923C423.971 329.877 430.97 330.738 436.939 330.349C437.944 330.284 438.613 331.186 439.987 331.355L440.546 331.644C440.285 333.622 439.708 335.485 439.427 337.447C439.145 339.414 438.417 341.729 437.062 343.191C436.322 343.988 436.278 344.638 436.053 345.678C435.033 348.756 434.175 351.966 433.04 354.995C433.429 355.663 434.246 356.596 434.063 357.372C433.33 360.483 429.615 361.737 431.574 365.674C431.813 366.155 432.104 366.609 432.382 367.068C432.261 367.188 432.147 367.315 432.02 367.427C431.453 367.93 430.955 368.107 430.258 368.36C429.031 370.802 428.142 375.131 428.328 377.868C428.991 377.346 429.099 376.983 429.441 376.23L430.231 376.094C429.974 377.091 429.776 377.956 429.292 378.875C427.74 380.282 427.745 382.416 427.387 384.455C427.582 386.745 427.888 388.825 427.206 391.059C426.32 393.959 425.929 396.013 426.16 399.058C425.909 401.466 425.227 404.492 425.884 406.83C425.974 409.557 426.467 412.911 425.763 415.542L427.304 416.64C426.415 418.114 426.086 419.167 426.496 420.887C426.554 421.132 426.621 421.375 426.68 421.62C427.721 425.897 426.509 430.139 427.714 434.476C428.3 437.599 428.607 440.867 429.311 443.946C430.053 447.472 430.483 451.064 431.314 454.56C432.645 460.153 434.368 465.654 435.669 471.248C436.069 473.137 436.245 475.211 437.598 476.674L438.243 476.552C438.554 475.027 437.758 473.783 436.966 472.529C436.845 472.338 436.713 472.154 436.587 471.966L437.187 471.201L437.962 471.275C440.46 475.844 440.009 481.606 441.397 486.544C436.175 489.381 422.026 488.803 415.772 488.66L416.47 489.014L415.501 489.23L415.319 490.17C409.552 490.198 403.669 488.297 397.991 489.817C398.612 490.358 399.371 490.584 400.123 490.905L399.505 491.52C398.19 491.086 396.79 490.309 395.5 489.956C392.819 489.223 388.245 491.624 385.302 491.524C382.812 491.44 380.361 490.452 377.854 490.343C369.62 489.983 361.234 490.837 353.01 490.964C351.03 490.994 349.057 490.664 347.064 490.664L346.82 490.461C343.107 481.225 337.063 472.361 331.858 463.885C326.863 455.751 322.024 447.378 316.616 439.519C312.968 434.218 308.782 429.173 304.812 424.109C288.515 403.325 271.003 385.079 251.281 367.487C240.507 357.878 226.735 350.69 217.223 339.899Z"/>
	<path fill="#DEF6EC" d="M440.546 331.644C443.953 330.403 464.344 335.156 465.154 334.099L463.125 332.657C464.906 332.536 466.433 334.31 468.32 334.693C478.942 336.852 489.484 338.958 500.083 341.337C501.883 341.741 509.167 343.92 510.569 343.673C511.081 343.583 511.401 343.051 511.816 342.739C512.54 343.394 512.255 342.966 512.514 344.116C516.902 344.831 521.717 345.191 525.936 346.56C539.778 351.05 553.874 356.129 567.284 361.751C571.442 363.494 574.796 367.487 579.512 366.915C580.615 366.781 581.269 366.957 582.329 367.293C582.373 368.364 582.442 367.806 582.043 368.953C585.33 372.382 591.712 374.943 595.775 377.716L597.183 376.835C597.33 377.14 597.468 377.45 597.623 377.751C599.397 381.212 603.23 383.701 605.702 386.677C608.747 390.345 611.618 397.675 613.212 402.268C613.293 402.501 613.372 403.624 613.394 403.9L614.632 404.582C613.931 406.563 613.162 408.34 613.471 410.484C612.213 413.445 611.639 416.31 611.423 419.509C611.267 419.689 611.107 419.867 610.954 420.049C607.603 424.024 606.779 428.945 602.996 432.763C584.758 451.167 557.112 461.174 533.014 468.986C528.326 470.506 522.9 473.331 518.117 474.119C514.853 474.656 513.008 473.971 509.753 475.553C503.533 478.574 494.661 478.209 487.788 479.406C478.401 481.04 450.989 488.272 443.047 485.869L441.397 486.544C440.009 481.606 440.46 475.844 437.962 471.275L437.187 471.201L436.587 471.966C436.713 472.154 436.845 472.338 436.966 472.529C437.758 473.783 438.554 475.027 438.243 476.552L437.598 476.674C436.245 475.211 436.069 473.137 435.669 471.248C434.368 465.654 432.645 460.153 431.314 454.56C430.483 451.064 430.053 447.472 429.311 443.946C428.607 440.867 428.3 437.599 427.714 434.476C426.509 430.139 427.721 425.897 426.68 421.62C426.621 421.375 426.554 421.132 426.496 420.887C426.086 419.167 426.415 418.114 427.304 416.64L425.763 415.542C426.467 412.911 425.974 409.557 425.884 406.83C425.227 404.492 425.909 401.466 426.16 399.058C425.929 396.013 426.32 393.959 427.206 391.059C427.888 388.825 427.582 386.745 427.387 384.455C427.745 382.416 427.74 380.282 429.292 378.875C429.776 377.956 429.974 377.091 430.231 376.094L429.441 376.23C429.099 376.983 428.991 377.346 428.328 377.868C428.142 375.131 429.031 370.802 430.258 368.36C430.955 368.107 431.453 367.93 432.02 367.427C432.147 367.315 432.261 367.188 432.382 367.068C432.104 366.609 431.813 366.155 431.574 365.674C429.615 361.737 433.33 360.483 434.063 357.372C434.246 356.596 433.429 355.663 433.04 354.995C434.175 351.966 435.033 348.756 436.053 345.678C436.278 344.638 436.322 343.988 437.062 343.191C438.417 341.729 439.145 339.414 439.427 337.447C439.708 335.485 440.285 333.622 440.546 331.644Z"/>
	<path fill="#45B0CA" d="M213.674 340.06L217.223 339.899C226.735 350.69 240.507 357.878 251.281 367.487C271.003 385.079 288.515 403.325 304.812 424.109C308.782 429.173 312.968 434.218 316.616 439.519C322.024 447.378 326.863 455.751 331.858 463.885C337.063 472.361 343.107 481.225 346.82 490.461L347.064 490.664C349.057 490.664 351.03 490.994 353.01 490.964C361.234 490.837 369.62 489.983 377.854 490.343C380.361 490.452 382.812 491.44 385.302 491.524C388.245 491.624 392.819 489.223 395.5 489.956C396.79 490.309 398.19 491.086 399.505 491.52L400.123 490.905C399.371 490.584 398.612 490.358 397.991 489.817C403.669 488.297 409.552 490.198 415.319 490.17L415.501 489.23L416.47 489.014L415.772 488.66C422.026 488.803 436.175 489.381 441.397 486.544L443.047 485.869C441.92 488.362 442.299 489.255 443.235 491.801C444.178 494.366 445.409 496.897 446.573 499.369L447.531 498.871C448.814 502.492 450.169 506.037 452.08 509.382C453.614 512.068 456.77 514.837 457.55 517.575C459.557 524.615 463.741 526.541 466.572 531.719C467.341 533.125 467.23 535.003 468.037 536.315C469.76 539.118 472.389 539.037 473.64 542.805C474.606 545.713 479.697 550.31 482.023 552.454L483.268 552.099C485.386 555.465 487.364 558.935 490.434 561.534C492.169 561.466 492.613 561.405 494.216 562.213L494.295 562.765C493.364 562.823 493.069 562.798 492.14 562.498C492.567 563.91 493.209 564.265 494.342 565.111C498.036 568.975 515.227 585.836 519.277 586.669C519.333 585.632 519.277 584.845 519.037 583.834L521.181 586.42L520.342 587.45C510.015 593.377 498.404 603.495 487.016 606.714C479.756 611.409 471.7 613.845 464.064 617.706C457.306 620.422 440.861 627.003 434.284 627.851C427.725 629.853 420.059 632.385 413.243 633.034C411.004 633.556 408.58 634.348 406.277 634.313Q401.711 635.227 397.095 635.843L393.318 636.221C391.363 637.179 387.314 637.37 385.067 637.743C378.915 643.751 374.759 650.996 369.52 657.725C361.169 668.452 353.562 679.535 345.644 690.556L319.436 726.454C313.575 734.453 308.06 742.839 301.749 750.493C300.095 752.5 297.911 754.934 295.196 755.185C294.114 754.813 293.163 754.326 292.419 753.415C290.289 750.807 292.46 739.294 292.783 735.776C293.36 735.393 293.649 735.187 294.078 734.626L292.951 733.427C293.644 719.621 296.141 705.616 297.994 691.924C298.329 689.451 297.815 687.028 298.293 684.548C299.123 680.249 298.841 675.707 300.161 671.526C301.01 671.333 300.719 671.305 301.489 671.442C301.654 671.472 301.817 671.513 301.981 671.549L302.005 670.584L300.592 669.568C299.668 667.489 302.076 647.211 302.784 643.93C303.745 643.455 303.344 643.748 304.023 643.097C303.56 642.401 303.272 641.792 302.997 641.003C303.551 640.118 303.321 640.297 303.993 639.765C304.124 639.661 304.264 639.569 304.399 639.47C303.744 637.438 303.643 636.156 304.044 634.057L303.888 633.107C302.783 631.84 301.995 631.78 300.418 631.273C299.653 631.7 300.113 631.545 298.991 631.563L298.917 631.083C294.645 630.602 290.389 629.175 286.251 628.019C283.741 627.334 280.42 626.772 278.251 625.322C276.647 624.249 276.738 623.646 276.455 621.871C275.845 622.759 275.607 623.122 274.671 623.705C269.071 623.357 263.622 620.434 258.486 618.356C254.318 616.669 250.054 615.336 245.91 613.55C238.927 610.54 232.278 606.872 225.555 603.334C221.446 601.171 217.231 599.164 213.369 596.574L213.215 595.001C208.241 594.89 204.93 591.436 201.075 588.534L201.649 587.644C185.792 580.736 154.432 552.133 144.332 537.399C143.136 535.654 142.928 535.515 143.325 533.427L142.803 532.731C141.936 533.19 142.404 532.977 141.392 533.35C140.049 532.155 140.082 530.608 139.149 529.069L137.968 529.251C134.184 525.142 131.416 519.745 128.588 514.947C124.486 507.986 120.195 501.205 116.759 493.873C113.789 487.537 111.548 480.855 109.1 474.307C106.84 468.26 104.443 461.953 103.047 455.641C101.536 451.015 100.355 445.665 99.8232 440.833C98.9484 438.178 97.0278 415.879 97.4234 413.639L98.4839 414.069L98.9457 414.18L99.0247 413.707C97.9976 412.816 97.509 412.372 97.1968 410.979C97.1543 410.789 97.12 410.598 97.0771 410.408C96.8519 409.412 96.573 408.412 96.4758 407.392C96.3929 406.522 96.2046 404.899 96.7526 404.204C97.4058 404.882 98.0296 405.48 98.7847 406.043L98.9074 405.806C98.8365 403.774 98.0846 403.004 96.9441 401.35C96.7841 399.714 97.5066 398.626 98.2369 397.23C98.7951 397.561 99.5283 397.83 100.124 398.097C102.687 396.464 103.736 391.256 105.891 388.827C113.65 380.083 124.7 372.865 134.939 367.29C151.181 358.447 170.189 352.083 187.972 347.149C194.826 345.248 207.955 343.057 213.674 340.06Z"/>
	<path fill="#DEF6EC" d="M213.674 340.06L217.223 339.899C226.735 350.69 240.507 357.878 251.281 367.487C271.003 385.079 288.515 403.325 304.812 424.109C308.782 429.173 312.968 434.218 316.616 439.519C322.024 447.378 326.863 455.751 331.858 463.885C337.063 472.361 343.107 481.225 346.82 490.461C341.562 489.015 335.223 490.4 329.738 490.062C324.183 489.721 318.687 488.823 313.148 488.364C309.331 488.047 305.454 488.189 301.624 487.992C297.263 487.767 292.931 487.042 288.579 486.688C286.112 486.487 283.636 486.693 281.173 486.519C277.281 486.244 271.549 483.192 267.976 483.917L267.286 485.031C264.767 485.028 261.955 483.64 259.405 483.176C255.43 482.454 251.302 482.196 247.28 481.809C243.73 478.975 239.097 481.073 234.839 480.521C232.907 480.271 230.903 479.146 229.15 478.324C228.315 478.59 228.389 478.691 227.892 479.355L226.503 479.389L226.025 478.217C225.279 478.025 224.598 477.862 223.824 477.847C221.271 477.798 219.808 476.28 217.355 475.977C188.22 472.38 136.829 455.59 114.737 436.108C111.427 433.189 108.344 429.827 105.856 426.176C104.038 423.509 101.111 415.976 99.0767 414.473C98.8842 414.331 98.6815 414.204 98.4839 414.069L98.9457 414.18L99.0247 413.707C97.9976 412.816 97.509 412.372 97.1968 410.979C97.1543 410.789 97.12 410.598 97.0771 410.408C96.8519 409.412 96.573 408.412 96.4758 407.392C96.3929 406.522 96.2046 404.899 96.7526 404.204C97.4058 404.882 98.0296 405.48 98.7847 406.043L98.9074 405.806C98.8365 403.774 98.0846 403.004 96.9441 401.35C96.7841 399.714 97.5066 398.626 98.2369 397.23C98.7951 397.561 99.5283 397.83 100.124 398.097C102.687 396.464 103.736 391.256 105.891 388.827C113.65 380.083 124.7 372.865 134.939 367.29C151.181 358.447 170.189 352.083 187.972 347.149C194.826 345.248 207.955 343.057 213.674 340.06Z"/>
	<path fill="#45B0CA" d="M411.353 804.091C411.233 805.484 411.14 806.811 411.21 808.21C411.476 813.506 408.492 831.49 406.336 836.719C404.243 841.798 405.382 847.193 403.673 852.238C402.499 855.702 400.444 858.898 399.367 862.393C397.105 869.73 396.016 877.583 394.055 885.032C391.469 894.847 387.601 904.361 384.151 913.889C382.479 918.506 381.242 923.225 379.35 927.771C375.988 935.852 372.052 943.671 368.598 951.709C364.457 961.343 360.718 971.6 355.559 980.744C353.67 984.091 351.371 987.197 349.447 990.524C347.66 993.612 346.148 996.852 344.172 999.829C339.239 1007.26 331.85 1015.49 329.114 1024L109.8 1024C110.479 1022.77 111.345 1022.65 112.214 1021.66C112.843 1020.94 113.062 1020.49 113.964 1020.07C115.27 1019.47 116.461 1019.04 117.619 1018.16L115.642 1017.73C116.425 1017.36 117.472 1017.09 117.955 1016.37L117.047 1015.36C117.874 1012.86 118.779 1013.56 120.664 1012.58C121.764 1012 124.285 1007.01 125.933 1005.64C128.867 1003.18 131.883 1000.82 134.725 998.262C134.479 997.926 134.256 997.573 134.036 997.219C135.179 995.928 136.346 994.892 137.697 993.824L139.009 994.581C140.731 993.376 139.221 992.35 140.516 991.01C142.639 988.812 145.839 987.839 148.023 985.669L147.601 984.223C148.539 983.143 149.593 981.557 150.914 981.037L151.405 982.132C152.342 980.674 153.028 978.325 154.276 977.194C155.871 975.748 158.267 976.055 159.935 974.33C159.865 973.924 159.799 973.692 159.855 973.256C160.036 971.829 161.599 970.84 162.635 970.003Q163.292 970.486 163.96 970.954L164.542 970.222L164.862 968.806C167.754 965.883 170.5 961.201 174.355 959.485C175.272 959.077 175.431 958.852 175.972 958.015L175.909 957.475L177.148 956.175C179.18 954.013 181.014 952.289 183.853 951.263C184.338 951.088 184.816 950.898 185.293 950.704C186.83 946.356 194.035 941.57 198.011 939.127C199.058 939.26 199.725 939.347 200.731 938.991C201.676 937.53 202.692 936.379 203.911 935.142L203.695 934.641L201.542 935.689C201.934 934.795 202.082 934.679 202.815 934.099C204.262 933.794 204.25 933.889 205.568 934.601L206.564 933.895C206.922 932.606 206.6 932.159 206.184 930.913C206.996 929.889 207.705 931.152 209.061 930.547C209.063 929.245 209.011 929.868 209.195 928.677L210.009 928.54L210.254 929.628L210.672 929.835L211.339 928.872L210.593 927.223C211.674 926.368 211.908 926.653 213.232 926.707C213.899 925.817 214.591 924.946 215.262 924.059C218.433 919.865 227.371 914.667 231.933 911.283C234.916 909.07 237.523 906.121 240.43 903.749C244.188 900.683 248.75 898.258 252.847 895.651C255.924 893.693 260.751 887.921 263.02 887.095C264.931 886.399 265.747 886.236 267.172 884.618C267.277 884.499 267.378 884.377 267.48 884.257L267.994 884.277L268.098 885.301L266.642 886.31L266.773 886.812C270.02 885.445 270.542 881.163 273.793 879.498C274.174 880.634 273.92 880.118 274.53 881.059L275.158 880.628L275.224 878.839C277.699 878.594 282.414 874.208 284.566 872.667C292.214 867.187 301.97 862.512 308.949 857.142C310.04 856.302 310.887 855.496 312.324 855.37C312.646 855.342 312.969 855.351 313.292 855.342C313.234 854.221 313.151 854.791 313.611 853.644L315.004 853.108C315.451 853.624 315.874 854.141 316.294 854.679C316.783 854.62 316.972 854.629 317.471 854.384C320.008 853.139 320.58 850.779 321.663 848.389L322.332 848.288L322.783 849.643L323.633 849.652L324.871 848.407L325.099 848.824L325.658 848.384C325.192 847.443 325.33 847.968 325.329 846.79C329.676 844.025 334.99 840.167 340.099 839.312C341.669 838.54 342.37 837.29 343.79 836.537L344.426 837.326C346.073 836.876 346.028 835.072 347.598 834.739L348.729 835.879C349.522 834.857 349.28 834.342 349.266 833.103C350.5 831.193 358.39 828.816 360.795 828.194L361.219 829.142C362.938 829.071 361.588 828.346 362.304 827.474C363.041 826.577 369.538 823.395 371.104 822.372C371.823 822.436 371.531 822.35 372.225 822.676C372.395 822.755 372.56 822.842 372.728 822.924C373.066 822.096 372.953 821.974 373.766 821.505C374.241 822.04 374.619 822.393 375.197 822.84C376.132 821.407 375.944 819.473 376.743 818.119C376.94 817.785 379.632 817.089 380.041 816.991C385.248 815.741 387.603 814.928 392.264 812.208L392.062 812.465L397.59 809.32C398.279 809.675 398.658 809.806 399.446 809.971Q399.617 809.013 399.763 808.051L400.569 807.749L401.198 809.747L401.865 809.473C401.917 808.438 401.904 808.108 402.441 807.188C403.371 807.384 403.04 807.257 403.859 807.641C404.621 807.998 409.736 804.472 411.353 804.091Z"/>
	<path fill="#FFC34E" d="M520.342 587.45C522.416 588.451 524.354 589.548 526.303 590.774C530.941 595.199 546.203 604.634 552.198 606.561C553.851 607.838 568.016 614.861 569.247 614.627C569.992 614.486 570.78 613.823 571.52 613.559L571.662 615.365C578.002 618.585 584.624 621.854 591.668 623.205L594.351 624.329C597.283 625.685 600.23 626.658 603.315 627.602C610.666 629.467 618.21 630.845 625.512 632.811C629.253 636.499 631.594 641.242 634.668 645.466C637.272 649.044 640.345 652.267 642.961 655.843C645.951 659.93 648.502 664.365 651.389 668.531C655.787 674.877 660.448 681.026 664.808 687.409C666.704 690.183 671.192 698.39 673.592 700.089C677.182 706.576 681.633 713.665 686.689 719.075C687.706 720.566 688.877 722.059 689.698 723.664L689.819 723.923C692.276 729.536 707.323 750.958 712.114 755.033C714.073 756.698 716.726 758.333 719.413 757.996Q719.658 757.964 719.899 757.908Q720.14 757.852 720.375 757.772Q720.609 757.693 720.834 757.591Q721.06 757.489 721.274 757.365Q721.488 757.241 721.689 757.097Q721.89 756.953 722.076 756.789Q722.262 756.626 722.431 756.445Q722.6 756.264 722.75 756.068C726.578 751.105 722.843 742.12 722.375 736.575C722.187 734.356 722.378 732.116 722.192 729.9C721.96 727.133 721.404 724.173 721.404 721.415C721.404 721.159 721.464 720.906 721.494 720.652L720.867 720.467C720.743 719.593 720.759 718.702 720.737 717.821C722.55 718.495 722.08 719.219 723.234 719.972C724.434 720.755 735.873 715.366 738.11 718.819C738.216 718.983 738.371 719.651 738.424 719.859L739.387 719.947C740.11 719.035 740.186 718.423 741.387 718.284C745.752 717.781 750.163 717.173 754.554 716.996C757.084 716.894 759.712 717.156 762.222 716.856C763.777 716.671 765.229 715.913 766.786 715.772C769.22 715.552 771.75 716.034 774.201 716.002C779.668 715.93 785.105 715.25 790.574 715.677C792.82 715.852 802.456 717.519 803.831 717.016C804.142 716.902 804.315 716.565 804.557 716.339L804.839 715.396C815.23 716.147 825.446 715.255 835.814 715.584C847.696 715.96 859.651 717.893 871.518 718.815C876.12 719.172 880.773 718.699 885.386 718.942C891.214 719.248 896.991 720.466 902.78 721.167C910.092 722.052 917.349 722.581 924.572 724.192L924.832 724.333C935.987 726.535 947.326 727.529 958.508 729.517C973.191 732.128 987.948 735.975 1002.35 739.829L1003.11 739.647C1006.95 741.452 1011.38 742.075 1015.43 743.369C1018.36 744.31 1021.14 745.758 1024 746.909L1024 1024L976.458 1024L898.172 1024L329.114 1024C331.85 1015.49 339.239 1007.26 344.172 999.829C346.148 996.852 347.66 993.612 349.447 990.524C351.371 987.197 353.67 984.091 355.559 980.744C360.718 971.6 364.457 961.343 368.598 951.709C372.052 943.671 375.988 935.852 379.35 927.771C381.242 923.225 382.479 918.506 384.151 913.889C387.601 904.361 391.469 894.847 394.055 885.032C396.016 877.583 397.105 869.73 399.367 862.393C400.444 858.898 402.499 855.702 403.673 852.238C405.382 847.193 404.243 841.798 406.336 836.719C408.492 831.49 411.476 813.506 411.21 808.21C411.14 806.811 411.233 805.484 411.353 804.091C411.876 803.256 412.323 802.771 413.103 802.17C413.769 802.743 414.441 803.269 415.156 803.78L417.13 803.072C415.92 801.819 414.29 800.981 413.564 799.304C411.808 795.247 414.868 786.617 413.978 780.9C413.61 778.531 412.515 775.114 413.511 772.833C415.652 767.932 413.763 760.527 413.75 755.136L415.254 754.72L415.355 753.592C414.923 752.993 414.487 752.392 414.098 751.763C413.312 750.493 413.103 749.529 413.459 748.056L414.786 747.398L414.855 746.614C414.289 745.764 413.667 744.9 413.2 743.992C412.661 742.944 412.572 742.379 412.928 741.279C413.723 741.187 414.064 741.103 414.819 740.755C414.582 736.463 410.595 733.924 411.326 729.182C412.55 729.616 411.935 729.423 413.17 729.764C413.624 729.299 413.799 729.166 414.16 728.557C416.454 724.693 412.934 724.335 412.954 722.734C412.964 722.015 413.794 720.99 413.916 720.235C414.203 718.47 412.21 715.722 411.764 713.837C412.729 713.79 413.071 713.824 413.918 713.308L413.484 712.238C412.604 711.599 412.065 711.455 411.012 711.364C410.078 711.283 409.325 711.171 408.426 710.867L408.611 710.199C409.812 710.226 410.746 710.304 411.889 709.875C412.948 705.685 409.752 704.998 408.988 701.568C408.422 699.029 409.964 695.062 409.785 692.228C409.502 687.758 406.409 689.22 407.243 681.013C408.026 673.308 399.426 644.261 397.095 635.843Q401.711 635.227 406.277 634.313C408.58 634.348 411.004 633.556 413.243 633.034C420.059 632.385 427.725 629.853 434.284 627.851C440.861 627.003 457.306 620.422 464.064 617.706C471.7 613.845 479.756 611.409 487.016 606.714C498.404 603.495 510.015 593.377 520.342 587.45Z"/>
	<path fill="#F97316" d="M520.342 587.45C522.416 588.451 524.354 589.548 526.303 590.774C530.941 595.199 546.203 604.634 552.198 606.561C553.851 607.838 568.016 614.861 569.247 614.627C569.992 614.486 570.78 613.823 571.52 613.559L571.662 615.365C578.002 618.585 584.624 621.854 591.668 623.205L594.351 624.329C597.283 625.685 600.23 626.658 603.315 627.602C610.666 629.467 618.21 630.845 625.512 632.811C629.253 636.499 631.594 641.242 634.668 645.466C637.272 649.044 640.345 652.267 642.961 655.843C645.951 659.93 648.502 664.365 651.389 668.531C655.787 674.877 660.448 681.026 664.808 687.409C666.704 690.183 671.192 698.39 673.592 700.089C677.182 706.576 681.633 713.665 686.689 719.075C687.706 720.566 688.877 722.059 689.698 723.664L688.741 723.812C685.643 724.272 682.593 724.247 679.473 724.821C676.171 725.428 672.815 726.634 669.514 727.072C665.742 727.572 662.382 725.127 658.468 728.185L659.649 728.89C656.206 729.89 647.147 731.954 643.84 732.289C641.011 732.575 635.297 731.52 632.976 732.722C631.852 733.303 630.644 734.75 629.729 735.644C624.532 735.333 612.171 735.571 608.209 738.72C607.576 739.224 607.252 739.309 606.45 739.311L605.088 738.347C601.449 739.25 597.761 740.231 594.049 740.758C592.339 741.001 590.786 741.973 589.291 742.793C588.531 742.54 588.223 742.38 587.598 741.93C584.619 742.448 582.953 745.043 580.191 745.845C575.624 747.17 570.555 746.811 565.87 747.55C560.499 748.396 551.832 751.372 546.257 752.966C537.395 755.502 528.28 761.057 519.006 761.447C517.88 761.495 518.384 761.372 517.34 761.976L516.865 763.116C513.989 763.907 511.067 763.428 508.24 764.15C505.791 764.775 504.293 767.013 501.975 767.814C498.594 768.982 494.759 768.639 491.369 769.9C488.219 771.072 485.925 774.368 482.725 775.209L482.332 773.72C479.987 773.382 473.12 779.534 471.975 777.748C471.795 777.467 471.721 777.131 471.594 776.822C470.804 777.462 470.637 777.791 470.184 778.671L469.792 777.282C468.69 778.141 467.502 778.845 467.008 780.208L468.85 780.835L468.688 781.309C465.888 782.14 455.109 782.649 454.786 782.895C453.361 783.98 453.139 787.975 450.614 787.261L449.044 785.235L448.229 785.206C448.162 785.333 448.099 785.461 448.027 785.586C445.896 789.289 436.145 792.11 432.204 794.303C427.849 796.727 422.251 797.59 418.239 800.403L418.548 800.243C418.458 800.383 418.36 800.519 418.278 800.664C417.854 801.413 418.003 801.167 417.931 802.219L417.13 803.072C415.92 801.819 414.29 800.981 413.564 799.304C411.808 795.247 414.868 786.617 413.978 780.9C413.61 778.531 412.515 775.114 413.511 772.833C415.652 767.932 413.763 760.527 413.75 755.136L415.254 754.72L415.355 753.592C414.923 752.993 414.487 752.392 414.098 751.763C413.312 750.493 413.103 749.529 413.459 748.056L414.786 747.398L414.855 746.614C414.289 745.764 413.667 744.9 413.2 743.992C412.661 742.944 412.572 742.379 412.928 741.279C413.723 741.187 414.064 741.103 414.819 740.755C414.582 736.463 410.595 733.924 411.326 729.182C412.55 729.616 411.935 729.423 413.17 729.764C413.624 729.299 413.799 729.166 414.16 728.557C416.454 724.693 412.934 724.335 412.954 722.734C412.964 722.015 413.794 720.99 413.916 720.235C414.203 718.47 412.21 715.722 411.764 713.837C412.729 713.79 413.071 713.824 413.918 713.308L413.484 712.238C412.604 711.599 412.065 711.455 411.012 711.364C410.078 711.283 409.325 711.171 408.426 710.867L408.611 710.199C409.812 710.226 410.746 710.304 411.889 709.875C412.948 705.685 409.752 704.998 408.988 701.568C408.422 699.029 409.964 695.062 409.785 692.228C409.502 687.758 406.409 689.22 407.243 681.013C408.026 673.308 399.426 644.261 397.095 635.843Q401.711 635.227 406.277 634.313C408.58 634.348 411.004 633.556 413.243 633.034C420.059 632.385 427.725 629.853 434.284 627.851C440.861 627.003 457.306 620.422 464.064 617.706C471.7 613.845 479.756 611.409 487.016 606.714C498.404 603.495 510.015 593.377 520.342 587.45Z"/>
	<path fill="#FFC34E" d="M924.832 724.333C935.987 726.535 947.326 727.529 958.508 729.517C973.191 732.128 987.948 735.975 1002.35 739.829L1003.11 739.647C1006.95 741.452 1011.38 742.075 1015.43 743.369C1018.36 744.31 1021.14 745.758 1024 746.909L1024 1024L976.458 1024L898.172 1024C898.546 1021.51 897.933 1018.49 898.798 1016.16L900.805 1015.95L901.289 1015.24C900.166 1014.11 899.116 1013.11 898.671 1011.53C897.997 1009.14 901.046 996.776 899.53 995.862C898.469 995.223 897.997 996.019 897.13 994.779C897.66 994.04 898.498 993.035 898.586 992.106C898.803 989.808 897.296 987.132 897.309 984.698C897.329 980.999 898.574 977.331 898.651 973.612C898.735 969.509 898.08 965.316 897.973 961.201C897.752 952.714 898.154 943.768 898.869 935.308C899.238 930.942 899.111 925.608 900.03 921.413C900.489 919.316 902.583 918.5 902.831 916.222C902.06 915.701 902.014 915.609 901.524 914.724C901.962 911.908 904.34 890.859 904.673 890.306C905.498 890.683 905.944 890.861 906.864 890.967C906.905 890.663 907.001 890.361 906.987 890.055C906.933 888.88 905.955 887.73 905.264 886.875C904.575 886.022 904.324 885.885 904.132 884.782L905.584 884.066C905.799 883.507 904.572 877.086 905.007 874.194L906.894 871.774C907.132 869.643 905.795 868.635 905.058 866.804C904.155 864.56 906.883 861.122 907.654 858.897C908.061 857.721 908.085 857.082 907.552 855.985C906.2 855.489 905.031 855.205 904.162 853.971C904.065 852.894 903.802 852.761 904.514 851.881C905.857 851.731 906.765 851.719 907.961 851.025L907.851 850.122C906.974 849.278 906.223 848.775 906.044 847.513C906.582 846.611 907.032 845.776 907.403 844.792C906.997 844.211 906.227 843.209 906.156 842.491C905.859 839.458 909.382 831.929 909.699 828.106L908.194 827.078C908.101 824.453 910.231 821.891 910.734 819.331C911.372 816.089 910.838 812.58 911.423 809.244C912.716 808.061 914.362 809.191 916.03 808.283L916.304 806.996C915.363 806.236 913.69 806.968 912.387 806.684C911.486 803.91 911.557 799.703 912.273 796.899C913.333 792.745 914.729 795.195 917.176 793.916C917.102 791.722 915.176 789.268 914.137 787.339L914.28 787.382C912.277 781.236 920.382 749.582 921.871 740.699C922.616 736.257 922.67 731.822 923.3 727.397C923.537 725.73 923.491 725.342 924.832 724.333Z"/>
	<path fill="#FFC34E" d="M1002.35 739.829L1003.11 739.647C1006.95 741.452 1011.38 742.075 1015.43 743.369C1018.36 744.31 1021.14 745.758 1024 746.909L1024 1024L976.458 1024C975.906 1021.52 977.902 1009.15 978.063 1005.46C978.229 1001.64 976.911 985.498 977.199 984.002C977.213 983.931 978.08 982.312 978.104 982.22C978.138 982.096 977.917 965.852 977.82 964.675L976.204 963.674L976.388 962.468C976.511 962.323 976.635 962.179 976.756 962.032C977.391 961.263 978.206 960.393 978.406 959.385C979.117 955.804 979.114 946.306 978.768 942.369C978.513 939.155 980.042 936.024 979.27 933.024C981.894 924.006 982.379 914.626 982.757 905.302C982.816 903.87 982.569 903.05 981.921 901.765C981.35 900.632 980.954 899.728 980.652 898.498L981.113 897.759L981.896 897.812C982.305 898.767 982.662 899.626 983.292 900.457L983.9 899.685C984.139 896.859 983.864 894.069 984.129 891.231C984.601 886.179 988.185 872.037 986.336 868.086L985.245 868.62L984.758 868.217L984.957 867.316C985.644 866.746 986.444 866.151 987.025 865.474C989.798 862.249 992.533 831.507 992.093 826.389L990.409 825.852L990.21 825.097C995.311 821.357 992.994 822.218 992.484 817.925C992.308 816.445 994.021 812.008 994.391 810.287C994.596 809.337 995.9 803.255 995.224 802.665C994.551 802.077 994.26 802.791 993.574 801.73C994.401 800.415 995.431 799.228 996.402 798.018C996.49 795.198 998.023 771.141 998.744 769.689C999.134 768.903 999.607 768.291 999.875 767.43C1000.67 764.86 1002.65 742.824 1002.35 739.829Z"/>
	<path fill="#F8BF23" d="M651.383 176.645L652.019 176.432C653.427 177.649 654.154 178.618 656.006 178.959C657.438 177.736 656.87 176.343 658.511 175.437C659.976 176.003 659.317 177.292 661.197 176.392C662.609 175.717 664.121 174.363 665.644 174.784L666.28 175.708Q671.023 175.384 675.736 174.758C676.07 175.518 676.2 176.031 676.341 176.834L677.185 177.017C678.203 176.143 679.219 175.295 680.296 174.491L681.229 174.733L682.03 176.317C684.663 176.057 686.123 172.438 690.041 175.435L690.173 177.448L690.815 177.366C691.455 176.332 691.26 176.142 692.523 175.833C694.736 175.289 697.393 175.197 699.605 175.768C700.518 177.01 701.39 178.207 702.494 179.292L703.415 179.102C703.157 178.259 702.909 177.718 702.373 177.016L702.769 176.452L705.033 177.423C705.443 176.667 705.331 177.087 705.309 176.146C706.272 176.349 706.743 176.622 707.516 177.227L707.851 177.065L708.251 175.795C709.987 176.053 710.673 176.719 711.952 177.794L713.592 179.162L714.763 179.241L715.425 177.499C716.542 177.969 716.611 178.337 717.304 179.289C718.772 178.283 717.411 177.261 719.832 177.795C722.744 178.436 724.864 181.489 727.742 181.86L728.004 181.106C726.773 180.439 725.436 179.836 724.377 178.91L724.717 178.611C727.269 178.797 728.454 179.759 730.344 181.364L731.541 181.464L731.924 180.615C736.059 180.467 740.944 181.553 744.893 182.77C746.771 183.349 751.055 185.598 752.822 185.526C753.99 185.479 753.208 184.382 754.773 185.282L754.768 186.706C755.927 186.856 755.381 186.91 756.291 186.656C757.183 186.406 758.072 186.185 759.003 186.353C766.507 187.707 775.675 193.492 784.906 195.264C785.344 196.179 785.287 195.701 785.071 196.699L785.865 196.787C788.007 197.036 789.496 197.374 791.448 198.373C792.162 198.739 792.658 198.679 793.368 198.873C793.533 198.919 793.676 199.026 793.83 199.102C800.098 201.194 805.562 205.547 811.892 207.826C812.854 208.715 813.296 208.971 814.511 209.463C816.939 210.448 819.596 212.623 821.833 214.084C830.447 219.71 838.493 225.815 846.887 231.711C850 233.375 852.516 235.73 855.152 238.044C857.484 240.077 866.593 246.874 867.759 248.956C871.29 252.608 876.36 256.63 878.988 260.835C888.333 270.984 897.823 284.509 904.534 296.635C908.405 303.631 911.496 311.099 915.919 317.785C914.919 318.383 913.886 318.856 913.271 319.886C914.245 319.849 914.892 319.588 915.781 319.203C917.171 321.001 918.489 323.737 918.458 326.028C918.038 326.57 917.642 327.104 917.255 327.671L917.553 328.348L918.517 327.086L919.336 327.287C920.115 328.793 921.406 330.674 921.502 332.38L920.367 332.19C920.593 333.244 920.611 334.342 921.348 335.144L922.265 333.768C925.277 336.868 933.746 378.881 933.652 384.715C933.635 385.799 933.646 385.877 932.845 386.648L930.953 386.175L930.653 386.698C931.5 387.577 933.04 387.371 933.486 387.868C934.45 388.94 934.464 405.406 934.471 407.727C933.949 408.619 933.844 408.717 933.022 409.239C933.479 411.817 933.95 414.387 934.257 416.989L932.37 418.764C932.594 418.83 932.835 418.854 933.043 418.962C933.291 419.091 933.492 419.297 933.717 419.464C934.12 424.117 933.155 429.282 932.56 433.927C931.75 434.881 931.626 434.755 930.363 434.93C930.833 435.453 931.273 435.835 931.818 436.273C931.513 442.904 928.027 455.789 925.861 462.209C924.89 465.089 923.516 467.843 922.581 470.722C921.182 475.026 920.203 479.561 918.909 483.917L918.316 484.36C918.112 483.862 917.878 483.418 917.825 482.879C916.592 487.214 913.791 495.146 911.323 498.712C910.368 498.714 910.459 498.557 909.665 499.22L910.631 500.361C909.449 504.057 898.471 522.38 895.931 526.238C893.998 529.175 881.651 545.993 879.504 547.125C879.288 547.239 879.065 547.342 878.85 547.459C876.183 548.904 874.01 553.136 871.963 555.468C863.858 564.703 855.136 574.653 844.245 580.598L844.735 581.355Q841.737 583.563 838.66 585.659C830.928 591.403 822.972 596.145 814.726 601.081C809.751 604.06 805.03 607.329 799.554 609.366L798.418 609.056L798.008 609.62L797.986 610.354C793.88 612.956 789.031 615.434 784.53 617.247C780.632 619.071 776.412 620.016 772.517 621.849C769.76 622.689 769.274 622.238 766.62 621.304L766.473 621.84L768.376 623.281C761.44 625.988 753.081 628.86 745.725 629.722C744.917 629.817 745.015 629.779 744.639 630.078C743.074 630.723 742.442 630.782 740.772 630.506C738.375 631.902 735.266 631.773 732.568 632.287L732.096 632.728L731.402 631.605C731.044 632.29 730.805 632.842 730.561 633.563L729.426 634.036C729.317 633.916 729.209 633.794 729.098 633.676C728.585 633.129 728.79 633.33 728.133 632.83C725.158 633.401 721.936 635.487 718.991 635.248C717.206 635.102 715.034 634.804 713.322 635.314C712.692 636.668 713.13 638.122 713.349 639.542L712.855 640.422C712.271 639.939 711.779 639.457 711.281 638.885L711.037 639.96C712.094 641.437 713.331 642.664 713.466 644.501C712.819 644.986 712.593 644.999 712.317 645.788C713.533 646.739 713.507 646.692 713.793 648.208L713.299 648.36L712.216 647.711C712.257 649.388 713.189 648.982 713.647 650.209C714.342 652.07 714.209 656.743 713.616 658.645L712.891 658.74L712.233 658.836L712.524 659.842C713.299 660.146 714.043 660.447 714.792 660.81L714.973 662.378C714.038 662.949 713.856 662.679 712.82 662.488L712.9 662.885C713.269 663.226 714.229 663.904 714.437 664.304C715.9 667.123 715.083 675.142 715.915 678.717C716.538 680.224 716.005 678.71 716.299 680.359C716.607 682.087 717.267 683.933 717.665 685.682L716.183 685.925C715.991 687.92 718.605 689.797 718.272 691.368L717.346 691.129C717.371 692.512 717.981 693.753 718.423 695.045C720.633 701.498 719.298 709.297 720.926 716.145C720.65 716.93 720.486 716.99 720.737 717.821C720.759 718.702 720.743 719.593 720.867 720.467L721.494 720.652C721.464 720.906 721.404 721.159 721.404 721.415C721.404 724.173 721.96 727.133 722.192 729.9C722.378 732.116 722.187 734.356 722.375 736.575C722.843 742.12 726.578 751.105 722.75 756.068Q722.6 756.264 722.431 756.445Q722.262 756.626 722.076 756.789Q721.89 756.953 721.689 757.097Q721.488 757.241 721.274 757.365Q721.06 757.489 720.834 757.591Q720.609 757.693 720.375 757.772Q720.14 757.852 719.899 757.908Q719.658 757.964 719.413 757.996C716.726 758.333 714.073 756.698 712.114 755.033C707.323 750.958 692.276 729.536 689.819 723.923L689.698 723.664C688.877 722.059 687.706 720.566 686.689 719.075C681.633 713.665 677.182 706.576 673.592 700.089C671.192 698.39 666.704 690.183 664.808 687.409C660.448 681.026 655.787 674.877 651.389 668.531C648.502 664.365 645.951 659.93 642.961 655.843C640.345 652.267 637.272 649.044 634.668 645.466C631.594 641.242 629.253 636.499 625.512 632.811C618.21 630.845 610.666 629.467 603.315 627.602C600.23 626.658 597.283 625.685 594.351 624.329L591.668 623.205C584.624 621.854 578.002 618.585 571.662 615.365L571.52 613.559C570.78 613.823 569.992 614.486 569.247 614.627C568.016 614.861 553.851 607.838 552.198 606.561C546.203 604.634 530.941 595.199 526.303 590.774C524.354 589.548 522.416 588.451 520.342 587.45L521.181 586.42C523.167 585.689 525.064 584.194 526.844 583.046C539.991 573.556 551.326 562.694 562.212 550.716Q564.861 547.745 567.402 544.683Q569.944 541.62 572.376 538.469Q574.808 535.319 577.127 532.084Q579.445 528.849 581.648 525.534Q583.851 522.219 585.935 518.829Q588.019 515.438 589.981 511.975Q591.944 508.513 593.783 504.983Q595.621 501.453 597.334 497.861Q599.047 494.268 600.631 490.617Q602.215 486.966 603.669 483.261Q605.123 479.556 606.445 475.802Q607.767 472.048 608.956 468.249Q610.144 464.451 611.197 460.613Q612.25 456.775 613.166 452.901Q614.083 449.028 614.861 445.125Q615.64 441.222 616.28 437.294C617.586 428.874 618.682 420.218 618.271 411.674C618.551 410.203 618.812 408.956 618.582 407.449C618.694 406.373 618.686 406.672 618.707 405.702C618.714 405.392 618.713 405.081 618.72 404.771C618.767 402.922 618.592 401.422 618.229 399.603L618.078 398.827L617.983 398.362L618.813 398.014C620.759 394.257 614.698 360.048 613.053 353.982Q611.968 349.821 610.727 345.704Q609.486 341.588 608.091 337.52Q606.696 333.453 605.148 329.441Q603.601 325.43 601.904 321.479Q600.207 317.528 598.363 313.644Q596.518 309.76 594.529 305.948Q592.54 302.136 590.408 298.402Q588.277 294.667 586.006 291.016Q583.736 287.364 581.33 283.801Q578.924 280.237 576.385 276.767Q573.846 273.296 571.179 269.924Q568.511 266.552 565.719 263.282Q562.927 260.012 560.013 256.85Q557.099 253.688 554.069 250.637Q551.038 247.587 547.895 244.653Q544.752 241.719 541.501 238.905C535.138 233.483 528.785 227.893 521.478 223.751L522.741 222.892C523.733 222.982 524.206 222.913 525.115 222.506C525.051 222.358 525.004 222.202 524.925 222.062C524.806 221.855 524.657 221.667 524.524 221.47C531.879 213.843 543.679 209.02 552.449 202.978C555.029 201.201 558.613 201.734 560.702 199.446C562.058 197.962 563.574 197.352 565.488 196.891C566.274 197.666 565.861 197.33 566.713 197.915C566.811 197.629 566.875 197.329 567.009 197.059C567.827 195.413 575.794 192.946 577.84 192.341C582.669 189.889 588.313 188.302 593.461 186.576C598.592 185.847 603.209 183.651 608.223 182.407C615.129 180.692 621.795 180.261 628.777 179.461C630.563 179.257 632.209 178.39 634.039 178.424C634.29 178.429 634.54 178.446 634.791 178.458C635.403 177.785 635.566 177.883 636.418 177.687C639.875 177.591 643.22 176.49 646.685 176.775L647.186 178.807L647.914 178.003C647.719 177.267 647.662 177.086 647.835 176.316L651.383 176.645Z"/>
	<path fill="#F95D54" d="M784.625 611.872C785.501 611.142 786.206 610.753 787.27 610.344C788.19 610.763 788.994 611.083 789.985 611.287L790.686 610.694L790.455 608.628L791.273 608.445L791.977 608.973L791.811 609.629L792.243 610.129C793.241 610.384 793.817 610.547 794.843 610.28C795.915 610.001 796.913 609.794 798.008 609.62L797.986 610.354C793.88 612.956 789.031 615.434 784.53 617.247C780.632 619.071 776.412 620.016 772.517 621.849C769.76 622.689 769.274 622.238 766.62 621.304L766.473 621.84L768.376 623.281C761.44 625.988 753.081 628.86 745.725 629.722C744.917 629.817 745.015 629.779 744.639 630.078C744.173 628.166 743.707 628.094 742.2 626.918C742.948 625.922 743.985 626.845 745.055 626.668C746.338 626.456 748.253 624.911 749.555 624.372C751.208 623.686 751.785 624.351 753.341 625.042C753.389 624.037 753.259 624.034 753.906 623.177L754.446 623.17C757.446 623.117 762.437 623.279 764.601 621.058C764.107 620.532 763.892 620.262 763.581 619.59L764.367 619.213C767.342 619.875 769.033 620.227 771.754 618.712C772.346 618.228 772.937 617.723 773.547 617.262C775.343 615.908 775.524 617.525 777.358 617.752L778.655 616.301L777.837 615.988L777.583 615.34C779.122 613.719 782.558 612.901 784.625 611.872Z"/>
	<path fill="#F95D54" d="M798.418 609.056C802.746 606.683 800.604 605.439 802.589 603.625C803.552 603.812 804.239 603.937 805.208 603.744C804.593 602.462 804.364 601.799 804.383 600.331C805.012 598.929 805.518 598.633 806.78 597.874C808.793 597.888 807.501 598.811 809.039 599.577C813.459 596.411 818.515 592.732 823.459 590.495C829.525 592.853 831.632 586.488 837.452 584.699L838.66 585.659C830.928 591.403 822.972 596.145 814.726 601.081C809.751 604.06 805.03 607.329 799.554 609.366L798.418 609.056Z"/>
	<path fill="#F95D54" d="M593.461 186.576C593.643 186.739 593.815 186.914 594.006 187.065C594.94 187.801 595.67 187.952 596.793 188.255L597.239 189.04C594.256 192.814 588.15 194.04 584.339 197.465C583.75 197.994 584.032 197.798 583.171 198.077L582.755 197.622C583.204 196.627 583.675 195.72 584.253 194.794L583.777 193.735C582.729 193.48 582.69 193.226 581.711 193.795L582.969 194.722C581.918 195.021 581.197 194.892 580.226 194.391C579.336 193.932 578.511 193.072 577.84 192.341C582.669 189.889 588.313 188.302 593.461 186.576Z"/>
	<path fill="#F95D54" d="M604.083 626.418C606.475 626.782 608.86 626.996 611.268 627.195C611.968 626.14 611.355 625.411 612.454 625.046L614.234 626.767C615.6 626.122 614.435 624.802 616.892 625.625C619.138 626.378 623.709 628.682 624.789 630.836C625.098 631.452 625.301 632.162 625.512 632.811C618.21 630.845 610.666 629.467 603.315 627.602L604.083 626.418Z"/>
	<path fill="#F95D54" d="M867.759 248.956C871.29 252.608 876.36 256.63 878.988 260.835C878.749 261.012 878.545 261.252 878.27 261.365C877.693 261.603 877.044 261.637 876.468 261.878L877.222 263.642L876.796 264.055C876.048 263.957 875.378 263.858 874.725 263.444C872.345 261.932 869.907 257.827 869.321 255.049C869.031 253.673 868.734 252.551 867.929 251.371C867.788 251.166 867.63 250.973 867.48 250.774L867.759 248.956Z"/>
	<path fill="#F95D54" d="M793.83 199.102C800.098 201.194 805.562 205.547 811.892 207.826L811.324 208.614C807.848 210.225 805.666 205.414 802.249 205.429C801.124 205.95 800.684 206.427 800.015 207.431C799.454 208.273 799.265 208.552 798.439 209.209L797.754 208.733C797.726 208.139 797.706 207.545 797.716 206.95C797.737 205.722 795.609 204.181 794.818 203.115C793.647 201.538 793.547 201.033 793.83 199.102Z"/>
	<path fill="#F95D54" d="M571.52 613.559L572.268 612.888C576.079 613.904 578.536 617.539 582.537 618.151C583.166 617.341 583.055 617.002 583.163 616.009C584.601 615.97 585.669 617.237 586.696 618.198Q588.337 619.753 589.95 621.338L590.357 621.167L591.239 621.613L591.668 623.205C584.624 621.854 578.002 618.585 571.662 615.365L571.52 613.559Z"/>
	<path fill="#F95D54" d="M673.592 700.089C676.198 700.93 678.314 703.593 679.526 705.997C681.055 709.03 681.437 710.321 684.924 711.46Q686.386 711.924 687.87 712.312C688.408 713.779 686.733 717.021 686.689 719.075C681.633 713.665 677.182 706.576 673.592 700.089Z"/>
	<path fill="#F95D54" d="M526.844 583.046C528.968 583.637 530.155 584.564 531.908 585.837C531.962 585.877 532.024 585.903 532.082 585.935L531.319 586.862L529.158 585.695C528.499 586.48 528.448 586.25 528.542 587.345C528.684 589.011 530.304 590.503 530.277 592.286C528.742 592.221 527.924 591.282 526.696 590.407L526.303 590.774C524.354 589.548 522.416 588.451 520.342 587.45L521.181 586.42C523.167 585.689 525.064 584.194 526.844 583.046Z"/>
	<path fill="#F95D54" d="M846.887 231.711C850 233.375 852.516 235.73 855.152 238.044C854.112 238.394 853.054 238.871 851.942 238.685C850.238 238.4 848.285 233.628 847.277 232.24L846.887 231.711Z"/>
	<path fill="#16BC74" d="M1012.82 373.657L1011.55 374.574C1011.23 375.615 1011.17 376.028 1010.36 376.795L1009.93 376.023C1010.22 375.152 1010.48 374.733 1011.15 374.098C1013.84 371.565 1013.33 369.903 1014.99 367.035C1016.59 364.257 1018.38 365.646 1020.8 364.924L1021.07 364.029C1020.43 363.638 1019.78 363.248 1019.17 362.825C1017.71 361.825 1017.41 361.125 1017.07 359.416L1017.81 359.429C1018.57 359.896 1019.33 360.235 1020.14 360.6L1020.84 360.211C1021.53 357.756 1020.34 356.617 1019.73 354.412C1019.1 352.152 1020.7 349.083 1021.63 347.047C1022.81 347.449 1023.36 349.047 1024 350.117L1024 371.764L1024 619.628L1024 746.909C1021.14 745.758 1018.36 744.31 1015.43 743.369C1011.38 742.075 1006.95 741.452 1003.11 739.647L1002.35 739.829C987.948 735.975 973.191 732.128 958.508 729.517C947.326 727.529 935.987 726.535 924.832 724.333L924.572 724.192L923.817 722.979C924.165 721.483 925.596 720.599 926.678 719.508C925.643 719.747 924.831 719.898 923.768 719.815C923.667 718.684 925.535 719.144 926.462 718.02L926.195 717.063L924.157 717.354L924.145 716.676L924.956 716.621L925.392 716.05C925.008 715.303 924.707 714.639 924.489 713.827L925.353 713.472L926.303 713.576L926.511 713.09L925.058 712.183C923.373 708.662 927.371 702.943 927.639 699.151C928.064 693.151 929.159 687.464 930.413 681.573C931.267 677.559 932.503 675.167 932.357 670.963C932.22 666.999 935.55 668.064 937.198 665.568C937.9 664.504 937.292 663.693 938.416 662.577L940.091 663.775L940.552 663.523C940.315 661.062 937.816 658.718 937.015 656.21L937.524 655.922Q939.322 656.671 941.087 657.495L941.425 657.113C939.947 656.056 939.455 655.243 938.701 653.589C938.619 653.41 938.542 653.228 938.462 653.047C938.411 653.163 938.334 653.27 938.31 653.393C938.253 653.672 938.251 653.96 938.222 654.243L937.074 654.221L936.555 653.611L937.311 652.557C936.603 651.892 936.315 651.619 935.908 650.71C936.804 650.171 937.597 649.791 938.591 649.464C938.509 649.707 938.491 649.966 938.443 650.218C939.228 651.16 938.747 650.788 939.902 651.312C940.022 650.087 939.892 649.293 939.556 648.112L938.82 647.807C938.056 648.356 937.313 648.673 936.442 649.022C937.688 648.292 937.659 647.455 938.119 646.14L936.892 646.591L936.497 646.008C936.787 644.425 937.158 643.271 937.907 641.842L939.866 641.367L939.765 640.868L938.202 639.84C938.062 638.315 938.422 637.059 939.077 635.688C940.374 632.974 940.47 631.656 940.368 628.683C940.336 627.757 940.366 627.182 940.737 626.302L942.444 626.008L942.744 625.237L941.578 622.931C942.139 621.408 943.427 620.709 944.661 619.68L944.708 619.172L945.84 618.758C944.777 617.968 944.228 617.738 943.725 616.49C944.128 615.844 944.453 615.4 945.031 614.886C945.192 614.742 945.361 614.609 945.526 614.471C944.731 613.857 944.404 613.675 943.989 612.734L944.714 612.32L947.055 613.009C945.366 611.413 945.355 609.708 945.273 607.535C946.392 608.502 947.219 609.092 948.676 609.413L949.233 608.949C949.346 607.697 949.536 606.414 949.211 605.181C948.955 604.206 949.179 604.587 948.225 604.001L947.328 604.326C947.158 605.641 947.801 606.493 948.335 607.681C947.606 607.181 947.264 607.06 946.354 606.929C946.081 606.889 945.807 606.868 945.533 606.837L945.381 606.206C946.063 604.809 946.712 604.075 947.891 603.057C948.02 602.946 948.151 602.837 948.281 602.727L948.265 602.282L947.249 602.274C947.273 600.388 948.189 601.71 949.125 600.323L947.861 599.279L948.017 598.538C949.655 597.444 950.11 597.168 950.584 595.251C950.063 594.148 949.617 593.727 948.786 592.854C949.727 593.398 950.361 593.871 951.476 593.832L951.576 593.249C950.609 592.253 950.07 591.545 949.48 590.256L949.996 590.145L951.508 591.901L951.847 591.754C951.788 590.472 950.928 589.733 950.14 588.798L949.731 588.318C949.914 588.099 950.075 587.859 950.28 587.66C950.521 587.427 950.802 587.239 951.063 587.029L950.808 585.51C950.092 581.009 952.008 583.293 953.41 581.373C952.373 580.968 952.262 581.035 951.517 580.119C952.3 574.909 955.017 570.134 955.62 564.836C955.7 564.134 955.797 563.438 955.897 562.739C956.857 562.418 957.532 562.255 958.285 561.544C958.43 561.407 958.554 561.248 958.688 561.101L958.687 561.281C957.971 560.553 957.803 560.616 956.861 560.357L956.525 559.496C957.472 557.114 956.919 554.323 957.769 552.625C958.533 552.732 959.256 552.792 960.028 552.799L961.493 550.865L960.941 551.152L961.579 550.323C960.262 548.72 959.761 547.266 959.938 545.191L960.714 544.69Q961.366 546.074 962.073 547.431C963.437 547.66 963.684 548.364 964.56 549.368L965.443 549.347L965.779 548.64C964.919 547.644 964.043 546.69 963.369 545.555L964.722 544.42C963.968 542.365 962.561 540.725 962.372 538.485C963.625 537.987 964.233 539.334 965.61 539.202L965.605 537.178C964.911 535.954 964.048 535.679 962.865 534.976C964.07 534.63 965.265 534.46 966.073 533.425L964.588 532.395L964.88 531.962C966.527 532.133 965.939 533.347 967.575 533.926L968.299 533.55L968.185 532.44C967.309 531.211 966.745 530.83 965.338 530.272C965.199 530.216 965.058 530.165 964.918 530.112L964.491 529.116L964.681 528.793C966.058 529.294 966.947 529.723 968.42 529.247C967.932 528.021 966.662 527.478 965.593 526.729L965.994 525.925Q967.673 525.584 969.348 525.225L968.793 524.352C967.567 523.914 966.486 523.654 965.663 522.575C965.748 521.537 965.602 521.839 966.076 521.022C967.192 519.097 967.306 519.137 969.364 518.591C968.055 517.963 967.493 517.972 966.907 516.604C967.421 515.57 967.231 515.401 968.371 514.979C969.411 515.379 969.892 515.623 971.024 515.538L970.781 514.674C970.24 514.243 969.588 513.783 969.1 513.284C968.049 512.211 968.032 512.086 967.996 510.65C969.474 507.665 972.109 506.166 974.9 504.618C973.42 504.004 973.119 504.294 971.62 504.72L971.016 504.022C971.061 502.745 971.708 502.083 972.455 501.117L972.788 500.693C972.203 499.678 972.234 500.175 972.471 499.233Q973.811 498.978 975.146 498.701L974.994 498.054L972.999 497.743L972.634 496.73C972.788 494.613 973.873 492.997 974.879 491.18C974.2 490.204 974.284 490.708 974.427 489.717L975.961 489.407L976.202 488.442L974.708 487.389L974.998 486.634C976.149 486.817 976.77 487.934 978.037 488.306C978.689 486.432 976.189 483.735 976.32 481.352C976.366 480.529 976.371 480.781 977.05 480.133C977.839 481.042 977.608 480.601 977.994 481.739C978.266 482.543 978.533 483.31 978.855 484.096C978.996 482.603 979.308 482.021 980.118 480.82C978.955 479.851 977.788 478.908 977.598 477.294C977.431 475.871 978.013 475.323 978.797 474.262C979.443 474.567 979.955 474.878 980.546 475.296C980.76 475.447 980.971 475.604 981.183 475.758L982.296 475.281C981.82 474.95 981.272 474.612 980.915 474.138C980.251 473.256 979.767 471.966 979.859 470.866C980.888 470.721 980.522 470.648 981.428 470.949C982.548 471.322 983.626 471.901 984.839 471.699C985.064 471.661 985.285 471.604 985.508 471.557L985.362 471.272C983.682 470.891 982.449 470.409 980.943 469.568C980.132 468.366 980.15 468.117 980.093 466.651L980.604 466.106C981.62 466.111 982.359 466.133 983.3 465.72L984.036 463.596C984.703 464.592 984.37 465.064 984.237 466.218C983.151 467.588 982.754 467.55 981.127 468.034C981.345 468.274 981.537 468.541 981.781 468.754C982.697 469.553 983.812 469.913 984.94 469.687C985.205 469.008 985.265 468.929 985.418 468.11C985.965 465.182 985.272 463.115 983.511 460.826C983.004 460.167 983.139 460.037 983.125 459.232L983.684 458.939C984.804 459.533 985.465 459.956 986.762 460.059C987.029 457.745 984.233 457.58 984.255 455.347C985.339 455.009 985.743 454.351 986.434 453.491C986.155 452.384 985.93 451.565 986.043 450.413C986.357 450.311 986.656 450.144 986.984 450.107C987.827 450.012 988.851 450.431 989.552 450.851C990.566 451.457 989.763 451.136 991.066 451.503L991.125 450.312C990.095 448.275 988.469 446.88 986.85 445.313C987.817 444.393 988.449 444.039 989.722 443.639C990.321 444.311 990.726 444.635 991.553 444.995L992.039 444.292C991.772 442.801 991.213 442.738 990.021 441.87L989.995 441.283L994.572 438.859C994.611 437.584 993.837 436.995 993.101 435.994Q993.795 435.393 994.476 434.777L994.202 433.835C993.574 433.5 992.952 433.173 992.304 432.877L991.812 432.656L992.088 431.771C992.728 431.628 993.497 431.587 994.013 431.173C993.289 430.33 992.625 429.921 992.715 428.733C992.801 427.597 993.306 426.145 994.226 425.455C995.176 426.451 994.251 427.11 994.985 428.226L995.707 427.927C996.474 426.886 996.578 426.832 996.578 425.556C995.528 425.062 995.899 425.196 994.914 424.867C994.704 424.797 994.492 424.732 994.281 424.664L994.343 423.655C995.663 422.14 997.672 422.002 999.26 420.835C999.487 420.668 999.708 420.494 999.932 420.323C999.729 419.632 999.622 419.309 999.077 418.807C997.87 417.694 997.067 417.028 996.644 415.387C997.729 415.554 998.346 416.109 999.208 416.751C999.173 415.487 999.346 414.603 999.719 413.396C1000.88 412.717 1001.07 412.862 1002.43 413.019C1001.38 412.115 1000.01 411.357 999.658 410.006L1001.29 410.532L1001.4 410.247C1000.74 409.689 1000.18 409.17 999.642 408.491C1000.33 407.176 1001.16 408.299 1002.41 407.329L1000.78 405.202C1000.56 403.793 1000.58 403.792 1001.29 402.555C1002.25 402.7 1002.64 402.975 1003.34 403.607C1003.91 404.134 1004.21 404.378 1004.92 404.777C1005.47 403.782 1005.55 404.004 1005.33 402.772C1004.59 402.249 1003.57 401.667 1002.96 400.997C1002.44 400.42 1002.18 399.947 1002.31 399.182C1002.55 397.78 1003.58 396.425 1004.77 395.671L1008.37 397.033L1008.9 396.671C1007.28 395.733 1006.4 394.901 1005.84 393.036C1005.41 391.629 1005.61 389.526 1006.32 388.249C1007.1 386.853 1007.51 386.244 1007.51 384.598C1007.51 383.509 1007.55 382.833 1007.99 381.805C1008.74 381.263 1009.37 380.789 1010.03 380.126C1009.37 379.648 1009.07 379.481 1008.7 378.74C1011.4 378.693 1010.3 380.386 1012.44 381.453L1013.25 380.692C1013.14 380.053 1012.99 379.418 1012.91 378.773C1012.63 376.437 1012.1 376.029 1012.82 373.657Z"/>
	<path fill="#F97316" d="M1024 619.628L1024 746.909C1021.14 745.758 1018.36 744.31 1015.43 743.369C1011.38 742.075 1006.95 741.452 1003.11 739.647C1003.1 739.466 1003.11 739.282 1003.07 739.105C1001.63 732.669 1005.54 727.601 1005.04 723.518C1004.89 722.3 1004 720.765 1003.66 719.523C1003.3 718.174 1003.14 717.656 1003.86 716.443C1004.3 716.349 1005.26 716.159 1005.67 716.019C1008.23 715.138 1005.91 706.883 1007.87 703.5C1007.97 703.331 1008.08 703.171 1008.18 703.007C1007.89 702.585 1007.42 701.91 1007.17 701.487C1006.55 700.411 1006.38 700.285 1006.67 699.08C1007.43 698.604 1008.18 698.155 1008.98 697.736L1009.69 697.37C1010.57 692.318 1012.76 684.181 1013.17 679.656C1013.32 678.006 1012.6 676.421 1012.8 674.814C1013.23 671.266 1016.01 665.958 1014.35 662.788C1014.58 661.319 1015.39 660.654 1016.39 659.641L1016.82 659.206C1016.49 658.431 1016.17 657.865 1015.67 657.17C1014.3 655.249 1017.52 652.915 1018.31 651.093C1018.83 649.898 1018.67 647.341 1018.6 645.991C1018.34 641.222 1020.76 638.868 1021.57 634.524C1022.23 630.993 1021.72 625.278 1022.79 622.309C1023.1 621.425 1023.61 620.485 1024 619.628Z"/>
</svg>
