<?xml version="1.0" encoding="utf-8" ?>
<svg xmlns="http://www.w3.org/2000/svg" xmlns:xlink="http://www.w3.org/1999/xlink" width="1024" height="1024">
	<path fill="#DEF6EC" d="M0 0L1024 0L1024 609.558L1024 1024L0 1024L0 773.386L0 0Z"/>
	<path fill="#16BC74" d="M340.599 602.963C343.729 604.265 348.099 604.133 351.484 604.253C354.103 606.199 356.355 607.176 359.472 608.027C359.549 608.148 359.622 608.27 359.702 608.388C363.761 614.44 375.106 620.02 376.09 627.262C376.98 627.837 377.717 627.547 378.349 627.888C379.527 628.523 381.529 632.202 382.329 633.397C388.093 642.011 401.761 662.628 403.756 672.019C404.176 673.998 403.653 676.545 404.799 678.235C405.741 678.028 405.988 677.757 406.707 677.15C408.59 679.879 406.477 683.62 409.224 686.272L409.608 686.48L410.164 685.742C411.161 685.806 412.112 685.93 413.096 686.099C428.995 684.032 442.407 683.313 458.371 679.639C462.861 678.614 467.108 678.957 471.645 678.63L471.516 677.723C475.17 677.033 488.785 674.484 491.337 675.406C491.499 675.465 491.652 675.552 491.821 675.587C492.995 675.835 493.869 675.201 494.864 674.679C495.899 674.137 496.515 673.721 497.714 673.732L498.26 674.575C500.026 675.2 499.577 673.304 500.788 673.071C501.928 672.853 503.869 674.078 505.478 673.835C505.848 673.23 506.211 672.717 506.647 672.148C507.339 672.325 507.904 672.53 508.562 672.827C509.843 673.407 512.277 672.323 513.748 672.073C517.304 671.47 520.817 671.285 524.383 670.48C525.801 670.159 530.291 668.463 531.492 668.773C532.008 668.906 532.167 669.682 532.673 669.851C534.653 670.513 539.625 667.646 542.037 667.589C543.584 667.552 545.455 668.441 546.946 667.964C548.726 667.395 550.246 665.954 552.161 665.743C554.617 665.473 557.361 666.185 559.875 666.151C560.549 665.275 560.63 665.134 561.706 664.712C564.969 667.211 569.261 662.544 573.614 663.772C574.335 663.975 575.973 664.583 576.671 664.322C577.121 664.154 577.632 662.941 578.096 662.676C579.851 661.673 591.302 661.45 594.683 660.572C595.634 660.916 596.215 661.045 597.242 660.966C608.373 660.12 619.721 657.786 630.814 656.304C650.061 653.734 669.501 651.624 688.655 648.424C691.971 647.87 695.178 647.019 698.402 646.078C699.336 646.537 701.023 647.552 702.009 647.687C703.521 647.893 711.524 645.613 713.782 645.29C728.625 643.166 743.566 641.77 758.463 640.075C765.419 639.283 771.792 637.67 778.85 637.597L780.103 636.903L780.406 635.22C781.836 635.169 781.002 636.306 782.232 637.137C785.241 635.415 786.762 636.59 789.703 636.039C793.117 635.4 795.891 632.487 799.613 632.535L800.186 633.577C804.266 634.216 812.135 630.709 817.039 630.934C818.746 631.012 820.181 632.097 821.893 632.312L821.111 631.358L821.255 630.637C824.055 629.858 824.942 629.957 827.52 631.396C827.717 631.506 827.912 631.621 828.107 631.733L828.279 630.762C829.715 629.996 835.387 627.935 836.781 628.247C838.202 628.565 838.369 629.989 840.231 630.004L841.517 628.291C842.374 627.944 853.759 627.956 856.956 627.318C858.548 627 862.007 625.751 863.435 626.171L863.163 628.371L863.854 628.675C865.813 627.441 867.898 626.082 870.056 625.232C871.144 624.803 872.12 624.412 873.175 624.938L872.696 626.824C874.032 626.641 874.382 625.827 875.262 624.862L876.17 624.863L877.094 626.728L877.766 626.408L877.531 625.29L879.208 624.92L879.048 626.176L880.208 626.551C881.26 626.409 881.707 626.201 882.469 625.504C883.257 624.783 883.983 624.26 884.889 623.695C886.02 623.641 886.552 623.808 887.513 624.348C888.24 624.757 888.767 625.06 889.6 625.222C889.2 624.402 888.793 624.081 889.027 623.17C890.07 623.691 889.875 623.812 890.27 624.845C891.649 624.827 892.416 624.862 893.645 624.146L893.26 623.677L891.704 624.22L890.978 623.754C892.833 621.353 895.215 624.157 897.632 623.77L897.859 622.042C899.573 621.464 905.001 620.948 906.528 621.692L906.312 623.117L906.666 623.478L908.548 621.257C911.136 620.328 915.999 619.336 918.66 619.874L918.639 620.96C920.942 621.33 922.517 619.272 924.899 619.948L925.206 621.122L925.982 621.083C926.268 620.112 926.461 619.489 927.016 618.627C930.171 620.091 934.012 618.235 937.329 618.312C938.462 618.338 938.482 618.747 939.238 619.523L940.24 619.303C940.886 618.272 941.355 617.21 942.548 616.753C944.022 617.283 945.19 617.762 946.793 617.62C948.125 616.212 948.211 615.854 950.205 615.777C950.568 616.578 950.82 616.981 951.51 617.531L953.39 617.266C953.932 616.713 954.327 616.216 954.762 615.563C955.198 614.91 955.042 614.865 955.702 614.615C957.199 614.047 958.748 614.47 960.144 615.103C961.41 615.678 962.879 616.462 964.304 616.156C965.092 615.987 965.301 615.22 965.708 614.589C966.547 615.459 967.042 615.941 968.203 616.314C968.579 615.632 968.914 615.165 969.453 614.585C970.152 613.833 970.095 614.026 971.032 613.985C971.934 614.817 972.196 615.142 973.419 615.445C975.089 612.933 979.449 615.384 982.324 614.303C982.551 613.347 982.643 613.008 983.246 612.193C984.769 611.836 985.558 613.076 987.032 612.983C989.651 612.817 994.317 610.829 996.698 611.366C997.669 611.585 998.845 612.781 999.712 612.875C1001.86 613.106 1006.63 611.027 1009.46 611.027C1009.73 611.204 1010.1 611.463 1010.39 611.579C1011.34 611.955 1011.7 611.804 1012.61 611.497L1011.83 610.83L1012.01 610.221C1014.1 609.806 1018.02 611.059 1020.22 611.326C1021.2 610.656 1021.99 610.107 1023.14 609.785C1023.43 609.705 1023.71 609.634 1024 609.558L1024 1024L0 1024L0 773.386C1.48682 771.606 3.28277 768.548 5.31146 767.511L6.34174 768.037L6.99032 767.786C6.76258 766.948 6.68096 766.259 6.67334 765.391C9.14918 761.845 16.3047 753.613 19.9551 751.696C20.2287 751.552 20.5121 751.428 20.7906 751.293C20.5585 744.998 25.3454 746.387 27.4886 741.873C27.5978 741.643 27.6994 741.409 27.8048 741.177C29.6791 740.251 28.8899 741.576 30.5999 741.761L31.2501 740.503C36.6803 738.667 43.031 738.388 48.7273 738.36C48.8922 738.169 49.5873 737.344 49.7737 737.216C51.2009 736.237 50.1004 738.356 52.4456 737.621C54.3548 737.022 61.4179 734.622 63.1735 734.771C64.3052 734.867 66.0935 735.69 67.2199 736.045C69.1903 735.328 80.5631 732.232 82.1963 732.502C85.2615 733.007 83.5783 733.975 87.238 732.701L87.2129 733.437C90.4793 733.593 93.2793 730.132 96.5955 730.545C97.1371 731.768 96.6305 732.368 96.2307 733.593L96.5659 734C98.5173 733.389 97.9461 732.465 99.2784 731.355C100.366 730.449 108.128 728.78 110.043 728.222C111.258 728.359 111.842 728.759 112.793 729.471C113.454 729.965 113.71 730.295 114.53 730.432C114.754 729.739 114.878 729.224 115.404 728.689C115.896 728.188 116.491 728.392 117.153 728.387L116.615 729.382C117.694 729.663 119.027 729.135 120.111 728.898C125.617 727.694 130.359 727.433 136.01 727.529C140.377 723.178 140.312 727.241 143.774 726.881C145.606 726.691 147.189 724.803 149.255 724.58C150.559 725.2 151.619 725.736 153.091 725.833C154.341 725.24 155.656 724.48 157.074 724.487C158.68 724.495 158.048 723.416 158.833 723.308C159.027 723.281 159.765 724.123 160.086 724.208C161.307 724.53 165.265 723.471 166.667 723.256L167.609 724.164L168.556 722.086C168.094 719.406 167.982 716.737 168.528 714.055C169.551 709.028 172.199 703.744 173.911 698.847C175.64 693.899 176.757 688.751 178.525 683.821C179.952 679.839 181.915 676.034 183.566 672.141C186.958 664.137 190.125 656.534 194.121 648.785C194.59 647.876 194.978 647.055 195.653 646.27C197.251 644.414 199.198 642.888 200.713 640.938C203.081 637.89 205.038 634.236 207.685 631.452C209.174 629.887 211.097 628.589 212.844 627.323C234.083 635.019 256.031 635.462 278.288 634.986C284.955 632.32 291.51 631.26 298.469 629.704C302.18 628.874 305.798 627.802 309.536 627.052C321.564 622.286 332.155 612.486 340.599 602.963Z"/>
	<path fill="#FFC34E" d="M212.844 627.323C234.083 635.019 256.031 635.462 278.288 634.986C267.204 645.724 263.081 658.984 262.812 674.123C262.708 679.957 263.112 688.002 265.011 693.495C266.334 694.678 266.743 694.79 267.099 696.583C266.45 697.199 266.243 697.255 265.98 698.145C267.651 700.675 270.327 702.371 271.536 705.14C271.125 706.069 271.104 705.982 270.349 706.53C268.921 707.507 267.029 709.143 265.411 709.686C262.169 710.771 259.902 708.622 257.223 711.532C256.398 711.284 255.784 710.956 255.052 710.503C253.188 710.668 252.458 712.305 250.928 712.853C250.683 712.941 247.905 711.63 245.711 711.95C239.476 712.857 233.327 714.21 227.115 715.19C221.556 716.067 215.861 716.366 210.264 716.998C210.018 717.645 209.789 718.288 209.564 718.944L208.494 719.061C208.148 718.158 208.169 717.814 208.219 716.874C207.084 716.683 207.058 716.728 206.034 717.273L205.154 718.837C203.001 719.256 200.938 718.445 198.768 718.664C195.146 719.028 191.557 720.413 187.866 720.882L188.135 720.634C185.128 721.314 182.126 722.037 179.09 722.578L178.419 721.547C177.67 722.162 177.486 722.484 177.04 723.315L176.347 723.237L176.101 721.636C175.046 721.772 174.462 722.159 173.555 722.672C172.358 723.349 171.685 723.586 170.333 723.644C169.372 723.685 168.547 724.044 167.609 724.164L168.556 722.086C168.094 719.406 167.982 716.737 168.528 714.055C169.551 709.028 172.199 703.744 173.911 698.847C175.64 693.899 176.757 688.751 178.525 683.821C179.952 679.839 181.915 676.034 183.566 672.141C186.958 664.137 190.125 656.534 194.121 648.785C194.59 647.876 194.978 647.055 195.653 646.27C197.251 644.414 199.198 642.888 200.713 640.938C203.081 637.89 205.038 634.236 207.685 631.452C209.174 629.887 211.097 628.589 212.844 627.323Z"/>
	<path fill="#FFC34E" d="M340.599 602.963C343.729 604.265 348.099 604.133 351.484 604.253C354.103 606.199 356.355 607.176 359.472 608.027C359.549 608.148 359.622 608.27 359.702 608.388C363.761 614.44 375.106 620.02 376.09 627.262C376.98 627.837 377.717 627.547 378.349 627.888C379.527 628.523 381.529 632.202 382.329 633.397C388.093 642.011 401.761 662.628 403.756 672.019C404.176 673.998 403.653 676.545 404.799 678.235C405.741 678.028 405.988 677.757 406.707 677.15C408.59 679.879 406.477 683.62 409.224 686.272C407.954 686.19 407.286 686.363 406.102 686.794C404.259 687.465 400.14 688.781 398.374 688.535C397.198 687.842 396.989 687.495 395.658 687.687C395.515 687.886 395.374 688.086 395.227 688.282C394.598 689.123 394.875 688.811 394.072 689.49C392.95 689.577 391.64 689.838 390.545 689.59L390.486 688.475C387.428 688.827 386.749 691.737 383.273 690.884C382.108 690.599 381.364 690.761 380.203 691.008L381.08 692.258C379.063 693.18 375.867 691.34 373.572 691.425C370.016 691.557 366.052 695.584 363.205 695.279C363.157 695.074 363.113 694.869 363.062 694.665C362.825 693.705 362.925 694.066 362.508 693.036C358.397 693.572 353.628 694.893 349.728 696.321C349.039 692.161 350.001 688.068 350.088 683.916C350.379 669.985 340.946 648.31 331.374 638.193C325.58 632.069 318.135 627.328 309.536 627.052C321.564 622.286 332.155 612.486 340.599 602.963Z"/>
	<path fill="#2B464D" d="M746.461 682.291C755.439 681.041 764.33 683.49 773.196 684.057C777.4 684.326 781.614 684.637 785.819 684.863C787.378 684.947 788.989 684.582 790.517 684.921C792.247 685.304 794.16 686.417 795.748 687.219C797.343 686.725 798.539 686.418 800.198 686.727C811.602 688.855 823.228 690.384 834.542 692.889C850.286 696.374 865.83 701.136 881.543 704.739C887.071 706.007 892.778 706.646 898.339 707.825C916.196 711.611 936.218 716.652 951.992 726.016C958.882 730.106 965.221 736.324 967.118 744.367C968.556 750.465 964.006 768.973 960.604 774.259C960.027 775.155 960.887 775.282 960.907 776.167C960.958 778.452 959.053 782.752 958.193 785C956.112 790.442 955.45 796.13 953.693 801.652C950.659 811.187 946.745 820.559 943.946 830.136C943.034 833.26 943.371 837.28 941.909 840.065C940.092 843.524 936.789 850.416 936.243 854.149C935.796 857.207 947.413 859.632 949.772 862.786C949.839 863.187 949.989 864.148 950.103 864.506C950.227 864.893 950.531 865.211 950.628 865.605C951.016 867.178 950.296 869.749 949.472 871.08C944.192 879.613 936.38 874.2 929.671 875.872L929.125 876.858C929.334 878.014 929.586 878.932 929.292 880.094L927.814 880.164C926.903 881.091 927.032 883.434 926.802 884.829L924.715 885.561C924.201 886.959 924.756 887.437 925.312 888.749C924.519 890.336 923.926 891.929 923.34 893.602C920.863 897.155 918.053 899.593 914.307 901.796C908.45 905.241 874.842 890.843 866.894 888.675L866.185 886.857C863.427 885.29 858.068 884.414 854.901 883.997C853.417 883.802 852.793 883.835 851.805 882.57C851.636 882.354 851.48 882.129 851.318 881.909C841.88 879.631 833.078 875.514 823.935 872.316L770.144 853.459C764.418 851.414 738.838 844.421 736.206 842.696C730.752 839.119 725.933 839.571 720.177 837.53C712.596 834.841 703.77 831.867 696.733 828.019C696.227 827.31 696.083 826.916 695.991 826.019C695.302 819.271 708.402 815.251 708.611 807.574C708.924 796.104 709.607 784.727 710.843 773.287C711.683 765.517 713.308 757.902 714.425 750.184C716.384 736.655 720.03 697.253 727.831 687.968C732.59 682.304 738.913 683.098 745.482 682.399L746.461 682.291Z"/>
	<path fill="#8FC9E3" d="M724.154 813.475C723.552 810.229 723.908 807.561 724.021 804.317C724.437 792.414 726.791 781.063 727.658 769.3C727.894 766.1 727.215 762.78 727.567 759.613C727.73 758.149 728.481 756.786 729.086 755.466C729.206 755.203 729.318 754.936 729.436 754.672C729.508 754.514 729.582 754.358 729.655 754.2L728.309 754.037L728.42 753.36L728.29 753.412C729.147 750.307 731.16 745.696 731.064 742.581L730.119 741.648C731.735 739.005 731.851 738.092 731.577 735.001C731.175 730.479 736.98 713.386 736.872 712.919C736.796 712.59 736.538 712.332 736.384 712.032C735.415 710.142 738.095 701.254 738.907 698.976C739.435 697.497 739.997 695.5 741.457 694.698C745.695 694.088 779.167 696.523 781.578 697.892C781.977 698.118 782.246 698.54 782.655 698.747C783.886 699.367 785.257 698.5 786.293 697.857Q786.95 697.44 787.594 697.003L787.947 697.521L787.707 698.663C790.229 699.489 793.175 700.535 795.828 700.754C797.732 700.911 800.892 700.162 802.556 700.609C804.164 701.041 804.833 703.562 806.625 703.539C807.322 703.531 808.271 702.774 808.998 702.674C811.949 702.269 827.582 706.775 831.517 707.649C836.765 708.813 842.275 709.075 847.455 710.333C848.473 710.58 849.303 710.983 850.226 711.456C851.572 712.145 853.552 713.471 855.044 713.349L855.988 712.709C874.436 718.376 893.295 722.444 911.834 727.857C921.363 730.64 931.192 732.95 939.758 738.211C940.078 740.005 940.363 741.739 940.12 743.562C939.756 746.288 938.374 748.539 937.655 751.125C936.747 754.39 936.278 757.707 935.262 760.987C932.201 770.866 928.061 780.689 924.469 790.413C923.376 793.373 921.03 796.628 920.526 799.701C920.368 800.662 920.704 801.588 920.983 802.491C920.436 804.014 919.324 804.099 919.233 805.722L920.383 806.08L920.291 806.965C919.772 807.344 919.155 807.618 918.733 808.103C918.028 808.914 916.786 817.331 916.52 819.014C916.311 820.337 916.565 820.9 917.203 822.008C916.546 823.404 915.465 824.356 914.816 825.707C912.389 830.762 910.467 837.187 908.799 842.556C907.909 845.42 907.564 848.677 906.526 851.433C905.095 855.232 902.875 858.092 902.018 862.217C901.614 864.161 900.97 871.589 900.08 872.774C899.83 873.106 899.338 873.148 898.968 873.335C897.354 873.3 895.979 873.206 894.447 872.657C888.71 870.602 883.577 867.032 878.028 864.566C871.62 861.719 863.688 860.501 857.936 856.474L857.43 856.671C856.681 856.957 856.979 856.851 856.173 857.088L856.058 856.661C851.967 853.589 832.593 847.2 826.314 844.769C823.89 843.83 821.462 842.413 818.972 841.734C818.116 841.501 817.226 841.594 816.358 841.701C812.394 842.189 810.982 837.888 807.199 837.697C805.037 837.588 802.877 837.285 800.721 837.073C800.033 836.124 799.34 835.023 798.245 834.51C793.574 832.323 787.38 832.005 782.385 830.525C778.106 829.256 774.287 827.213 769.862 826.133C767.309 826.826 765.03 824.687 762.685 823.885C757.654 822.164 752.379 820.978 747.254 819.559C739.554 817.428 731.97 815.182 724.154 813.475Z"/>
	<path fill="#DEF6EC" d="M769.862 826.133C768.911 824.922 768.319 823.981 767.823 822.519C772.385 803.793 778.288 785.306 783.165 766.664C784.231 762.587 784.367 758.296 785.431 754.205C786.702 749.317 788.986 744.784 790.2 739.875C790.897 737.053 790.864 734.063 791.502 731.35C791.692 730.544 792.292 729.794 792.759 729.136C794.847 726.191 792.752 720.797 796.975 720.197C799.056 719.901 801.451 720.396 803.508 720.795C813.549 722.739 823.351 725.906 833.367 727.87C846.009 730.349 858.646 732.829 871.21 735.733C875.643 736.757 880.188 737.396 884.514 738.823C885.411 739.958 886.609 741.085 886.455 742.619C886.031 746.854 883.838 751.039 882.551 755.064C881.232 759.191 880.695 763.729 879.63 767.949C878.674 771.734 877.22 775.319 876.229 779.088C869.446 804.873 864.922 831.493 856.058 856.661C851.967 853.589 832.593 847.2 826.314 844.769C823.89 843.83 821.462 842.413 818.972 841.734C818.116 841.501 817.226 841.594 816.358 841.701C812.394 842.189 810.982 837.888 807.199 837.697C805.037 837.588 802.877 837.285 800.721 837.073C800.033 836.124 799.34 835.023 798.245 834.51C793.574 832.323 787.38 832.005 782.385 830.525C778.106 829.256 774.287 827.213 769.862 826.133Z"/>
	<path fill="#F83123" d="M802.403 729.218C803.082 729.694 803.721 730.217 804.521 730.483C807.937 731.619 811.867 732.059 815.389 732.997C829.727 736.814 844.155 740.314 858.528 744.011C863.668 745.334 868.866 746.347 873.959 747.857C876.041 751.367 872.1 759.918 871.288 763.737C870.454 767.662 869.827 771.63 869.039 775.565C868.454 778.485 868.095 782.515 865.475 784.254L863.734 783.761C863.503 783.846 863.275 783.943 863.04 784.016C862.674 784.13 862.271 784.191 861.888 784.152C857.34 783.689 852.018 781.549 847.481 780.473L809.662 771.637C803.891 770.289 797.265 771.4 791.829 768.849C791.104 763.963 794.126 751.71 795.624 746.798C796.086 745.283 797.057 743.938 797.438 742.417C798.09 739.811 797.762 737.015 798.462 734.413C799.209 731.634 799.989 730.648 802.403 729.218Z"/>
	<path fill="#8FC9E3" d="M785.416 789.81L786.988 791.06C787.315 790.978 787.636 790.865 787.969 790.812C792.29 790.131 857.957 807.612 860.184 809.353C859.804 812.209 860.799 815.155 859.098 817.596C857.935 817.884 858.392 817.895 857.286 817.726C855.341 817.428 853.963 817.191 852 817.743C851.846 817.787 851.693 817.838 851.54 817.886C845.904 815.659 840.153 814.308 834.536 812.162C831.321 810.933 828.496 808.919 825.271 807.726L823.986 808.645C820.182 807.955 817.59 806.398 814.223 804.793C812.496 803.969 813.099 805.472 811.464 806.044C805.171 804.266 797.564 802.957 791.969 799.524C791.81 799.427 791.654 799.326 791.496 799.227C790.471 799.864 789.684 800.392 788.492 800.663L787.882 800.23C787.614 800.043 787.341 799.862 787.074 799.673C786.054 798.956 785.47 798.637 784.251 798.448C783.628 798.352 783.082 798.292 782.492 798.053C781.424 797.62 781.384 797.54 780.975 796.531C781.843 794.083 784.009 792.028 785.416 789.81Z"/>
	<path fill="#8FC9E3" d="M788.214 804.881C789.23 805.651 789.841 806.066 791.112 806.255C796.271 807.02 820.34 813.311 824.44 815.52C824.622 815.618 824.8 815.719 824.98 815.819C825.678 815.453 826.245 815.214 826.98 814.966C830.799 816.746 834.619 818.676 838.502 820.3C842.571 822.002 848.498 822.184 851.659 825.444L851.616 826.704C850.356 828.989 849.489 830.821 846.916 831.707C845.491 831.217 839.239 827.927 838.921 827.896C838.21 827.828 837.391 828.493 836.485 828.4C832.511 827.993 826.501 824.875 822.871 823.293C822.268 823.684 821.653 824.014 821.02 824.353C818.332 823.786 815.255 823.033 813.019 821.364C812.772 821.181 812.535 820.985 812.294 820.795C810.414 820.941 808.51 820.904 806.624 820.927C805.139 819.737 803.706 818.445 801.789 818.078C797.571 817.27 789.807 815.237 786.808 812.107C784.946 810.164 787.623 809.426 788.238 807.642C788.435 807.071 788.22 805.55 788.214 804.881Z"/>
	<path fill="#8FC9E3" d="M780.834 816.182L781.575 816.509C781.919 817.419 782.021 817.626 782.635 818.297C783.462 818.062 783.464 817.856 783.992 817.216C790.469 818.808 796.026 822.781 802.285 824.719C805.236 825.632 808.483 825.763 811.527 826.684C820.072 829.27 828.052 832.702 836.341 835.928C840.344 837.486 845.149 839.887 846.698 844.2C847.137 845.421 847.123 846.022 846.627 847.192L845.034 847.285L842.769 845.358C835.682 845.336 827.218 841.116 820.76 838.473C820.67 838.275 820.586 838.074 820.49 837.878C819.351 835.562 814.902 837.524 812.503 836.758L811.585 834.87C810.754 834.81 811.125 834.75 810.239 835.121C810.013 835.215 809.792 835.32 809.568 835.42C803.674 833.847 798.907 831.733 793.601 828.76L791.698 829.605C789.683 829.315 790.632 828.375 789.435 827.281C787.777 825.766 783.233 824.973 780.954 823.2C779.869 822.356 779.115 821.409 779.024 819.99C778.918 818.341 779.799 817.323 780.834 816.182Z"/>
	<path fill="#8FC9E3" d="M788.672 772.054C790.458 772.431 792.261 772.852 793.977 773.48C798.755 775.227 822.448 784.629 823.789 787.682C823.504 789.114 823.2 790.394 822.64 791.745L820.635 792.325C810.423 790.447 800.218 788.534 790.374 785.002C788.888 784.469 787.742 784.153 787.18 782.537C786.204 779.731 787.384 774.634 788.672 772.054Z"/>
	<path fill="#8FC9E3" d="M841.93 783.748C843.616 783.462 848.188 786.656 849.754 787.615L851.207 786.945C855.727 788.546 860.323 789.732 864.816 791.424C862.973 795.159 863.511 799.261 861.384 802.881C860.161 803.596 860.208 803.327 858.903 803.032C855.02 801.979 847.911 800.921 844.8 798.559C844.567 798.382 844.346 798.19 844.118 798.005C843.635 798.194 842.827 798.588 842.284 798.657C840.918 798.831 840.207 797.846 839.221 797.05C838.507 797.007 837.996 797.047 837.28 797.186C837.04 797.232 836.802 797.288 836.563 797.339L835.343 796.502C834.586 793.382 835.897 787.765 837.852 785.189C838.992 783.688 840.197 783.947 841.93 783.748Z"/>
	<path fill="#DEF6EC" d="M316.436 904.64C316.236 904.377 316.042 904.11 315.836 903.851C314.844 902.609 314.248 902.037 314.069 900.376C314.037 900.08 313.98 899.303 313.908 899.005C313.461 897.167 312.594 896.874 311.086 896.067C310.703 893.934 311.938 892.073 311.804 889.922L309.737 888.36C309.303 884.315 304.835 878.181 305.298 875.153L306.678 877.275L306.948 877.177C305.8 874.478 305.209 872.667 305.023 869.746C304.828 866.672 302.269 868.433 301.784 866.029C301.21 863.186 297.254 846.275 296.133 844.4C295.879 843.974 294.808 843.304 294.384 842.953C293.428 839.559 291.69 836.439 290.688 833.041L291.716 831.797C290.026 828.196 287.989 824.588 286.616 820.862C285.789 818.617 286.209 815.66 285.145 813.618C282.924 809.354 279.96 804.853 278.637 800.199L279.438 800.271L279.592 799.76C278.826 798.993 278.253 798.547 278.047 797.45L278.812 796.894L278.838 796.07C278.137 795.591 277.699 795.267 277.144 794.609C277.918 793.758 278.339 793.513 279.484 793.17C282.711 792.204 286.271 792.099 289.568 791.352C293.135 790.545 296.762 789.15 300.345 788.217C305.285 786.931 310.404 786.032 315.28 784.564C315.956 783.685 316.466 782.88 317.454 782.333L318.681 783.447C327.865 781.319 336.944 777.961 346.12 775.631C349.024 774.894 357.241 773.992 359.393 772.374C359.599 772.219 359.758 772.01 359.945 771.833C360.163 771.629 360.391 771.434 360.61 771.23C362.139 769.805 374.341 767.875 377.36 766.936C379.612 766.235 379.476 764.544 381.805 764.032C386.692 762.957 391.974 762.848 396.747 761.369C401.975 759.749 407.089 757.321 412.308 755.574C414.289 754.911 417.403 754.637 419.15 753.74C420.718 752.936 421.276 751.182 423.246 750.554C428.246 753.98 439.166 767.198 441.497 772.696C442.074 774.059 442.175 775.708 442.692 777.154C443.645 777.941 443.503 777.73 444.641 777.65C445.823 778.642 446.131 780.136 446.582 781.561C447.833 785.512 454.089 791.171 456.76 795.026C458.566 797.632 459.024 801.205 460.944 804.219Q467.849 815.025 475.115 825.592C476.753 827.985 479.08 830.083 480.493 832.576C481.136 833.711 481.505 835.065 481.809 836.328C482.606 839.638 485.556 842.118 487.758 844.633C488.523 845.507 488.966 845.908 489.257 847.099L488.324 847.626C488.118 848.176 487.937 848.718 487.64 849.231C486.764 850.743 483.964 852.142 482.187 852.198C481.081 852.233 480.952 852.398 479.941 852.948C479.697 852.985 479.454 853.024 479.209 853.058C478.876 853.104 478.536 853.115 478.207 853.188C474.644 853.981 470.908 855.794 467.392 856.907C460.812 858.989 454.109 860.676 447.523 862.733C445.318 863.422 442.968 864.832 440.811 865.329C440.541 865.391 440.259 865.372 439.983 865.394L439.567 864.794L439.002 865.644C437.839 866.104 438.078 865.971 437.017 865.55C435.417 865.658 434.685 865.858 433.553 867.026C430.721 869.952 422.699 870.552 418.672 871.332L418.491 871.851L418.827 872.699C417.261 873.232 417.483 872.05 416.179 872.268C413.652 872.689 412.572 875.117 409.701 874.807C405.516 874.354 405.275 877.112 401.712 878.013C398.001 878.95 392.517 878.374 389.422 880.735C388.637 881.333 388.297 881.715 387.289 881.913L385.964 880.641C383.41 881.153 382.015 883.825 379.677 884.737C378.183 885.32 375.93 884.383 374.226 884.692C370.417 885.381 366.165 887.951 362.657 889.624L362.707 888.661C361.719 888.126 360.987 888.907 360.115 889.49C358.839 890.343 354.095 893.808 352.815 893.318C351.517 892.82 351.766 892.11 350.154 892.167C350.031 892.516 349.914 892.867 349.776 893.211C348.801 895.645 347.832 892.556 346.323 893.703C345.317 894.468 346.193 895.156 344.542 895.815L342.599 894.585C339.034 894.645 340.21 897.221 338.217 897.889C337.038 898.285 334.828 897.326 334.142 897.662C333.12 898.162 333.411 899.447 331.726 899.992C328.486 898.134 328.1 900.827 325.017 901.395L324.249 900.266C321.957 900.373 318.33 903.289 316.436 904.64Z"/>
	<path fill="#45B0CA" d="M450.115 806.416C450.747 806.902 451.502 807.247 451.785 807.999C453.45 812.422 457.143 816.656 459.739 820.616C464.627 828.076 469.435 835.486 473.933 843.191C474.734 844.563 476.68 846.869 477.093 848.311C477.493 849.71 476.438 850.117 477.425 851.757C478.375 852.059 479.343 852.13 479.941 852.948C479.697 852.985 479.454 853.024 479.209 853.058C478.876 853.104 478.536 853.115 478.207 853.188C474.644 853.981 470.908 855.794 467.392 856.907C460.812 858.989 454.109 860.676 447.523 862.733C445.318 863.422 442.968 864.832 440.811 865.329C440.541 865.391 440.259 865.372 439.983 865.394L439.567 864.794L439.002 865.644C437.839 866.104 438.078 865.971 437.017 865.55C438.009 865.37 437.49 865.537 438.545 864.965C438.108 864.786 437.468 864.538 437.073 864.311C434.131 862.621 432.799 856.333 431.82 853.25L431.115 853.104L430.115 852.91C423.562 841.636 414.591 830.436 410.613 818.001C416.334 815.18 423.881 814.229 430.081 812.71C436.926 811.033 443.551 809.011 450.115 806.416Z"/>
	<path fill="#F83123" d="M398.422 796.104L396.665 795.186C396.448 793.627 387.624 780.587 385.999 777.774C389.441 774.497 416.994 765.696 423.042 764.6C424.244 764.382 424.379 764.324 425.346 764.983C425.547 768.511 427.652 766.729 428.362 768.983C428.859 770.563 428.866 771.033 430.023 772.263C430.128 772.375 430.237 772.484 430.344 772.594C430.264 772.674 430.158 772.735 430.103 772.835C429.093 774.676 434.993 778.308 436.016 781.272C435.721 782.847 435.292 782.88 434.06 783.832C432.803 784.179 431.552 784.538 430.288 784.858C426.689 785.769 423.292 787.446 419.83 788.778C415.015 790.63 410.107 792.276 405.237 793.978C403.142 794.71 400.62 795.914 398.422 796.104Z"/>
	<path fill="#8FC9E3" d="M404.398 855.269L405.246 854.911C406.291 855.391 406.611 855.722 407.206 856.703C407.058 857.289 406.896 857.844 406.694 858.415L406.491 858.972C406.982 859.493 407.446 860.013 407.91 860.558C405.835 864.378 397.629 864.047 393.832 865.292L394.032 865.797L396.244 866.154L394.508 866.684C393.315 866.282 392.128 865.797 390.847 866.021C388.405 866.448 385.702 867.89 383.303 868.658C374.164 871.581 363.98 875.698 354.565 877.17L353.266 876.073C352.484 876.226 352.239 876.39 351.686 876.975C350.918 877.786 350.146 878.883 349.076 879.305C345.074 880.882 339.323 881.229 335.025 882.124C334.199 882.57 334.302 882.548 333.552 882.852C331.659 883.619 330.048 884.046 328.129 883.072C327.366 882.685 326.502 881.877 326.333 881.013C326.108 879.863 326.382 879.215 327.121 878.317C328.056 877.181 329.715 876.435 331.071 875.971C343.451 871.739 356.813 869.075 369.45 865.54C376.543 863.556 395.772 856.332 401.664 856.258C402.957 856.242 403.364 856.043 404.398 855.269Z"/>
	<path fill="#8FC9E3" d="M389.528 817.626C391.135 818.64 392.864 819.374 393.497 821.218C392.675 822.793 392.189 822.865 390.661 823.679L390.476 825.375C390.247 825.536 390.045 825.744 389.789 825.858C386.943 827.129 382.132 826.602 378.946 827.483C365.928 831.08 352.802 834.902 339.882 838.849C337.292 839.64 331.713 842.39 329.384 842.517C329.316 842.521 328.244 842.229 328.239 842.228C328.014 842.157 327.794 842.071 327.573 841.989C326.629 841.638 323.737 843.686 322.578 844.176C321.789 844.509 321.225 844.774 320.482 845.23C319.037 845.915 316.459 846.66 314.913 846.042C312.909 845.242 312.559 842.346 312.105 840.503C317.037 838.237 322.772 836.89 327.966 835.274C337.226 832.394 346.543 829.653 355.916 827.18C367.184 824.207 378.589 821.748 389.528 817.626Z"/>
	<path fill="#8FC9E3" d="M398.067 842.145L399.946 843.033C400.757 844.269 402.183 845.947 402.268 847.417C398.731 849.074 390.22 852.378 386.521 852.409C386.035 851.749 385.874 851.504 385.13 851.11L384.976 852.451C382.402 855.556 370.361 856.859 365.861 858.223C363.009 859.087 360.296 860.717 357.397 861.674C347.576 864.915 337.47 867.8 327.46 870.403C326.494 870.654 325.878 870.73 324.889 870.586C323.614 869.688 322.537 869.096 321.992 867.553C322.284 866.277 322.538 865.783 323.661 865.042C327 862.838 342.981 858.486 347.429 857.522C349.972 856.971 352.641 857.49 354.78 855.915C358.08 853.485 391.577 844.171 398.067 842.145Z"/>
	<path fill="#8FC9E3" d="M394.865 830.516C395.73 830.604 396.024 830.399 396.583 831.145C397.629 832.544 397.833 833.593 397.56 835.29C397.2 835.636 396.919 836.09 396.48 836.329C394.746 837.273 391.126 837.415 389.052 838.013C383.731 839.546 378.274 842.231 372.91 843.321C370.748 843.761 368.208 843.668 365.994 843.747C365.52 844.385 365.033 845.005 364.538 845.626C357.39 847.85 349.59 848.033 342.611 850.466C336.916 852.451 325.857 858.525 320.089 858.681C319.046 858.71 319.447 858.815 318.659 858.086C319.474 857.042 319.921 856.954 321.168 856.444L320.918 855.995C320.297 855.997 319.904 856.009 319.261 855.958C317.963 855.856 317.519 855.743 316.719 854.724L316.995 853.052C320.818 851.254 341.268 844.417 344.233 844.288C345.313 844.241 345.953 845.753 347.361 845.957C347.806 845.123 348.245 844.388 348.826 843.643C353.366 841.739 358.224 840.756 362.914 839.287C372.072 836.419 380.876 832.332 390.596 831.425C391.958 831.298 393.107 831.079 394.414 830.664C394.565 830.617 394.715 830.565 394.865 830.516Z"/>
	<path fill="#8FC9E3" d="M373.855 782.355L374.236 782.577C374.153 783.758 374.189 785.954 373.636 787.002C373.014 788.18 371.098 788.994 369.919 789.464C359.314 793.691 345.016 796.553 333.731 799.495C324.293 801.955 315.073 805.084 305.461 806.84C303.461 807.206 298.934 808.507 297.239 807.34C296.812 805.808 296.497 804.657 296.705 803.039C298.929 801.113 309.622 800.218 313.493 798.853C319.18 796.848 325.492 794.515 331.348 793.076C336.594 791.786 342.118 791.234 347.355 789.889C348.735 789.535 349.222 788.347 350.673 787.902C357.929 785.673 366.306 782.787 373.855 782.355Z"/>
	<path fill="#8FC9E3" d="M381.017 804.714C381.992 805.16 381.646 805.07 382.52 805.263C383.233 805.42 383.98 805.532 384.673 805.771C385.871 806.186 386.486 806.497 386.99 807.694C386.913 807.842 386.854 808.001 386.759 808.139C384.817 810.954 356.367 818.113 351.3 819.03C350.807 818.59 351.114 818.813 350.329 818.436L350.181 819.276C349.391 819.77 348.546 820.064 347.639 820.267C346.228 820.582 345.11 820.133 343.961 819.349C342.703 818.491 342.237 817.688 342.007 816.215C344.726 812.751 373.941 807.285 380.151 805.039C380.441 804.934 380.728 804.823 381.017 804.714Z"/>
	<path fill="#8FC9E3" d="M376.375 793.714C376.769 793.648 377.4 793.523 377.786 793.548C379.045 793.629 379.245 794.062 379.935 794.983C380.167 796.192 380.331 797.263 379.584 798.355C378.547 799.871 376.683 799.494 375.042 799.607L374.108 801.127C372.507 801.588 372.618 800.356 371.071 800.253L370.065 802.055C367.706 803.333 364.926 802.502 362.467 803.324C358.762 804.564 347.333 809.302 344.266 809.356L343.435 809.34C342.804 810.045 342.17 810.724 341.492 811.383L340.627 810.933C340.002 809.426 339.448 808.18 339.405 806.517C341.461 801.444 354.12 800.173 358.958 797.62C359.174 797.506 359.387 797.386 359.602 797.268C363.586 799.008 371.703 794.356 376.375 793.714Z"/>
	<path fill="#C29998" d="M312.08 814.473C314.083 814.728 315.785 815.251 317.174 816.77C319.077 818.851 319.481 820.267 319.318 823.068C318.677 824.676 317.354 825.26 315.949 826.116C315.627 826.09 315.305 826.07 314.983 826.039C312.728 825.824 310.786 824.817 309.404 822.989C308.433 821.703 308.02 820.111 308.354 818.52C308.818 816.312 310.289 815.501 312.08 814.473Z"/>
	<path fill="#C29998" d="M324.204 811.876C326.15 812.188 327.713 812.629 328.812 814.412Q328.943 814.623 329.051 814.847Q329.16 815.07 329.244 815.304Q329.328 815.538 329.388 815.779Q329.447 816.02 329.481 816.266Q329.515 816.513 329.524 816.761Q329.532 817.009 329.514 817.257Q329.496 817.505 329.453 817.75Q329.409 817.994 329.34 818.233C328.757 820.327 327.363 821.21 325.53 822.16C323.761 821.976 322.086 821.931 320.678 820.726C319.759 819.939 319.208 818.788 319.312 817.566C319.545 814.844 322.158 813.197 324.204 811.876Z"/>
	<path fill="#DEF6EC" d="M556.484 682.492C558.411 683.807 561.421 683.39 563.759 683.449C565.87 683.502 566.941 683.604 568.802 684.666C570.139 685.43 571.121 685.975 572.702 685.906C575.69 685.776 579.568 685.671 582.43 686.501C585.245 687.317 587.666 689.105 590.647 689.504C594.521 690.022 598.922 689.407 602.652 690.546C606.065 691.588 609.526 693.653 612.97 694.392C615.29 694.89 617.868 694.078 620.025 695.224C621.639 696.081 623.33 696.812 624.981 697.596L626.217 696.719C629.129 697.633 631.907 698.904 634.818 699.815C636.825 700.444 641.974 701.092 643.459 702.151C644.456 702.863 643.609 703.13 645.202 703.674L646.189 702.818C647.95 702.449 648.737 704.385 650.138 705.323C651.392 706.162 654.326 706.369 655.846 706.606C659.441 707.166 662.107 709.725 665.422 710.268C666.591 710.459 665.881 710.262 667.078 710.711C665.114 714.033 664.051 718.079 662.228 721.559C657.027 731.485 651.152 740.894 646.391 751.087C643.697 750.739 645.171 756.031 644.019 757.481C643.443 758.207 641.617 759.2 640.812 759.777C639.289 764.14 637.441 768.534 635.498 772.73L634.193 772.61C633.177 774.09 633.728 775.557 633.29 777.291C633.017 777.303 632.744 777.337 632.47 777.327C632.14 777.315 631.812 777.258 631.483 777.224L630.977 778.494C631.007 778.661 631.039 778.828 631.068 778.995C631.213 779.849 631.465 780.89 631.175 781.734C629.611 786.282 625.351 792.907 622.549 796.927C623.296 802.315 622.477 800.239 619.906 803.969C621.847 806.239 616.186 809.133 616.472 813.611C616.727 817.62 609.752 825.829 608.116 830.417C607.84 831.19 607.676 831.134 607.012 831.569C602.496 831.829 598.075 828.756 593.938 827.122C590.146 828.076 588.653 824.317 584.278 826.339L583.983 824.66L583.134 824.488C582.34 824.897 581.542 825.279 580.734 825.658C579.293 824.963 579.984 824.091 578.751 823.173L577.539 824.433C575.21 824.261 573.329 822.764 571.077 822.269C569.948 822.022 569.642 823.154 568.131 822.959Q567.089 822.063 566.005 821.22C564.268 819.89 563.137 819.992 561.099 820.248L560.867 821.562C559.442 821.518 559.42 819.962 556.84 819.342C554.637 818.813 543.271 817.542 542.332 816.596C541.376 815.634 542.194 815.119 540.584 814.433C539.268 814.905 537.999 815.567 536.586 815.221C536.431 814.836 536.179 814.168 535.964 813.832C535.315 812.818 534.827 812.788 533.739 812.526C527.188 816.067 527.647 810.806 523.39 810.54C521.449 810.419 520.206 811.94 518.141 811.355C517.387 810.453 516.372 808.984 515.236 808.584C508.752 806.301 505.228 809.488 497.658 803.482C497.048 802.998 497.43 803.145 496.576 803.107L495.714 803.65L495.113 802.939C495.299 802.661 495.544 802.416 495.671 802.106C496.186 800.848 494.386 800.108 493.969 798.789C496.431 796.296 494.455 797.224 494.634 794.854C495.636 793.941 496.793 793.149 497.126 791.778C496.966 791.604 496.517 791.135 496.425 790.941C495.528 789.055 501.221 781.797 502.313 779.438C502.088 778.55 502.253 778.815 501.754 778.153C501.646 778.009 501.528 777.874 501.415 777.734C502.167 775.831 503.902 775.197 505.045 773.669C506.125 772.224 504.865 771.234 505.247 769.946C505.888 767.783 507.59 766.196 508.119 763.757C507.272 763.292 507.661 763.552 506.944 762.989C507.55 761.985 508.363 761.564 509.335 760.971C511.199 759.833 512.057 753.186 512.843 750.952C513.888 747.984 516.351 744.937 517.821 742.096C522.014 733.991 524.696 724.779 530.62 717.647C530.834 717.388 531.056 717.137 531.274 716.882L530.516 715.749C530.749 710.847 544.77 697.597 545.606 692.339C546.074 689.398 546.833 691.145 548.606 689.575C548.464 688.756 548.361 688.009 548.368 687.176C550.824 685.482 553.569 684.373 556.078 682.758L556.484 682.492Z"/>
	<path fill="#45B0CA" d="M589.663 755.471C592.914 756.239 596.078 757.495 599.3 758.406C606.83 760.536 614.672 762.379 621.873 765.459C622.181 766.423 622.061 767.127 621.67 768.06C620.411 771.07 618.261 773.905 616.912 777.012C610.47 791.853 604.456 806.842 597.705 821.557C596.516 822.439 594.33 822.133 592.869 822.121C592.47 821.874 591.931 821.527 591.521 821.333C589.568 820.409 588.617 821.102 586.768 821.853C584.49 821.291 585.198 819.718 583.2 818.933C578.274 816.998 567.477 817.381 563.805 813.976C563.849 810.544 568.425 803.056 569.382 798.507C569.55 797.711 569.73 796.921 569.916 796.128C570.858 796.752 570.391 796.635 571.249 796.683C571.344 796.36 571.443 796.037 571.534 795.712C573.13 790.004 582.748 765.555 585.686 761.661C586.212 762.195 585.914 761.992 586.57 762.284C587.337 761.109 586.836 760.129 587.003 758.856C587.23 757.119 588.42 756.554 589.663 755.471Z"/>
	<path fill="#8FC9E3" d="M559.754 695.261C564.919 697.35 574.556 698.009 580.189 698.478C580.948 699.216 581.728 699.811 582.72 700.215C585.837 701.484 590.697 701.584 594.11 702.354C607.156 705.294 621.477 708.956 633.121 715.641C631.145 716.722 629.424 717.944 627.088 717.606C623.324 717.493 620.292 716.46 616.65 715.773C609.144 714.356 601.496 713.333 594.067 711.566C590.346 710.681 586.758 709.274 583.051 708.386C573.141 706.014 562.748 705.271 553.247 701.216C556.359 699.538 558.156 698.534 559.754 695.261Z"/>
	<path fill="#8FC9E3" d="M508.897 787.472C510.376 788.23 512.043 789.482 513.587 789.985C517.497 791.26 526.718 789.781 529.186 792.729C529.508 793.114 552.715 798.667 556.245 800.217C558.339 801.137 559.228 801.744 560.072 803.901C554.08 806.332 512.941 797.215 505.609 794.474C506.942 792.19 507.929 789.924 508.897 787.472Z"/>
	<path fill="#8FC9E3" d="M522.318 762.561C531.103 763.609 542.43 765.698 550.929 768.225C553.551 769.004 555.952 770.277 558.524 771.082C560.947 771.841 563.095 771.533 564.999 773.539C565.085 774.714 564.984 774.767 564.342 775.772C562.991 776.112 561.539 776.543 560.136 776.434C553.832 775.945 546.953 773.667 540.73 772.37C533.287 770.819 525.54 770.041 518.287 767.763C519.78 766.088 521.124 764.464 522.318 762.561Z"/>
	<path fill="#8FC9E3" d="M519.16 775.585C524.581 774.557 546.356 782.122 552.459 784.258C553.239 783.801 553.79 783.617 554.683 783.478C556.445 784.313 557.818 785.462 559.273 786.737C560.675 787.966 561.799 788.851 561.915 790.744C560.907 791.412 560.56 791.115 559.397 790.986C544.461 786.528 527.436 785.574 513.398 778.694L519.16 775.585Z"/>
	<path fill="#8FC9E3" d="M539.601 735.813C540.497 736.162 541.09 736.384 542.065 736.376C545.883 736.345 561.582 740.41 565.985 741.523C568.519 742.164 577.938 746.438 579.091 748.386C578.854 748.602 578.645 748.854 578.38 749.034C576.881 750.055 575.243 749.576 573.621 749.213C562.513 747.402 541.532 743.427 531.414 739.51L531.396 738.501C533.304 735.981 536.308 736.641 539.136 735.933L539.601 735.813Z"/>
	<path fill="#8FC9E3" d="M528.759 748.464C534.616 748.14 540.28 753.537 546.078 752.484C547.268 752.268 547.828 752.196 549.023 752.612C549.415 753.337 549.754 754.037 550.068 754.802L550.368 755.558L551.169 755.743L552.022 754.884C553.342 754.376 554.667 754.723 555.997 755.049C559.899 756.003 569.69 759.251 571.699 762.705L570.733 763.853C566.562 763.322 553.687 761.66 551.315 758.634C551.19 758.474 551.071 758.309 550.95 758.147L549.844 759.157C547.155 759.343 527.574 754.392 523.994 753.069C525.491 751.443 527.143 749.969 528.759 748.464Z"/>
	<path fill="#8FC9E3" d="M595.413 738.093L596.01 738.157C600.754 742.644 620.794 741.833 628.357 747.691C627.562 749.195 625.594 750.253 624.225 751.259L623.607 751.409C617.519 747.761 597.282 748.897 590.232 742.491C590.7 740.496 593.77 739.117 595.413 738.093Z"/>
	<path fill="#8FC9E3" d="M602.616 724.427L603.002 724.34L604.086 725.421C606.685 725.692 609.01 726.858 611.516 727.536C616.652 728.926 622.024 729.434 627.149 731.063C629.092 731.68 631.167 732.336 632.166 734.24L631.824 735.233C630.323 736.267 630.271 736.504 628.374 736.346C622.028 735.345 599.989 732.439 595.784 727.88C595.566 726.764 595.354 726.105 595.847 725.044C597.958 724.188 599.811 725.215 601.891 724.648C602.134 724.581 602.374 724.501 602.616 724.427Z"/>
	<path fill="#8FC9E3" d="M548.222 711.513C550.997 711.499 569.162 714.777 571.798 715.774C572.824 716.161 573.218 716.886 574.073 717.399C575.352 718.168 576.788 717.861 578.177 717.662C580.034 718.802 581.795 719.878 583.431 721.334L583.422 722.171L582.556 722.533Q580.639 722.517 578.724 722.446C574.629 722.279 570.49 720.917 566.459 720.176C560.759 719.128 554.791 718.696 549.213 717.102C547.712 716.673 546.691 716.488 545.632 715.311C545.894 713.686 547.143 712.669 548.222 711.513Z"/>
	<path fill="#8FC9E3" d="M540.309 724.066C543.528 724.372 546.781 724.265 549.986 724.723C555.478 725.507 576.003 729.495 579.365 732.838C580.056 733.524 579.822 733.79 579.818 734.706C573.643 735.049 545.306 730.518 540.154 727.678L540.309 724.066Z"/>
	<path fill="#DEF6EC" d="M72.2028 825.278C75.8282 821.723 80.8127 818.937 85.0411 816.084C99.7411 806.167 115.023 797.111 130.044 787.69C137.042 783.302 144.894 776.942 152.285 773.824C154.779 776.519 157.123 779.451 160.664 780.745C162.622 780.895 164.02 782.949 165.725 782.497L167.459 780.673L168.07 780.775L167.453 782.446C170.633 786.618 175.667 789.073 179.786 792.303C179.963 792.291 180.139 792.276 180.316 792.266C181.209 792.217 180.895 792.232 181.964 792.312C183.066 793.931 184.161 795.692 185.463 797.155C187.786 799.766 191.651 801.96 194.456 804.122C198.975 807.605 203.533 811.756 207.419 815.935C208.692 815.22 208.751 814.641 209.358 813.344C209.833 813.736 209.833 814.122 210.018 814.697L209.135 815.588C209.214 816.732 209.249 816.883 210.143 817.696C215.567 822.632 234.507 833.199 234.49 841.122C234.487 842.435 234.226 843.409 233.223 844.298C230.172 847.002 229.865 844.915 225.938 849.953C224.34 850.223 223.578 849.196 222.121 849.753L222.058 850.412C221.981 851.161 221.871 851.892 221.746 852.634C220.853 852.721 220.289 851.952 219.966 851.994C218.514 852.182 215.383 856.407 213.718 857.083C213.294 857.255 212.77 857.026 212.352 857.21C211.266 857.688 210.283 859.084 209.165 859.647C207.175 860.647 207.543 858.27 205.781 860.405C205.66 861.603 205.935 862.137 204.938 862.93C203.708 863.908 203.06 863.866 201.576 863.805C200.491 863.76 199.54 863.806 198.62 864.501C198.22 864.804 198.022 865.14 197.747 865.534L198.809 867.075C198.176 867.956 198.386 867.896 197.239 868.284L196.797 866.584C194.776 866.871 193.786 869.681 191.969 869.879C190.537 870.036 189.592 870.044 188.512 871.111L188.39 871.754L189.84 872.844L188.957 873.242L187.524 872.569Q182.765 875.588 177.909 878.447L177.877 879.882L176.846 880.788C176.285 880.617 175.729 880.43 175.179 880.225C171.614 882.365 168.62 886.302 164.39 886.404C162.519 887.627 161.915 889.445 161.149 891.449L160.534 891.45L159.663 890.233C158.698 890.47 141.698 902.199 139.739 903.806C138.579 904.758 137.67 905.768 136.761 906.957C132.042 902.255 128.253 896.818 123.471 892.158C120.406 889.173 119.319 882.88 115.405 881.013C114.663 881.281 113.951 881.562 113.237 881.899L112.85 881.159L115.201 879.923C115.179 878.638 113.536 877.416 112.608 876.511C110.607 874.56 107.3 872.446 105.933 870.068L107.513 869.91C107.177 869.116 107.063 868.9 106.187 868.684C105.858 868.603 105.224 868.603 104.871 868.594C104.876 868.446 104.886 868.298 104.886 868.149C104.886 867.547 104.911 866.926 104.63 866.371C103.517 864.17 92.0658 849.444 89.9012 846.806C86.6275 842.817 80.8908 839.154 79.7093 833.856C76.6186 831.272 74.4113 828.61 72.2028 825.278Z"/>
	<path fill="#F83123" d="M72.2028 825.278C75.8282 821.723 80.8127 818.937 85.0411 816.084C99.7411 806.167 115.023 797.111 130.044 787.69C137.042 783.302 144.894 776.942 152.285 773.824C154.779 776.519 157.123 779.451 160.664 780.745C158.425 784.886 150.667 789.31 146.708 792.012C142.739 794.719 138.302 796.595 134.251 799.176L95.3769 824.355C93.6447 825.465 82.2881 833.513 81.5702 833.684C81.3456 833.737 81.1101 833.723 80.8804 833.747C80.6529 833.77 80.4265 833.803 80.1988 833.824C80.036 833.839 79.8724 833.845 79.7093 833.856C76.6186 831.272 74.4113 828.61 72.2028 825.278Z"/>
	<path fill="#8FC9E3" d="M178.598 817.51C178.923 817.548 179.255 817.547 179.573 817.624C180.601 817.872 181.272 818.281 182.383 818.409C183.352 818.521 184.343 818.575 185.3 818.766C186.604 819.025 188.164 819.598 189.273 820.351C193.348 823.122 204.375 835.401 207.348 839.641C206.27 840.481 205.265 841.341 204.345 842.356C202.108 844.827 178.677 861.282 175.445 862.897C173.613 863.812 171.447 863.98 169.441 864.172C168.847 863.513 168.299 862.688 167.826 861.939C162.11 852.889 151.98 846.905 145.99 838.22C156.304 832.103 165.847 824.565 176.224 818.447C177.688 819.198 179.193 819.866 180.688 820.552L180.649 819.931C180.068 819.347 179.557 818.786 179.056 818.128C178.901 817.924 178.751 817.716 178.598 817.51Z"/>
	<path fill="#16BC74" d="M149.563 802.511C151.055 802.268 153.09 803.408 154.249 804.309C155.451 805.244 156.137 806.87 156.188 808.367C156.282 811.141 154.928 813.761 153.077 815.749C150.858 818.131 147.603 819.973 144.328 820.077C142.212 819.413 138.929 818.742 137.482 816.966C135.811 814.917 136.816 811.223 137.137 808.821C139.665 806.57 141.951 804.078 145.472 803.564C146.907 803.355 148.186 802.96 149.563 802.511Z"/>
	<path fill="#8FC9E3" d="M119.561 822.195C119.704 822.212 119.846 822.245 119.99 822.247C123.413 822.286 124.063 822.564 126.756 824.84C120.019 829.772 112.362 833.32 105.236 837.655C104.468 838.054 103.67 838.395 102.881 838.751C101.302 838.224 100.874 836.88 99.9837 835.509C103.998 831.491 114.028 823.714 119.561 822.195Z"/>
	<path fill="#8FC9E3" d="M128.238 830.896C130.383 831.222 131.934 832.709 133.576 834.012C128.849 838.172 122.962 842.262 117.53 845.441C115.183 846.815 114.066 847.836 111.38 847.133C110.768 848.203 110.643 848.882 109.478 849.402L108.29 848.747C107.633 847.458 107.604 846.885 107.798 845.458C114.328 840.097 121.097 835.4 128.238 830.896Z"/>
	<path fill="#8FC9E3" d="M142.791 852.986C144.415 852.885 145.502 852.914 146.784 854.005C146.939 855.005 147.017 854.786 146.757 855.718C145.758 859.285 132.379 866.812 128.694 868.523C127.642 868.943 127.978 869.012 126.763 868.557C125.99 867.137 125.179 865.736 125.903 864.073C127.853 859.596 138.594 855.297 142.791 852.986Z"/>
	<path fill="#8FC9E3" d="M151.024 859.479C152.701 860.595 154.122 862.28 155.552 863.704C148.535 867.275 142.958 873.112 135.657 876.252L134.884 876.709L133.693 876.375C132.619 875.221 132.455 875.045 132.146 873.513C133.877 868.94 146.61 863.354 150.289 860.148C150.538 859.93 150.779 859.702 151.024 859.479Z"/>
	<path fill="#8FC9E3" d="M136.771 844.783C138.654 845.611 139.967 847.085 141.424 848.496C136.951 852.691 130.926 854.758 126.647 858.807C125.405 859.982 124.112 861.104 122.84 862.247L121.701 862.9L120.871 862.642C119.849 861.378 119.444 860.875 119.307 859.185C120.991 853.043 131.725 849.267 136.376 845.146C136.509 845.027 136.639 844.904 136.771 844.783Z"/>
	<path fill="#8FC9E3" d="M158.883 866.411C160.213 867.496 161.345 869.081 162.265 870.519L161.857 871.159C155.03 874.302 148.914 879.655 142.168 883.238L140.74 883.59C139.991 883.255 139.764 883.104 139.296 882.388C138.917 881.809 138.857 881.882 139.052 881.245C140.373 876.943 154.6 868.389 158.883 866.411Z"/>
	<path fill="#2B464D" d="M207.076 622.405L206.233 623.447C204.901 623.635 181.838 635.266 177.36 636.882C167.743 640.351 146.617 645.994 137.076 640.924C133.777 639.17 137.424 632.186 137.011 629.151C136.864 628.068 135.651 626.911 135.451 625.861C135.302 625.08 135.719 623.26 135.795 622.398C136.259 617.127 136.632 611.457 134.739 606.414C134.662 606.21 134.579 606.009 134.499 605.806C135.228 605.221 135.723 604.74 136.238 603.958L135.843 603.498L134.425 603.943C133.096 599.549 134.24 594.427 134.113 589.896C134.06 587.999 132.361 586.848 132.645 584.776C133.425 584.214 133.811 583.991 134.282 583.13C131.53 579.1 134.04 574.622 132.581 570.236L131.32 570.282C131.418 567.077 132.688 563.915 132.39 560.698C132.056 557.097 130.132 552.783 130.034 549.519C129.928 545.993 132.349 545.083 130.997 541.036C129.702 537.157 133.735 532.104 132.97 528.206C132.706 526.86 132.01 525.537 131.875 524.15C131.664 521.969 133.81 520.59 134.375 518.734C134.773 517.426 134.117 513.822 134.083 512.241C134.82 510.856 134.752 510.919 136.237 510.412C137.441 504.624 138.568 497.487 141.28 492.243C142.563 489.761 144.44 487.865 145.526 485.219C145.296 484.461 145.13 483.762 145.029 482.976L145.612 482.561L146.924 483.74L147.607 483.42L147.175 482.314L147.772 482.994C148.27 474.533 160.264 467.795 160.179 464.097C160.172 463.77 160.135 463.444 160.113 463.117C160.452 462.565 160.782 461.999 161.258 461.548C163.46 459.462 173.916 450.312 176.145 449.645C176.624 449.501 177.758 449.687 178.303 449.701L179.271 448.615C179.054 447.822 178.972 447.191 178.979 446.369C180.323 444.59 182.679 444.183 184.505 442.939C191.48 438.186 197.398 432.219 205.749 429.687C206.631 429.42 207.067 429.966 207.842 430.388C208.054 429.106 207.905 429.71 208.267 428.571C210.046 427.785 211.828 426.791 213.804 426.728C214.478 427.439 214.897 427.831 215.759 428.335C217.646 426.97 219.524 425.657 221.626 424.633C224.005 423.474 226.264 422.808 228.801 423.778C229.742 424.138 230.45 424.34 231.473 424.419L231.426 423.973L229.497 422.933L229.671 422.4C232.279 421.842 231.256 422.687 233.372 423.288L233.159 422.098C234.528 420.964 234.19 422.295 235.494 422.403C236.535 422.488 237.832 421.078 239.402 421.203L239.714 422.683C242.88 421.546 246.178 419.642 249.483 421.005C249.672 421.084 249.859 421.17 250.049 421.247C250.36 421.373 250.675 421.49 250.987 421.615C254.274 422.928 265.052 418.377 269.737 420.926C272.294 422.318 274.564 419.925 277.424 420.649L277.545 422.001C279.576 422.606 281.735 420.434 283.411 421.041C285.14 421.667 285.887 423.335 287.6 424.024C290.25 423.66 291.955 423.501 294.478 424.679C296.064 425.419 297.669 426.116 299.263 426.84C299.523 427.541 299.815 428.192 300.152 428.859L301.526 429.18L302.973 428.222C305.688 428.733 308.443 430.467 310.978 431.587L311.968 430.788C315.303 431.121 328.115 439.923 331.226 442.562C331.073 441.453 331.007 441.942 331.28 441.081C333.371 442.074 333.94 444.832 335.403 446.531C337.505 448.974 340.828 450.654 343.149 453.001C345.492 455.371 346.321 458.725 348.146 461.418C351.827 466.85 355.116 468.145 357.791 474.951C358.829 477.593 361.712 479.077 363.519 481.249L363.072 482.454C364.627 485.388 366.954 488.039 368.754 490.85C370.498 493.573 371.933 496.547 373.412 499.423L374.563 499.464C376.162 501.283 376.631 504.192 377.885 506.287C378.901 507.986 380.812 509.383 382.158 510.855C382.25 510.956 383.461 512.245 383.467 512.333C383.524 513.159 382.575 513.312 383.238 514.211C384.951 516.535 386.979 515.868 388.292 519.212C388.703 520.258 388.849 520.995 389.757 521.711L390.764 521.165C392.679 522.187 392.89 524.988 394.566 526.397C397.005 528.449 400.47 529.928 403.207 531.589C405.815 533.171 408.357 535.269 408.989 538.412C409.796 542.423 406.297 545.941 404.142 549.088C399.201 550.269 399.495 554.4 395.79 557.399C393.238 559.466 390.23 561.027 387.584 562.983C385.755 564.337 384.282 566.138 382.426 567.517C378.422 570.495 373.957 573.053 369.735 575.719C368.646 575.588 369.031 575.705 368.066 575.335C367.851 575.253 367.639 575.162 367.425 575.075C364.281 576.902 360.143 579.334 356.48 579.653C357.164 578.636 357.402 578.765 357.156 577.492C356.11 577.483 355.621 577.488 354.68 578.025C354.453 578.154 354.243 578.309 354.024 578.451C351.747 586.606 345.611 596.036 340.599 602.963C332.155 612.486 321.564 622.286 309.536 627.052C305.798 627.802 302.18 628.874 298.469 629.704C291.51 631.26 284.955 632.32 278.288 634.986C256.031 635.462 234.083 635.019 212.844 627.323C210.297 626.034 208.78 624.715 207.076 622.405Z"/>
	<path fill="#F83123" d="M194.029 590.314C191.12 584.262 190.716 580.286 192.17 573.739C193.42 568.113 196.443 562.936 199.189 557.923C202.247 552.339 205.314 546.582 208.787 541.247C215.411 531.073 225.109 519.387 232.798 509.789C235.405 506.535 237.737 503.007 240.584 499.958C249.344 490.577 258.978 481.531 269.164 473.724C276.599 468.025 285.079 465.175 292.829 460.218C294.256 459.306 294.095 460.239 295.515 460.334C297.177 460.446 302.783 458.802 305.054 458.565C310.052 458.042 327.446 458.581 332.135 459.616C338.992 461.13 345.755 465.623 349.613 471.561C358.401 485.088 363.909 526.462 360.571 542.254C360.882 543.003 361.163 543.741 361.408 544.513C360.035 548.817 353.784 574.838 353.986 577.975C353.997 578.134 354.011 578.292 354.024 578.451C351.747 586.606 345.611 596.036 340.599 602.963C332.155 612.486 321.564 622.286 309.536 627.052C305.798 627.802 302.18 628.874 298.469 629.704C291.51 631.26 284.955 632.32 278.288 634.986C256.031 635.462 234.083 635.019 212.844 627.323C210.297 626.034 208.78 624.715 207.076 622.405C208.456 618.307 227.841 605.931 231.673 596.88C232.376 595.218 232.28 594.129 231.605 592.498C230.404 591.068 228.98 590.904 227.225 590.478C215.727 593.861 205.208 595.517 194.029 590.314Z"/>
	<path fill="#2B464D" d="M318.577 541.484L319.424 541.683C322.392 544.938 322.296 549.849 322.127 554.063C321.608 567.012 317.199 585.79 307.014 594.695C305.138 596.336 302.859 597.565 300.283 597.201C297.043 596.744 293.874 595.286 291.916 592.659C291.045 589.841 289.506 587.229 288.581 584.399C284.895 573.12 282.714 560.607 282.483 548.777C294.36 546.355 307.281 546.19 318.577 541.484Z"/>
	<path fill="#2B464D" d="M338.733 518.03C340.177 518.061 342.099 518.017 343.275 518.981C346.82 521.887 345.906 533.859 346.866 538.993L343.536 545.238C341.839 545.371 340.156 545.442 338.708 544.345C337.547 543.466 336.916 542.019 336.645 540.626C336.161 538.135 336.586 535.41 336.486 532.877C336.341 529.233 335.653 525.46 335.318 521.812C336.375 520.493 337.589 519.274 338.733 518.03Z"/>
	<path fill="#2B464D" d="M251.742 540.515C252.579 540.466 253.4 540.536 254.237 540.581C255.279 541.308 255.87 542.075 256.412 543.209C259.014 548.654 259.108 559.851 257.19 565.436C255.742 566.675 253.627 566.451 251.733 566.654C250.863 566.111 250.217 565.731 249.548 564.934C246.944 561.833 247.401 547.502 247.797 543.305C248.482 541.877 250.387 541.21 251.742 540.515Z"/>
	<path fill="#FFC34E" d="M730.135 454.172C730.301 454.298 730.469 454.42 730.632 454.549C741.507 463.234 748.217 487.902 749.325 501.494C749.545 504.192 749.303 506.708 749.718 509.422C750.067 511.71 749.851 514.265 750.921 516.347L751.494 516.631C752.345 514.434 753.133 512.203 754.168 510.09C755.532 507.305 755.766 502.43 756.508 499.318C758.078 492.73 759.881 486.109 761.818 479.62C765.558 467.085 785.289 438.987 797.116 434.284C798.747 433.636 800.224 433.22 801.991 433.379C803.156 434.096 803.461 434.189 803.725 435.638C804.748 441.24 795.505 451.658 793.336 457.248C797.901 453.194 804.57 445.502 811.043 445.637C812.242 445.662 813.266 445.987 814.123 446.857C815.12 447.87 815.472 449.135 815.366 450.52C814.925 456.314 808.251 462.651 804.107 466.271C809.131 463.49 817.222 457.716 823.174 459.43C824.542 459.824 825.516 460.648 826.079 461.964C826.572 463.114 826.24 464.492 825.699 465.578C824.31 468.365 815.992 475.936 815.809 476.686C815.789 476.769 816.057 478.188 816.045 478.318C815.902 479.814 812.326 483.03 811.411 484.653C805.736 494.723 802.936 514.675 796.691 522.425C796.664 522.637 796.635 522.848 796.611 523.06C796.096 527.648 790.518 555.268 789.037 557.723L787.611 558.66L788.652 560.18L788.355 560.815L786.157 561.207C786.477 561.682 787.685 562.22 787.72 562.291C787.804 562.459 783.341 599.355 782.839 601.923C782.32 604.579 781.531 607.194 780.951 609.843C781.945 610.947 782.029 610.885 781.918 612.41C781.465 618.623 780.148 624.84 779.384 631.026C779.114 633.213 779.393 635.466 778.85 637.597C771.792 637.67 765.419 639.283 758.463 640.075C743.566 641.77 728.625 643.166 713.782 645.29C711.524 645.613 703.521 647.893 702.009 647.687C701.023 647.552 699.336 646.537 698.402 646.078C695.178 647.019 691.971 647.87 688.655 648.424C669.501 651.624 650.061 653.734 630.814 656.304C619.721 657.786 608.373 660.12 597.242 660.966C596.215 661.045 595.634 660.916 594.683 660.572C594.591 660.446 594.516 660.306 594.407 660.194C586.731 652.324 579.916 634.155 574.503 623.919C571.175 617.626 567.297 611.569 563.709 605.416C561.836 602.204 560.27 598.63 558.247 595.54C556.733 593.227 554.672 591.23 553.025 588.988C553.244 588.838 553.474 588.702 553.682 588.537C554.64 587.777 554.045 587.548 553.554 586.651C550.69 581.424 546.478 575.297 543.236 570.108C542.523 568.966 540.939 567.151 540.536 565.938C540.435 565.633 540.821 564.142 540.885 563.735C540.603 562.92 540.394 562.72 539.673 562.225C538.792 561.621 537.294 560.891 536.682 560.008C535.786 558.715 536.35 556.64 535.648 555.197C533.492 550.771 528.622 547.532 526.643 542.897C527.877 540.996 526.033 540.716 525.572 537.44C525.668 537.285 525.751 537.122 525.86 536.976C528.818 532.991 542.308 527.671 547.405 526.571C549.175 529.661 550.461 533.73 552.45 536.525C553.205 536.71 552.903 536.785 553.384 536.545C554.075 536.194 554.869 535.829 555.475 535.347C558.424 533.006 564.8 517.526 569.31 512.451C570.742 510.839 575.481 507.185 576.158 505.505C576.401 504.903 576.411 503.829 576.512 503.159C580.418 500.252 583.84 496.728 587.759 493.819C597.957 486.25 611.085 478.609 623.188 474.404C628.462 472.572 633.988 471.49 639.427 470.276C643.605 469.344 648.846 467.224 653.056 467.428C655.461 467.545 657.687 467.663 659.972 466.791C660.409 465.903 660.528 465.707 661.34 465.064L662.446 466.499C668.677 467.514 677.573 463.628 682.701 464.165C684.134 464.315 684.207 465.369 685.94 465.02L685.419 463.829C686.43 463.396 686.891 464.309 688.153 464.299L688.551 463.188L689.501 463.169L690.195 464.265L690.967 464.431L690.762 463.455C691.93 462.607 698.297 463.421 700.444 463.039C710.372 461.269 720.807 457.957 730.135 454.172Z"/>
	<path fill="#F83123" d="M734.948 568.087C734.945 564.412 748.373 522.863 750.709 519.329C751.538 519.091 752.37 518.882 753.224 518.755C759.079 517.881 774.64 520.124 781.396 520.578C785.361 520.845 789.434 520.412 793.378 520.863C794.715 521.016 795.644 521.608 796.691 522.425C796.664 522.637 796.635 522.848 796.611 523.06C796.096 527.648 790.518 555.268 789.037 557.723L787.611 558.66L788.652 560.18L788.355 560.815L786.157 561.207C786.477 561.682 787.685 562.22 787.72 562.291C787.804 562.459 783.341 599.355 782.839 601.923C782.32 604.579 781.531 607.194 780.951 609.843C781.945 610.947 782.029 610.885 781.918 612.41C781.465 618.623 780.148 624.84 779.384 631.026C779.114 633.213 779.393 635.466 778.85 637.597C771.792 637.67 765.419 639.283 758.463 640.075C743.566 641.77 728.625 643.166 713.782 645.29C711.524 645.613 703.521 647.893 702.009 647.687C701.023 647.552 699.336 646.537 698.402 646.078C695.178 647.019 691.971 647.87 688.655 648.424C669.501 651.624 650.061 653.734 630.814 656.304C619.721 657.786 608.373 660.12 597.242 660.966C596.215 661.045 595.634 660.916 594.683 660.572C594.591 660.446 594.516 660.306 594.407 660.194C586.731 652.324 579.916 634.155 574.503 623.919C571.175 617.626 567.297 611.569 563.709 605.416C561.836 602.204 560.27 598.63 558.247 595.54C556.733 593.227 554.672 591.23 553.025 588.988C553.244 588.838 553.474 588.702 553.682 588.537C554.64 587.777 554.045 587.548 553.554 586.651C550.69 581.424 546.478 575.297 543.236 570.108C542.523 568.966 540.939 567.151 540.536 565.938C540.435 565.633 540.821 564.142 540.885 563.735C540.603 562.92 540.394 562.72 539.673 562.225C538.792 561.621 537.294 560.891 536.682 560.008C535.786 558.715 536.35 556.64 535.648 555.197C533.492 550.771 528.622 547.532 526.643 542.897C527.877 540.996 526.033 540.716 525.572 537.44C525.668 537.285 525.751 537.122 525.86 536.976C528.818 532.991 542.308 527.671 547.405 526.571C549.175 529.661 550.461 533.73 552.45 536.525C553.205 536.71 552.903 536.785 553.384 536.545L555.699 538.133C555.761 539.506 554.997 539.527 555.27 540.957C556.115 545.389 563.273 560.341 566.38 563.316C566.697 563.619 567.33 563.976 567.636 564.189C567.94 564.399 568.218 564.646 568.509 564.875L569.164 565.385L569.383 566.037C569.794 567.226 570.181 568.57 570.931 569.596C573.443 573.036 590.756 591.107 593.86 592.773C595.645 593.731 599.4 594.047 600.756 595.155C601.188 595.508 601.351 596.747 601.784 597.083C603.788 598.633 611.743 600.576 614.511 601.298C616.459 601.806 624.265 602.815 625.081 603.471C626.022 604.227 625.227 604.734 626.749 605.034L627.459 604.13L628.317 604.431C631.609 604.444 639.848 603.425 642.386 603.907C643.57 604.132 644.479 605.037 645.353 605.806C647.595 604.924 649.396 602.83 651.69 601.87C664.362 596.568 679.392 594.651 692.959 596.849C696.267 593.63 711.377 586.837 716.995 582.796C722 579.196 729.556 569.525 734.948 568.087Z"/>
	<path fill="#DEF6EC" d="M734.948 568.087C734.912 569.459 734.035 569.592 734.129 570.889C734.344 573.881 724.548 603.43 722.847 608.384C712.846 603.167 704.593 597.309 692.959 596.849C696.267 593.63 711.377 586.837 716.995 582.796C722 579.196 729.556 569.525 734.948 568.087Z"/>
	<path fill="#DEF6EC" d="M628.317 604.431C631.609 604.444 639.848 603.425 642.386 603.907C643.57 604.132 644.479 605.037 645.353 605.806C645.248 605.902 645.146 606.001 645.038 606.094C641.086 609.463 638.326 613.606 634.834 617.407C632.42 614.5 630.027 611.248 628.385 607.841C627.577 606.164 627.73 606.153 628.317 604.431Z"/>
	<path fill="#2B464D" d="M661.381 528.811L662.001 529.241C662.632 529.224 663.114 529.26 663.689 529.575C664.848 530.21 665.855 531.549 666.216 532.814C668.06 539.265 667.575 555.497 666.32 561.945C665.476 566.276 663.166 572.389 660.896 576.155C657.344 577.429 653.604 579.046 649.79 579.197C644.078 579.423 639.901 576.044 635.921 572.419C630.695 566.462 626.223 558.811 624.056 551.098C623.441 548.909 623.332 546.786 622.583 544.549C621.975 542.731 620.536 538.876 621.72 537.103C624.845 532.425 653.975 531.227 660.499 529.111C660.795 529.016 661.087 528.911 661.381 528.811Z"/>
	<path fill="#2B464D" d="M693.666 504.284C694.93 504.573 695.966 504.941 697.109 505.557C699.388 508.581 700.366 512.276 701.145 515.93C702.157 520.68 704.347 530.111 701.007 534.289C699.814 535.781 698.16 536.468 696.334 536.739Q695.331 535.909 694.432 534.967C689.637 529.933 686.84 518.47 687.054 511.672C687.115 509.739 687.427 507.838 688.995 506.538C689.25 506.327 689.515 506.128 689.773 505.921C690.084 505.671 690.391 505.416 690.705 505.17C691.678 505.243 691.986 505.172 692.897 504.711C693.159 504.579 693.41 504.426 693.666 504.284Z"/>
	<path fill="#2B464D" d="M590.708 511.25C591.713 511.391 592.582 511.957 593.375 512.581C596.73 515.224 598.764 520.034 599.354 524.171C597.404 528.125 599.425 529.72 599.956 533.627C600.303 536.188 599.304 536.587 598.114 538.464C597.344 539.678 597.064 540.187 595.962 541.144C595.684 541.084 595.412 540.964 595.128 540.965C594.097 540.966 593.534 541.381 592.351 541.182C590.372 539.789 589.464 537.73 588.558 535.551C586.379 530.312 583.135 520.084 585.704 514.679C586.797 512.379 588.428 511.943 590.708 511.25Z"/>
	<path fill="#2B464D" d="M540.402 486.218C541.378 484.519 542.065 483.123 542.51 481.209C542.23 480.746 541.954 480.28 541.692 479.805Q542.351 478.889 542.96 477.939L543.424 477.212C545.395 474.168 543.938 472.225 544.533 468.988L545.663 468.536C546.596 466.939 545.839 465.182 546.22 463.477C546.747 461.122 550.56 459.321 550.76 456.472C550.871 454.892 551.265 453.375 551.611 451.826L551.551 452.367L551.858 450.793C552.285 450.629 552.716 450.474 553.134 450.287C555.019 449.441 555.19 447.984 555.881 446.208C555.033 445.691 555.4 445.996 554.765 445.312C557.814 443.237 560.051 441.765 561.81 438.489L561.33 437.97L561.387 437.402C566.974 431.759 578.463 419.884 585.907 417.423L587.053 418.265L588.188 417.862Q588.639 417.19 589.119 416.539C589.842 415.57 590.034 415.043 591.311 414.845L592.103 415.69C594.334 414.072 596.978 412.187 599.563 411.228C604.958 409.226 609.969 408.602 615.442 407.295C622.206 405.679 629.036 402.468 636.184 403.162C636.727 404.158 636.368 403.771 637.207 404.368C639.04 403.634 640.837 402.984 642.743 402.465L643.236 402.866L643.165 403.978L644.338 403.739C644.784 403.004 645.022 402.579 645.709 402.041L646.553 403.411C647.86 404.02 649.354 403.028 650.689 402.542C650.918 403.092 651.169 403.633 651.434 404.167L652.301 403.973L652.706 402.038C653.82 402.547 660.571 404.48 661.514 403.906C662.278 403.443 661.603 402.909 662.88 402.534C663.065 403.6 662.881 403.715 663.745 404.452C665.359 404.305 666.335 403.589 667.68 402.717C668.476 402.201 668.013 402.322 669.012 402.396C669.004 402.971 668.98 403.496 668.884 404.065C668.858 404.221 668.826 404.377 668.797 404.533C670.835 404.424 672.775 403.259 674.686 402.586C676.256 402.034 677.278 402.674 678.661 403.362C679.593 403.826 679.93 404.072 680.983 404.164L681.187 402.622L682.672 402.638C683.667 403.28 684.253 403.779 685.479 403.772L685.871 402.708L686.512 402.451L687.107 403.427C688.225 404.058 691.354 402.953 692.729 402.65C693.71 403.335 694.685 403.918 695.741 404.481C697.612 404.094 696.31 403.297 697.642 402.706C698.108 403.648 697.78 403.302 698.55 403.81L698.346 402.809C700.506 403.239 703.124 403.536 705.31 403.239C709.869 402.619 720.761 397.193 724.678 399.335C726.458 400.309 725.276 403.629 725.612 405.329C725.824 406.396 726.807 406.577 726.875 407.514C727.242 412.564 719.31 420.571 716.238 423.887L717.62 427.524L718.024 427.701L721.466 426.164C722.138 426.511 722.527 426.647 723.292 426.82L724.736 425.123C725.532 425.172 726.208 425.308 726.967 425.536C727.895 425.814 728.041 425.906 728.889 425.416C731.177 424.097 733.288 423.86 735.564 422.783C737.787 421.732 739.232 421.612 741.644 421.662C743.005 421.69 743.396 420.996 744.469 420.193C748.279 417.343 752.29 414.96 757.219 415.657C758.785 417.331 760.028 418.972 761.226 420.926C761.007 422.148 760.822 422.27 759.786 423.072C756.965 425.259 755.282 431.856 753.78 435.238L752.967 434.758C750.851 436.259 749.322 439.249 747.56 441.232C742.438 446.993 736.831 450.544 730.135 454.172C720.807 457.957 710.372 461.269 700.444 463.039C698.297 463.421 691.93 462.607 690.762 463.455L690.967 464.431L690.195 464.265L689.501 463.169L688.551 463.188L688.153 464.299C686.891 464.309 686.43 463.396 685.419 463.829L685.94 465.02C684.207 465.369 684.134 464.315 682.701 464.165C677.573 463.628 668.677 467.514 662.446 466.499L661.34 465.064C660.528 465.707 660.409 465.903 659.972 466.791C657.687 467.663 655.461 467.545 653.056 467.428C648.846 467.224 643.605 469.344 639.427 470.276C633.988 471.49 628.462 472.572 623.188 474.404C611.085 478.609 597.957 486.25 587.759 493.819C583.84 496.728 580.418 500.252 576.512 503.159C576.411 503.829 576.401 504.903 576.158 505.505C575.481 507.185 570.742 510.839 569.31 512.451C564.8 517.526 558.424 533.006 555.475 535.347C554.869 535.829 554.075 536.194 553.384 536.545C552.903 536.785 553.205 536.71 552.45 536.525C550.461 533.73 549.175 529.661 547.405 526.571L546.534 525.466C546.329 522.392 544.628 519.619 543.94 516.6C542.594 510.684 542.2 504.044 542.025 497.986C541.31 497.604 541.065 497.399 540.468 496.783C540.927 496.147 541.113 495.776 541.41 495.013C541.294 494.84 541.17 494.672 541.062 494.493C539.818 492.434 541.589 490.179 542.097 488.055L540.402 486.218Z"/>
	<path fill="#2B464D" d="M422.7 628.309C422.677 628.229 422.68 628.137 422.632 628.069C418.842 622.693 414.503 616.724 411.391 610.941C409.86 608.097 409.097 605.193 410.098 602.02C410.886 599.521 413.431 595.761 415.812 594.607C416.278 595.141 416.456 595.399 417.125 595.676C417.26 595.42 417.402 595.168 417.53 594.908C418.248 593.444 418.632 592.095 420.024 591.12C420.212 590.988 420.408 590.865 420.598 590.736C426.889 586.462 434.998 581.51 442.428 579.786C445.405 579.095 448.816 578.977 451.457 580.714C451.989 581.064 452.267 581.325 452.924 581.414C453.93 581.552 454.916 581.525 455.908 581.83C458.68 582.684 460.289 585.565 461.679 587.878C474.321 595.394 487.114 608.965 490.845 623.496C491.585 626.378 492.068 628.906 493.243 631.684L493.065 633.016L491.994 632.728L491.482 633.564C492.237 633.898 491.808 633.787 492.789 633.809C492.3 635.895 490.611 637.725 489.592 639.601C486.128 643.297 477.987 646.881 475.763 650.506L476.348 651.72L474.995 651.57C470.793 652.01 464.747 657.249 460.836 659.333C457.086 661.332 452.241 662.918 448.017 661.656L447.33 660.167C437.536 653.422 430.541 638.585 423.291 629.07L422.7 628.309Z"/>
	<path fill="#F83123" d="M449.507 588.773C453.798 587.742 457.291 587.722 461.679 587.878C474.321 595.394 487.114 608.965 490.845 623.496C491.585 626.378 492.068 628.906 493.243 631.684L493.065 633.016L491.994 632.728L491.482 633.564C492.237 633.898 491.808 633.787 492.789 633.809C492.3 635.895 490.611 637.725 489.592 639.601L486.274 635.979C482.13 637.041 477.568 640.408 473.311 640.082C471.059 639.909 469.705 638.739 468.315 637.082C471.459 634.861 474.132 632.085 476.871 629.396C471.734 631.16 467.629 632.061 462.177 632.161C461.112 630.653 460.689 629.964 460.841 628.072C462.772 624.525 469.571 622.096 473.067 619.982C467.614 620.679 461.783 622.904 456.315 622.606L455.89 621.786C455.583 620.915 455.172 619.963 455.251 619.015C455.442 616.708 457.753 614.654 459.485 613.354C459.7 613.193 459.92 613.037 460.137 612.879C459.09 611.83 455.916 612.444 454.307 612.127C451.506 611.574 449.426 606.869 448.014 604.601L447.142 602.926C444.692 601.339 442.632 597.597 440.957 595.233L446.048 592.77C447.323 591.595 448.398 590.108 449.507 588.773Z"/>
	<path fill="#DEF6EC" d="M446.048 592.77C448.098 595.335 449.865 596.861 452.857 598.201C451.103 600.191 449.338 601.502 447.142 602.926C444.692 601.339 442.632 597.597 440.957 595.233L446.048 592.77Z"/>
	<path fill="#3C6E85" d="M452.857 598.201C455.367 597.985 459.109 597.394 461.322 598.69C459.235 601.13 452.601 601.966 449.548 603.732L448.014 604.601L447.142 602.926C449.338 601.502 451.103 600.191 452.857 598.201Z"/>
	<path fill="#DEF6EC" d="M450.026 624.88C451.895 623.418 453.642 622.539 455.89 621.786L456.315 622.606C456.901 624.402 457.406 626.069 458.435 627.665L454.325 630.877C452.798 628.956 451.433 626.89 450.026 624.88Z"/>
	<path fill="#DEF6EC" d="M453.323 637.409C455.798 639.778 457.406 642.945 459.014 645.928C456.819 648.037 454.525 649.696 452.02 651.407C449.748 648.409 449.032 645.174 446.3 642.329C448.535 640.431 450.818 638.923 453.323 637.409Z"/>
	<path fill="#DEF6EC" d="M435.621 613.946C437.692 614.768 440.974 621.129 442.442 623.196C440.269 624.396 438.131 625.677 435.98 626.917C434.124 623.65 431.99 620.519 429.246 617.935C431.438 616.744 433.521 615.294 435.621 613.946Z"/>
	<path fill="#DEF6EC" d="M429.848 602.583L430.386 602.7L429.501 604.276C430.255 606.244 431.927 608.074 433.175 609.783C431.539 610.565 428.397 612.599 426.641 612.292C425.605 610.957 424.558 609.623 423.573 608.25C422.629 606.935 422.229 606.129 422.497 604.527C424.464 602.718 427.322 602.741 429.848 602.583Z"/>
	<path fill="#DEF6EC" d="M445.043 608.946C447.179 609.664 450.465 614.172 452.317 615.969L447.27 619.948C445.574 619.447 441.701 613.947 440.109 612.288L445.043 608.946Z"/>
	<path fill="#DEF6EC" d="M459.509 634.134C460.312 633.424 461.185 632.87 462.075 632.276C463.453 634.348 464.749 636.623 466.496 638.402C466.802 639.299 466.892 639.837 466.96 640.76C466.051 642.469 463.964 643.145 462.294 643.962C460.624 641.43 457.355 638.424 457.676 635.259L459.509 634.134Z"/>
	<path fill="#DEF6EC" d="M445.521 627.458C447.365 628.85 448.736 631.277 450.081 633.153L443.267 636.603L442.168 636.154C441.625 633.994 439.843 633.501 439.481 631.335C440.593 629.529 443.652 628.429 445.521 627.458Z"/>
	<path fill="#DEF6EC" d="M436.232 597.07C437.882 597.684 440.696 602.693 441.664 604.308C440.295 604.836 438.977 605.414 437.651 606.042L437.416 606.195C435.709 605.459 433.31 601.189 432.125 599.522C433.416 598.601 434.854 597.857 436.232 597.07Z"/>
	<path fill="#FFC34E" d="M507.54 477.537C505.542 473.549 502.799 469.854 500.573 465.982C498.759 462.824 494.788 455.617 496.364 452.025C496.821 450.982 497.713 450.363 498.794 450.092C510.551 447.14 530.508 479.911 539.878 485.892C540.052 486.002 540.228 486.109 540.402 486.218L542.097 488.055C541.589 490.179 539.818 492.434 541.062 494.493C541.17 494.672 541.294 494.84 541.41 495.013C541.113 495.776 540.927 496.147 540.468 496.783C541.065 497.399 541.31 497.604 542.025 497.986C542.2 504.044 542.594 510.684 543.94 516.6C544.628 519.619 546.329 522.392 546.534 525.466L547.405 526.571C542.308 527.671 528.818 532.991 525.86 536.976C525.751 537.122 525.668 537.285 525.572 537.44C525.654 536.828 525.65 536.997 525.617 536.139C525.519 533.634 522.916 530.926 521.496 528.976C518.665 525.09 515.626 519.889 512.011 516.709C506.088 511.498 496.163 506.999 489.389 501.185C487.296 499.388 484.74 497.155 484.496 494.255C484.894 493.42 484.952 493.032 485.727 492.469C488.797 490.242 495.239 492.272 498.589 492.961C493.676 487.842 487.771 482.118 485.12 475.412C484.135 472.921 483.625 470.852 484.768 468.368C485.357 467.852 485.842 467.407 486.647 467.265C493.226 466.108 502.723 473.678 507.54 477.537Z"/>
	<path fill="#F83123" d="M422.7 628.309L423.291 629.07C430.541 638.585 437.536 653.422 447.33 660.167L448.017 661.656C452.241 662.918 457.086 661.332 460.836 659.333C464.747 657.249 470.793 652.01 474.995 651.57L474.761 652.162C474.183 653.675 473.84 654.887 473.677 656.496C473.068 662.505 466.413 669.904 463.185 675.106C462.025 676.975 460.079 678.294 458.371 679.639C442.407 683.313 428.995 684.032 413.096 686.099C412.887 683.556 413.954 682.799 414.355 680.564C414.76 678.311 414.405 675.677 414.275 673.391C415.035 672.126 415.521 671.154 415.906 669.731L414.882 669.375L414.661 668.627L415.869 667.688C416.166 666.97 416.212 666.591 416.069 665.821C415.007 660.078 418.196 660.671 418.265 656.983L417.102 656.351L417.206 655.822L418.514 655.607C418.454 650.892 419.376 646.543 419.86 641.903C420.064 639.95 419.857 638.001 420.124 636.056C420.744 635.282 421.43 634.488 421.947 633.643C422.671 632.458 422.353 631.386 422.108 630.103C421.949 629.271 422.302 629.031 422.7 628.309Z"/>
	<path fill="white" d="M281.968 201.097C283.764 199.542 285.921 197.926 288.136 197.035C292.338 195.345 296.801 194.753 301.124 193.498C332.779 184.309 365.567 180.288 397.98 174.85C423.982 170.488 449.876 166.289 475.981 162.549C487.44 160.907 498.726 158.918 510.285 157.909C525.294 156.599 539.518 156.959 554.503 157.441C556.975 157.52 561.914 156.724 564.019 158.017C565.582 158.978 566.881 161.403 567.679 162.981C569.048 165.692 578.951 191.468 578.916 192.929C578.902 193.512 578.028 194.4 578.024 194.957C578.007 196.948 580.229 199.306 580.495 201.241C580.656 202.412 580.106 202.71 580.512 204.034C581.54 204.406 582.09 204.564 582.905 205.32C582.814 205.405 581.348 206.6 581.272 206.764C581.222 206.873 581.353 208.113 581.355 208.125C581.771 211.267 582.727 214.512 583.322 217.647L588.868 245.83Q594.671 276.119 599.152 306.632C600.843 318.937 599.865 331.634 600.889 343.965C601.316 349.109 603.785 356.231 601.821 361.196C600.078 361.98 599.716 360.306 597.784 360.859C595.549 361.499 594.112 362.98 591.626 363.276C583.981 364.188 576.403 365.65 568.778 366.709L522.762 373.527C517.595 374.27 512.33 374.453 507.195 375.288C501.399 376.23 495.721 377.829 489.95 378.903C483.736 380.058 477.429 380.715 471.197 381.775C465.263 382.785 439.557 388.823 435.993 387.865C432.504 392.022 429.107 396.748 425.188 400.48C419.698 405.711 412.302 410.682 405.873 414.705C403.069 416.459 398.307 417.204 397.645 417.761L398.475 418.165C396.902 419.314 394.592 420.763 392.55 420.236C391.618 419.995 390.899 419.508 390.56 418.578C390.238 417.699 390.229 416.416 390.128 415.474C391.991 412.96 394.006 410.422 395.424 407.624C396.72 405.066 398.395 398.848 400.308 397.16C400.271 396.306 400.186 395.459 400.29 394.61C393.738 394.105 386.451 396.181 379.996 397.323L353.686 402.034C346.746 403.292 339.589 404.047 332.717 405.592C326.236 407.048 319.848 410.09 313.137 410.258C309.091 410.359 305.427 407.954 302.541 405.332C302.899 395.553 300.274 381.078 299.318 370.772C298.371 360.57 298.093 350.309 297.106 340.122C296.376 332.584 294.959 325.113 294.031 317.596C292.561 305.69 291.486 293.717 289.96 281.821C287.592 263.371 284.912 245.124 283.215 226.58C282.439 218.099 281.324 209.615 281.968 201.097Z"/>
	<path fill="#F83123" d="M344.422 368.455C342.084 368.115 338.39 367.781 336.648 365.94C335.713 364.952 335.764 364.611 335.847 363.365C336.608 362.069 337.271 361.363 338.465 360.445C338.591 360.348 338.719 360.253 338.846 360.158L338.281 359.611L336.275 360.236C333.869 358.848 336.435 354.448 334.827 351.934C334.453 351.35 334.076 350.779 333.712 350.189L335.501 349.475L335.915 348.431L335.545 347.82L334.54 348.084C333.796 347.598 333.881 347.346 333.598 346.535C334.605 346.287 334.6 346.485 335.231 345.573L334.763 344.162L333.871 344.789C333.472 343.979 333.297 343.848 333.353 342.904C333.43 341.624 334.267 340.244 334.367 338.805L333.697 338.188L331.841 338.612C331.51 336.966 333.403 336.757 333.304 334.759C332.152 334.748 332.69 334.792 331.689 334.652L333.658 332.82C332.843 332.315 333.209 332.459 332.25 332.213C332.02 332.154 331.789 332.104 331.558 332.05C331.39 330.466 331.589 328.463 332.505 327.111C332.66 326.882 332.83 326.663 332.992 326.439L332.485 325.931C331.186 326.36 331.404 326.51 330.778 327.643L330.435 327.534C329.648 324.844 331.01 325.301 331.468 323.266L330.348 322.911L330.466 321.71L331.735 321.95C331.995 320.194 330.014 319.313 330.123 316.977C330.188 315.597 331.16 310.952 330.498 310.053L329.283 310.32C329.034 309.409 328.931 309.095 329.106 308.14C330.104 308.731 329.601 308.599 330.576 308.659C331.334 307.561 331.736 307.041 331.807 305.661C330.913 305.711 330.47 306.282 329.764 306.804L329.39 305.71C329.92 304.729 330.19 304.218 330.358 303.094L328.993 302.987C328.804 302.011 328.664 301.082 328.602 300.089L330.355 298.966C329.843 296.505 327.551 294.393 327.358 292.027L328.767 292.031L329.046 291.095C328.634 289.849 328.281 288.594 327.431 287.565C327.26 287.357 327.079 287.157 326.903 286.954L327.213 286.382L328.725 286.796L329.105 286.432C328.635 285.463 327.765 285.148 326.87 284.58L326.827 283.912L328.489 284.066L329.06 283.429L328.991 282.568L327.074 282.378C326.781 281.389 326.779 281.295 327.083 280.31C327.963 280.103 328.316 279.976 329.106 279.473L328.769 278.952L327.166 279.189C326.84 277.894 326.621 277.535 326.974 276.218C327.328 276.084 327.911 275.872 328.23 275.703C331.118 274.175 328.155 270.278 328.983 267.745C329.078 267.457 329.249 267.192 329.304 266.893C329.577 265.412 328.55 265.888 327.938 264.708C328.864 263.199 329.383 262.248 329.497 260.465C328.88 259.839 329.174 260.041 328.375 259.627C328.186 259.528 327.992 259.438 327.801 259.343L327.497 258.036L327.708 257.846L329.072 258.377L329.359 257.978C329.128 256.775 328.95 255.546 328.925 254.318C328.881 252.072 332.222 249.035 333.779 247.437C336.429 244.717 342.648 239.046 346.252 238.991L346.341 239.914C348.404 239.887 347.634 238.115 349.422 237.655L349.501 239.3L350.21 239.497C351.491 238.721 351.969 238.048 352.69 236.789C352.771 236.647 352.849 236.504 352.929 236.361L353.687 236.421C353.57 237.409 353.508 237.885 353.767 238.866C354.875 238.872 354.796 239.037 355.746 238.312L355.467 236.281C356.908 235.921 357.656 236.494 359.016 237.03C360.705 236.553 359.079 235.985 360.087 234.659L361.599 234.641C362.275 235.242 362.455 235.425 363.361 235.654L365.555 233.674C366.412 234.357 366.895 234.857 368.024 234.907L368.395 234.292C367.417 233.794 367.101 233.822 366.545 232.833C368.176 232.21 369.969 232.101 371.695 231.859C371.624 232.71 371.626 232.973 371.905 233.816C373.017 233.831 373.609 233.671 374.614 233.201C374.035 232.579 373.893 232.461 373.693 231.602C374.471 231.231 375.186 230.923 376.028 230.72C378.75 230.065 379.902 230.553 382.265 231.962L382.855 232.32L383.67 231.942L382.694 230.854L382.999 230.064C383.41 229.823 383.515 229.732 384.038 229.592C386.35 228.973 388.676 229.136 390.733 230.306C391.384 230.676 391.572 230.515 392.297 230.425L393.27 228.839L394.306 228.75C394.88 229.519 395.084 229.704 395.947 230.232L397.362 229.727L396.802 228.804L397.104 228.193C398.819 228.054 399.444 229.405 401.227 229.067L401.803 227.724C404.486 226.852 407.984 229.129 411.041 228.29C412.396 227.919 412.709 226.415 414.267 225.9L415.757 226.809C424.543 224.536 434.273 222.924 443.269 221.633C443.35 221.888 443.502 222.131 443.512 222.399C443.524 222.726 443.392 223.043 443.331 223.365L443.789 222.83C447.32 222.909 451.502 219.362 455.177 219.865C455.966 219.973 456.827 221.345 457.352 221.948L458.025 221.524L458.291 219.743C459.639 218.932 462.484 219.989 464.301 219.005L464.518 217.934C468.101 216.889 475.443 218.166 478.256 216.135C478.448 215.996 478.627 215.841 478.812 215.694C480.057 215.885 479.963 216.003 480.733 217.027C480.8 215.822 480.672 216.397 481.104 215.301C487.633 213.742 493.805 212.79 500.349 214.841C500.526 214.896 500.702 214.956 500.878 215.013C501.775 214.664 501.47 214.893 502.142 214.184C502.302 214.017 502.451 213.84 502.605 213.667C506.199 213.729 509.763 213.574 513.352 213.396C513.288 214.477 513.172 213.982 513.655 214.889C525.092 212.779 524.162 220.141 532.631 223.144C537.633 224.917 535.871 228.448 538.486 231.711C540.253 233.917 538.177 233.691 538.677 235.945L539.902 235.386C540.791 236.104 540.581 236.147 540.744 237.214C539.763 237.915 540.164 237.485 539.535 238.499C540.396 239.881 540.256 238.676 541.444 239.251L540.368 240.744C540.894 242.058 541.773 241.199 542.47 242.535C541.516 242.814 541.488 242.727 540.751 243.503L540.995 244.58C541.771 244.976 541.502 244.887 542.232 245.103C542.385 245.149 542.539 245.188 542.693 245.231C543.388 247.981 545.137 252.087 543.781 254.716C543.208 255.825 543.316 255.249 543.343 256.341L545.548 256.735L546.088 257.544C545.733 257.949 545.388 258.362 545.053 258.783C547.013 268.964 547.991 279.428 551.245 289.327C551.539 290.222 551.265 290.371 550.92 291.217C551.08 291.48 551.235 291.745 551.399 292.005C553.395 295.165 551.133 297.503 551.725 300.728L553.087 300.654L553.505 301.263C553.295 308.909 553.265 314.315 554.765 321.905C555.21 324.157 556.532 328.451 555.499 330.507C551.928 333.375 544.82 331.324 540.35 331.816C537.28 332.155 534.445 333.979 531.37 334.176C528.525 334.359 526.054 333.548 523.208 334.329C522.38 335.26 521.594 336.22 520.369 336.642C518.548 337.269 516.548 336.874 514.907 335.953C511.624 334.11 496.171 340.325 491.633 339.39C492.043 338.802 492.249 338.424 492.515 337.737C488.868 337.734 476.585 343.02 474.892 342.567C474.758 342.531 473.515 341.736 473.419 341.723C471.697 341.49 467.454 343.187 465.546 343.542C461.905 344.219 458.161 344.391 454.55 345.257C453.286 345.561 451.148 345.894 450.607 347.174C449.312 350.234 449.416 356.154 448.573 359.707C446.168 369.855 441.215 378.954 435.993 387.865C432.504 392.022 429.107 396.748 425.188 400.48C419.698 405.711 412.302 410.682 405.873 414.705C403.069 416.459 398.307 417.204 397.645 417.761L398.475 418.165C396.902 419.314 394.592 420.763 392.55 420.236C391.618 419.995 390.899 419.508 390.56 418.578C390.238 417.699 390.229 416.416 390.128 415.474C391.991 412.96 394.006 410.422 395.424 407.624C396.72 405.066 398.395 398.848 400.308 397.16C400.271 396.306 400.186 395.459 400.29 394.61C404.953 388.662 402.714 385.827 405.083 379.776L406.673 379.5C406.709 378.152 405.111 378.424 404.74 376.83C405.636 375.645 406.754 374.805 407.904 373.885L407.937 373.184L406.525 372.506C405.606 370.468 408.714 356.39 409.127 353.118C404.925 351.499 370.028 360.026 363.523 361.875C357.149 363.687 350.511 365.836 344.422 368.455Z"/>
	<path fill="white" d="M488.489 256.037C490.862 255.76 493.1 256.992 495.034 256.794C496.166 256.678 496.142 256.03 497.563 256.165C498.041 256.669 498.066 256.648 498.477 257.354C500.494 260.822 501.083 269.608 499.979 273.42C499.343 275.618 498.102 277.53 496.019 278.59C493.469 279.889 489.253 279.062 486.726 277.966C485.388 277.385 485.163 276.566 484.625 275.29L486.034 274.361C488.351 274.813 492.206 275.652 494.451 274.691C495.526 274.231 496.146 273.685 496.46 272.531C496.7 271.647 496.586 270.41 496.087 269.68C494.119 270.846 492.428 271.787 490.071 271.531C487.905 271.296 485.708 270.037 484.364 268.325C483.165 266.798 482.774 264.851 483.155 262.961C483.837 259.579 485.652 257.786 488.489 256.037Z"/>
	<path fill="#F83123" d="M489.32 259.901C490.99 259.774 493.183 259.789 494.512 260.979C495.114 261.519 495.428 262.167 495.475 262.956C495.597 265.033 494.489 266.295 493.212 267.764C491.751 267.793 489.996 267.865 488.8 266.877C487.814 266.063 487.356 265.082 487.368 263.805C487.383 262.219 488.374 261.061 489.32 259.901Z"/>
	<path fill="white" d="M369.314 266.664C370.208 266.833 370.572 266.958 371.342 267.367C372.342 268.826 372.397 270.107 372.57 271.846C372.663 272.782 372.824 272.834 373.357 273.567C374.446 273.26 375.549 272.944 376.664 272.746C379.133 272.306 382.491 272.433 384.538 274.094C385.857 275.164 386.533 276.534 386.773 278.191C387.349 282.174 386.189 285.128 383.845 288.249C382.461 289.214 381.339 289.785 379.644 289.962L372.17 290.802C371.56 289.953 371.398 289.246 371.14 288.238C370.548 285.924 367.844 269.651 368.364 268.241C368.576 267.665 368.997 267.19 369.314 266.664Z"/>
	<path fill="#F83123" d="M377.898 276.058C379.568 276.317 380.862 276.626 381.859 278.168C382.526 279.198 382.729 280.349 382.534 281.552C382.13 284.038 380.879 285.338 378.856 286.688C377.196 286.039 375.87 285.43 374.868 283.885C374.049 282.621 373.645 281.118 374.114 279.637C374.726 277.702 376.22 276.909 377.898 276.058Z"/>
	<path fill="white" d="M451.214 289.736C452.494 289.947 453.428 289.789 454.273 290.828C453.785 295.725 453.531 303.42 450.579 307.429C449.892 307.706 449.56 308.055 448.821 307.75C446.242 306.685 444.723 302.183 443.569 299.804C443.061 302.298 442.713 306.54 440.877 308.465C439.925 309.463 439.729 309.551 438.446 309.537C434.969 307.28 432.949 300.828 431.244 297.123C430.763 296.097 430.37 295.466 430.559 294.315C431.561 293.269 431.737 292.981 433.115 292.624C435.032 293.469 437.398 300.655 438.599 303.014C439.157 300.408 439.518 297.518 440.323 295C440.738 293.704 441.264 292.489 442.502 291.819L443.636 292.254C446.032 295.3 447.215 299.234 448.722 302.788Q448.99 299.467 449.615 296.195Q450.239 292.922 451.214 289.736Z"/>
	<path fill="white" d="M427.217 264.153C428.612 263.988 430.062 263.767 431.469 263.807C433.523 263.865 435.194 264.812 436.504 266.366C439.258 269.633 440.053 275.538 439.637 279.691C438.59 280.446 438.472 280.588 437.199 280.633C436.555 279.955 435.985 279.362 435.194 278.858C434.179 279.447 433.155 280.017 432.131 280.59C430.252 281.641 428.916 281.693 426.767 281.687C425.064 280.729 423.524 279.521 422.989 277.532C422.649 276.265 422.673 275.129 423.399 273.991C425.013 271.459 428.195 270.735 430.954 270.374L432.908 270.115L433.683 270.016C434.06 268.793 433.995 269.113 433.5 268.094C431.824 267.215 429.929 267.451 428.16 267.93C427.733 268.046 427.312 268.185 426.881 268.284C425.765 268.542 425.172 268.765 424.142 268.156L424.196 266.897C424.998 265.353 425.681 264.929 427.217 264.153Z"/>
	<path fill="#F83123" d="M433.665 273.116L433.901 272.968L434.834 273.845L435.024 273.244C434.961 273.372 434.901 273.501 434.836 273.627C433.432 276.322 431.415 277.47 428.594 278.359C427.666 277.223 427.302 276.945 427.091 275.458C428.674 273.752 431.431 273.581 433.665 273.116Z"/>
	<path fill="white" d="M420.279 294.538C422.107 294.598 423.618 294.836 425.228 295.771C426.829 296.701 429.304 298.422 429.507 300.466C429.609 301.488 429.211 302.372 428.416 303.019C425.909 305.062 420.69 304.696 417.628 304.733L416.866 305.646L416.971 306.584C417.973 307.532 418.747 307.926 420.068 308.227C422.814 308.854 424.71 307.204 426.975 305.845C427.873 306.946 428.365 307.237 428.439 308.685C427.381 310.068 426.105 311.148 424.492 311.852C422.415 312.758 420.081 312.693 418.027 311.751Q417.577 311.545 417.151 311.293Q416.725 311.041 416.328 310.747Q415.93 310.453 415.565 310.119Q415.199 309.786 414.87 309.416Q414.541 309.046 414.252 308.645Q413.963 308.243 413.717 307.814Q413.471 307.385 413.27 306.933Q413.07 306.481 412.917 306.01C412.218 303.904 412.317 301.434 413.372 299.46C414.881 296.636 417.337 295.43 420.279 294.538Z"/>
	<path fill="white" d="M409.993 266.519C412.828 266.497 415.075 266.713 417.411 268.458C418.614 269.357 419.745 271.027 419.694 272.596C419.521 277.93 411.778 275.533 409.375 278.203C409.798 278.848 409.886 279.157 410.617 279.532C412.243 280.368 413.437 279.922 415.041 279.342C416.28 278.892 417.424 278.542 418.719 278.293L419.143 278.215C419.125 278.62 419.103 279.372 419.032 279.769C418.775 281.204 417.918 282.123 416.771 282.934C415.226 284.025 412.977 284.107 411.2 283.692Q410.65 283.563 410.116 283.377Q409.583 283.191 409.071 282.951Q408.56 282.711 408.076 282.42Q407.592 282.128 407.141 281.788Q406.69 281.448 406.276 281.063Q405.863 280.677 405.492 280.251Q405.121 279.826 404.795 279.363Q404.47 278.901 404.195 278.408C403.263 276.742 402.861 274.782 403.482 272.937C404.487 269.945 407.316 267.904 409.993 266.519Z"/>
	<path fill="white" d="M399.443 297.59C400.455 297.46 401.5 297.303 402.522 297.309C403.897 297.317 405.228 298.017 406.177 298.983C409.446 302.314 409.064 308.468 409.046 312.799C408.338 313.99 408.124 313.827 406.891 314.311C404.121 313.211 405.243 305.06 402.714 302.097C401.114 301.39 400.602 301.568 398.906 301.772C396.214 305.838 397.956 310.171 397.737 314.761C396.881 315.724 396.732 315.857 395.509 316.24C393.5 314.663 393.58 311.68 393.288 309.293C392.945 306.497 391.663 300.397 393.457 298.1C394.635 298.455 394.818 298.888 395.641 299.763C396.609 299.913 398.56 298.202 399.443 297.59Z"/>
	<path fill="white" d="M471.59 257.924C471.761 257.938 471.932 257.949 472.102 257.964C474.195 258.149 475.706 258.538 477.057 260.312C479.314 263.279 481.352 268.794 480.748 272.562C480.488 274.178 479.817 274.614 478.573 275.472C475.691 274.768 477.151 265.758 473.76 262.785C472.421 262.286 471.782 262.421 470.467 262.798C470.322 262.839 470.178 262.885 470.034 262.928C467.413 266.628 468.733 269.058 469.072 273.209C469.198 274.749 469.29 275.362 468.28 276.553L467.084 276.437C466.233 275.776 465.652 275.134 465.327 274.077C464.56 271.582 463.261 262.674 464.243 260.575C465.125 260.214 465.922 259.814 466.889 259.8C468.722 259.774 469.495 259.317 471.037 258.3C471.223 258.177 471.406 258.05 471.59 257.924Z"/>
	<path fill="white" d="M455.592 275.499C456.088 276.522 456.492 277.127 456.273 278.28C453.498 278.434 451.584 275.565 448.763 275.048C447.248 276.076 447.881 277.555 446.523 278.895C445.924 278.856 445.137 279.018 444.728 278.515C443 276.386 442.038 260.899 442.574 257.633C443.327 256.695 443.329 256.72 444.51 256.478C447.088 258.832 446.665 265.441 446.916 268.896C448.442 267.368 449.52 265.513 450.96 263.924C451.95 262.83 452.426 262.323 453.904 262.196L454.86 263.273C453.684 265.903 452.276 267.937 450.465 270.158L455.592 275.499Z"/>
	<path fill="white" d="M462.152 287.981C464.317 288.058 466.468 288.227 468.036 289.891C468.715 290.613 468.522 290.357 468.461 291.404C466.94 292.462 465.117 292.377 463.327 292.413C462.07 292.438 462.228 292.508 461.287 293.198C461.611 295.264 468.718 295.635 471.364 299.363C471.465 300.023 471.692 300.596 471.416 301.238C470.503 303.362 467.586 305.438 465.589 306.423C463.223 306.551 461.301 306.536 459.296 305.114C458.614 303.862 458.51 303.847 458.769 302.464L459.773 301.849C461.46 302.307 463.46 302.785 465.202 302.398C466.273 302.16 465.871 302.394 466.503 301.44C464.878 298.866 460.257 298.638 457.73 296.617C456.559 295.681 456.248 294.873 456.123 293.421C457.107 290.815 459.747 289.146 462.152 287.981Z"/>
	<path fill="white" d="M398.226 268.213C398.53 268.303 398.843 268.367 399.138 268.484C400.771 269.13 401.222 269.784 401.772 271.36C400.907 272.825 398.658 273.439 397.198 274.266C391.114 277.71 397.106 281.82 395.675 286.879C394.424 288.066 393.668 287.94 391.992 288.188C391.208 283.599 388.528 274.28 390.458 270.213C391.631 269.801 391.429 269.887 392.502 270.199C392.891 270.939 393.223 271.515 393.745 272.176C395.19 270.784 396.675 269.486 398.226 268.213Z"/>
	<path fill="white" d="M455.753 263.06C456.22 261.718 456.211 261.694 457.407 260.936C457.991 261.018 458.624 260.927 459.023 261.417C460.78 263.571 461.912 273.049 461.408 275.848C461.223 276.88 461.044 276.98 460.242 277.548C459.146 277.407 458.799 277.411 458.193 276.351C458.005 276.023 457.845 275.433 457.733 275.059C456.748 271.124 456.663 267.027 455.753 263.06Z"/>
	<path fill="#FFC34E" d="M815.977 178.212C827.576 177.603 856.483 180.632 866.866 184.941C872.433 187.251 900.883 201.377 903.503 204.378C903.943 204.882 904.308 205.919 904.548 206.531C904.635 206.754 904.715 206.98 904.799 207.204C905.69 207.339 906.581 207.443 907.477 207.54C929.266 225.386 948.624 253.481 952.894 281.815C954.482 292.357 955.28 316.179 953.887 326.851C951.815 342.726 939.589 375.052 930.266 387.454C929.385 388.627 928.694 389.45 927.223 389.671C927.557 388.624 927.665 388.358 927.462 387.24C923.089 383.848 920.153 379.304 916.011 375.643C913.943 373.816 904.914 367.708 904.322 367.02C903.939 366.574 903.994 365.864 903.643 365.392C903.451 365.133 889.345 358.853 887.425 357.61C886.257 356.854 886.48 358.161 885.202 357.823C883.144 357.278 881.726 355.499 879.82 354.744C878.115 354.068 877.99 355.474 876.77 355.046C872.869 353.676 863.048 349.942 859.253 350.88C858.749 351.005 858.254 351.167 857.746 351.274L857.167 351.391C855.749 351.692 854.604 351.042 853.242 350.597C843.663 353.045 835.725 359.774 829.336 366.975C826.266 370.468 818.728 382.305 814.775 383.152C807.984 380.767 803.45 354.76 800.733 348.079C800.005 346.289 798.988 344.786 797.842 343.25L797.427 342.704C792.64 341.132 788.877 339.79 784.82 336.785L784.315 337.984C782.586 338.338 768.091 333.259 765.035 332.482C748.997 328.403 722.56 325.197 706.145 327.534C702.15 328.103 698.574 329.264 694.787 330.638L688.207 327.922C688.035 323.823 687.889 319.661 688.076 315.562C688.225 312.307 688.992 308.208 688.57 305.024C688.334 303.25 687.074 301.775 687.028 299.86C686.977 297.765 688.569 296.345 689.761 294.749L689.468 293.165C688.631 292.188 687.883 291.223 687.152 290.164C687.157 287.494 688.423 289.974 688.832 288.422C689.387 286.316 688.337 283.748 688.696 281.523C688.977 279.785 690.079 278.192 690.667 276.531C692.853 270.363 694.234 261.625 698.498 256.509C699.728 250.339 703.64 240.087 708.986 236.33C710.375 235.353 709.691 232.736 711.021 231.191C711.778 231.128 712.436 231.034 713.187 230.882L713.384 230.059L711.997 229.419L711.897 228.525C712.35 227.775 712.745 226.653 713.577 226.369L714.246 228.107L714.949 227.525C715.337 225.788 715.689 224.484 716.882 223.129C731.459 206.58 745.384 196.775 765.943 188.642C768.555 187.609 772.039 185.424 774.633 184.942C775.922 184.703 775.719 185.277 776.72 185.394C776.759 185.399 789.978 181.715 792.521 181.253C798.193 180.223 804.024 179.334 809.75 178.639C811.627 178.411 813.605 178.704 815.43 178.351C815.615 178.315 815.795 178.258 815.977 178.212Z"/>
	<path fill="#F83123" d="M840.418 227.955C842.139 228.147 843.843 228.305 845.367 229.197C848.048 230.767 849.611 233.469 850.3 236.438C851.332 240.885 851.602 251.904 849.121 255.729C848.324 256.958 847.382 258.465 847.481 259.966L849.511 257.257L849.412 259.062Q849.048 259.58 848.696 260.107C847.533 261.868 847.516 262.486 847.944 264.519L848.049 264.997C847.507 266.079 847.073 266.957 846.214 267.82C845.584 268.452 845.085 269.033 844.557 269.748L845.588 270.593C844.585 277.311 840.06 284.109 838.504 290.205C838.235 291.26 838.798 292.421 838.446 293.389C837.748 295.307 834.369 297.911 832.596 298.715C830.433 298.281 828.505 297.866 826.475 296.952C823.907 292.608 822.849 285.045 822.555 280.067C823.102 279.189 822.834 279.42 823.595 278.872C824.435 278.268 822.624 274.468 822.564 273.077C822.46 270.652 824.142 267.123 824.812 264.728C824.3 263.769 824.523 264.137 823.936 263.231C823.362 262.344 823.544 262.111 823.586 261.087C824.405 260.617 825.141 260.308 825.662 259.49C826.019 258.929 825.886 259.062 825.665 258.357L824.235 258.51C824.502 255.558 825.854 252.148 826.716 249.29C829.199 241.061 832.487 232.202 840.418 227.955Z"/>
	<path fill="#F83123" d="M827.281 303.355C828.773 303.783 830.109 304.14 831.673 304.139C833.281 304.138 834.247 304.193 835.44 305.341C834.015 308.767 837.196 311.865 835.682 315.689C834.803 317.91 832.663 319.194 830.546 319.985C829.026 320.041 826.821 320.349 825.365 319.943Q825.041 319.849 824.727 319.726Q824.414 319.603 824.113 319.45Q823.813 319.298 823.528 319.118Q823.243 318.938 822.976 318.732Q822.709 318.526 822.463 318.296Q822.216 318.065 821.993 317.813Q821.769 317.561 821.57 317.289Q821.371 317.017 821.199 316.727C820.141 314.935 820.005 312.973 820.508 310.984C821.522 306.971 824.008 305.411 827.281 303.355Z"/>
	<path fill="white" d="M574.171 99.6893L575.149 100.282C575.92 102.287 576.395 103.685 575.619 105.817L574.272 106.199C573.16 105.772 572.575 105.533 571.83 104.585C571.694 102.781 573.187 101.132 574.171 99.6893Z"/>
</svg>
