<?xml version="1.0" encoding="utf-8" ?>
<svg xmlns="http://www.w3.org/2000/svg" xmlns:xlink="http://www.w3.org/1999/xlink" width="1024" height="1024">
	<path fill="#F83123" d="M0 0L1024 0L1024 1024L0 1024L0 0Z"/>
	<path fill="white" d="M479.512 117.551C481.702 117.477 484.144 117.257 486.301 117.655C490.665 118.459 494.994 120.432 499.233 121.756C504.005 123.247 508.921 124.297 513.721 125.703C517.581 126.834 521.354 128.318 525.238 129.351L589.852 145.973C595.998 147.548 602.969 150.978 609.237 151.058C613.877 151.118 616.036 152.461 619.466 155.508L624.577 154.95C631.17 158.144 637.355 158.866 644.249 160.84C653.622 163.524 669.882 169.943 679.006 170.11C679.325 170.115 679.643 170.136 679.961 170.148L680.534 170.163C682.695 171.882 684.487 173.005 687.13 173.886C695.568 176.701 704.353 178.403 712.948 180.639C716.535 181.572 719.936 183.143 723.5 184.166C733.297 186.978 743.378 189.298 753.253 191.868C758.395 193.206 762.492 197.052 767.999 196.469Q769.677 196.281 771.345 196.019C771.541 196.162 771.735 196.308 771.932 196.448C772.969 197.185 774.085 198.015 775.309 198.405C783.926 201.149 792.81 202.813 801.48 205.275L823.891 211.847C826.982 212.768 829.966 214.068 833.073 214.926C837.013 216.015 841.761 215.8 845.196 218.067C850.818 221.779 855.539 220.389 861.625 222.334C864.929 223.39 872.632 223.403 874.671 225.848C873.734 229.704 862.718 250.33 860.395 254.158C858.573 257.162 856.152 259.777 854.425 262.874C851.972 267.273 850.327 272.045 847.66 276.343C844.963 280.69 841.693 284.711 839.112 289.119C836.023 294.394 834.147 300.337 831.101 305.614C827.494 311.864 821.938 318.173 820.444 325.41C826.149 331.559 860.989 328.056 874.177 335.739C880.516 334.066 885.78 336.011 890.55 334.659C890.864 334.57 891.18 334.487 891.495 334.402C893.455 335.343 895.513 336.434 897.609 337.016C901.664 338.143 906.216 337.906 910.382 338.413C913.986 338.852 917.509 339.877 921.107 340.34C924.243 340.744 927.517 340.31 930.677 340.405C934.836 340.53 938.967 341.191 943.125 341.34C944.173 341.378 944.78 341.741 945.702 342.211C947.521 343.138 948.762 343.077 950.753 343.049C953.254 343.013 956.438 342.713 958.378 344.462C958.372 346.685 957.631 348.665 956.662 350.652C953.542 357.05 948.968 362.585 945.581 368.798C942.772 373.951 938.546 386.246 934.705 389.762C933.802 390.59 932.586 391.026 931.471 391.499C931.412 393.022 931.767 396.149 931.101 397.444C929.882 399.817 926.767 401.429 925.349 403.863C923.832 406.468 922.737 409.316 921.223 411.932L900.177 447.71C897.342 452.463 893.718 456.705 890.7 461.334C885.627 469.117 881.935 477.749 876.978 485.619C874.833 489.024 870.548 493.456 870.037 497.307C869.608 500.539 865.326 503.296 863.785 506.164C862.949 507.721 863.476 509.819 862.826 511.23C862.161 512.675 859.625 513.825 858.627 515.277C855.886 519.261 853.583 523.844 851.104 528.018C849.252 531.138 848.901 534.832 847.214 537.98C845.321 541.513 842.311 544.708 840.076 548.065C834.09 557.057 828.156 566.426 822.519 575.63C819.299 580.889 817.407 587.066 814.176 592.417C810.824 597.967 806.864 603.669 803.091 608.951C801.342 611.4 798.935 614.051 797.59 616.71C796.818 618.238 797.145 619.574 797.34 621.191C795 625.301 791.127 628.473 788.826 632.48C787.786 634.293 788.56 636.743 787.272 638.484C783.948 642.975 779.256 647.009 776.462 651.818C775.682 653.161 775.943 654.63 775.415 656.021C774.34 658.858 771.429 661.891 769.788 664.5C767.595 667.986 765.813 671.86 763.462 675.224C762.523 676.568 761.271 677.612 760.008 678.639C758.66 683.934 755.885 687.199 753.271 691.854C750.171 697.375 747.91 703.359 744.683 708.843C739.446 717.742 732.781 726.729 727.253 735.751C724.549 740.165 722.375 744.856 719.72 749.291C716.804 754.16 713.467 758.782 710.508 763.629C707.123 769.175 704.135 775.071 700.936 780.74C699.824 782.71 698.747 785.399 697.391 787.162C696.528 788.284 693.887 789.847 693.428 790.999C692.808 792.557 694.489 793.415 693.484 795.234C691.845 798.199 680.91 812.141 681.036 814.293C681.045 814.443 681.513 815.41 681.502 815.513C681.357 816.846 673.511 826.842 672.244 828.794C669.966 832.304 667.966 835.99 665.693 839.508C663.381 843.085 660.703 846.449 658.652 850.189C656.1 854.841 654.182 859.857 651.55 864.46C647.618 871.334 642.369 876.998 640.154 884.748C632.916 890.12 630.389 899.846 625.92 907.221C624.156 910.132 621.684 912.734 619.282 915.127C610.536 914.252 601.735 913.944 592.973 913.251C589.744 912.996 584.635 911.78 581.543 912.27C580.428 912.447 580.846 912.449 579.931 912.824C579.509 912.997 579.069 913.123 578.639 913.272C577.667 912.767 576.547 911.964 575.542 911.602C573.719 910.945 561.373 912.574 559.037 913.305Q558.088 913.607 557.151 913.947C555.711 913.081 554.282 912.176 552.818 911.352C547.407 911.828 542.673 910.951 537.352 910.76C529.391 910.474 521.46 910.476 513.496 909.955C508.054 909.599 502.068 908.544 496.66 909.275C495.162 909.477 493.691 910.131 492.312 910.723C490.692 910.076 488.986 909.493 487.483 908.606C479.407 910.374 472.532 906.748 464.012 909.124C455.857 905.785 446.152 906.608 437.609 907.788C436.428 906.88 435.277 905.929 433.978 905.192C428.924 905.722 425.618 906.086 420.84 904.174C413.92 906.408 407.024 905.485 399.925 906.951C398.998 905.803 398.228 904.523 396.757 904.075C395.313 904.237 394.474 904.642 393.207 905.295C391.85 905.105 390.854 904.717 389.588 904.18C384.955 902.214 380.106 904.397 375.25 904.227C366.171 903.91 357.355 902.376 348.361 901.533C342.743 901.007 336.988 901.719 331.342 901.488C325.401 901.246 319.572 900.223 313.607 900.259C308.485 900.289 295.131 901.876 291.164 899.511C289.106 898.284 273.781 898.973 270.282 898.841C261.753 898.518 253.249 897.453 244.737 897.066L194.002 894.856C190.879 894.704 185.242 895.53 182.676 895.084C182.185 894.998 181.429 893.884 180.904 893.695C180.097 893.403 169.041 893.421 167.623 893.607C165.581 893.876 163.546 894.872 161.499 894.971C159.071 895.089 156.043 894.371 153.543 894.216C146.877 893.802 140.344 893.601 133.667 893.607C131.957 893.609 130.85 893.45 129.257 892.885C124.964 891.361 122.488 893.236 118.383 893.143C114.726 893.06 110.932 892.289 107.262 892.003C102.682 891.645 97.5411 892.425 93.1196 891.161C91.7755 890.777 90.3548 890.145 89.8116 888.776C89.6805 888.446 89.5657 887.849 89.4883 887.487C87.8046 889.727 87.4785 891.776 86.9184 894.444C85.9139 892.967 84.9017 891.569 84.2214 889.91C84.6971 885.92 80.8617 884.074 79.6517 880.654C79.0104 878.841 79.4709 876.661 78.8072 874.794C78.1353 872.903 75.4586 870.7 75.3946 868.777C75.3571 867.649 76.215 866.012 76.057 864.945C75.8457 863.517 73.9227 863.195 73.2184 861.993C73.8251 861.276 74.069 860.755 74.3449 859.859C73.9504 858.44 73.2437 857.959 72.135 857.096C71.9927 856.986 71.848 856.878 71.7045 856.769C71.9666 856.239 72.2365 855.737 72.5422 855.229L72.8472 854.732L72.3812 853.462C71.3358 852.976 70.7699 852.732 70.148 851.739L70.967 850.84L70.8709 851.015C70.928 850.864 71.006 850.719 71.0421 850.561C71.8679 846.956 67.1851 839.959 65.5261 836.727C62.4334 832.106 57.35 804.985 54.1859 796.779C51.9526 791.927 47.7735 771.476 45.5726 769.05C45.2137 768.655 44.742 768.35 44.4636 767.894C43.6847 766.619 45.0042 764.515 45.522 763.238L43.9486 762.465L42.5325 758.223C41.748 755.901 41.7274 754.48 42.1372 752.106L42.2706 751.36C38.2951 748.764 40.9161 746.248 39.7861 745.472C38.9292 744.884 38.3026 745.694 37.7011 744.45C36.9246 742.844 37.5297 740.824 38.0829 739.275L38.4041 738.397C38.0886 736.505 36.6153 735.277 35.3499 733.939C34.971 730.121 33.026 726.757 32.3596 722.992C31.4503 717.855 40.9692 709.525 43.926 705.161L43.2694 703.26C43.7994 700.009 48.5135 695.387 50.6735 692.773L50.4941 691.061C51.5519 691.359 52.1956 691.432 53.2844 691.272L52.2948 689.394C54.0844 685.825 56.9553 682.838 58.9198 679.368C60.0305 677.407 59.7639 674.93 60.6285 672.984C61.2134 671.668 63.2576 670.42 64.3603 669.464C65.8785 668.148 65.9504 667.473 66.0747 665.535C66.1587 664.223 66.1875 663.43 66.8519 662.25C67.5023 661.957 68.0493 661.783 68.7542 661.619C71.4183 661.002 73.6334 653.579 75.5825 651.291L76.5613 651.762L77.0531 651.533L77.2112 650.778L75.8909 649.571L75.9576 648.814C76.5368 648.557 77.0966 648.289 77.6666 648.015C80.5128 646.645 95.3037 619.978 98.045 615.059C101.041 609.684 103.947 602.278 108.36 597.999L109.607 598.066L109.983 597.606L109.149 596.066C109.576 594.51 110.917 590.923 112.221 590.017C113.108 589.402 114.251 589.082 115.085 588.357C117.007 586.687 116.696 583.216 118.109 581.125C119.37 579.259 121.098 577.571 122.415 575.682C125.16 571.743 127.646 567.482 130.11 563.362C133.98 556.892 136.597 550.342 141.296 544.32C140.637 543.349 140.786 543.852 140.717 542.859C142.308 542.219 142.924 543.719 144.655 543.267C144.653 542.55 144.671 541.93 144.745 541.226C145.735 540.856 146.532 540.464 147.416 539.884C146.914 538.439 146.568 536.99 146.226 535.5C147.581 532.329 150.481 530.096 152.236 527.163C153.3 525.384 152.365 526.015 151.989 524.408L152.677 523.802L153.895 524.018C156.045 521.779 155.997 517.968 157.846 515.548C158.338 514.903 160.12 515.01 160.93 514.945L161.015 514.083C160.516 513.068 160.163 512.177 159.898 511.078C160.857 509.84 161.631 509.921 163.121 509.549C164.095 508.575 164.333 507.356 164.557 506.033C165.187 502.305 169.651 499.085 171.815 495.871C173.342 493.605 174.503 491.098 175.931 488.769C180.124 481.93 184.428 475.202 188.462 468.253C190.585 464.597 192.501 460.495 194.892 457.031C195.749 455.789 197.161 454.757 198.327 453.815C200.144 452.347 200.37 450.699 200.862 448.509L201.064 447.594C201.896 446.829 202.662 446.045 203.42 445.207C203.186 444.206 203.366 444.506 202.819 443.753C202.701 443.591 202.571 443.437 202.447 443.279C203.74 440.059 206.998 438.581 208.6 435.741C209.207 434.665 208.879 434.151 208.617 433.008C209.868 430.252 213.811 429.284 215.487 426.793C218.058 422.973 215.595 420.301 220.235 415.866C222.406 413.791 221.954 411.388 223.5 409.089L224.749 409.484C225.844 409.093 226.045 408.2 226.591 407.232C230.722 399.906 233.481 391.919 238.331 384.963C241.727 380.093 246.573 376.355 249.663 371.161L248.504 369.659L248.733 368.882L250.327 369.741L251.027 369.012C250.458 368.24 250.384 368.074 250.185 367.075C254.427 359.671 259.865 352.5 264.666 345.409C265.447 344.255 267.406 342.164 267.813 340.932C268.432 339.063 267.336 337.982 268.928 336.251L270.508 336.634C272.415 335.534 271.864 329.299 273.368 327.39C274.311 326.193 276.623 325.608 277.669 324.284C278.897 322.731 278.811 319.889 279.706 318.057C280.428 316.579 283.059 315.977 284.081 314.537C285.169 313.004 285.658 309.801 286.168 307.947L285.381 307.636C286.562 307.791 287.102 307.531 288.135 306.913C290.688 305.386 290.179 302.295 290.916 299.74C291.7 299.681 292.22 299.645 292.933 299.27C293.261 299.098 300.998 287.027 301 286.659C301.005 285.768 299.98 285.22 300.524 284.311C301.791 282.195 304.692 282.222 305.453 279.498L304.461 278.307L304.802 277.506C306.083 277.447 305.452 277.515 306.693 277.304C308.758 274.764 309.417 271.189 311.216 268.306L328.553 240.816C330.073 238.397 331.961 236.148 333.433 233.731C334.806 231.477 335.229 227.982 336.798 226.024C337.928 224.612 339.61 224.405 340.755 222.636C340.505 221.685 340.646 222.005 340.234 221.197C340.143 221.02 340.046 220.846 339.952 220.671C340.908 219.173 343.709 213.77 344.863 213.135C345.588 212.737 345.864 213.713 346.813 212.515C349.468 209.163 352.143 199.374 355.967 198.15C356.982 197.825 357.062 197.419 357.701 196.595C357.645 195.477 357.746 195.809 357.438 194.901C356.713 192.764 361.713 188.786 362.645 186.686C363.27 185.276 363.479 183.429 363.769 181.915C364.37 181.514 364.775 181.336 365.489 181.136C365.718 181.072 366.002 181.116 366.182 180.96C367.396 179.907 369.136 175.158 370.103 173.501C371.983 170.282 374.272 167.25 376.33 164.135C377.042 163.859 377.757 163.599 378.47 163.328C382.778 161.689 385.55 165.277 389.535 166.279C393.158 167.19 397.055 167.012 400.732 167.815C404.547 168.648 408.268 170.015 412.063 170.957C416.488 172.055 421.045 172.635 425.442 173.788C428.694 174.641 432.112 176.062 435.389 176.61C436.925 176.867 438.683 176.593 440.224 176.431C444.487 171.938 447.293 164.567 450.401 159.13C453.855 153.088 458.485 147.367 462.389 141.564C467.646 133.752 471.769 123.657 479.263 117.75L479.512 117.551Z"/>
	<path fill="#45B0CA" d="M479.512 117.551C481.702 117.477 484.144 117.257 486.301 117.655C490.665 118.459 494.994 120.432 499.233 121.756C504.005 123.247 508.921 124.297 513.721 125.703C517.581 126.834 521.354 128.318 525.238 129.351L589.852 145.973C595.998 147.548 602.969 150.978 609.237 151.058C613.877 151.118 616.036 152.461 619.466 155.508L624.577 154.95C631.17 158.144 637.355 158.866 644.249 160.84C653.622 163.524 669.882 169.943 679.006 170.11C679.325 170.115 679.643 170.136 679.961 170.148L680.534 170.163C682.695 171.882 684.487 173.005 687.13 173.886C695.568 176.701 704.353 178.403 712.948 180.639C716.535 181.572 719.936 183.143 723.5 184.166C733.297 186.978 743.378 189.298 753.253 191.868C758.395 193.206 762.492 197.052 767.999 196.469Q769.677 196.281 771.345 196.019C771.541 196.162 771.735 196.308 771.932 196.448C772.969 197.185 774.085 198.015 775.309 198.405C783.926 201.149 792.81 202.813 801.48 205.275L823.891 211.847C826.982 212.768 829.966 214.068 833.073 214.926C837.013 216.015 841.761 215.8 845.196 218.067C850.818 221.779 855.539 220.389 861.625 222.334C864.929 223.39 872.632 223.403 874.671 225.848C873.734 229.704 862.718 250.33 860.395 254.158C858.573 257.162 856.152 259.777 854.425 262.874C851.972 267.273 850.327 272.045 847.66 276.343C844.963 280.69 841.693 284.711 839.112 289.119C836.023 294.394 834.147 300.337 831.101 305.614C827.494 311.864 821.938 318.173 820.444 325.41C820.111 325.628 819.926 325.786 819.492 325.859C813.627 326.84 781.488 323.553 773.88 322.381C770.774 321.902 767.747 320.575 764.626 320.344C757.849 319.843 750.551 320.574 743.879 319.626C742.176 319.384 740.467 318.441 738.945 317.671C736.578 317.953 734.248 318.424 731.907 318.868C723.652 313.492 658.631 308.12 645.293 306.595C638.827 305.856 632.432 304.365 625.963 303.516C617.079 302.349 605.88 302.229 597.636 298.373C595.901 297.561 595.602 297.284 593.624 297.283L593.474 298.053C592.535 297.114 591.643 295.908 590.284 295.664L588.776 297.299C588.569 296.402 588.392 295.966 587.784 295.271C585.579 294.687 583.737 295.385 581.562 295.666C579.113 295.982 578.806 296.014 576.848 294.586C576.343 295.556 575.814 296.37 575.14 297.231L574.195 297.041C573.601 296.099 572.98 295.185 572.342 294.273L571.57 294.274C570.702 295.047 569.696 296.076 568.578 296.452C564.675 297.766 557.977 292.566 553.56 292.728L553.468 294.208C551.936 294.45 550.725 292.115 549.1 291.83C547.757 291.595 545.146 292.676 543.978 291.904C542.927 291.209 543.057 290.892 541.614 290.441C535.492 291.083 516.777 291.013 511.506 289.104C508.073 287.86 504.758 289.147 501.267 288.647C499.175 288.347 497.099 287.645 495.014 287.25C487.427 285.813 479.67 284.898 471.942 285.197C468.523 285.329 465.266 282.733 462.054 283.138L460.746 284.714C456.091 283.448 454.601 283.671 450.038 285.582C448.144 287.927 446.167 290.323 444.653 292.938C441.586 298.234 438.896 306.382 434.459 310.544C433.422 309.959 433.906 310.288 433.001 309.563C432.469 310.803 433.438 310.882 432.815 312.311C429.667 319.542 425.31 325.901 421.505 332.756C419.472 336.42 417.97 340.413 415.815 343.995C414.012 346.991 410.651 349.257 409.102 352.338C407.287 355.949 407.866 361.406 403.682 363.722C400.323 361.744 366.097 360.842 361.178 362.048C357.463 362.959 354.397 371.802 352.572 374.817C351.34 376.853 344.92 386.15 343.355 387.612L341.917 386.749C341.169 387.426 340.95 387.723 340.975 388.787C340.986 389.25 341.204 390.157 341.308 390.631L339.72 391.202C340.355 392.203 340.471 391.983 341.564 392.252C340.202 393.846 338.278 395.152 337.042 396.806C333.787 401.162 334.052 407.613 329.485 411.27C325.317 414.608 322.933 422.064 320.554 426.809C320.456 425.774 320.584 424.862 320.701 423.836C318.788 426.673 314.848 431.759 314.15 434.983L315.021 435.556C314.434 436.47 314.798 436.11 314.054 436.626C313.48 437.024 313.294 437.277 312.947 437.869C312.75 437.823 312.554 437.771 312.355 437.732C311.518 437.565 311.85 437.57 311.044 437.796C311.339 438.661 311.59 438.7 312.281 439.254L311.746 439.745L310.192 439.617C310.16 441.142 311.289 440.917 310.689 442.261L309.247 441.728C307.271 444.383 308.568 448.777 306.248 451.605C305.048 451.676 304.073 451.388 303.299 452.474C302.321 453.848 301.754 455.818 300.874 457.313C298.896 460.673 296.397 463.674 294.287 466.941C292.137 470.27 290.502 474.849 287.709 477.632C286.99 477.336 286.895 477.141 286.117 477.353C286.156 478.254 286.3 479.103 286.362 479.983C286.514 482.144 284.34 485.16 283.562 487.241C277.492 492.155 274.502 499.882 269.151 505.556C269.177 506.941 269.894 506.781 270.046 507.725C270.435 510.135 263.083 515.952 262.33 518.215C261.678 520.17 264.144 520.404 261.686 522.513C260.624 523.425 259.792 522.408 258.518 523.076C258.631 524.157 258.908 524.618 259.415 525.557C258.628 528.139 254.983 529.001 254.365 530.944L255.089 532.031C254.601 533.53 253.425 534.185 252.215 535.078C252.582 535.844 252.934 536.056 252.453 536.963C251.818 538.161 250.149 539.602 249.218 540.646C243.567 546.979 241.927 555.081 236.843 561.795L235.631 563.409L235.918 564.777C235.08 565.314 234.246 565.753 233.348 566.182C233.31 567.111 233.397 567.424 233.699 568.272C232.478 570.343 230.837 571.149 228.724 572.16C228.588 573.358 228.756 574.297 228.96 575.473C228.386 577.068 221.276 589.039 219.85 591.371C218.46 591.986 217.644 592.022 216.977 593.425L218.405 595.339L218.151 596.176C217.29 596.467 217.075 596.476 216.214 596.395C210.963 602.233 207.544 610.064 202.846 616.401L203.579 617.56L203.41 618.127C202.701 617.928 202.211 617.704 201.565 617.368L201.208 617.933L202.506 619.314C201.175 623.78 196.286 626.905 194.009 630.77L195.072 631.296L195.03 631.897L194.786 631.823L194.72 632.528C193.806 633.803 192.93 635.016 191.872 636.174C189.752 638.494 189.738 642.287 187.653 644.581L185.635 644.36C184.802 645.991 184.583 647.806 183.814 649.449C182.682 651.866 180.728 654.082 179.436 656.473C178.244 658.679 177.148 661.967 175.621 663.867C175.187 664.407 174.587 664.632 173.955 664.843C173.818 664.889 173.676 664.92 173.536 664.959C173.595 665.78 173.757 666.413 174.029 667.19L173.668 667.809L172.528 667.15C169.294 669.094 170.107 673.197 168.164 675.565C167.665 676.173 166.523 676.874 165.915 677.38C165.203 677.973 164.934 678.358 164.546 679.173C164.954 680.396 165.451 681.592 165.47 682.895C163.884 683.802 162.736 682.915 161.494 684.267C160.329 690.668 159.926 690.565 154.678 694.352L154.826 694.923L156.635 695.613C156.615 696.239 149.366 706.361 148.437 708.023C146.986 708.658 145.663 708.9 144.793 710.251C145.334 711.203 145.977 711.783 146.788 712.508C146.085 713.453 145.124 713.249 144.392 713.928C142.789 715.415 141.25 718.969 139.801 720.853C137.586 723.732 134.967 726.389 132.508 729.059C131.874 729.748 131.411 729.877 131.563 730.92C131.612 731.256 131.758 731.572 131.855 731.898C131.214 732.729 130.529 733.223 129.673 733.822C129.879 735.042 130.288 735.699 130.886 736.748C129.384 739.039 127.634 739.422 125.845 741.159C123.292 743.638 127.373 748.578 122.134 749.906C120.983 750.198 120.277 750.596 119.307 751.264L119.001 751.895L119.849 752.984C119.281 754.395 118.695 755.742 117.978 757.084L116.207 757.477C113.666 761.926 107.931 767.922 107.423 772.879C106.793 779.009 98.7674 785.734 95.1727 790.546L96.5187 792.013L96.2296 792.836L94.6745 792.706C94.1666 795.2 95.9724 795.169 93.0005 797.164C87.9318 800.568 90.8309 801.627 87.3479 804.676C86.6191 805.313 85.8796 805.959 85.1672 806.614C84.3912 807.328 84.6468 807.023 84.2362 808.05L85.2353 809.772C84.8434 810.997 84.5193 811.375 83.3721 811.999C82.7664 812.328 82.065 812.565 81.4265 812.813C77.0642 819.576 72.6829 826.81 69.4821 834.199C68.1989 835.086 66.9378 836.055 65.5261 836.727C62.4334 832.106 57.35 804.985 54.1859 796.779C51.9526 791.927 47.7735 771.476 45.5726 769.05C45.2137 768.655 44.742 768.35 44.4636 767.894C43.6847 766.619 45.0042 764.515 45.522 763.238L43.9486 762.465L42.5325 758.223C41.748 755.901 41.7274 754.48 42.1372 752.106L42.2706 751.36C38.2951 748.764 40.9161 746.248 39.7861 745.472C38.9292 744.884 38.3026 745.694 37.7011 744.45C36.9246 742.844 37.5297 740.824 38.0829 739.275L38.4041 738.397C38.0886 736.505 36.6153 735.277 35.3499 733.939C34.971 730.121 33.026 726.757 32.3596 722.992C31.4503 717.855 40.9692 709.525 43.926 705.161L43.2694 703.26C43.7994 700.009 48.5135 695.387 50.6735 692.773L50.4941 691.061C51.5519 691.359 52.1956 691.432 53.2844 691.272L52.2948 689.394C54.0844 685.825 56.9553 682.838 58.9198 679.368C60.0305 677.407 59.7639 674.93 60.6285 672.984C61.2134 671.668 63.2576 670.42 64.3603 669.464C65.8785 668.148 65.9504 667.473 66.0747 665.535C66.1587 664.223 66.1875 663.43 66.8519 662.25C67.5023 661.957 68.0493 661.783 68.7542 661.619C71.4183 661.002 73.6334 653.579 75.5825 651.291L76.5613 651.762L77.0531 651.533L77.2112 650.778L75.8909 649.571L75.9576 648.814C76.5368 648.557 77.0966 648.289 77.6666 648.015C80.5128 646.645 95.3037 619.978 98.045 615.059C101.041 609.684 103.947 602.278 108.36 597.999L109.607 598.066L109.983 597.606L109.149 596.066C109.576 594.51 110.917 590.923 112.221 590.017C113.108 589.402 114.251 589.082 115.085 588.357C117.007 586.687 116.696 583.216 118.109 581.125C119.37 579.259 121.098 577.571 122.415 575.682C125.16 571.743 127.646 567.482 130.11 563.362C133.98 556.892 136.597 550.342 141.296 544.32C140.637 543.349 140.786 543.852 140.717 542.859C142.308 542.219 142.924 543.719 144.655 543.267C144.653 542.55 144.671 541.93 144.745 541.226C145.735 540.856 146.532 540.464 147.416 539.884C146.914 538.439 146.568 536.99 146.226 535.5C147.581 532.329 150.481 530.096 152.236 527.163C153.3 525.384 152.365 526.015 151.989 524.408L152.677 523.802L153.895 524.018C156.045 521.779 155.997 517.968 157.846 515.548C158.338 514.903 160.12 515.01 160.93 514.945L161.015 514.083C160.516 513.068 160.163 512.177 159.898 511.078C160.857 509.84 161.631 509.921 163.121 509.549C164.095 508.575 164.333 507.356 164.557 506.033C165.187 502.305 169.651 499.085 171.815 495.871C173.342 493.605 174.503 491.098 175.931 488.769C180.124 481.93 184.428 475.202 188.462 468.253C190.585 464.597 192.501 460.495 194.892 457.031C195.749 455.789 197.161 454.757 198.327 453.815C200.144 452.347 200.37 450.699 200.862 448.509L201.064 447.594C201.896 446.829 202.662 446.045 203.42 445.207C203.186 444.206 203.366 444.506 202.819 443.753C202.701 443.591 202.571 443.437 202.447 443.279C203.74 440.059 206.998 438.581 208.6 435.741C209.207 434.665 208.879 434.151 208.617 433.008C209.868 430.252 213.811 429.284 215.487 426.793C218.058 422.973 215.595 420.301 220.235 415.866C222.406 413.791 221.954 411.388 223.5 409.089L224.749 409.484C225.844 409.093 226.045 408.2 226.591 407.232C230.722 399.906 233.481 391.919 238.331 384.963C241.727 380.093 246.573 376.355 249.663 371.161L248.504 369.659L248.733 368.882L250.327 369.741L251.027 369.012C250.458 368.24 250.384 368.074 250.185 367.075C254.427 359.671 259.865 352.5 264.666 345.409C265.447 344.255 267.406 342.164 267.813 340.932C268.432 339.063 267.336 337.982 268.928 336.251L270.508 336.634C272.415 335.534 271.864 329.299 273.368 327.39C274.311 326.193 276.623 325.608 277.669 324.284C278.897 322.731 278.811 319.889 279.706 318.057C280.428 316.579 283.059 315.977 284.081 314.537C285.169 313.004 285.658 309.801 286.168 307.947L285.381 307.636C286.562 307.791 287.102 307.531 288.135 306.913C290.688 305.386 290.179 302.295 290.916 299.74C291.7 299.681 292.22 299.645 292.933 299.27C293.261 299.098 300.998 287.027 301 286.659C301.005 285.768 299.98 285.22 300.524 284.311C301.791 282.195 304.692 282.222 305.453 279.498L304.461 278.307L304.802 277.506C306.083 277.447 305.452 277.515 306.693 277.304C308.758 274.764 309.417 271.189 311.216 268.306L328.553 240.816C330.073 238.397 331.961 236.148 333.433 233.731C334.806 231.477 335.229 227.982 336.798 226.024C337.928 224.612 339.61 224.405 340.755 222.636C340.505 221.685 340.646 222.005 340.234 221.197C340.143 221.02 340.046 220.846 339.952 220.671C340.908 219.173 343.709 213.77 344.863 213.135C345.588 212.737 345.864 213.713 346.813 212.515C349.468 209.163 352.143 199.374 355.967 198.15C356.982 197.825 357.062 197.419 357.701 196.595C357.645 195.477 357.746 195.809 357.438 194.901C356.713 192.764 361.713 188.786 362.645 186.686C363.27 185.276 363.479 183.429 363.769 181.915C364.37 181.514 364.775 181.336 365.489 181.136C365.718 181.072 366.002 181.116 366.182 180.96C367.396 179.907 369.136 175.158 370.103 173.501C371.983 170.282 374.272 167.25 376.33 164.135C377.042 163.859 377.757 163.599 378.47 163.328C382.778 161.689 385.55 165.277 389.535 166.279C393.158 167.19 397.055 167.012 400.732 167.815C404.547 168.648 408.268 170.015 412.063 170.957C416.488 172.055 421.045 172.635 425.442 173.788C428.694 174.641 432.112 176.062 435.389 176.61C436.925 176.867 438.683 176.593 440.224 176.431C444.487 171.938 447.293 164.567 450.401 159.13C453.855 153.088 458.485 147.367 462.389 141.564C467.646 133.752 471.769 123.657 479.263 117.75L479.512 117.551Z"/>
	<path fill="#16BC74" d="M376.33 164.135C377.042 163.859 377.757 163.599 378.47 163.328C382.778 161.689 385.55 165.277 389.535 166.279C393.158 167.19 397.055 167.012 400.732 167.815C404.547 168.648 408.268 170.015 412.063 170.957C416.488 172.055 421.045 172.635 425.442 173.788C428.694 174.641 432.112 176.062 435.389 176.61C436.925 176.867 438.683 176.593 440.224 176.431C436.884 178.929 433.85 186.62 431.563 190.295Q428.646 194.88 425.231 199.107L426.012 200.562L425.406 201.248L424.083 201.229C421.155 205.685 418.992 210.671 416.229 215.244C412.341 221.681 408.13 227.929 404.196 234.34C402.518 237.075 401.208 240.08 399.448 242.745C397.534 245.643 395.057 248.166 393.033 250.987C391.741 252.789 392.859 254.19 391.565 255.716C390.647 256.798 389.01 257.418 388.107 258.468C386.701 260.105 387.015 264.087 385.821 265.882C384.908 267.254 382.601 267.088 381.993 268.92C381.732 269.707 381.416 273.985 381.102 274.254C380.908 274.421 380.611 274.402 380.366 274.475L378.297 273.626L377.568 274.088C377.253 276.063 377.217 278.861 376.561 280.672C376.367 281.207 375.325 282.222 374.953 282.69C373.064 285.064 366.568 291.912 365.892 294.352C365.619 295.336 365.695 296.257 365.733 297.261C365.756 297.881 365.696 298.352 365.533 298.949C364.044 300.027 361.478 301.464 360.363 302.875C359.726 303.682 359.776 305.947 359.441 306.989C359.069 308.147 351.746 320.017 350.943 320.977C350.081 322.007 348.776 322.406 347.561 322.866C346.834 324.491 348.129 325.106 347.271 327.034C346.573 327.286 345.886 327.523 345.175 327.736C344.465 331.761 344.16 333.757 341.197 336.671C338.19 339.629 335.703 343.296 332.894 346.467C332.987 346.775 333.088 347.081 333.175 347.391C333.557 348.77 332.855 350.145 332.137 351.292C329.899 354.866 326.754 359.053 323.472 361.666L323.313 362.626C323.98 363.247 324.642 363.869 325.285 364.513C323.628 366.587 320.76 367.282 321.044 370.13L320.455 370.776L319.402 370.366L319.98 370.921L319.511 371.107C318.138 371.667 317.345 372.086 316.347 373.181C316.605 374.119 316.428 373.629 316.916 374.637C315.535 376.699 313.429 380.74 311.586 382.187C311.168 382.516 310.489 382.381 310.085 382.727C309.063 383.601 310.319 387.091 308.447 387.75L307.211 387.455C305.492 388.996 306.365 391.306 305.553 393.236C304.93 394.717 302.804 396.651 301.865 398.168C297.942 404.51 294.999 411.239 290.518 417.268C290.645 418.238 290.823 419.15 291.064 420.097L290.515 420.585L289.445 419.736C287.889 421.063 279.699 435.473 278.148 438.351C277.524 439.507 275.962 443.562 275.157 444.257C274.739 444.617 273.393 444.493 272.938 444.842C271.127 446.231 265.795 457.467 264.152 460.207C261.111 465.28 257.848 470.221 254.836 475.311C253.306 477.898 252.013 480.793 250.333 483.258C249.364 484.68 247.917 485.746 246.977 487.21C245.875 488.927 245.286 490.981 244.268 492.761C241.884 496.927 239.333 501.059 236.893 505.194C235.737 507.153 233.693 508.44 232.518 510.334C231.1 512.619 231.249 515.746 229.675 518.078C228.296 520.121 225.617 521.154 224.581 523.339C225.209 524.311 224.867 523.836 225.612 524.76C224.883 525.415 224.32 525.602 223.385 525.87C219.994 531.113 218.155 536.555 213.994 541.374C212.864 542.683 208.222 547.048 208.347 548.418L209.354 549.523C208.326 551.506 203.381 552.413 203.798 554.332C203.928 554.927 204.579 555.771 204.902 556.308C204.754 557.358 204.902 557.302 204.114 558.136L202.338 558.045C200.261 561.958 198.767 566.197 196.247 569.854C195.376 570.077 194.998 570.129 194.141 570.093L193.556 570.942C193.818 571.669 194.153 571.931 193.756 572.66C192.894 574.246 191.341 575.099 190.93 576.929C191.356 577.871 191.654 578.117 191.484 579.165C188.124 583.177 184.352 587.238 181.549 591.653C179.419 595.009 177.967 598.932 175.733 602.172C174.281 604.276 171.721 605.651 170.648 607.966L171.55 609.505C170.013 611.236 167.283 613.131 166.731 615.343C166.163 617.621 164.842 618.941 163.619 620.839L165.169 621.494L164.769 622.121C164.11 622.082 163.452 622.033 162.795 621.971L162.458 622.742L163.098 623.74C160.415 627.216 157.297 630.112 154.131 633.137C154.375 633.778 154.628 634.407 154.895 635.039C154.009 636.559 152.901 636.795 151.237 637.26C151.137 637.478 151.033 637.694 150.936 637.913C149.854 640.347 149.527 642.262 149.4 644.904C148.728 646.023 148.135 646.448 147.068 647.206C144.802 648.814 144.741 650.139 144.323 652.804C144.264 653.182 144.222 653.563 144.175 653.944C143.767 657.251 135.618 661.914 134.341 666.234L135.41 667.439C134.251 669.679 125.301 679.576 125.159 680.798C124.872 683.274 126.401 682.47 122.803 685.261L123.281 683.941L122.289 684.62L121.796 684.109C121.578 685.158 121.599 685.966 121.669 687.018C121.715 687.708 121.822 688.484 121.552 689.146C120.411 691.934 117.104 695.04 115.445 697.703C112.355 702.664 109.024 707.612 106.064 712.626C103.773 716.506 101.932 720.62 99.4512 724.397C96.3503 729.119 87.0691 740.677 85.2176 744.858C84.862 745.661 85.116 746.353 84.9167 747.156C84.4621 748.988 82.2675 750.148 81.4948 751.846C80.7768 753.424 82.2316 755.267 81.1754 756.109C80.4082 756.188 79.9013 756.013 79.3939 756.635C72.7532 764.768 68.3471 773.902 62.9395 782.755C61.0806 785.798 58.2971 788.118 56.5164 791.218C57.0217 792.314 56.717 791.788 57.4371 792.79C56.9478 793.483 56.5317 793.942 55.9022 794.518C55.0915 795.259 54.7331 795.846 54.1859 796.779C51.9526 791.927 47.7735 771.476 45.5726 769.05C45.2137 768.655 44.742 768.35 44.4636 767.894C43.6847 766.619 45.0042 764.515 45.522 763.238L43.9486 762.465L42.5325 758.223C41.748 755.901 41.7274 754.48 42.1372 752.106L42.2706 751.36C38.2951 748.764 40.9161 746.248 39.7861 745.472C38.9292 744.884 38.3026 745.694 37.7011 744.45C36.9246 742.844 37.5297 740.824 38.0829 739.275L38.4041 738.397C38.0886 736.505 36.6153 735.277 35.3499 733.939C34.971 730.121 33.026 726.757 32.3596 722.992C31.4503 717.855 40.9692 709.525 43.926 705.161L43.2694 703.26C43.7994 700.009 48.5135 695.387 50.6735 692.773L50.4941 691.061C51.5519 691.359 52.1956 691.432 53.2844 691.272L52.2948 689.394C54.0844 685.825 56.9553 682.838 58.9198 679.368C60.0305 677.407 59.7639 674.93 60.6285 672.984C61.2134 671.668 63.2576 670.42 64.3603 669.464C65.8785 668.148 65.9504 667.473 66.0747 665.535C66.1587 664.223 66.1875 663.43 66.8519 662.25C67.5023 661.957 68.0493 661.783 68.7542 661.619C71.4183 661.002 73.6334 653.579 75.5825 651.291L76.5613 651.762L77.0531 651.533L77.2112 650.778L75.8909 649.571L75.9576 648.814C76.5368 648.557 77.0966 648.289 77.6666 648.015C80.5128 646.645 95.3037 619.978 98.045 615.059C101.041 609.684 103.947 602.278 108.36 597.999L109.607 598.066L109.983 597.606L109.149 596.066C109.576 594.51 110.917 590.923 112.221 590.017C113.108 589.402 114.251 589.082 115.085 588.357C117.007 586.687 116.696 583.216 118.109 581.125C119.37 579.259 121.098 577.571 122.415 575.682C125.16 571.743 127.646 567.482 130.11 563.362C133.98 556.892 136.597 550.342 141.296 544.32C140.637 543.349 140.786 543.852 140.717 542.859C142.308 542.219 142.924 543.719 144.655 543.267C144.653 542.55 144.671 541.93 144.745 541.226C145.735 540.856 146.532 540.464 147.416 539.884C146.914 538.439 146.568 536.99 146.226 535.5C147.581 532.329 150.481 530.096 152.236 527.163C153.3 525.384 152.365 526.015 151.989 524.408L152.677 523.802L153.895 524.018C156.045 521.779 155.997 517.968 157.846 515.548C158.338 514.903 160.12 515.01 160.93 514.945L161.015 514.083C160.516 513.068 160.163 512.177 159.898 511.078C160.857 509.84 161.631 509.921 163.121 509.549C164.095 508.575 164.333 507.356 164.557 506.033C165.187 502.305 169.651 499.085 171.815 495.871C173.342 493.605 174.503 491.098 175.931 488.769C180.124 481.93 184.428 475.202 188.462 468.253C190.585 464.597 192.501 460.495 194.892 457.031C195.749 455.789 197.161 454.757 198.327 453.815C200.144 452.347 200.37 450.699 200.862 448.509L201.064 447.594C201.896 446.829 202.662 446.045 203.42 445.207C203.186 444.206 203.366 444.506 202.819 443.753C202.701 443.591 202.571 443.437 202.447 443.279C203.74 440.059 206.998 438.581 208.6 435.741C209.207 434.665 208.879 434.151 208.617 433.008C209.868 430.252 213.811 429.284 215.487 426.793C218.058 422.973 215.595 420.301 220.235 415.866C222.406 413.791 221.954 411.388 223.5 409.089L224.749 409.484C225.844 409.093 226.045 408.2 226.591 407.232C230.722 399.906 233.481 391.919 238.331 384.963C241.727 380.093 246.573 376.355 249.663 371.161L248.504 369.659L248.733 368.882L250.327 369.741L251.027 369.012C250.458 368.24 250.384 368.074 250.185 367.075C254.427 359.671 259.865 352.5 264.666 345.409C265.447 344.255 267.406 342.164 267.813 340.932C268.432 339.063 267.336 337.982 268.928 336.251L270.508 336.634C272.415 335.534 271.864 329.299 273.368 327.39C274.311 326.193 276.623 325.608 277.669 324.284C278.897 322.731 278.811 319.889 279.706 318.057C280.428 316.579 283.059 315.977 284.081 314.537C285.169 313.004 285.658 309.801 286.168 307.947L285.381 307.636C286.562 307.791 287.102 307.531 288.135 306.913C290.688 305.386 290.179 302.295 290.916 299.74C291.7 299.681 292.22 299.645 292.933 299.27C293.261 299.098 300.998 287.027 301 286.659C301.005 285.768 299.98 285.22 300.524 284.311C301.791 282.195 304.692 282.222 305.453 279.498L304.461 278.307L304.802 277.506C306.083 277.447 305.452 277.515 306.693 277.304C308.758 274.764 309.417 271.189 311.216 268.306L328.553 240.816C330.073 238.397 331.961 236.148 333.433 233.731C334.806 231.477 335.229 227.982 336.798 226.024C337.928 224.612 339.61 224.405 340.755 222.636C340.505 221.685 340.646 222.005 340.234 221.197C340.143 221.02 340.046 220.846 339.952 220.671C340.908 219.173 343.709 213.77 344.863 213.135C345.588 212.737 345.864 213.713 346.813 212.515C349.468 209.163 352.143 199.374 355.967 198.15C356.982 197.825 357.062 197.419 357.701 196.595C357.645 195.477 357.746 195.809 357.438 194.901C356.713 192.764 361.713 188.786 362.645 186.686C363.27 185.276 363.479 183.429 363.769 181.915C364.37 181.514 364.775 181.336 365.489 181.136C365.718 181.072 366.002 181.116 366.182 180.96C367.396 179.907 369.136 175.158 370.103 173.501C371.983 170.282 374.272 167.25 376.33 164.135Z"/>
	<path fill="#16BC74" d="M541.614 290.441C541.403 290.421 541.191 290.405 540.98 290.381C537.736 290.004 534.172 286.968 531.31 287.608C528.985 288.129 521.499 284.481 518.443 283.746C499.82 279.265 481.262 273.922 462.863 268.568C457.826 267.102 452.493 266.405 447.557 264.673L448.073 265.069C445.826 264.136 443.466 263.073 442.634 260.574C442.167 259.168 442.338 257.683 443.165 256.452C444.129 255.019 445.556 254.204 447.238 253.895C452.145 252.994 484.789 263.02 492.382 265.33C494.679 266.029 496.933 267.182 499.232 267.763C502.147 268.5 505.156 268.876 508.07 269.638C512.275 270.738 516.345 272.348 520.543 273.5Q547.963 280.834 575.221 288.745C581.396 290.598 587.466 292.815 593.653 294.672C594.124 295.808 593.863 296.113 593.624 297.283L593.474 298.053C592.535 297.114 591.643 295.908 590.284 295.664L588.776 297.299C588.569 296.402 588.392 295.966 587.784 295.271C585.579 294.687 583.737 295.385 581.562 295.666C579.113 295.982 578.806 296.014 576.848 294.586C576.343 295.556 575.814 296.37 575.14 297.231L574.195 297.041C573.601 296.099 572.98 295.185 572.342 294.273L571.57 294.274C570.702 295.047 569.696 296.076 568.578 296.452C564.675 297.766 557.977 292.566 553.56 292.728L553.468 294.208C551.936 294.45 550.725 292.115 549.1 291.83C547.757 291.595 545.146 292.676 543.978 291.904C542.927 291.209 543.057 290.892 541.614 290.441Z"/>
	<path fill="#16BC74" d="M490.828 178.117C492.7 178.013 494.53 178.101 496.372 178.47C503.518 179.899 510.748 182.905 517.786 184.929C528.459 187.998 540.011 189.959 550.275 194.223L550.968 194.516C551.869 193.608 551.358 193.908 552.456 193.543C556.06 195.061 559.772 196.964 563.507 198.07C571.037 200.3 570.996 197.526 578.654 202.78L580.237 202.023C586.03 203.415 591.684 205.417 597.447 206.944C618.666 212.566 639.961 218.185 661.047 224.28C670.282 226.95 679.412 230.018 688.667 232.613L741.766 247.512C743.823 248.1 745.977 248.165 748.055 248.635C753.732 249.919 800.543 262.771 801.971 263.972C801.983 264.608 801.996 265.197 801.859 265.823C801.266 268.525 798.902 273.22 796.365 274.567C795.553 274.998 794.388 274.39 793.535 274.148C788.909 273.371 784.858 271.036 780.382 269.784C775.281 268.357 763.476 266.751 759.645 264.16L759.407 263.2C754.566 261.607 748.973 261.927 743.962 260.489L663.509 237.928C661.374 237.34 659.56 236.031 657.482 235.322C653.968 234.122 650.051 233.623 646.438 232.641C638.543 230.494 630.163 226.851 621.968 226.482C619.267 226.361 618.231 224.086 615.863 223.396C613.529 222.715 610.968 222.534 608.58 221.987C599.532 219.915 574.579 214.324 567.792 210.531C567.655 210.454 567.521 210.373 567.385 210.294C567.176 210.408 566.986 210.568 566.758 210.637C563.131 211.744 536.368 201.822 530.67 200.243C528.894 199.751 526.995 199.742 525.189 199.286Q513.108 196.111 501.15 192.498C495.827 190.934 490.766 189.966 485.706 187.509C485.811 187.341 485.919 187.174 486.022 187.004C486.177 186.748 486.321 186.485 486.479 186.231C487.419 184.73 487.688 184.086 487.697 182.24C487.701 181.351 487.589 180.656 487.939 179.817C488.249 179.074 490.081 178.481 490.828 178.117Z"/>
	<path fill="#16BC74" d="M466.828 215.617C474.817 215.3 498.567 223.587 507.323 225.961C509.437 226.534 511.656 226.638 513.77 227.195L543.71 235.301C547.583 236.39 551.304 238.005 555.166 239.125C558.287 240.03 561.66 239.859 564.766 240.79Q672.28 272.27 780.527 301.126C778.924 304.805 777.194 308.355 775.304 311.893C773.26 311.121 771.18 310.425 769.12 309.695C768.904 309.64 768.691 309.574 768.473 309.53C763.035 308.418 757.8 306.342 752.44 305.312C751.443 305.714 750.922 305.947 749.829 305.955C749.299 305.396 748.612 304.57 747.936 304.209C744.456 302.351 727.725 298.768 722.93 297.619C716.989 296.196 711.268 294.076 705.361 292.578C700.604 291.372 695.697 290.667 690.977 289.329C685.844 287.875 680.98 285.403 675.842 284.035C671.472 282.872 664.694 283.196 661.329 280.187C660.498 279.444 660.173 278.999 659.021 278.81C657.98 279.126 656.089 279.918 655.025 279.688C653.586 279.377 652.453 277.536 650.845 277.059C648.69 276.419 646.403 276.177 644.218 275.565L619.468 268.5C609.772 265.79 599.891 263.731 590.195 261.059C583.649 259.255 577.367 256.852 570.891 254.903C565.016 253.133 558.768 252.456 552.885 250.56C550.169 249.684 547.63 248.208 544.947 247.181C544.692 247.643 544.313 248.057 543.989 248.474L542.948 248.5C542.215 247.782 541.376 247.026 540.422 246.615C537.504 245.359 530.729 244.289 527.293 243.364C512.736 239.445 498.365 234.991 483.864 230.951C479.054 229.611 469.456 228.005 465.564 226.134C465.017 225.87 464.865 225.639 464.503 225.234C463.397 221.884 466.01 219.276 466.728 216.089C466.763 215.932 466.795 215.774 466.828 215.617Z"/>
	<path fill="#2B464D" d="M283.562 487.241C284.34 485.16 286.514 482.144 286.362 479.983C286.3 479.103 286.156 478.254 286.117 477.353C286.895 477.141 286.99 477.336 287.709 477.632C290.502 474.849 292.137 470.27 294.287 466.941C296.397 463.674 298.896 460.673 300.874 457.313C301.754 455.818 302.321 453.848 303.299 452.474C304.073 451.388 305.048 451.676 306.248 451.605C308.568 448.777 307.271 444.383 309.247 441.728L310.689 442.261C311.289 440.917 310.16 441.142 310.192 439.617L311.746 439.745L312.281 439.254C311.59 438.7 311.339 438.661 311.044 437.796C311.85 437.57 311.518 437.565 312.355 437.732C312.554 437.771 312.75 437.823 312.947 437.869C313.294 437.277 313.48 437.024 314.054 436.626C314.798 436.11 314.434 436.47 315.021 435.556L314.15 434.983C314.848 431.759 318.788 426.673 320.701 423.836C320.584 424.862 320.456 425.774 320.554 426.809C322.933 422.064 325.317 414.608 329.485 411.27C334.052 407.613 333.787 401.162 337.042 396.806C338.278 395.152 340.202 393.846 341.564 392.252C340.471 391.983 340.355 392.203 339.72 391.202L341.308 390.631C341.204 390.157 340.986 389.25 340.975 388.787C340.95 387.723 341.169 387.426 341.917 386.749L343.355 387.612C344.92 386.15 351.34 376.853 352.572 374.817C354.397 371.802 357.463 362.959 361.178 362.048C366.097 360.842 400.323 361.744 403.682 363.722C403.313 364.623 402.935 365.509 402.614 366.428C401.89 368.506 400.646 370.017 399.305 371.72L400.513 372.039C400.536 372.233 400.548 372.429 400.583 372.621C400.614 372.792 400.667 372.958 400.709 373.126C400.543 373.325 400.352 373.506 400.21 373.723C400.127 373.85 399.767 374.758 399.724 374.858C399.155 376.205 398.404 377.23 397.493 378.36L395.262 378.688C390.412 386.72 386.096 395.179 380.834 402.989C379.878 404.408 379.732 406.117 379.52 407.777L379.235 408.015L377.944 407.68C375.193 412.797 372.225 417.806 369.369 422.865C367.044 426.983 364.417 430.878 362.032 434.947C361.346 436.118 360.536 438.83 359.743 439.653C359.597 439.804 358.333 440.161 358.216 440.302C357.797 440.806 358.005 441.22 358.137 441.709L357.762 442.49L356.389 442.158C355.314 444.956 354.521 450.025 352.055 451.778L350.64 451.078L349.942 451.958C350.025 452.228 350.111 452.497 350.191 452.769C350.917 455.252 350.413 456.341 349.139 458.497C347.86 460.659 337.178 473.725 337.346 474.468C337.581 475.507 337.912 476.478 337.329 477.458C336.581 478.715 335.679 480.176 334.355 480.788L333.194 480.422L332.97 481.494C333.601 482.013 334.234 482.507 334.902 482.98C334.775 484.153 334.001 484.949 333.136 485.691C332.747 486.025 332.325 486.317 331.92 486.631C329.518 488.49 329.177 495.099 326.807 495.711L325.444 495.264C324.449 495.908 324.345 496.087 323.81 497.154C324.603 497.443 325.013 497.399 325.841 497.357C324.49 500.403 322.816 498.255 321.663 503.432C321.068 506.102 316.783 509.695 316.878 511.46L317.543 512.315L317.111 512.969L315.266 512.728C313.036 514.727 313.504 518.421 312.456 521.016C311.445 523.521 309.125 521.513 307.669 523.556C305.972 525.937 307.045 529.589 305.278 532.147L304.73 532.11L303.805 530.676C301.056 533.159 304.562 536.378 299.952 537.316C298.914 538.962 300.038 540.408 299.268 541.989C297.883 544.835 294.534 546.032 293.694 549.316C293.108 551.607 292.407 555.811 290.18 557.023C289.751 557.256 289.449 557.326 289 557.461C289.01 558.367 289.054 559.256 289.127 560.159C288.08 562.436 286.205 562.923 284.691 564.678C283.587 565.958 284.935 567.943 283.459 568.301C283.2 568.364 282.926 568.295 282.66 568.292L283.259 570.353C282.637 571.242 282.841 571.268 281.718 571.569C280.425 571.915 279.755 572.213 279.089 573.383C277.923 575.43 277.41 581.253 275.263 581.736C274.832 581.833 273.867 581.928 273.402 581.98C271.982 583.452 271.378 586.777 270.966 588.752C270.823 588.863 270.68 588.971 270.539 589.083C269.244 590.108 268.584 590.787 267.882 592.279C267.932 592.495 267.984 592.71 268.031 592.926C268.175 593.588 268.264 594.207 268.326 594.879C267.292 595.086 267.858 595.049 266.624 594.903C262.743 602.289 257.164 612.292 251.957 618.716L252.507 618.311L251.994 619.174L252.982 620.489C252.067 622.664 251.22 626.143 249.366 627.545L247.042 627.154C245.541 628.707 245.535 629.882 245.313 631.945C243.78 633.873 240.63 635.033 239.769 637.246C240.395 638.908 242.529 638.236 242.205 639.903C240.795 641.776 237.759 642.908 236.815 644.77C237.069 645.642 237.586 646.371 237.126 647.194C235.892 649.398 229.512 657.183 229.292 658.581C229.229 658.986 229.508 660.088 229.595 660.483C227.694 662.995 224.567 664.852 222.915 667.356C221.301 669.804 221.392 672.73 220.18 675.272C218.435 678.931 214.892 682.439 212.488 685.765C210.874 687.996 210.636 692.575 208.906 692.871L207.86 692.425C206.725 693.018 205.418 694.298 204.861 695.483C204.801 695.61 204.805 695.757 204.776 695.894L206.335 695.125C205.325 698.503 200.13 709.641 198.143 712.621C197.841 712.649 197.536 712.663 197.235 712.706C195.818 712.909 195.785 713.496 195.015 714.614C193.26 717.166 188.377 723.663 188.544 726.703L188.191 727.239C186.964 727.319 185.423 727.203 184.331 727.77L184.935 727.962C186.216 728.378 186.93 728.485 187.893 729.478C187.714 730.432 187.824 730.883 187.106 731.573L185.81 729.465C183.348 731.354 184.587 735.197 183.175 737.078C181.642 739.119 178.721 737.048 178.089 741.171C179.016 742.569 179.686 743.064 179.552 744.769C178.551 745.878 175.932 747.421 175.714 748.64L176.185 749.542C174.859 751.817 168.982 763.214 168.052 764.135C167.489 764.693 166.238 765.026 165.491 765.257C165.653 766.23 165.822 766.418 166.403 767.176C165.176 770.963 159.897 773.738 158.412 776.958C158.165 777.493 158.443 778.726 158.54 779.291L157.793 779.883L156.329 779.084C153.131 783.051 157.611 785.736 150.622 788.735C150.582 789.866 150.734 791.424 150.517 792.486C150.008 794.98 142.852 802.671 141.06 804.877C140.659 805.371 140.242 805.565 140.557 806.181L140.362 806.964C140.32 807.139 140.284 807.316 140.244 807.491C139.994 808.571 139.882 809.292 139.022 810.071L137.606 810.116C137.108 811.089 137.267 811.758 137.396 812.814C135.641 815.329 124.017 831.944 124.272 833.816C124.308 834.079 124.375 834.338 124.427 834.599L123.721 834.827L122.742 834.238C122.323 836.578 122.905 839.927 121.177 841.741C119.563 842.045 119.162 842.045 117.893 843.169L117.656 844.256C118.213 844.678 118.719 845.027 119.328 845.378C118.191 846.858 115.984 847.893 114.402 848.911C112.434 850.178 110.306 856.435 108.935 858.733C105.207 864.976 101.637 871.573 97.669 877.636C95.9246 880.301 93.1973 882.736 91.7605 885.482C91.2685 886.422 90.6621 886.561 89.849 887.147C89.7151 887.244 89.6085 887.374 89.4883 887.487C87.8046 889.727 87.4785 891.776 86.9184 894.444C85.9139 892.967 84.9017 891.569 84.2214 889.91C84.6971 885.92 80.8617 884.074 79.6517 880.654C79.0104 878.841 79.4709 876.661 78.8072 874.794C78.1353 872.903 75.4586 870.7 75.3946 868.777C75.3571 867.649 76.215 866.012 76.057 864.945C75.8457 863.517 73.9227 863.195 73.2184 861.993C73.8251 861.276 74.069 860.755 74.3449 859.859C73.9504 858.44 73.2437 857.959 72.135 857.096C71.9927 856.986 71.848 856.878 71.7045 856.769C71.9666 856.239 72.2365 855.737 72.5422 855.229L72.8472 854.732L72.3812 853.462C71.3358 852.976 70.7699 852.732 70.148 851.739L70.967 850.84L70.8709 851.015C70.928 850.864 71.006 850.719 71.0421 850.561C71.8679 846.956 67.1851 839.959 65.5261 836.727C66.9378 836.055 68.1989 835.086 69.4821 834.199C72.6829 826.81 77.0642 819.576 81.4265 812.813C82.065 812.565 82.7664 812.328 83.3721 811.999C84.5193 811.375 84.8434 810.997 85.2353 809.772L84.2362 808.05C84.6468 807.023 84.3912 807.328 85.1672 806.614C85.8796 805.959 86.6191 805.313 87.3479 804.676C90.8309 801.627 87.9318 800.568 93.0005 797.164C95.9724 795.169 94.1666 795.2 94.6745 792.706L96.2296 792.836L96.5187 792.013L95.1727 790.546C98.7674 785.734 106.793 779.009 107.423 772.879C107.931 767.922 113.666 761.926 116.207 757.477L117.978 757.084C118.695 755.742 119.281 754.395 119.849 752.984L119.001 751.895L119.307 751.264C120.277 750.596 120.983 750.198 122.134 749.906C127.373 748.578 123.292 743.638 125.845 741.159C127.634 739.422 129.384 739.039 130.886 736.748C130.288 735.699 129.879 735.042 129.673 733.822C130.529 733.223 131.214 732.729 131.855 731.898C131.758 731.572 131.612 731.256 131.563 730.92C131.411 729.877 131.874 729.748 132.508 729.059C134.967 726.389 137.586 723.732 139.801 720.853C141.25 718.969 142.789 715.415 144.392 713.928C145.124 713.249 146.085 713.453 146.788 712.508C145.977 711.783 145.334 711.203 144.793 710.251C145.663 708.9 146.986 708.658 148.437 708.023C149.366 706.361 156.615 696.239 156.635 695.613L154.826 694.923L154.678 694.352C159.926 690.565 160.329 690.668 161.494 684.267C162.736 682.915 163.884 683.802 165.47 682.895C165.451 681.592 164.954 680.396 164.546 679.173C164.934 678.358 165.203 677.973 165.915 677.38C166.523 676.874 167.665 676.173 168.164 675.565C170.107 673.197 169.294 669.094 172.528 667.15L173.668 667.809L174.029 667.19C173.757 666.413 173.595 665.78 173.536 664.959C173.676 664.92 173.818 664.889 173.955 664.843C174.587 664.632 175.187 664.407 175.621 663.867C177.148 661.967 178.244 658.679 179.436 656.473C180.728 654.082 182.682 651.866 183.814 649.449C184.583 647.806 184.802 645.991 185.635 644.36L187.653 644.581C189.738 642.287 189.752 638.494 191.872 636.174C192.93 635.016 193.806 633.803 194.72 632.528L194.786 631.823L195.03 631.897L195.072 631.296L194.009 630.77C196.286 626.905 201.175 623.78 202.506 619.314L201.208 617.933L201.565 617.368C202.211 617.704 202.701 617.928 203.41 618.127L203.579 617.56L202.846 616.401C207.544 610.064 210.963 602.233 216.214 596.395C217.075 596.476 217.29 596.467 218.151 596.176L218.405 595.339L216.977 593.425C217.644 592.022 218.46 591.986 219.85 591.371C221.276 589.039 228.386 577.068 228.96 575.473C228.756 574.297 228.588 573.358 228.724 572.16C230.837 571.149 232.478 570.343 233.699 568.272C233.397 567.424 233.31 567.111 233.348 566.182C234.246 565.753 235.08 565.314 235.918 564.777L235.631 563.409L236.843 561.795C241.927 555.081 243.567 546.979 249.218 540.646C250.149 539.602 251.818 538.161 252.453 536.963C252.934 536.056 252.582 535.844 252.215 535.078C253.425 534.185 254.601 533.53 255.089 532.031L254.365 530.944C254.983 529.001 258.628 528.139 259.415 525.557C258.908 524.618 258.631 524.157 258.518 523.076C259.792 522.408 260.624 523.425 261.686 522.513C264.144 520.404 261.678 520.17 262.33 518.215C263.083 515.952 270.435 510.135 270.046 507.725C269.894 506.781 269.177 506.941 269.151 505.556C274.502 499.882 277.492 492.155 283.562 487.241Z"/>
	<path fill="#FFC34E" d="M353.192 542.388C355.65 534.196 360.466 528.958 364.726 521.826C369.634 513.609 374.335 505.205 379.409 497.09C381.659 493.49 385.247 489.781 386.268 485.645C386.725 483.793 387.073 482.898 388.611 481.688C391.738 479.228 389.311 478.563 390.434 476.006L392.1 475.862C396.232 471.29 401.001 460.258 402.892 454.394C403.97 454.21 403.596 454.192 404.577 454.302C404.788 454.326 404.999 454.36 405.209 454.389L405.996 453.606C406.513 448.253 408.741 449.59 409.626 446.276L408.682 445.432L408.677 444.704C409.387 444.469 410.191 444.243 410.838 443.869C411.859 443.279 412.229 442.593 412.608 441.531L411.97 440.322C418.188 432.558 423.894 417.854 429.741 411.41C433.877 406.851 455.161 414.263 459.38 413.102C460.033 412.923 460.545 412.411 461.127 412.065C461.317 412.17 461.505 412.277 461.696 412.378C461.949 412.512 462.208 412.635 462.46 412.769C465.982 414.649 472.611 412.569 476.948 413.605C479.693 414.26 482.862 416.209 485.426 417.455C490.652 416.335 496.056 417.692 501.278 418.249C506.481 418.803 511.73 418.932 516.924 419.546C521.708 420.112 526.32 421.213 531.155 421.6C531.854 422.162 532.707 422.937 533.532 423.285C536.595 424.581 542.801 423.344 546.244 423.465C552.65 423.69 558.95 426.117 565.342 426.531C567.166 426.649 569.045 425.989 570.772 425.467C578.241 428.17 609.69 431.22 609.933 431.352C610.933 431.895 610.079 432.653 611.747 432.732C614.732 432.873 617.786 431.763 620.871 432.016C625.384 432.386 632.963 435.644 635.02 435.728C635.664 435.754 636.463 434.647 637.411 434.689C641.029 434.848 644.7 436.484 648.31 436.996L671.57 440.308C675.633 440.899 680.176 439.133 684.457 439.481C688.602 439.817 692.408 442.693 696.454 443.195C701.426 443.812 706.051 443.045 711.051 444.304C716.545 445.322 770.4 452.537 772.108 451.928L773.098 450.608C773.965 451.424 773.55 450.967 774.323 451.994C780.009 454.564 784.633 453.552 790.501 454.062C796.173 454.555 835.657 459.612 838.324 461.122C835.107 467.375 830.672 472.873 827.236 478.997L803.387 520.753C800.189 526.313 797.403 532.31 793.939 537.704C793.257 538.767 792.157 539.403 791.173 540.147C788.188 542.404 786.82 549.348 784.875 552.85C782.595 556.954 760.727 592.471 759.53 592.869C757.596 593.512 743.565 591.888 740.89 591.569C732.591 590.577 724.008 589.853 715.781 588.531C711.421 587.831 707.2 586.331 702.804 585.859L671.77 582.575C669.03 582.263 665.432 582.64 662.851 581.993C661.339 581.615 659.982 580.824 658.428 580.556C655.146 579.989 651.724 580.07 648.413 579.656C643.466 579.036 637.184 576.712 632.314 577.317C629.245 577.709 608.864 575.45 606.387 574.265C605.236 573.714 604.047 573.046 602.796 572.758C599.115 571.909 594.502 572.405 590.65 572.018C580.365 570.983 570.128 569.5 559.864 568.274C556.593 567.883 551.865 567.949 548.987 566.484C546.357 565.146 521.232 563.401 516.5 562.959C508.247 562.188 500.183 560.654 491.98 559.607C483.003 558.461 473.957 557.864 464.988 556.731C460.8 556.201 456.666 555.297 452.489 554.693C445.388 553.667 437.946 553.479 430.909 552.242C429.464 551.988 428.021 551.15 426.769 550.427C414.654 552.25 388.604 547.164 375.463 545.763C369.59 545.137 363.466 545.351 357.646 544.437C356.009 544.181 354.583 543.234 353.192 542.388Z"/>
	<path fill="#45B0CA" d="M711.051 444.304C716.545 445.322 770.4 452.537 772.108 451.928L773.098 450.608C773.965 451.424 773.55 450.967 774.323 451.994C780.009 454.564 784.633 453.552 790.501 454.062C796.173 454.555 835.657 459.612 838.324 461.122C835.107 467.375 830.672 472.873 827.236 478.997L803.387 520.753C800.189 526.313 797.403 532.31 793.939 537.704C793.257 538.767 792.157 539.403 791.173 540.147C788.188 542.404 786.82 549.348 784.875 552.85C782.595 556.954 760.727 592.471 759.53 592.869C757.596 593.512 743.565 591.888 740.89 591.569C732.591 590.577 724.008 589.853 715.781 588.531C711.421 587.831 707.2 586.331 702.804 585.859L671.77 582.575C669.03 582.263 665.432 582.64 662.851 581.993C661.339 581.615 659.982 580.824 658.428 580.556C655.146 579.989 651.724 580.07 648.413 579.656C643.466 579.036 637.184 576.712 632.314 577.317C634.815 572.043 638.101 566.719 641.188 561.75C642.174 560.163 643.57 558.776 644.46 557.157C645.074 556.041 646.656 550.535 647.31 550.124C647.434 550.046 649.095 549.577 649.173 549.513C650.237 548.647 658.972 532.76 660.529 530.087C669.871 514.053 679.877 498.367 689.761 482.662C693.136 477.3 696.8 472.003 699.976 466.531C701.72 463.526 703.009 459.53 705.148 456.841C705.866 455.939 706.867 455.292 707.74 454.556C710.124 452.546 710.834 447.278 711.051 444.304Z"/>
	<path fill="#16BC74" d="M252.979 705.721C255.573 706.172 263.974 705.007 265.456 705.698C266.822 706.335 266.159 706.933 267.984 706.871L267.977 706.037L268.431 705.708C269.056 706.169 269.656 706.646 270.254 707.14C277.74 705.681 291.601 708.412 299.742 709.022C303.192 709.281 306.746 709.074 310.161 709.388C313.41 709.688 316.53 711.262 319.834 711.604C324.304 712.067 331.755 711.231 335.669 713.284C339.994 715.552 345.061 713.777 349.802 714.212C357.473 714.916 365.12 715.986 372.798 716.685C376.882 717.056 381.004 717.074 385.076 717.52C393.047 718.393 400.955 719.984 408.963 720.838C419.321 721.943 441.993 722.665 450.267 726.093C450.298 726.242 450.35 726.388 450.361 726.54C450.574 729.283 443.792 740.938 441.953 744.35C433.987 759.13 424.674 773.317 416.444 787.963L393.191 829.162C388.28 837.956 384.537 848.994 377.64 856.355C374.728 856.495 371.789 856.362 368.875 856.317C360.438 856.604 352.28 855.313 343.914 854.708L294.163 851.068C288.447 850.668 282.68 851.319 276.976 850.907C263.142 849.905 249.185 847.597 235.348 847.085C232.259 846.97 229.123 847.601 226.023 847.576C220.616 847.532 210.101 846.28 204.894 844.874C203.488 844.495 204.031 845.303 202.987 845.497C202.802 845.531 179.124 843.11 176.512 842.788C176.483 833.882 180.852 829.469 185.862 822.675L184.984 820.94L185.32 820.198C186.269 819.735 187.697 819.181 188.403 818.391C190.306 816.261 191.14 811.723 192.448 809.049C193.989 805.895 196.937 803.522 198.594 800.374L197.868 799.367L198.515 798.689L199.434 799.039C201.179 797.899 203.203 789.103 205.466 786.369C209.658 781.303 212.908 774.818 216.483 769.234Q216.158 767.995 215.798 766.765C216.796 765.563 217.363 765.475 218.799 764.94C221.45 761.342 222.184 756.646 224.671 753.038C226.132 750.919 229.384 748.895 230.318 746.623C230.917 745.166 230.946 743.065 231.101 741.499L232.669 741.009C235.26 738.249 236.331 734.542 237.571 731.052L237.673 731.516L237.972 730.766L238.822 731.427L239.394 731.339L239.566 728.602C245.135 721.667 248.156 713.19 252.979 705.721Z"/>
	<path fill="#45B0CA" d="M495.219 730.179C495.382 730.173 495.545 730.164 495.708 730.16L496.523 730.146C505.396 729.918 514.223 732.229 522.991 733.249C525.702 733.565 528.419 732.859 531.131 733.178C538.807 734.082 546.52 735.796 554.215 736.85C566.132 738.483 578.176 739.561 590.057 741.267C593.39 741.746 596.582 742.87 599.921 743.295C603.418 743.74 607.006 743.744 610.522 744.036C614.642 744.378 618.709 745.234 622.83 745.599C637.781 746.925 651.241 747.71 665.618 752.628C658.456 761.185 652.449 772.255 646.789 781.935C641.129 791.613 635.158 801.076 629.545 810.803C626.861 815.454 624.876 821.874 621.388 825.803C617.904 829.727 616.851 833.122 614.332 837.509C609.24 846.375 604.085 855.178 598.605 863.81C596.774 866.694 595.386 869.662 593.227 872.338C593.094 872.346 592.958 872.391 592.829 872.36C591.523 872.048 590.386 871.298 588.999 871.081C585.265 870.496 580.834 870.931 576.988 870.792C567.627 870.452 558.189 869.978 548.841 869.398C545.114 869.167 541.498 868.126 537.799 867.899L462.558 862.616C459.686 862.396 444.345 862.112 443.171 861.432C442.453 861.016 441.979 860.604 441.136 860.407C438.567 859.804 427.354 860.411 422.461 859.76C423.765 858.838 425.192 857.898 426.017 856.496C429.012 851.406 431.489 845.84 434.272 840.614L454.364 803.008C455.771 800.388 458.07 798.292 459.411 795.662C468.429 777.978 478.134 760.567 487.421 742.995C489.26 739.517 492.912 735.209 494.02 731.576C494.326 730.572 494.387 730.734 495.219 730.179Z"/>
	<path fill="#F83123" d="M559.956 752.8C560.838 752.678 561.72 752.568 562.609 752.512C569.933 752.055 579.308 755.402 584.654 760.24C591.16 766.13 594.172 774.805 594.472 783.414C595.072 800.606 583.037 819.977 571.765 832.081C558.468 846.359 542.054 856.358 522.286 857.007C513.767 856.955 505.591 855.038 498.798 849.611C492.588 844.651 489.232 837.183 488.341 829.413C486.572 813.982 494.389 797.573 503.865 785.877C518.065 768.349 537.137 755.151 559.956 752.8Z"/>
	<path fill="#F83123" d="M474 337.029C485.825 336.521 498.178 339.705 509.863 341.382L582.768 351.35L631.017 357.384C635.366 357.896 642.985 357.804 646.668 358.567C647.755 358.792 648.912 359.599 649.826 360.197C660.716 359.181 670.77 362.319 681.378 364.246C685.655 365.023 690.101 365.282 694.427 365.673C697.256 365.929 700.48 366.508 703.315 366.295C705.402 366.138 707.494 365.007 709.592 364.582C710.199 365.21 710.002 364.968 710.49 365.608C710.597 365.748 710.701 365.89 710.806 366.031C717.08 367.336 723.551 369.395 729.887 370.141C733.875 370.611 738.098 370.198 742.12 370.283C746.016 370.365 750.033 371.032 753.888 371.615C759.896 372.524 765.703 374.567 771.72 375.341C777.834 376.127 784.145 375.775 790.221 376.762C794.35 377.432 798.402 379.163 802.561 379.532C806.358 379.869 810.197 378.58 814.006 378.958C817.99 379.354 821.657 381.679 825.599 382.343C832.907 383.574 840.317 382.858 847.53 383.821C850.825 384.261 854.063 385.162 857.348 385.686C861.458 386.342 865.621 386.674 869.719 387.403C872.098 387.826 874.505 388.786 876.877 389.074C879.102 389.344 882.276 388.217 884.488 387.711C882.721 391.376 880.135 393.669 877.977 396.955C876.167 399.712 874.946 403.152 873.327 406.073C870.138 411.83 865.381 417.826 863.152 423.923Q860.924 426.938 858.559 429.847C853.635 428.368 848.676 428.279 843.615 427.696Q830.81 426.131 817.987 424.719C812.094 424.039 806.347 422.805 800.492 422.033C784.867 419.972 769.167 418.285 753.516 416.38L525.239 386.932C504.01 384.048 482.783 382.96 461.756 378.368C459.046 377.776 455.82 377.53 453.238 376.633C452.098 376.238 451.618 375.766 451.066 374.738C451.79 371.742 454.412 369.211 455.966 366.524C460.099 359.376 466.449 348.695 469.167 341.223L469.465 340.383C470.862 339.135 472.468 338.104 474 337.029Z"/>
	<path fill="#2B464D" d="M294.639 643.777C302.508 645.39 311.069 644.856 319.026 646.028C323.16 646.637 327.127 648.355 331.278 648.894C335.116 649.392 339.053 648.718 342.885 649.167L387.304 654.463C392.359 655.064 397.245 656.562 402.264 657.192C404.621 657.487 407.051 656.877 409.376 657.365C415.468 658.645 421.478 660.315 427.742 660.194C429.51 660.159 430.609 660.023 431.877 661.348C432.007 661.484 432.084 661.693 432.257 661.767C433.438 662.272 440.357 661.54 442.395 661.605C447.005 661.754 460.266 662.857 464.088 664.352C470.083 666.697 475.292 664.161 481.65 667.023C482.277 667.305 482.707 667.516 483.415 667.602C486.842 668.016 495.02 667.575 497.678 668.986C498.255 669.293 498.821 669.668 499.408 669.978L500.716 668.908C503.757 668.721 506.923 669.499 509.946 669.904C517.532 670.918 525.147 672.274 532.726 673.166L631.125 685.078C644.183 686.72 657.057 690.349 670.235 691.028C674.21 691.233 695.907 692.31 698.714 693.2C698.408 695.776 696.03 701.57 694.215 703.454C692.435 705.301 690.492 705.301 688.125 705.204C687.246 705.393 687.522 705.456 686.791 705.244C678.688 702.899 668.622 702.162 660.178 701.652C655.856 701.391 649.004 702.112 645.074 700.606C643.006 699.814 640.707 698.776 638.478 698.78C626.709 698.803 615.661 695.495 604.168 693.765C599.376 693.044 594.414 693.103 589.583 692.726C585.612 692.416 581.685 691.689 577.73 691.243C574.609 690.891 570.502 691.142 567.72 689.75C566.89 689.335 566.03 689.043 565.161 688.718L564.012 689.895C561.113 689.696 558.775 688.124 555.994 687.588C553.641 687.134 551.122 688.109 548.74 687.833C544.208 687.308 539.835 685.094 535.233 684.486L533.975 685.62C530.213 684.497 526.355 684.499 522.529 683.795C519.694 683.273 516.834 682.321 513.97 682.04C510.488 681.699 506.887 682.105 503.365 681.755C497.907 681.212 492.402 679.39 486.864 678.796C482.945 678.377 473.152 679.351 470.203 677.694C469.749 677.439 469.315 677.146 468.844 676.923C468.674 676.843 468.502 676.768 468.332 676.689C467.232 676.178 465.871 677.371 464.003 677.179C458.503 676.613 452.819 675.528 447.466 674.185C443.185 673.111 438.905 673.717 434.598 672.949C433.844 672.34 432.802 671.327 431.817 671.177C428.772 670.713 423.522 672.317 421.014 671.598C419.874 671.272 418.767 670.216 417.589 669.884C415.1 669.182 410.694 670.631 407.833 670.266C406.259 670.065 404.817 669.131 403.231 668.9C398.877 668.266 394.306 668.22 389.913 667.758L356.246 664.049C343.976 662.63 331.849 660.107 319.599 658.701C312.652 657.904 299.648 658.499 293.674 656.677C292.582 656.344 290.731 654.963 290.174 653.96C289.367 652.507 291.651 648.691 292.133 647.184C292.717 645.353 293.127 644.98 294.639 643.777Z"/>
	<path fill="#2B464D" d="M337.244 568.043C341.822 567.997 346.327 568.932 350.855 569.495C354.964 570.006 359.111 570.187 363.219 570.714C367.411 571.252 371.556 572.161 375.759 572.623C384.184 573.55 393.087 573.151 401.411 574.495C403.342 574.806 405.001 576.085 406.851 576.601C408.42 577.038 407.977 575.553 409.214 574.967C409.296 575.223 409.371 575.482 409.461 575.736C409.932 577.07 409.872 576.613 411.118 576.692C419.219 577.205 427.163 578.726 435.182 579.864C441.768 580.798 448.621 581.395 455.257 582.072C459.348 582.49 464.738 581.567 468.382 583.337C473.004 585.583 479.174 583.396 484.148 585.319L484.285 586.77C486.348 587.167 487.963 585.728 489.937 585.695C493.203 585.639 497.835 588.028 501.236 588.569C508.079 589.658 514.893 588.959 521.685 589.761C526.052 590.276 530.317 591.518 534.665 592.139L578.722 597.987C583.224 598.573 588.824 600.246 593.219 599.76C598.785 599.144 606.775 601.62 612.59 602.478C618.351 603.329 629.181 603.584 633.945 604.76C636.023 605.274 637.833 606.639 639.88 607.147C642.499 607.797 646.933 606.975 649.78 607.073C651.943 607.147 654.203 607.144 656.277 607.823C657.403 608.192 659.827 609.499 660.963 609.282C662.006 609.082 662.103 608.467 663.485 608.468C664.351 609.084 665.385 609.954 666.436 610.186C668.926 610.736 671.966 610.462 674.564 610.718C678.573 611.113 682.536 612.003 686.53 612.527C690.014 612.983 693.546 612.951 697.021 613.361C701.25 613.861 705.309 615.561 709.549 616.094C719.318 617.322 733.085 616.697 741.875 620.764C740.011 623.645 736.725 628.551 734.02 630.517L733.144 629.939C733.006 629.958 732.869 629.979 732.731 629.995C732.528 630.02 732.324 630.038 732.121 630.063C727.915 630.567 713.722 627.549 708.471 626.801L667.961 621.047C655.187 619.227 642.187 617.993 629.351 616.665C627.398 616.463 625.51 615.831 623.565 615.671C620.921 615.455 618.241 615.685 615.599 615.451C611.387 615.077 607.379 611.901 603.126 612.668C602.044 612.863 601.342 613.101 600.265 612.799C594.635 611.223 588.832 610.824 583.059 610.081C571.818 608.633 560.645 607.485 549.385 606.28C546.506 605.971 543.952 604.627 541.127 604.359C535.633 603.838 518.271 603.486 514.367 601.672C513.04 601.055 512.3 600.706 510.837 600.694C503.916 600.64 497.3 598.931 490.428 598.554C489.576 598.507 485.467 598.537 485.073 598.2C484.929 598.077 484.236 596.815 484.128 596.752C483.418 596.339 478.807 596.679 477.706 596.57C471.792 595.987 465.672 595.702 459.809 594.879C455.164 594.227 450.585 593.046 445.908 592.559C438.911 591.829 411.9 589.558 407.053 587.507C404.416 586.391 402.573 587.336 399.934 587.652C397.354 587.96 395.142 586.26 392.634 585.903C387.539 585.176 382.226 585.52 377.096 585.024C372.195 584.549 367.358 583.306 362.465 582.69L343.229 580.115C341.027 579.821 338.743 579.927 336.569 579.51C335.586 579.321 334.629 578.976 333.888 578.27C332.991 577.413 332.838 576.328 332.942 575.147C333.23 571.881 334.931 570.146 337.244 568.043Z"/>
	<path fill="#2B464D" d="M321.705 606.352C322.463 606.217 322.085 606.209 322.965 606.446C326.212 607.319 329.268 607.455 332.57 607.918C341.048 609.106 349.4 609.892 357.891 610.845C361.665 611.268 365.347 612.282 369.103 612.791C374.514 613.525 376.384 611.613 381.814 614.406C382.55 614.785 383.097 615.188 383.959 615.245C386.233 615.395 388.648 614.725 390.939 614.672C393.28 614.618 410.767 616.293 412.072 616.955C412.445 617.144 412.468 617.745 412.83 617.955C414.09 618.691 433.793 618.642 437.067 620.325C437.13 620.357 438.403 621.06 438.547 621.097C440.234 621.523 442.811 621.052 444.655 621.197C448.536 621.503 454.067 623.328 457.766 622.654C459.345 622.367 460.147 621.923 461.718 622.593C461.806 622.809 462.133 623.64 462.257 623.807C463.201 625.08 463.181 623.603 464.07 623.305C464.435 623.183 465.772 623.527 466.248 623.586Q475.684 624.702 485.141 625.631C485.805 626.373 486.012 626.567 486.958 626.996C487.695 626.743 488.235 626.507 488.895 626.072C489.088 625.944 489.276 625.806 489.466 625.674C491.87 626.458 494.106 627.935 496.544 628.506C499.786 629.266 503.756 629.002 507.102 629.198C512.853 629.534 518.714 630.128 524.421 630.927L678.312 652.144C681.384 652.56 684.547 652.266 687.641 652.582C690.916 652.916 693.966 654.233 697.224 654.682C702.701 655.436 708.382 655.246 713.798 656.332C715.968 656.767 717.727 657.376 719.455 658.765C719.279 660.565 717.464 661.907 716.786 663.626C715.943 665.765 715.871 665.737 713.896 666.801C706.936 668.203 680.914 663.525 672.023 662.498C669.546 662.212 666.58 662.485 664.192 661.937C663.269 661.725 662.697 661.371 661.905 660.884C661.01 660.334 660.372 659.924 659.33 659.68C658.277 660.038 657.083 660.446 655.963 660.458C654.616 660.474 653.086 659.845 651.741 659.613C646.917 658.779 641.979 658.24 637.13 657.479C630.319 656.409 623.419 656.163 616.592 655.24C611.091 654.496 605.694 653.064 600.198 652.292C591.121 651.016 581.764 650.619 572.629 649.664C563.794 648.74 554.959 647.278 546.198 645.831C540.288 644.855 518.033 643.46 514.353 641.825C513.461 641.429 513.108 641.186 512.083 641.101C511.171 641.025 510.891 641.601 510.244 642.159C507.049 641.918 504.677 640.241 501.676 639.646C500.007 639.315 498.368 640.326 496.692 640.099C494.375 639.785 492.036 639.061 489.695 638.707C485.373 638.054 480.967 637.85 476.624 637.311L413.005 628.898Q380.811 624.789 348.481 621.932C345.183 621.63 342.103 619.925 338.839 619.671C330.732 619.042 318.571 618.74 310.9 616.244C310.465 615.626 310.059 615.292 310.019 614.502C309.906 612.238 311.441 609.937 312.947 608.369C315.459 605.754 318.398 606.452 321.705 606.352Z"/>
</svg>
