<?xml version="1.0" encoding="utf-8" ?>
<svg xmlns="http://www.w3.org/2000/svg" xmlns:xlink="http://www.w3.org/1999/xlink" width="1024" height="1024">
	<path fill="#E06FFA" d="M0 0L1024 0L1024 1024L0 1024L0 0Z"/>
	<path fill="white" d="M201.471 259.434C202.902 258.892 204.056 258.471 205.602 258.63C206.788 258.753 208.326 259.14 209.484 259.063C212.208 258.88 218.358 254.182 221.263 252.814C223.726 251.655 226.344 250.831 228.817 249.682C233.88 247.333 238.742 244.645 243.886 242.454C247.745 240.81 252.809 239.53 256.316 237.399C257.996 236.378 259.13 234.589 260.708 233.58C261.767 232.903 265.644 234.398 267.007 234.142C268.01 233.954 269.287 233.179 270.207 232.728C291.045 222.519 312.349 213.635 333.688 204.553C336.985 203.15 339.63 200.695 342.981 199.407C353.397 195.402 364.745 193.471 374.988 188.993C380.437 186.61 385.69 183.39 390.947 180.588C396.304 177.733 401.803 175.165 407.259 172.507C408.283 173.406 408.377 173.151 409.571 172.605C414.064 170.55 418.703 169.478 423.28 167.723C428.395 165.761 433.814 163.811 438.798 161.55C441.718 160.226 444.484 158.55 447.45 157.331C453.37 154.899 459.612 153.179 465.568 150.781C473.768 147.481 482.116 144.357 490.227 140.862C495.91 138.414 502.395 134.47 508.462 133.282C515.303 131.944 529.858 135.022 536.698 137.073C539.695 137.972 540.445 139.712 541.851 142.33C544.25 142.18 546.498 142.312 548.834 142.931C550.771 143.445 552.685 144.438 553.627 146.278C553.762 146.542 553.884 146.814 554.013 147.082C556.714 148.188 560.528 149.539 563.439 149.286C563.154 148.683 560.687 147.694 559.974 147.338L560.558 147.09C567.356 147.961 583.213 156.667 589.192 160.488L589.58 159.351C591.497 159.181 596.791 160.464 598.474 161.474C599.209 161.916 598.164 162.366 598.367 163.327L599.54 163.56L600.454 162.663C607.71 166.716 615.115 169.812 622.63 173.273C629.763 176.559 636.943 180.167 644.28 182.974C649.59 185.006 655.482 185.8 660.657 188.123C664.371 189.789 667.851 192.031 671.491 193.863C678.023 197.149 684.894 200.214 691.627 203.062C700.676 206.889 710.397 209.261 719.428 213.264C725.241 215.841 730.303 220.027 736.278 222.273C740.276 223.776 744.16 223.615 748.335 223.811C749.338 224.384 749.827 224.785 750.386 225.78C750.778 226.479 750.761 226.611 751.469 227.044L752.666 226.406C764.241 232.151 776.477 236.427 788.343 241.516L862.521 273.529C867.057 275.468 890.715 282.516 892.204 283.874C892.283 283.946 892.642 285.204 892.745 285.348C893.208 285.995 897.758 287.179 898.903 287.591C904.571 289.633 909.75 292.634 915.303 294.903C918.945 296.391 922.919 297.176 926.645 298.486C938.57 302.678 951.027 307.27 962.488 312.615C964.122 313.377 964.967 314.142 965.93 315.65C967.551 315.723 967.548 315.602 968.675 316.742C968.986 319.198 968.635 322.291 966.979 324.285C966.545 324.808 966.475 324.814 965.99 325.137L964.107 324.858C963.912 325.726 963.977 326.208 964.195 327.066C963.556 327.728 963.083 327.915 962.251 328.227C960.222 328.988 958.391 330.264 956.56 331.409C956.814 332.404 956.642 331.925 957.073 332.846C956.058 333.039 956.567 333.107 955.573 332.504C954.162 332.463 953.487 333.333 952.467 334.284C952.034 334.687 951.631 335.122 951.212 335.54C949.568 337.18 947.848 338.014 945.761 338.945L945.527 339.443C945.42 339.668 945.301 339.887 945.203 340.115C945.112 340.327 945.067 340.559 944.961 340.764C943.373 343.811 937.058 346.251 934.258 348.544C932.611 349.892 931.751 351.95 930.102 353.228C925.397 356.874 919.859 359.897 914.995 363.483C913.773 363.483 914.361 363.534 913.231 363.349C911.439 364.748 910.3 367.078 908.517 368.248L906.201 367.323C904.515 368.512 904.268 369.48 903.627 371.422C901.318 373.168 895.877 373.789 894.396 375.882L895.399 376.683C894.065 378.428 891.828 378.136 890.283 379.402C887.646 381.561 889.71 383.016 885.053 383.72L885.516 385.638C884.649 386.591 884.134 386.896 882.776 386.982C882.236 387.017 881.695 387.015 881.154 387.025C879.705 387.963 878.568 389.392 878.128 391.095C878.091 391.238 878.082 391.387 878.059 391.533C876.389 391.719 875.869 392.468 874.245 392.498C874.139 392.638 874.034 392.779 873.926 392.918C871.252 396.335 842.235 418.33 838.792 419.443C838.683 419.478 838.563 419.461 838.449 419.47C837.222 421.154 836.575 422.17 836.408 424.247C835.687 433.18 835.726 442.452 835.875 451.416C835.93 454.733 836.33 458.062 836.256 461.379C836.179 464.835 835.787 468.275 835.741 471.737C835.643 479.127 836.059 486.513 835.854 493.909C835.701 499.438 834.944 505.008 835.132 510.535C835.363 517.324 835.583 524.233 836.128 530.999C836.399 534.366 837.067 537.812 837.099 541.184C837.159 547.467 835.001 553.688 834.811 559.958C834.558 568.321 838.319 573.57 836.415 582.425C835.002 588.996 836.428 603.653 836.587 611.347C836.652 614.487 836.324 617.619 836.4 620.754C836.529 626.104 837.318 630.23 836.226 635.568C834.682 635.406 833.251 634.674 831.74 634.581C829.947 634.47 828.1 634.999 826.278 634.952C823.452 634.879 820.536 633.824 817.749 634.035L817.779 635.588C815.752 635.648 815.438 634.022 813.804 633.444C813.036 633.172 810.025 633.785 809.079 633.861C805.058 634.181 801.031 634.053 797.016 634.337C794.001 634.55 790.846 635.258 787.832 635.172C786.877 635.144 786.039 634.745 785.192 634.342C784.97 634.236 784.757 634.109 784.529 634.015C780.613 632.395 776.044 634.299 772.282 635.646L770.851 634.963C771.576 634.724 771.933 634.578 772.564 634.116C771.016 633.462 769.659 633.907 768.008 634.103L766.87 632.763C765.502 632.71 765.471 633.1 764.45 633.93C760.304 633.639 754.962 632.636 750.898 633.219C748.742 633.528 747.596 635.551 745.224 635.257L745.327 633.653L744.87 633.264L740.809 634.264C740.19 633.929 739.566 633.608 738.944 633.279C735.159 631.273 723.136 633.79 718.025 633.735L717.041 632.255C715.59 632.208 714.831 632.793 713.665 633.548L713.188 633.862C711.819 633.793 711.306 633.218 710.259 632.483C709.229 631.761 708.943 631.476 707.687 631.732C707.245 632.564 706.832 633.329 706.242 634.066C706.021 633.287 705.875 632.969 705.409 632.264C703.764 632.134 702.248 631.942 700.624 632.354C701.151 633.015 701.26 632.958 701.308 633.851L700.441 633.648L700.123 632.667C698.997 631.947 696.866 632.851 695.484 632.964C693.807 633.101 693.287 633.017 691.965 631.983C690.653 632.597 689.486 633.272 688.037 633.461L687.525 631.932L686.787 631.593L685.923 632.703C684.287 632.533 682.64 632.029 681.041 631.636Q680.042 632.403 679.055 633.187C678.582 638.109 681.079 643.771 681.837 648.688C683.181 657.403 684.161 666.296 685.078 675.067C685.967 683.582 685.946 692.299 686.327 700.857C686.795 711.378 687.547 721.931 687.727 732.467C687.931 744.484 685.785 756.538 684.682 768.48C684.106 774.722 684.233 781.071 683.347 787.277C681.94 797.142 679.36 807.217 678.756 817.138C676.615 817.954 639.852 818.709 635.388 818.316C633.837 818.179 632.456 817.587 631.05 816.958C630.676 817.248 629.577 818.307 629.197 818.393C625.745 819.174 619.817 817.131 615.455 817.788C612.987 818.16 610.494 818.39 608.055 818.93L608.304 819.122L607.379 818.929C607.044 817.487 607.07 817.273 605.989 816.294L604.471 816.159C604.226 817.132 604.493 817.354 604.839 818.265C602.931 819.068 597.171 819.093 595.047 818.733C593.728 818.509 592.594 817.899 591.235 817.736L590.219 819.044C587.605 818.872 585.078 818.521 582.457 818.672C575.885 819.601 565.707 820.717 559.371 818.867C557.757 820.178 541.971 820.463 539.235 820.182C537.812 820.036 536.947 818.503 536.214 819.026L536.224 820.211C533.184 821.365 524.294 819.377 519.659 820.354C518.92 820.509 518.311 820.434 517.577 820.303C514.651 822.324 506.811 820.891 503.231 820.51C498.716 820.381 493.276 819.157 488.865 819.832C488.152 820.506 487.641 821.345 486.614 821.311C482.317 821.17 478.06 820.543 473.767 820.439L473.183 819.952L473.86 818.301Q473.068 818.532 472.284 818.791C471.078 818.413 471.038 818.374 469.858 818.802L469.801 819.311Q470.832 819.499 471.855 819.724L472.222 820.736C471.982 820.928 471.789 821.206 471.501 821.313C468.314 822.501 444.807 821.102 439.081 821.206L359.048 823.027C351.466 823.213 343.985 823.815 336.377 823.838C334.72 823.843 332.849 824.154 331.233 824C330.129 823.895 328.961 823.547 327.954 823.09C326.876 822.597 326.084 822.763 324.938 822.87C324.486 822.484 324.228 822.067 324.041 821.486C323.464 819.691 323.582 816.792 323.343 814.832C322.407 807.163 321.801 799.197 319.782 791.731C318.717 787.791 317.105 784.517 314.965 781.06C314.214 781.299 313.667 781.499 313.119 782.093C312.647 782.603 312.222 783.166 311.677 783.605C309.873 785.059 307.15 786.271 304.886 786.762C300.869 787.634 284.754 788.737 280.537 788.316C273.622 787.626 261.789 786.842 257.13 781.174C249.847 787.628 248.131 804.734 245.978 814.064C244.993 818.333 243.747 822.446 242.299 826.579L241.526 826.857C240.908 826.436 240.466 826.21 239.734 826.002C239.459 825.924 239.179 825.864 238.903 825.786C237.911 825.505 237.122 825.296 236.085 825.229L235.212 826.573L234.128 826.487C233.834 825.591 234.075 825.947 233.474 825.375L232.786 826.338C230.097 826.745 227.413 827.323 224.725 826.646C221.894 825.933 220.593 826.207 217.882 827.054C215.128 827.915 215.212 826.635 212.987 825.914C211.817 825.535 180.002 825.505 174.754 825.35C173.595 824.345 172.747 823.612 171.237 823.162C169.766 824.034 168.736 824.34 167.038 824.57C166.857 824.595 166.675 824.616 166.494 824.638C156.51 823.181 146.547 826.296 136.961 821.784C136.396 820.163 132.593 806.98 132.447 806.804C132.023 806.293 131.274 806.129 130.84 805.625C130.732 805.499 130.748 805.305 130.72 805.141C130.519 803.95 130.744 802.711 130.835 801.515C131.19 796.831 130.046 795.207 127.697 791.219C128.036 789.621 128.751 790.47 129.82 789.368C129.158 787.87 127.669 786.627 127.119 785.262C125.579 781.444 130.079 777.82 126.1 771.173C126.041 770.274 126.127 769.805 126.479 768.977L127.702 769.782L127.701 768.698C126.977 767.956 126.001 767.156 125.668 766.154C125.452 765.506 126.277 764.377 126.584 763.772C126.403 760.918 125.113 758.852 124.308 756.19C123.278 752.787 125.164 750.364 125.196 747.155C125.231 743.718 123.159 740.148 123.59 736.651C123.712 735.665 124.985 735.615 125.546 734.502C125.446 733.469 125.599 734.005 124.96 732.937C124.564 733.432 124.293 734.054 123.662 734.202C123.201 725.987 123.898 717.772 123.338 709.589C123.476 709.494 123.621 709.407 123.754 709.303C124.944 708.367 126.029 707.165 126.235 705.629C125.817 705.033 125.419 704.449 125.056 703.817C124.601 703.023 124.96 702.651 125.192 701.805C125.516 701.59 125.931 701.325 126.219 701.078C127.246 700.2 127.268 700.055 127.379 698.771C126.707 698.206 126.136 697.672 125.58 696.991C125.981 695.643 126.205 695.866 127.38 695.229L127.298 694.752L126.321 694.38C125.554 690.951 126.788 682.856 126.914 679.038C127.102 678.81 127.295 678.587 127.478 678.355C129.388 675.93 127.03 672.846 128.032 670.019C128.861 667.681 130.435 665.207 130.796 662.758C131.14 660.423 130.756 657.82 131.431 655.557C133.036 650.174 137.781 642.106 136.756 636.465C136.522 635.177 136.56 636 136.627 634.637C140.193 634.111 140.068 629.835 141.834 627.161C142.839 625.64 144.492 624.288 145.821 623.043C150.289 622.506 154.205 620.496 158.58 619.921C161.659 611.854 158.668 594.208 158.938 584.958C159.325 571.697 160.895 558.612 160.345 545.282C160.076 538.752 158.521 532.279 158.617 525.738C158.704 519.796 160.706 513.847 160.668 508.023C160.635 502.934 159.753 497.222 158.647 492.263C158.267 490.557 158.259 490.071 158.943 488.369C160.097 485.502 159.654 485.861 158.849 483.13C158.497 481.934 159.626 471.561 159.665 469.425C159.762 464.116 159.095 459.141 158.85 453.893C158.699 450.671 159.259 447.255 159.373 444.013C159.687 435.145 158.964 425.624 160.651 416.922C160.878 415.749 161.107 415.133 160.645 413.985L159.879 411.761C157.711 409.609 153.151 409.512 150.466 407.825C148.198 406.4 139.972 398.489 138.358 398.267C137.137 398.099 137.102 398.893 135.645 397.887C132.681 395.843 130.19 392.584 126.683 391.415C114.823 387.465 104.846 379.351 94.719 372.227C92.8646 370.922 90.0957 368.084 88.1877 367.331C86.5534 366.687 85.3567 367.743 83.7451 366.529L84.7758 365.981C84.1998 364.726 78.2927 361.933 76.7023 361.062C74.7622 360 73.181 358.554 71.0033 359.191C70.6399 359.011 70.2004 358.816 69.8931 358.553C68.6357 357.478 68.659 356.644 68.3782 355.143C66.829 353.903 67.1444 354.802 65.5518 354.48C65.3471 354.438 48.369 343.735 46.9592 342.817C44.979 341.749 42.9338 340.548 41.0844 339.271C39.1168 337.912 35.8949 335.455 35.445 332.987L36.7417 331.419C36.82 331.323 36.8831 331.213 36.9766 331.132C40.478 328.106 48.0536 323.162 52.6682 323.793C55.7009 324.208 60.8143 318.359 63.9686 317.128C71.2161 314.298 78.7265 311.933 85.9783 309.041C97.0761 304.615 107.873 299.437 119.105 295.265C119.76 295.652 120.464 296.162 121.283 296.052C122.46 295.895 125.332 293.045 126.645 292.368C128.078 291.63 130.018 291.515 131.571 290.958C134.202 290.014 143.09 284.954 145.062 285.372C146.161 285.606 146.137 286.056 147.467 285.973L147.381 284.332C149.582 282.545 153.047 282.821 155.624 281.745C156.821 281.245 157.187 280.062 157.664 278.951C157.733 278.79 157.798 278.628 157.866 278.466C161.915 276.25 166.953 276.003 171.456 275.438C176.546 270.974 189.169 266.19 195.877 265.949L201.471 259.434Z"/>
	<path fill="#2B464D" d="M965.93 315.65C967.551 315.723 967.548 315.602 968.675 316.742C968.986 319.198 968.635 322.291 966.979 324.285C966.545 324.808 966.475 324.814 965.99 325.137L964.107 324.858C963.912 325.726 963.977 326.208 964.195 327.066C963.556 327.728 963.083 327.915 962.251 328.227C960.222 328.988 958.391 330.264 956.56 331.409C956.814 332.404 956.642 331.925 957.073 332.846C956.058 333.039 956.567 333.107 955.573 332.504C954.162 332.463 953.487 333.333 952.467 334.284C952.034 334.687 951.631 335.122 951.212 335.54C949.568 337.18 947.848 338.014 945.761 338.945L945.527 339.443C945.42 339.668 945.301 339.887 945.203 340.115C945.112 340.327 945.067 340.559 944.961 340.764C943.373 343.811 937.058 346.251 934.258 348.544C932.611 349.892 931.751 351.95 930.102 353.228C925.397 356.874 919.859 359.897 914.995 363.483C913.773 363.483 914.361 363.534 913.231 363.349C911.439 364.748 910.3 367.078 908.517 368.248L906.201 367.323C904.515 368.512 904.268 369.48 903.627 371.422C901.318 373.168 895.877 373.789 894.396 375.882L895.399 376.683C894.065 378.428 891.828 378.136 890.283 379.402C887.646 381.561 889.71 383.016 885.053 383.72L885.516 385.638C884.649 386.591 884.134 386.896 882.776 386.982C882.236 387.017 881.695 387.015 881.154 387.025C879.705 387.963 878.568 389.392 878.128 391.095C878.091 391.238 878.082 391.387 878.059 391.533C876.389 391.719 875.869 392.468 874.245 392.498C874.139 392.638 874.034 392.779 873.926 392.918C871.252 396.335 842.235 418.33 838.792 419.443C838.683 419.478 838.563 419.461 838.449 419.47C837.222 421.154 836.575 422.17 836.408 424.247C835.687 433.18 835.726 442.452 835.875 451.416C835.93 454.733 836.33 458.062 836.256 461.379C836.179 464.835 835.787 468.275 835.741 471.737C835.643 479.127 836.059 486.513 835.854 493.909C835.701 499.438 834.944 505.008 835.132 510.535C835.363 517.324 835.583 524.233 836.128 530.999C836.399 534.366 837.067 537.812 837.099 541.184C837.159 547.467 835.001 553.688 834.811 559.958C834.558 568.321 838.319 573.57 836.415 582.425C835.002 588.996 836.428 603.653 836.587 611.347C836.652 614.487 836.324 617.619 836.4 620.754C836.529 626.104 837.318 630.23 836.226 635.568C834.682 635.406 833.251 634.674 831.74 634.581C829.947 634.47 828.1 634.999 826.278 634.952C823.452 634.879 820.536 633.824 817.749 634.035L817.779 635.588C815.752 635.648 815.438 634.022 813.804 633.444C813.036 633.172 810.025 633.785 809.079 633.861C805.058 634.181 801.031 634.053 797.016 634.337C794.001 634.55 790.846 635.258 787.832 635.172C786.877 635.144 786.039 634.745 785.192 634.342C784.97 634.236 784.757 634.109 784.529 634.015C780.613 632.395 776.044 634.299 772.282 635.646L770.851 634.963C771.576 634.724 771.933 634.578 772.564 634.116C771.016 633.462 769.659 633.907 768.008 634.103L766.87 632.763C765.502 632.71 765.471 633.1 764.45 633.93C760.304 633.639 754.962 632.636 750.898 633.219C748.742 633.528 747.596 635.551 745.224 635.257L745.327 633.653L744.87 633.264L740.809 634.264C740.19 633.929 739.566 633.608 738.944 633.279C735.159 631.273 723.136 633.79 718.025 633.735L717.041 632.255C715.59 632.208 714.831 632.793 713.665 633.548L713.188 633.862C711.819 633.793 711.306 633.218 710.259 632.483C709.229 631.761 708.943 631.476 707.687 631.732C707.245 632.564 706.832 633.329 706.242 634.066C706.021 633.287 705.875 632.969 705.409 632.264C703.764 632.134 702.248 631.942 700.624 632.354C701.151 633.015 701.26 632.958 701.308 633.851L700.441 633.648L700.123 632.667C698.997 631.947 696.866 632.851 695.484 632.964C693.807 633.101 693.287 633.017 691.965 631.983C690.653 632.597 689.486 633.272 688.037 633.461L687.525 631.932L686.787 631.593L685.923 632.703C684.287 632.533 682.64 632.029 681.041 631.636Q680.042 632.403 679.055 633.187C678.582 638.109 681.079 643.771 681.837 648.688C683.181 657.403 684.161 666.296 685.078 675.067C685.967 683.582 685.946 692.299 686.327 700.857C686.795 711.378 687.547 721.931 687.727 732.467C687.931 744.484 685.785 756.538 684.682 768.48C684.106 774.722 684.233 781.071 683.347 787.277C681.94 797.142 679.36 807.217 678.756 817.138C676.615 817.954 639.852 818.709 635.388 818.316C633.837 818.179 632.456 817.587 631.05 816.958C630.676 817.248 629.577 818.307 629.197 818.393C625.745 819.174 619.817 817.131 615.455 817.788C612.987 818.16 610.494 818.39 608.055 818.93L608.304 819.122L607.379 818.929C607.044 817.487 607.07 817.273 605.989 816.294L604.471 816.159C604.226 817.132 604.493 817.354 604.839 818.265C602.931 819.068 597.171 819.093 595.047 818.733C593.728 818.509 592.594 817.899 591.235 817.736L590.219 819.044C587.605 818.872 585.078 818.521 582.457 818.672C575.885 819.601 565.707 820.717 559.371 818.867C557.757 820.178 541.971 820.463 539.235 820.182C537.812 820.036 536.947 818.503 536.214 819.026L536.224 820.211C533.184 821.365 524.294 819.377 519.659 820.354C518.92 820.509 518.311 820.434 517.577 820.303C514.651 822.324 506.811 820.891 503.231 820.51C498.716 820.381 493.276 819.157 488.865 819.832C488.152 820.506 487.641 821.345 486.614 821.311C482.317 821.17 478.06 820.543 473.767 820.439L473.183 819.952L473.86 818.301Q473.068 818.532 472.284 818.791C471.078 818.413 471.038 818.374 469.858 818.802L469.801 819.311Q470.832 819.499 471.855 819.724L472.222 820.736C471.982 820.928 471.789 821.206 471.501 821.313C468.314 822.501 444.807 821.102 439.081 821.206L359.048 823.027C351.466 823.213 343.985 823.815 336.377 823.838C334.72 823.843 332.849 824.154 331.233 824C330.129 823.895 328.961 823.547 327.954 823.09C326.876 822.597 326.084 822.763 324.938 822.87C324.486 822.484 324.228 822.067 324.041 821.486C323.464 819.691 323.582 816.792 323.343 814.832C322.407 807.163 321.801 799.197 319.782 791.731C318.717 787.791 317.105 784.517 314.965 781.06C323.242 772.449 328.915 763.909 331.487 752.102C333.333 743.627 332.779 736.306 328.638 728.66C328.013 727.506 328.303 727.206 328.64 725.964C326.23 716.288 318.842 710.453 311.167 705.16L311.492 704.613C311.516 703.412 311.438 702.187 311.345 700.99C310.989 696.426 311.989 692.29 312.264 687.791C312.507 683.828 311.471 679.835 311.663 675.875C311.994 669.05 313.592 662.266 313.836 655.426C314.191 645.48 312.114 636.09 314.437 626.087C314.065 625.204 313.735 624.529 313.761 623.549C314.016 613.966 315.663 604.22 315.512 594.654C315.445 590.441 313.7 586.169 313.986 581.969C314.003 581.72 314.031 581.471 314.051 581.221C314.317 577.93 314.978 575.13 315.987 571.987C315.465 570.118 314.683 567.956 314.653 566.012C314.571 560.586 315.605 555.026 315.743 549.575C316.093 535.657 315.975 521.719 316.395 507.794C313.399 503.993 318.285 497.496 316.462 493.087C315.967 491.888 315.613 491.085 315.593 489.76C316.582 488.372 317.477 487.481 317.246 485.678C316.836 482.477 316.769 479.267 316.407 476.068C315.934 471.891 318.027 470.224 318.037 466.841C318.049 462.916 316.404 459.202 316.591 454.105C316.67 454.148 316.753 454.184 316.828 454.234C317.481 454.663 318.094 455.148 318.768 455.548C319.907 456.225 321.839 456.938 323.148 456.574L321.671 453.732C324.528 453.962 324.505 456.473 326.415 458.015L327.206 457.797L327.317 456.582L327.788 456.275L329.181 457.068C330.162 457.017 330.653 457.054 331.528 457.515C333.655 458.635 335.398 458.99 337.744 459.392L338.135 460.009L337.62 460.509L335.558 459.838L334.298 460.671L335.143 459.728C334.823 460.311 334.308 460.815 334.479 461.478C336.175 462.64 339.603 464.209 341.646 464.143L341.727 462.542C342.849 462.591 342.964 463.134 343.707 463.92C344.536 463.258 344.438 462.739 344.691 461.739C345.198 461.827 345.933 463.802 346.508 464.372L347.906 463.219L348.344 463.992C347.827 465.188 347.45 465.895 347.454 467.234L348.227 467.423C348.708 466.741 349.102 466.3 349.78 465.81L351.465 466.446L352.657 465.688C353.319 466.389 353.87 466.967 354.71 467.45L354.835 466.413C356.837 465.982 359.435 469.541 361.337 470.496L362.387 469.682C364.183 469.89 366.729 472.598 368.416 473.663L369.53 472.813C370.771 473.839 372.061 475.143 373.742 475.27C374.057 475.294 374.373 475.293 374.689 475.304C375.852 476.473 374.376 476.29 374.485 477.801C375.473 477.455 376.32 477.05 377.26 476.594L377.817 476.865L376.547 477.827L376.525 478.427C377.091 478.656 377.718 478.95 378.33 479.05C379.881 479.304 380.63 479.036 381.941 478.258C382.475 478.835 383.001 479.296 383.63 479.767C384.029 479.67 384.43 479.578 384.827 479.471C385.128 479.39 385.427 479.301 385.728 479.215L385.885 480.201C386.797 480.837 386.483 480.722 387.373 481.026C387.552 481.088 387.735 481.138 387.916 481.194C387.321 482.068 386.149 482.204 385.16 482.546C386.49 483.307 388.165 482.913 389.61 482.657C391.281 482.362 394.393 484.483 396.003 485.281C397.082 484.941 398.109 484.536 399.156 484.112L399.947 484.503C399.312 484.919 398.797 485.347 398.251 485.874L398.736 486.575C400.723 487.472 402.024 486.503 404.065 486.513C405.137 486.518 405.732 486.754 406.517 487.482C405.563 489.059 404.95 487.824 403.878 489.028C404.306 490.05 404.441 489.997 405.297 490.606C407.247 490.765 408.968 489.968 410.772 489.32C410.476 490.024 410.312 490.534 410.16 491.297C413.318 492.167 416.642 492.602 419.726 493.62C420.189 494.65 419.851 494.241 420.701 494.878C421.823 494.486 423.036 494.004 424.221 493.873C427.322 493.531 433.246 498.563 435.658 500.324L437.579 499.868C438.679 500.375 439.78 500.83 440.906 501.272C440.249 501.675 439.576 501.999 438.884 502.338C440.494 503.397 443.119 503.362 445.031 503.822C445.245 504.328 445.443 504.82 445.607 505.345C445.652 505.488 445.692 505.631 445.735 505.774C446.244 505.515 447.113 504.983 447.704 504.861C448.929 504.61 449.185 504.834 450.098 505.52C450.138 506.457 450.104 507.452 450.44 508.339C450.662 508.927 451.351 509.094 451.942 509.109C453.632 509.15 455.122 508.223 456.882 508.542C458.406 508.818 459.247 511.877 460.633 512.491C462.946 513.516 466.274 512.202 468.708 513.368Q468.934 514.768 469.114 516.174L470.08 516.425C470.135 516.229 470.148 516.016 470.247 515.838C470.809 514.833 471.788 514.846 472.79 514.633L473.448 515.085L472.924 516.321C473.459 517.413 473.049 516.985 474.204 517.557L475.208 516.2C477.335 516.757 478.63 518.969 480.673 519.728C481.426 520.007 485.149 519.885 485.417 520.217C485.92 520.838 485.46 521.229 486.288 522.019C486.609 521.908 486.923 521.779 487.249 521.688C488.537 521.326 488.622 521.496 489.682 522.2C490.043 523.531 490.427 524.613 491.051 525.841L491.673 525.588C491.175 524.793 491.11 524.642 491.013 523.656C492.296 523.356 493.449 522.912 494.756 523.193C494.528 523.998 494.279 524.392 494.483 525.22C495.519 525.135 496.388 525.152 497.417 525.302L498.051 527.089L498.723 527.257L499.794 525.851C502.366 526.531 504.139 529.484 506.82 530.444L507.793 529.664L508.305 529.933C507.8 531.13 507.315 532.134 507.325 533.463C508.65 534.04 511.572 532.647 513.108 532.201C513.763 533.034 513.388 532.607 514.257 533.463L515.318 532.683C516.509 533.079 517.005 533.986 517.723 534.952L518.069 535.426L518.041 535.35C519.296 536.047 519.383 535.868 520.811 535.556L522.946 537.736L523.111 537.086L523.569 537.858L522.814 537.609L523.616 538.327C523.663 537.701 523.667 538.089 523.412 537.091L523.182 536.213C524.199 536.29 525.426 538.193 526.292 538.959L527.45 538.581C529.655 539.172 533.504 539.657 535.149 541.212C534.822 542.351 534.833 542.108 533.9 542.673C532.652 542.539 531.758 542.391 530.537 542.773L530.294 543.746C530.476 544.01 530.583 544.344 530.838 544.539C530.84 544.54 531.755 544.393 531.87 544.374C537.152 543.523 540.523 542.666 545.836 544.042C546.214 543.026 546.434 541.46 546.977 540.563C548.424 538.171 553.595 539.508 556.115 537.282C555.606 536.622 555.243 536.656 554.471 536.401L554.839 535.841C556.198 535.205 557.716 535.611 559.2 535.723C559.096 534.619 559.116 534.179 559.674 533.212C561.404 532.498 562.494 533.579 563.663 533.205C564.593 532.907 566.45 531.055 567.354 530.426C570.007 528.578 572.89 527.09 575.593 525.325C577.41 524.139 578.983 522.297 580.945 521.376C582.137 520.817 583.612 520.628 584.905 520.427C585.955 520.263 586.691 520.023 587.652 519.568L587.505 518.038C590.289 514.625 596.52 516.086 599.248 512.955L598.026 512.481C598.618 511.518 598.938 511.471 599.89 510.924Q600.53 511.133 601.173 511.334C602.559 511.758 602.311 511.706 603.481 510.806C608.179 507.194 613.776 503.594 619.041 500.817C621.167 499.695 623.915 499.437 625.829 498.072C627.564 496.836 628.815 494.418 630.762 493.545C634.926 491.676 639.427 491.289 643.645 489.029C642.59 488.907 642.097 488.927 641.202 488.313C641.304 488.203 641.394 488.08 641.508 487.982C642.601 487.041 645.981 485.783 647.47 485.952C648.566 486.076 649.393 486.038 650.492 485.962C651.164 484.331 651.602 482.321 652.857 481.013C653.458 480.389 654.137 479.783 655.017 479.823L654.434 482.203L653.023 481.97L654.501 482.457L654.281 482.804C657.903 480.67 662.336 480.172 665.774 477.871L666.025 476.254C666.341 476.138 666.641 475.964 666.973 475.905C667.757 475.765 668.863 476.123 669.656 475.92C672.126 475.287 673.285 470.158 675.724 469.134C677.184 468.521 679.063 469.736 680.638 469.05C681.241 468.788 681.103 468.698 681.361 468.026C680.89 467.129 680.542 466.671 680.541 465.638L681.27 465.491C681.557 466.525 681.866 467.487 682.287 468.474C684.158 468.241 686.52 466.277 688.156 465.26C689.017 465.83 689.14 465.922 690.221 465.988L690.64 465.363C689.559 464.811 688.604 464.287 687.624 463.562L687.694 462.697C688.226 462.691 688.759 462.688 689.29 462.717L689.79 462.748L690.197 460.78C690.451 461.138 690.938 461.852 691.235 462.146C692.227 463.131 692.938 462.788 694.218 462.666C692.991 462.255 692.77 462.229 691.971 461.236L692.135 460.056C693.72 459.782 694.885 461.982 696.647 462.391C697.825 461.752 698.967 461.03 700.347 461.025C700.622 461.024 700.896 461.039 701.171 461.046C702.09 459.638 700.121 456.803 700.758 454.828C700.987 454.119 701.501 454.083 702.115 453.775C703.251 454.007 704.349 454.158 705.503 454.264C707.402 453.074 708.724 451.305 710.171 449.622C711.084 450.597 711.477 451.303 712.966 451.181C714.953 451.02 716.24 447.373 717.679 445.963L718.076 446.414L717.084 448.701L717.519 449.172C718.77 448.927 718.235 449.222 719.114 448.267C719.069 447.209 718.969 446.191 719.291 445.164C719.841 443.41 722.222 444.432 723.756 443.715L723.621 444.003L724.557 442.008C726.486 440.488 733.157 437.048 735.543 437.24C735.882 437.267 736.217 437.377 736.556 437.349C737.698 437.254 738.49 435.99 739.224 435.206C739.171 434.211 739.155 434.684 739.247 433.787C740.797 433.62 743.338 433.601 744.726 432.851C745.568 432.397 746.753 430.789 747.492 430.022C748.494 428.983 750.817 426.189 752.213 425.944C752.864 425.83 753.527 426.341 754.176 426.218C755.632 425.942 759.699 422.381 761.146 421.376C762.213 421.562 761.929 421.454 762.762 421.768C762.925 421.828 763.084 421.897 763.245 421.961C764.963 420.354 766.741 417.472 768.743 416.446L769.584 417.858C771.577 418.183 774.437 417.926 776.121 416.768C777.08 416.108 776.597 416.295 777.589 415.994C783.389 414.232 779.905 412.575 782.565 410.052C782.724 410.72 782.901 411.332 783.116 411.989C784.796 410.718 789.377 405.588 791.24 405.77C792.795 405.921 794.046 406.911 795.684 406.734C795.762 406.476 796.052 405.468 796.181 405.263C796.922 404.085 799.524 404.557 800.814 404.174C802.479 403.681 802.903 401.285 803.624 399.855C804.725 397.674 811.451 396.371 813.722 395.685C813.864 395.09 814.033 394.502 814.218 393.919C818.163 392.069 821.791 389.344 825.763 387.719C825.894 387.665 826.028 387.617 826.159 387.564C826.726 387.335 826.166 387.488 827.377 387.375L827.142 388.672L827.554 389.043L829.164 388.51L829.551 386.422L830.128 386.295C830.893 386.679 831.746 387.179 832.566 387.415C833.764 387.76 834.494 387.257 835.516 386.687C835.414 386.571 835.332 386.432 835.208 386.338C834.938 386.132 834.632 385.975 834.345 385.794C834.535 385.372 834.718 384.946 834.935 384.538C838.58 377.687 837.774 382.625 841.906 381.408C842.985 380.105 843.511 378.966 844.109 377.383L844.323 376.803L845.122 376.774C845.341 377.525 845.574 378.186 845.925 378.885C847.545 377.799 848.579 376.431 849.995 375.143C851.554 373.725 852.935 372.62 854.871 371.743C856.098 371.866 856.924 372.032 858.122 371.64C857.623 370.8 857.604 370.742 857.597 369.833L858.202 369.72L858.973 371.231L859.691 371.457C860.381 370.589 860.299 369.844 860.306 368.791L860.305 368.346C862.51 365.554 865.041 366.97 867.858 365.681C867.923 364.895 868.029 364.222 868.254 363.467L869.666 363.901L870.068 363.525L869.265 362.941L869.315 362.52C870.959 362.172 872.583 363.093 874.159 363.657C876.912 363.1 875.678 361.252 877.212 359.847C877.889 359.228 879.35 358.868 880.175 358.352C880.347 358.244 880.477 358.076 880.655 357.98C882.265 357.106 880.876 358.086 881.934 357.336C882.892 356.656 883.364 356.223 884.605 356.178C885.152 357.045 885.383 357.359 886.236 357.987L886.573 357.082L885.592 355.503L885.895 354.86L887.538 354.314C888.497 355.071 887.947 354.857 889.194 354.931C889.583 354.59 889.963 354.238 890.368 353.915C891.043 353.375 891.55 353.013 892.142 352.352C892.315 352.158 892.48 351.958 892.649 351.76C893.058 352.805 892.718 352.352 893.759 353.045L894.586 352.528C894.398 351.716 894.479 351.985 894.254 351.278L894.108 350.828L895.046 350.071C895.924 350.712 895.905 351.768 896.157 352.803C897.363 351.84 897.316 350.092 898.141 348.722C899.15 349.444 898.575 349.217 899.887 349.349C903.242 346.384 901.252 347.238 902.228 345.712C902.606 345.121 907.511 345.586 908.651 344.225C908.12 343.529 907.83 343.082 907.488 342.257L908.849 341.711C909.912 342.63 909.642 343.942 909.754 345.307L910.509 345.794C914.31 344.323 912.536 342.176 914.251 339.284C918.119 336.498 923.772 337.367 926.123 335.744C927.191 335.006 926.843 333.854 928.378 333.474C928.038 334.333 927.905 334.205 928.253 335.135C928.864 334.904 929.457 334.669 930.048 334.388C930.207 334.312 930.365 334.232 930.524 334.155L931.513 335.08L932.023 334.68C931.569 333.92 931.12 333.242 930.568 332.546C930.396 332.329 930.218 332.118 930.043 331.903C930.752 331.828 931.46 331.767 932.171 331.709C932.586 330.698 932.852 330.318 933.75 329.69L934.761 330.879C936.005 330.798 936.557 330.535 937.593 329.854C937.722 329.332 937.845 328.744 938.068 328.253C938.885 326.456 950.343 323.396 952.585 322.344C954.94 321.239 956.746 318.015 959.159 317.326C960.643 316.903 962.276 316.431 963.808 316.266C964.667 316.173 965.154 316.014 965.93 315.65Z"/>
	<path fill="#F2820F" d="M314.437 626.087C316.67 624.963 321.402 624.999 323.85 625.852C324.492 626.076 325.006 626.48 325.544 626.879L325.961 625.917C331.263 624.903 337.03 625.517 342.415 625.631C346.596 625.72 350.751 625.401 354.937 625.638C359.826 625.915 364.678 626.733 369.552 627.189C376.924 627.879 384.598 628.253 392.006 628.525C402.522 628.912 413.033 627.909 423.539 627.994C440.418 628.131 457.386 629.715 474.279 630.274C482.195 630.535 490.187 629.522 498.168 629.711C500.77 631.134 504.913 634.145 507.781 634.455L509.009 633.889C510.293 634.857 510.507 637.27 511.779 637.307L512.479 636.67L513.03 636.872C513.307 638.207 513.217 639.218 514.285 640.125L514.914 639.878L515.282 637.826L515.796 637.498C516.472 638.09 516.297 637.725 516.395 638.469C516.541 639.585 516.574 640.817 517.529 641.564C520.947 644.24 525.282 646.489 529.031 648.725C530.757 647.465 532.352 646.255 534.334 645.413L535.045 645.684L534.253 647.328L534.862 647.808C536.991 646.796 539.109 645.721 541.28 644.803C540.746 645.935 540.075 646.908 539.365 647.931L539.722 648.154C543.915 646.117 542.456 640.268 547.783 641.935L548.339 641.528L547.835 640.305C548.803 639.443 549.54 639.429 550.777 639.251C550.022 638.25 549.119 637.326 548.805 636.1C549.734 636.529 550.338 637.101 551.082 637.795L552.552 638.055C554.132 636.399 555.501 635.124 557.3 633.748C557.386 633.682 557.445 633.587 557.518 633.507L558.366 633.217C559.377 633.816 560.069 633.938 561.233 634.051L561.192 633.564C560.355 632.875 560.712 633.311 560.196 632.199C561.281 631.345 561.395 631.338 562.781 631.249C568.986 631.978 590.627 630.192 593.836 632.005L594.646 630.612C595.687 630.445 596.432 630.565 597.458 630.717C600.802 631.213 616.19 631.716 618.988 631.13C620.986 630.711 623.006 630.16 625.054 630.266C625.717 630.822 625.871 631.028 626.319 631.83L626.906 631.611C628.361 631.081 629.445 630.686 630.998 630.765C631.919 631.832 631.553 632.552 632.662 633.497C633.568 632.792 634.971 632.196 636.104 631.998C639.845 631.343 644.514 632.048 648.362 632.004C657.141 631.903 666.383 630.912 675.1 631.78C676.737 631.943 677.692 632.281 679.055 633.187C678.582 638.109 681.079 643.771 681.837 648.688C683.181 657.403 684.161 666.296 685.078 675.067C685.967 683.582 685.946 692.299 686.327 700.857C686.795 711.378 687.547 721.931 687.727 732.467C687.931 744.484 685.785 756.538 684.682 768.48C684.106 774.722 684.233 781.071 683.347 787.277C681.94 797.142 679.36 807.217 678.756 817.138C676.615 817.954 639.852 818.709 635.388 818.316C633.837 818.179 632.456 817.587 631.05 816.958C630.676 817.248 629.577 818.307 629.197 818.393C625.745 819.174 619.817 817.131 615.455 817.788C612.987 818.16 610.494 818.39 608.055 818.93L608.304 819.122L607.379 818.929C607.044 817.487 607.07 817.273 605.989 816.294L604.471 816.159C604.226 817.132 604.493 817.354 604.839 818.265C602.931 819.068 597.171 819.093 595.047 818.733C593.728 818.509 592.594 817.899 591.235 817.736L590.219 819.044C587.605 818.872 585.078 818.521 582.457 818.672C575.885 819.601 565.707 820.717 559.371 818.867C557.757 820.178 541.971 820.463 539.235 820.182C537.812 820.036 536.947 818.503 536.214 819.026L536.224 820.211C533.184 821.365 524.294 819.377 519.659 820.354C518.92 820.509 518.311 820.434 517.577 820.303C514.651 822.324 506.811 820.891 503.231 820.51C498.716 820.381 493.276 819.157 488.865 819.832C488.152 820.506 487.641 821.345 486.614 821.311C482.317 821.17 478.06 820.543 473.767 820.439L473.183 819.952L473.86 818.301Q473.068 818.532 472.284 818.791C471.078 818.413 471.038 818.374 469.858 818.802L469.801 819.311Q470.832 819.499 471.855 819.724L472.222 820.736C471.982 820.928 471.789 821.206 471.501 821.313C468.314 822.501 444.807 821.102 439.081 821.206L359.048 823.027C351.466 823.213 343.985 823.815 336.377 823.838C334.72 823.843 332.849 824.154 331.233 824C330.129 823.895 328.961 823.547 327.954 823.09C326.876 822.597 326.084 822.763 324.938 822.87C324.486 822.484 324.228 822.067 324.041 821.486C323.464 819.691 323.582 816.792 323.343 814.832C322.407 807.163 321.801 799.197 319.782 791.731C318.717 787.791 317.105 784.517 314.965 781.06C323.242 772.449 328.915 763.909 331.487 752.102C333.333 743.627 332.779 736.306 328.638 728.66C328.013 727.506 328.303 727.206 328.64 725.964C326.23 716.288 318.842 710.453 311.167 705.16L311.492 704.613C311.516 703.412 311.438 702.187 311.345 700.99C310.989 696.426 311.989 692.29 312.264 687.791C312.507 683.828 311.471 679.835 311.663 675.875C311.994 669.05 313.592 662.266 313.836 655.426C314.191 645.48 312.114 636.09 314.437 626.087Z"/>
	<path fill="#F2820F" d="M632.662 633.497C633.568 632.792 634.971 632.196 636.104 631.998C639.845 631.343 644.514 632.048 648.362 632.004C657.141 631.903 666.383 630.912 675.1 631.78C676.737 631.943 677.692 632.281 679.055 633.187C678.582 638.109 681.079 643.771 681.837 648.688C683.181 657.403 684.161 666.296 685.078 675.067C685.967 683.582 685.946 692.299 686.327 700.857C686.795 711.378 687.547 721.931 687.727 732.467C687.931 744.484 685.785 756.538 684.682 768.48C684.106 774.722 684.233 781.071 683.347 787.277C681.94 797.142 679.36 807.217 678.756 817.138C676.615 817.954 639.852 818.709 635.388 818.316C633.837 818.179 632.456 817.587 631.05 816.958L634.63 812.254C634.981 798.908 638.476 785.921 639.617 772.699C642.149 743.376 643.84 713.312 641.563 683.928C641.084 677.744 639.613 671.789 638.936 665.641C637.844 655.713 637.657 642.101 632.662 633.497Z"/>
	<path fill="#16BC74" d="M593.836 632.005L594.646 630.612C595.687 630.445 596.432 630.565 597.458 630.717C600.802 631.213 616.19 631.716 618.988 631.13C620.986 630.711 623.006 630.16 625.054 630.266C625.717 630.822 625.871 631.028 626.319 631.83L626.906 631.611C628.361 631.081 629.445 630.686 630.998 630.765C631.919 631.832 631.553 632.552 632.662 633.497C637.657 642.101 637.844 655.713 638.936 665.641C639.613 671.789 641.084 677.744 641.563 683.928C643.84 713.312 642.149 743.376 639.617 772.699C638.476 785.921 634.981 798.908 634.63 812.254L631.05 816.958C630.676 817.248 629.577 818.307 629.197 818.393C625.745 819.174 619.817 817.131 615.455 817.788C612.987 818.16 610.494 818.39 608.055 818.93L608.304 819.122L607.379 818.929C607.044 817.487 607.07 817.273 605.989 816.294L604.471 816.159C604.226 817.132 604.493 817.354 604.839 818.265C602.931 819.068 597.171 819.093 595.047 818.733C593.728 818.509 592.594 817.899 591.235 817.736C591.173 816.652 590.816 815.565 590.817 814.487C590.819 810.506 593.204 805.303 593.926 801.216C594.957 795.378 595.785 789.422 596.663 783.553C599.645 763.598 601.468 743.847 601.681 723.678C601.848 707.831 601.303 691.698 599.674 675.925C598.81 667.556 597.984 659.06 596.817 650.733C595.989 644.829 593.079 637.813 593.836 632.005Z"/>
	<path fill="#16BC74" d="M314.437 626.087C316.67 624.963 321.402 624.999 323.85 625.852C324.492 626.076 325.006 626.48 325.544 626.879C326.93 627.64 327.291 628.069 327.787 629.592C328.92 633.07 329.331 636.875 330.218 640.437C331.839 646.939 333.968 653.394 335.067 660.012C335.819 664.539 335.754 669.151 336.278 673.704Q338.696 694.533 339.338 715.492Q339.98 736.45 338.841 757.388C338.468 764.461 337.64 771.853 336.908 778.914C336.39 783.915 335.142 788.008 336.117 793.081C331.614 802.607 332.374 813.791 327.954 823.09C326.876 822.597 326.084 822.763 324.938 822.87C324.486 822.484 324.228 822.067 324.041 821.486C323.464 819.691 323.582 816.792 323.343 814.832C322.407 807.163 321.801 799.197 319.782 791.731C318.717 787.791 317.105 784.517 314.965 781.06C323.242 772.449 328.915 763.909 331.487 752.102C333.333 743.627 332.779 736.306 328.638 728.66C328.013 727.506 328.303 727.206 328.64 725.964C326.23 716.288 318.842 710.453 311.167 705.16L311.492 704.613C311.516 703.412 311.438 702.187 311.345 700.99C310.989 696.426 311.989 692.29 312.264 687.791C312.507 683.828 311.471 679.835 311.663 675.875C311.994 669.05 313.592 662.266 313.836 655.426C314.191 645.48 312.114 636.09 314.437 626.087Z"/>
	<path fill="#90E4F8" d="M564.064 627.966C569.891 626.558 576.808 618.83 581.604 615.244C583.764 613.629 586.171 612.639 588.525 611.368C587.312 611.407 586.345 611.533 585.186 611.112C588.097 609.113 593.266 609.046 595.594 606.779C596.562 605.835 596.658 604.453 597.931 603.503L599.166 603.927L599.962 603.432L599.423 602.468C600.452 601.662 601.165 601.831 602.429 601.742C603.852 599.579 605.182 598.885 607.309 597.459C608.895 596.397 609.921 595.791 610.278 593.834C610.319 593.607 610.346 593.377 610.38 593.149L611.306 592.648C611.356 593.398 611.36 593.051 611.283 593.91L611.22 594.563C611.575 594.414 611.943 594.27 612.287 594.092C613.5 593.463 615.035 592.539 615.443 591.234L613.964 591.112L613.485 592.064C613.887 590.766 614.092 590.88 615.144 590.127L616.481 590.822C618.257 590.392 619.587 588.365 620.86 587.116C622.319 585.685 623.342 585.822 625.241 585.849L625.534 585.261L624.077 583.726L624.313 583.034L625.965 582.99C626.897 582.071 626.792 581.714 626.994 580.399C627.828 579.681 628.414 580.806 629.691 580.815C629.774 580.678 629.854 580.54 629.939 580.405C630.082 580.18 630.233 579.961 630.375 579.736C633.882 574.163 641.662 574.049 646.165 569.779C647.155 568.841 647.122 566.184 648.032 564.899C648.976 563.566 651.976 563.112 653.467 562.877L654.071 562.788L653.808 562.426L654.59 562.682C655.293 562.217 655.721 561.787 656.292 561.178L654.879 561.139L655.079 560.266C656.045 559.516 657.284 559.123 658.459 558.816C658.796 558.727 659.144 558.686 659.48 558.593C661.287 558.091 670.689 550.707 671.499 548.981C671.854 548.227 672.157 547.46 672.544 546.706C673.802 546.195 674.251 546.512 675.521 546.799L675.938 546.244C675.083 545.605 674.392 544.952 673.667 544.167C674.673 543.436 677.088 543.885 678.391 543.929L678.323 542.401C679.137 542.168 679.777 541.943 680.499 541.499C680.181 540.71 680.244 541.14 680.39 540.198C682.364 539.893 683.086 539.818 684.407 538.295L683.921 537.187C684.773 534.552 691.844 532.558 694.45 531.162C694.325 530.455 694.268 530.05 694.458 529.337C694.505 529.162 694.569 528.993 694.625 528.821L694.137 529.133C695.317 527.874 699.048 528.714 700.77 528.03C702.644 527.285 703.458 524.04 704.888 522.606C706.819 520.672 709.425 521.185 710.846 518.299L709.745 516.838L709.931 515.882L710.571 515.583L710.732 516.68C712.279 516.26 712.382 516.184 713.864 516.75C714.188 515.788 714.396 515.244 715 514.406L716.527 514.605L717.14 514.112C717.272 513.465 717.381 512.704 717.595 512.071C718.31 509.957 719.652 510.517 721.425 509.503C720.56 508.682 720.909 509.117 720.339 508.23L721.712 507.583L721.711 506.852L722.486 506.343C723.134 507.32 722.729 506.931 723.682 507.532C724.722 507.253 725.235 507.103 726.039 506.334C726.819 505.588 726.593 505.453 726.607 504.461C728.368 502.589 732.004 501.535 734.357 500.378C736.229 499.458 736.758 499.216 737.417 497.217C737.522 496.896 737.761 496.1 737.902 495.779C738.407 494.63 738.914 494.275 740.036 493.826C740.324 494.361 740.609 494.846 740.946 495.354C742.956 493.973 743.745 491.399 745.431 489.651C746.174 488.88 745.779 489.034 746.682 489.012L746.669 491.044C747.907 491.119 755.033 484.485 756.387 483.386L756.359 481.893C760.639 479.411 764.847 476.98 769.293 474.796L767.922 474.306C768.146 474.058 768.334 473.77 768.595 473.561C769.802 472.596 771.089 472.272 772.273 471.056C773.345 469.954 774.202 468.262 775.319 467.292C776.809 465.998 779.831 466.632 781.268 464.728L780.576 463.756C782.239 462.447 783.665 463.073 785.302 461.78C788.579 459.19 791.861 453.987 795.719 452.567L795.898 453.007C795.31 453.573 794.747 454.156 794.187 454.75L794.774 455.027C795.896 454.325 796.832 453.769 797.634 452.68L796.143 451.835C796.313 451.081 796.122 451.46 796.935 450.836C797.682 451.04 798.376 451.195 799.143 451.33C802.001 449.522 804.285 446.92 806.655 444.533C806.8 444.66 806.959 444.771 807.089 444.913C807.237 445.074 807.353 445.262 807.485 445.436C809.689 443.5 809.342 441.616 809.759 439.001C810.44 439.293 811.074 439.5 811.794 439.672C814.367 438.22 820.744 435.477 822.013 433.02C821.334 432.995 821.063 433.028 820.463 432.675C824.39 429.987 828.277 427.154 832.341 424.679L832.18 423.971L830.502 423.065C830.559 423.057 830.616 423.047 830.673 423.042C832.755 422.843 833.832 421.234 835.528 420.19C836.829 419.388 836.974 419.105 838.449 419.47C837.222 421.154 836.575 422.17 836.408 424.247C835.687 433.18 835.726 442.452 835.875 451.416C835.93 454.733 836.33 458.062 836.256 461.379C836.179 464.835 835.787 468.275 835.741 471.737C835.643 479.127 836.059 486.513 835.854 493.909C835.701 499.438 834.944 505.008 835.132 510.535C835.363 517.324 835.583 524.233 836.128 530.999C836.399 534.366 837.067 537.812 837.099 541.184C837.159 547.467 835.001 553.688 834.811 559.958C834.558 568.321 838.319 573.57 836.415 582.425C835.002 588.996 836.428 603.653 836.587 611.347C836.652 614.487 836.324 617.619 836.4 620.754C836.529 626.104 837.318 630.23 836.226 635.568C834.682 635.406 833.251 634.674 831.74 634.581C829.947 634.47 828.1 634.999 826.278 634.952C823.452 634.879 820.536 633.824 817.749 634.035L817.779 635.588C815.752 635.648 815.438 634.022 813.804 633.444C813.036 633.172 810.025 633.785 809.079 633.861C805.058 634.181 801.031 634.053 797.016 634.337C794.001 634.55 790.846 635.258 787.832 635.172C786.877 635.144 786.039 634.745 785.192 634.342C784.97 634.236 784.757 634.109 784.529 634.015C780.613 632.395 776.044 634.299 772.282 635.646L770.851 634.963C771.576 634.724 771.933 634.578 772.564 634.116C771.016 633.462 769.659 633.907 768.008 634.103L766.87 632.763C765.502 632.71 765.471 633.1 764.45 633.93C760.304 633.639 754.962 632.636 750.898 633.219C748.742 633.528 747.596 635.551 745.224 635.257L745.327 633.653L744.87 633.264L740.809 634.264C740.19 633.929 739.566 633.608 738.944 633.279C735.159 631.273 723.136 633.79 718.025 633.735L717.041 632.255C715.59 632.208 714.831 632.793 713.665 633.548L713.188 633.862C711.819 633.793 711.306 633.218 710.259 632.483C709.229 631.761 708.943 631.476 707.687 631.732C707.245 632.564 706.832 633.329 706.242 634.066C706.021 633.287 705.875 632.969 705.409 632.264C703.764 632.134 702.248 631.942 700.624 632.354C701.151 633.015 701.26 632.958 701.308 633.851L700.441 633.648L700.123 632.667C698.997 631.947 696.866 632.851 695.484 632.964C693.807 633.101 693.287 633.017 691.965 631.983C690.653 632.597 689.486 633.272 688.037 633.461L687.525 631.932L686.787 631.593L685.923 632.703C684.287 632.533 682.64 632.029 681.041 631.636Q680.042 632.403 679.055 633.187C677.692 632.281 676.737 631.943 675.1 631.78C666.383 630.912 657.141 631.903 648.362 632.004C644.514 632.048 639.845 631.343 636.104 631.998C634.971 632.196 633.568 632.792 632.662 633.497C631.553 632.552 631.919 631.832 630.998 630.765C629.445 630.686 628.361 631.081 626.906 631.611L626.319 631.83C625.871 631.028 625.717 630.822 625.054 630.266C623.006 630.16 620.986 630.711 618.988 631.13C616.19 631.716 600.802 631.213 597.458 630.717C596.432 630.565 595.687 630.445 594.646 630.612L593.836 632.005C590.627 630.192 568.986 631.978 562.781 631.249C562.967 631.067 563.17 630.9 563.34 630.701C564.331 629.541 564.283 629.392 564.064 627.966Z"/>
	<path fill="#90E4F8" d="M316.395 507.794C316.548 508.014 316.708 508.229 316.853 508.454C317.393 509.296 317.598 509.931 317.837 510.885L318.559 511.002L319.402 510.176Q320.932 511.596 322.405 513.075C322.832 512.722 323.252 512.362 323.657 511.984C324.991 512.988 324.506 514.046 325.262 515.328C325.837 516.303 328.806 517.528 329.889 518.168C332.267 519.576 340.017 526.433 341.998 526.519L343.031 526.109C343.689 527.054 343.148 527.326 343.514 528.062C343.849 528.732 358.82 538.927 360.893 540.548C361.801 540.326 362.527 539.996 363.359 539.572L364.265 540.035L364.258 540.599C364.254 541.533 364.253 541.198 364.34 542.301L365.334 542.47L366.098 541.638C368.602 542.562 371.538 545.108 373.395 547.029L373.208 548.58L373.972 548.898L374.746 548.109L375.815 548.886L375.907 550.23C379.228 552.183 383.134 553.354 386.292 555.44L385.676 556.917C386.738 558.246 387.976 558.306 389.589 558.608C390.633 558.803 391.17 558.972 391.971 559.723C392.653 561.263 392.793 561.787 394.168 562.829C395.096 562.808 395.599 562.694 396.428 562.275C396.732 563.151 396.742 563.5 396.707 564.398C399.183 565.68 402.334 564.381 404.874 565.373L404.656 565.832L403.696 566.139C404.595 568.434 407.606 570.925 409.535 572.461L409.704 572.045L409.063 570.608C410.502 571.053 425.59 581.733 428.83 583.622L429.394 581.811C430.488 583.096 429.18 583.793 430.794 584.566L432.021 583.44C432.295 584.229 432.311 584.934 432.374 585.762L433.191 586.805L434.175 586.701L433.826 585.228C436.114 586.686 434.015 587.341 438.892 589.414C442.342 590.879 443.641 593.987 446.336 596.259C447.83 597.517 448.648 596.371 449.951 596.817C452.695 597.756 455.499 602.923 458.758 601.88C459.059 601.784 459.395 601.513 459.651 601.325C459.87 602.147 459.729 602.676 459.605 603.505C460.488 604.3 459.975 604.109 461.06 604.132C462.654 604.165 464.066 604.075 465.511 604.876L465.67 605.26C465.444 605.456 465.216 605.65 464.992 605.85C464.321 606.447 464.018 606.891 463.707 607.748L464.319 608.18L465.781 607.499C467.095 608.461 466.849 609.556 468.522 610.119L470.535 609.547C471.525 610.521 471.541 611.378 471.891 612.687C472.543 612.404 472.467 612.185 472.746 611.561C473.559 611.999 473.779 612.419 474.304 613.157C474.153 613.668 473.883 614.069 474.09 614.574C474.471 614.039 474.797 613.565 475.093 612.976L474.736 611.308L475.173 611.38C475.763 612.312 476.163 613.216 476.683 614.164C477.292 615.275 484.853 621.844 486.035 622.353C485.552 621.518 484.597 620.29 484.428 619.37C484.554 619.468 484.68 619.567 484.808 619.663C487.186 621.446 495.312 623.711 496.309 625.996L494.404 625.898L495.125 626.804L495.073 626.713Q496.618 627.25 498.152 627.816C498.423 628.783 498.524 628.68 498.168 629.711C490.187 629.522 482.195 630.535 474.279 630.274C457.386 629.715 440.418 628.131 423.539 627.994C413.033 627.909 402.522 628.912 392.006 628.525C384.598 628.253 376.924 627.879 369.552 627.189C364.678 626.733 359.826 625.915 354.937 625.638C350.751 625.401 346.596 625.72 342.415 625.631C337.03 625.517 331.263 624.903 325.961 625.917L325.544 626.879C325.006 626.48 324.492 626.076 323.85 625.852C321.402 624.999 316.67 624.963 314.437 626.087C314.065 625.204 313.735 624.529 313.761 623.549C314.016 613.966 315.663 604.22 315.512 594.654C315.445 590.441 313.7 586.169 313.986 581.969C314.003 581.72 314.031 581.471 314.051 581.221C314.317 577.93 314.978 575.13 315.987 571.987C315.465 570.118 314.683 567.956 314.653 566.012C314.571 560.586 315.605 555.026 315.743 549.575C316.093 535.657 315.975 521.719 316.395 507.794Z"/>
	<path fill="#16BC74" d="M145.821 623.043C150.289 622.506 154.205 620.496 158.58 619.921C158.631 621.474 158.463 621.828 159.48 623.062C163.096 624.419 166.968 624.285 170.699 625.193C171.022 625.147 171.508 625.093 171.799 624.97C174.893 623.664 178.112 623.157 181.424 622.468C182.155 623.265 182.082 623.712 182.292 624.747L183.119 624.803L183.636 622.635C185.356 621.593 189.239 622.28 191.181 622.605L191.172 623.834L192.585 624.068C193.507 623.632 194.13 623.375 195.154 623.333C200.69 627.27 198.547 623.053 202.742 622.708L203.671 623.942C205.341 624.163 205.926 622.747 207.675 622.816L208.094 624.714L208.734 625.042C209.241 624.184 209.121 624.475 209.433 623.674C209.497 623.51 209.556 623.343 209.617 623.177L210.28 623.306L210.089 624.724C210.219 624.779 210.342 624.922 210.48 624.89C211.576 624.634 212.789 623.236 213.967 623.028C215.89 622.69 219.358 625.546 223.473 624.812C226.057 624.351 228.621 624.152 231.225 624.559L231.302 626.163C233.168 626.296 231.948 624.013 233.995 623.987Q236.79 623.966 239.568 624.274Q242.347 624.583 245.069 625.217C245.484 625.311 245.932 625.704 246.31 625.51C246.599 625.361 246.484 624.341 246.779 624.149C247.824 623.469 253.808 625.737 256.679 624.291C254.925 624.118 253.192 623.878 251.449 623.62L251.414 623.216C255.488 622.271 258.379 625.041 262.225 625.211C263.836 625.282 265.476 623.935 267.027 623.61C268.656 623.27 269.69 624.572 270.892 625.478L270.881 626.062C270.842 630.179 271.685 634.196 271.663 638.329C271.61 648.346 270.367 658.292 270.02 668.279C269.704 677.359 271.289 694.83 268.816 702.64L269.011 704.837L269.641 705.289C269.787 705.18 269.93 705.067 270.079 704.963C276.569 700.433 294.287 700.103 302.193 701.702C305.045 702.279 307.56 703.067 310.255 704.14C310.665 704.304 311.08 704.455 311.492 704.613L311.167 705.16C318.842 710.453 326.23 716.288 328.64 725.964C328.303 727.206 328.013 727.506 328.638 728.66C332.779 736.306 333.333 743.627 331.487 752.102C328.915 763.909 323.242 772.449 314.965 781.06C314.214 781.299 313.667 781.499 313.119 782.093C312.647 782.603 312.222 783.166 311.677 783.605C309.873 785.059 307.15 786.271 304.886 786.762C300.869 787.634 284.754 788.737 280.537 788.316C273.622 787.626 261.789 786.842 257.13 781.174C249.847 787.628 248.131 804.734 245.978 814.064C244.993 818.333 243.747 822.446 242.299 826.579L241.526 826.857C240.908 826.436 240.466 826.21 239.734 826.002C239.459 825.924 239.179 825.864 238.903 825.786C237.911 825.505 237.122 825.296 236.085 825.229L235.212 826.573L234.128 826.487C233.834 825.591 234.075 825.947 233.474 825.375L232.786 826.338C230.097 826.745 227.413 827.323 224.725 826.646C221.894 825.933 220.593 826.207 217.882 827.054C215.128 827.915 215.212 826.635 212.987 825.914C211.817 825.535 180.002 825.505 174.754 825.35C173.595 824.345 172.747 823.612 171.237 823.162C169.766 824.034 168.736 824.34 167.038 824.57C166.857 824.595 166.675 824.616 166.494 824.638C156.51 823.181 146.547 826.296 136.961 821.784C136.396 820.163 132.593 806.98 132.447 806.804C132.023 806.293 131.274 806.129 130.84 805.625C130.732 805.499 130.748 805.305 130.72 805.141C130.519 803.95 130.744 802.711 130.835 801.515C131.19 796.831 130.046 795.207 127.697 791.219C128.036 789.621 128.751 790.47 129.82 789.368C129.158 787.87 127.669 786.627 127.119 785.262C125.579 781.444 130.079 777.82 126.1 771.173C126.041 770.274 126.127 769.805 126.479 768.977L127.702 769.782L127.701 768.698C126.977 767.956 126.001 767.156 125.668 766.154C125.452 765.506 126.277 764.377 126.584 763.772C126.403 760.918 125.113 758.852 124.308 756.19C123.278 752.787 125.164 750.364 125.196 747.155C125.231 743.718 123.159 740.148 123.59 736.651C123.712 735.665 124.985 735.615 125.546 734.502C125.446 733.469 125.599 734.005 124.96 732.937C124.564 733.432 124.293 734.054 123.662 734.202C123.201 725.987 123.898 717.772 123.338 709.589C123.476 709.494 123.621 709.407 123.754 709.303C124.944 708.367 126.029 707.165 126.235 705.629C125.817 705.033 125.419 704.449 125.056 703.817C124.601 703.023 124.96 702.651 125.192 701.805C125.516 701.59 125.931 701.325 126.219 701.078C127.246 700.2 127.268 700.055 127.379 698.771C126.707 698.206 126.136 697.672 125.58 696.991C125.981 695.643 126.205 695.866 127.38 695.229L127.298 694.752L126.321 694.38C125.554 690.951 126.788 682.856 126.914 679.038C127.102 678.81 127.295 678.587 127.478 678.355C129.388 675.93 127.03 672.846 128.032 670.019C128.861 667.681 130.435 665.207 130.796 662.758C131.14 660.423 130.756 657.82 131.431 655.557C133.036 650.174 137.781 642.106 136.756 636.465C136.522 635.177 136.56 636 136.627 634.637C140.193 634.111 140.068 629.835 141.834 627.161C142.839 625.64 144.492 624.288 145.821 623.043Z"/>
	<path fill="#FEE3E0" d="M145.821 623.043C150.289 622.506 154.205 620.496 158.58 619.921C158.631 621.474 158.463 621.828 159.48 623.062C163.096 624.419 166.968 624.285 170.699 625.193C172.28 626.828 172.815 629.192 173.359 631.343C173.854 633.3 176.067 637.939 175.192 639.751C174.782 640.602 174.257 641.054 173.574 641.679C173.745 641.829 173.918 641.976 174.087 642.128C175.313 643.225 176.112 643.777 176.299 645.47C176.939 651.276 175.38 652.881 178.136 659.26C178.888 661.001 178.814 662.003 178.201 663.806L179.857 664.222L180.131 664.886L179.909 665.283C179.183 666.61 178.202 668.319 178.535 669.873C178.573 670.052 178.652 670.219 178.711 670.392L180.194 669.264C180.687 669.899 181.454 670.645 181.537 671.486C181.556 671.679 181.279 673.016 181.26 673.116C180.204 678.787 181.488 684.415 181.348 690.102C181.315 691.45 182.024 692.382 182.649 693.523C184.769 697.396 178.27 704.024 183.942 712.5L183.817 712.958L181.729 712.793C182.275 714.034 183.449 714.52 184.565 715.179C185.465 716.384 185.696 718.69 185.369 720.16C185.306 720.443 185.153 720.697 185.045 720.965L185.264 720.844C185.11 720.655 184.909 720.496 184.801 720.276C184.15 718.949 184.282 717.322 183.559 715.889C183.661 720.832 183.5 737.761 185.359 741.562L184.222 742.304L184.359 743.41C183.767 744.56 183.383 744.896 183.515 746.223C183.646 747.535 183.29 748.531 182.916 749.765C182.545 750.995 182.32 752.248 182.083 753.509L181.824 753.126L181.991 754.037C182.323 759.939 182.171 768.678 179.871 774.176L180.251 774.972L181.806 773.929C181.812 775.366 181.852 775.447 180.773 776.491C179.618 777.607 178.68 777.669 178.417 779.484C178.204 780.949 178.613 782.593 178.559 784.066C178.508 785.473 177.328 787.013 176.567 788.131C175.125 790.25 174.307 793.163 174.783 795.709C175.049 797.137 175.613 798.316 175.18 799.775L174.198 798.512L173.812 798.969L174.069 799.46C174.883 801.057 174.854 801.724 174.303 803.461C173.497 806.001 170.514 807.998 169.991 810.225C169.651 811.673 171.695 813.665 171.164 814.695C170.565 815.855 168.976 816.74 167.932 817.504C168.628 818.038 168.878 817.97 169.721 818.088L169.604 820.729L168.923 821.279C168.754 821.095 168.591 820.904 168.415 820.727C168.302 820.613 168.176 820.513 168.056 820.406C167.574 821.839 167.088 823.247 166.494 824.638C156.51 823.181 146.547 826.296 136.961 821.784C136.396 820.163 132.593 806.98 132.447 806.804C132.023 806.293 131.274 806.129 130.84 805.625C130.732 805.499 130.748 805.305 130.72 805.141C130.519 803.95 130.744 802.711 130.835 801.515C131.19 796.831 130.046 795.207 127.697 791.219C128.036 789.621 128.751 790.47 129.82 789.368C129.158 787.87 127.669 786.627 127.119 785.262C125.579 781.444 130.079 777.82 126.1 771.173C126.041 770.274 126.127 769.805 126.479 768.977L127.702 769.782L127.701 768.698C126.977 767.956 126.001 767.156 125.668 766.154C125.452 765.506 126.277 764.377 126.584 763.772C126.403 760.918 125.113 758.852 124.308 756.19C123.278 752.787 125.164 750.364 125.196 747.155C125.231 743.718 123.159 740.148 123.59 736.651C123.712 735.665 124.985 735.615 125.546 734.502C125.446 733.469 125.599 734.005 124.96 732.937C124.564 733.432 124.293 734.054 123.662 734.202C123.201 725.987 123.898 717.772 123.338 709.589C123.476 709.494 123.621 709.407 123.754 709.303C124.944 708.367 126.029 707.165 126.235 705.629C125.817 705.033 125.419 704.449 125.056 703.817C124.601 703.023 124.96 702.651 125.192 701.805C125.516 701.59 125.931 701.325 126.219 701.078C127.246 700.2 127.268 700.055 127.379 698.771C126.707 698.206 126.136 697.672 125.58 696.991C125.981 695.643 126.205 695.866 127.38 695.229L127.298 694.752L126.321 694.38C125.554 690.951 126.788 682.856 126.914 679.038C127.102 678.81 127.295 678.587 127.478 678.355C129.388 675.93 127.03 672.846 128.032 670.019C128.861 667.681 130.435 665.207 130.796 662.758C131.14 660.423 130.756 657.82 131.431 655.557C133.036 650.174 137.781 642.106 136.756 636.465C136.522 635.177 136.56 636 136.627 634.637C140.193 634.111 140.068 629.835 141.834 627.161C142.839 625.64 144.492 624.288 145.821 623.043Z"/>
	<path fill="#E06FFA" d="M268.816 702.64L269.011 704.837L269.641 705.289C269.787 705.18 269.93 705.067 270.079 704.963C276.569 700.433 294.287 700.103 302.193 701.702C305.045 702.279 307.56 703.067 310.255 704.14C310.665 704.304 311.08 704.455 311.492 704.613L311.167 705.16C318.842 710.453 326.23 716.288 328.64 725.964C328.303 727.206 328.013 727.506 328.638 728.66C332.779 736.306 333.333 743.627 331.487 752.102C328.915 763.909 323.242 772.449 314.965 781.06C314.214 781.299 313.667 781.499 313.119 782.093C312.647 782.603 312.222 783.166 311.677 783.605C309.873 785.059 307.15 786.271 304.886 786.762C300.869 787.634 284.754 788.737 280.537 788.316C273.622 787.626 261.789 786.842 257.13 781.174C256.597 780.88 256.07 780.577 255.566 780.235C245.49 773.385 240.955 754.211 242.336 742.844C242.83 738.77 245.582 733.322 244.903 729.522C244.77 728.775 244.773 729.022 244.769 728.003C244.759 725.264 247.63 722.213 249.531 720.536C250.196 719.948 250.712 719.505 251.281 718.815L250.532 717.974C252.323 715.594 255.447 712.674 257.964 711.081C262.09 708.47 266.512 708.192 268.645 703.071C268.705 702.928 268.759 702.784 268.816 702.64Z"/>
	<path fill="#90E4F8" d="M160.645 413.985L161.841 412.619C163.774 412.708 165.768 413.015 167.652 413.448C167.772 413.871 167.999 415.226 168.236 415.505C169.375 416.849 172.726 418.911 174.301 419.758C174.75 420 175.22 420.201 175.685 420.411C175.845 421.078 175.966 421.71 176.074 422.391C187.161 428.538 198.529 434.05 209.208 440.949C214.976 444.675 220.342 449.13 225.811 453.281C226.489 453.796 227.983 455.141 228.789 455.245C229.402 455.323 229.866 454.751 230.366 455.237L229.367 455.012L230.436 455.846L230.554 457.047L231.207 457.316C233.643 458.347 235.683 459.598 237.856 461.093C237.995 461.035 238.13 460.97 238.271 460.92C239.124 460.62 239.981 460.561 240.874 460.456L241.619 460.953L240.971 462.235C241.582 463.067 242.4 463.326 243.429 463.421C244.099 463.483 244.488 463.441 245.131 463.403L244.867 463.723L245.755 463.403C248.879 466.048 252.076 469.272 255.508 471.484C257.713 472.906 260.274 473.324 262.196 475.197C262.363 475.36 262.537 475.514 262.705 475.675C262.82 475.785 262.931 475.897 263.044 476.009C263.191 475.953 263.335 475.89 263.484 475.841C264.207 475.599 263.942 475.674 264.825 475.749C265.483 476.511 265.777 477.175 266.763 477.457C270.027 478.391 271.365 479.367 273.585 481.922C274.102 481.526 274.27 481.188 274.596 480.635L275.302 480.975L276.009 485.712C275.454 491.308 275.428 496.903 275.134 502.513C274.464 515.301 273.889 528.062 273.462 540.858C273.329 544.855 274.858 549.29 274.205 553.153L273.222 553.502C273.135 557.21 273.527 560.905 273.479 564.62C273.324 576.618 272.971 588.714 272.526 600.701C272.449 602.755 271.216 612.19 271.649 613.308C271.74 613.545 271.916 613.748 272.103 613.92C272.255 614.059 273.042 614.45 273.246 614.555C273.434 617.223 272.24 619.852 271.837 622.484C271.674 623.548 271.349 624.241 270.962 625.231C270.931 625.311 270.915 625.396 270.892 625.478C269.69 624.572 268.656 623.27 267.027 623.61C265.476 623.935 263.836 625.282 262.225 625.211C258.379 625.041 255.488 622.271 251.414 623.216L251.449 623.62C253.192 623.878 254.925 624.118 256.679 624.291C253.808 625.737 247.824 623.469 246.779 624.149C246.484 624.341 246.599 625.361 246.31 625.51C245.932 625.704 245.484 625.311 245.069 625.217Q242.347 624.583 239.568 624.274Q236.79 623.966 233.995 623.987C231.948 624.013 233.168 626.296 231.302 626.163L231.225 624.559C228.621 624.152 226.057 624.351 223.473 624.812C219.358 625.546 215.89 622.69 213.967 623.028C212.789 623.236 211.576 624.634 210.48 624.89C210.342 624.922 210.219 624.779 210.089 624.724L210.28 623.306L209.617 623.177C209.556 623.343 209.497 623.51 209.433 623.674C209.121 624.475 209.241 624.184 208.734 625.042L208.094 624.714L207.675 622.816C205.926 622.747 205.341 624.163 203.671 623.942L202.742 622.708C198.547 623.053 200.69 627.27 195.154 623.333C194.13 623.375 193.507 623.632 192.585 624.068L191.172 623.834L191.181 622.605C189.239 622.28 185.356 621.593 183.636 622.635L183.119 624.803L182.292 624.747C182.082 623.712 182.155 623.265 181.424 622.468C178.112 623.157 174.893 623.664 171.799 624.97C171.508 625.093 171.022 625.147 170.699 625.193C166.968 624.285 163.096 624.419 159.48 623.062C158.463 621.828 158.631 621.474 158.58 619.921C161.659 611.854 158.668 594.208 158.938 584.958C159.325 571.697 160.895 558.612 160.345 545.282C160.076 538.752 158.521 532.279 158.617 525.738C158.704 519.796 160.706 513.847 160.668 508.023C160.635 502.934 159.753 497.222 158.647 492.263C158.267 490.557 158.259 490.071 158.943 488.369C160.097 485.502 159.654 485.861 158.849 483.13C158.497 481.934 159.626 471.561 159.665 469.425C159.762 464.116 159.095 459.141 158.85 453.893C158.699 450.671 159.259 447.255 159.373 444.013C159.687 435.145 158.964 425.624 160.651 416.922C160.878 415.749 161.107 415.133 160.645 413.985Z"/>
	<path fill="#F83123" d="M281.914 433.881C283.326 433.956 284.677 433.648 285.997 433.187C286.692 431.932 286.437 431.639 286.18 430.204C287.877 429.945 287.481 431.126 289.179 431.354C289.616 431.064 290.288 430.534 290.803 430.351C293.856 429.267 294.737 428.062 296.788 425.642C297.704 425.881 297.438 425.761 298.167 426.108C298.315 426.178 298.46 426.255 298.607 426.328L298.871 425.517L297.634 424.495L297.73 423.885C299.403 422.819 301.766 421.254 303.763 421.657C303.356 422.587 303.154 423.34 303.02 424.345C303.825 423.689 303.551 423.997 304.042 423.363C305.481 421.507 307.159 420.846 308.991 419.545C310.007 418.823 310.662 417.98 310.903 416.745L309.671 416.285C309.76 416.196 309.828 416.081 309.937 416.018C311.604 415.051 313.97 415.887 315.828 415.939L316.583 415.199C315.678 415 315.027 415.125 314.483 414.337C316.532 412.481 321.432 410.095 324.161 409.324C325.61 408.916 326.894 408.208 328.226 407.52C328.103 408.511 327.944 408.533 328.464 409.45C328.928 409.2 329.317 409.018 329.729 408.665C330.559 407.954 330.856 407.226 331.014 406.193C331.162 405.225 331.367 404.392 331.682 403.455C333.261 401.886 335.382 401.66 337.372 400.82L338.03 400.539L338.36 400.834C336.986 401.459 336.131 401.861 335.203 403.121C335.929 403.896 336.456 403.747 337.476 403.908C340.487 402.776 338.27 401.487 339.508 399.422C341.138 398.8 342.721 398.579 344.443 398.335C344.659 397.299 344.983 396.711 345.58 395.842C347.186 395.101 347.728 395.051 349.483 395.479C351.247 395.909 360.789 390.405 362.626 389.073C365.094 387.283 367.179 384.784 369.878 383.343C371.848 382.292 374.399 382.287 376.564 381.658Q377.565 380.574 378.621 379.545C380.314 377.914 384.037 374.341 386.344 374.399C385.292 375.436 384.128 376.394 383.507 377.759C384.543 377.14 385.45 376.538 386.699 376.548C387.778 376.556 387.551 376.537 388.336 375.904C388.218 374.921 388.328 375.276 387.97 374.396C387.889 374.197 387.8 374.001 387.715 373.804L388.778 373.434C389.532 374.063 389.144 373.763 389.944 374.334C393.055 372.528 394.994 369.23 397.931 367.492C399.313 366.674 401.701 367.282 402.862 366.453C403.958 365.671 404.688 363.879 405.849 362.974C408.443 360.95 413.229 359.416 416.312 358.115L416.802 359.079C417.975 359.021 418.184 358.901 419.186 358.269C419.48 357.218 419.655 356.614 420.276 355.695L421.735 356.495L422.668 356.085L422.58 354.654C429.417 353.416 429.02 349.095 432.332 348.266C433.3 348.024 434.612 348.115 435.65 347.922C438.96 343.045 444.354 345.459 448.598 342.571L448.188 341.294C451.293 339.006 455.435 335.452 458.98 334.144C460.807 333.469 463.092 334.539 464.813 333.679C465.46 333.355 464.758 331.833 464.943 330.892C469.841 327.682 469.409 328.977 474.328 327.727L474.382 325.989C476.055 325.311 479.26 325.752 481.02 326.254C484.566 327.265 484.126 332.689 485.667 335.46C485.828 335.749 486.002 336.03 486.169 336.314C485.5 336.975 485.061 337.481 484.65 338.33L485.228 338.943L486.479 338.552L487.155 339.514L486.989 339.897C486.108 340.049 485.362 340.194 484.515 340.494C483.765 341.734 483.018 343.026 482.052 344.112C480.893 345.415 479.674 346.495 477.844 346.491C477.053 346.489 476.734 346.467 475.991 346.709C475.729 347.663 475.445 348.38 474.935 349.228C474.79 349.199 474.645 349.169 474.5 349.141C474.281 349.1 474.061 349.066 473.842 349.024C472.852 348.831 472.131 348.643 471.127 348.966C469.491 349.491 468.54 350.693 467.708 352.118C467.153 353.069 467.154 353.184 466.18 353.819C465.515 353.515 464.975 353.328 464.257 353.124C463.239 354.929 464.803 354.356 464.49 356.047L463.784 356.021C463.264 355.145 463.092 354.887 462.229 354.277C460.962 355.646 459.757 356.839 458.262 357.959C457.325 357.755 456.405 357.511 455.479 357.258C454.399 357.613 453.779 357.768 453.072 358.688C453.765 359.06 454.131 359.33 454.741 359.873C454.584 360.326 454.574 360.453 454.231 360.882C452.956 362.476 450.502 363.622 448.498 363.802C446.176 364.011 444.935 363.641 443.155 362.116C443.02 362.001 442.889 361.881 442.756 361.763C442.773 361.946 442.783 362.129 442.808 362.311C442.921 363.158 443.191 363.87 443.487 364.665C443.147 365.87 442.84 366.432 441.978 367.341C440.596 367.672 439.205 367.921 437.822 368.238C437.119 368.398 436.594 368.323 435.891 368.225L435.591 368.55C432.418 371.931 428.631 372.735 424.397 374.151C426.889 374.734 429.065 375.04 431.632 375.016C428.069 377.218 424.593 380.042 420.265 380.094L419.519 381.477C418.341 381.078 418.371 380.784 417.672 379.811C416.636 380.329 415.336 381.939 414.896 383.007C414.787 383.271 414.758 383.562 414.689 383.839C416.182 383.562 417.307 381.873 418.549 381.998C418.242 383.258 415.257 385.006 414.18 385.827C413.71 385.204 413.14 384.058 412.351 383.906C410.449 383.538 408.153 384.761 406.707 385.904C404.709 387.482 402.835 389.781 402.002 392.208C401.828 392.172 401.652 392.141 401.479 392.101C400.159 391.796 401.4 392.118 400.313 391.662C398.952 391.092 396.961 391.382 395.679 392.015C394.531 392.582 393.711 393.062 392.991 394.123L393.119 394.737C388.44 396.388 383.645 397.902 379.083 399.851L378.92 400.447L384.001 400.36C381.815 402.373 376.737 402.437 375.079 403.927C374.783 404.192 374.617 405.575 374.555 405.987C372.593 406.029 370.648 406.056 368.697 406.294C368.575 406.954 368.58 407.388 368.624 408.048C366.649 410.54 362.667 411.902 359.769 413.095L358.773 412.131C357.086 413.468 353.793 416.749 351.771 416.99L350.821 416.529L349.783 417.273C350.81 418.502 352.323 418.753 353.857 419.145C351.352 419.935 348.354 418.351 346.517 420.664L347.148 421.802C345.156 423.525 340.914 423.236 338.399 424.317C335.574 425.53 331.301 428.241 329.176 430.443L331.855 429.851L332.355 430.193C330.3 431.922 329.001 432.262 326.359 432.181L325.242 432.961C325.381 433.067 325.522 433.171 325.658 433.281C326.201 433.721 326.028 433.508 326.303 434.072C323.665 436.041 321.079 435.473 318.229 436.627C313.354 438.6 308.094 441.874 303.893 445.019C306.464 444.149 309.755 442.359 312.38 442.125L312.611 442.76C311.394 443.729 309.873 444.498 309.426 445.998C310.07 446.49 310.283 446.505 311.012 446.765C311.385 446.898 311.747 447.061 312.112 447.213L313.764 446.828L314.29 447.521C313.845 448.225 314.16 447.928 313.261 448.315L313.508 449.494C314.306 449.628 314.913 449.647 315.716 449.545L315.782 450.159L315.25 450.768C316.097 451.489 317.003 451.809 317.981 452.3C318.748 452.685 318.484 452.542 319.119 453.307L318.731 453.887C318.531 453.859 318.331 453.822 318.13 453.803C317.199 453.714 317.548 453.712 316.591 454.105C316.404 459.202 318.049 462.916 318.037 466.841C318.027 470.224 315.934 471.891 316.407 476.068C316.769 479.267 316.836 482.477 317.246 485.678C317.477 487.481 316.582 488.372 315.593 489.76C315.613 491.085 315.967 491.888 316.462 493.087C318.285 497.496 313.399 503.993 316.395 507.794C315.975 521.719 316.093 535.657 315.743 549.575C315.605 555.026 314.571 560.586 314.653 566.012C314.683 567.956 315.465 570.118 315.987 571.987C314.978 575.13 314.317 577.93 314.051 581.221C314.031 581.471 314.003 581.72 313.986 581.969C313.7 586.169 315.445 590.441 315.512 594.654C315.663 604.22 314.016 613.966 313.761 623.549C313.735 624.529 314.065 625.204 314.437 626.087C312.114 636.09 314.191 645.48 313.836 655.426C313.592 662.266 311.994 669.05 311.663 675.875C311.471 679.835 312.507 683.828 312.264 687.791C311.989 692.29 310.989 696.426 311.345 700.99C311.438 702.187 311.516 703.412 311.492 704.613C311.08 704.455 310.665 704.304 310.255 704.14C307.56 703.067 305.045 702.279 302.193 701.702C294.287 700.103 276.569 700.433 270.079 704.963C269.93 705.067 269.787 705.18 269.641 705.289L269.011 704.837L268.816 702.64C271.289 694.83 269.704 677.359 270.02 668.279C270.367 658.292 271.61 648.346 271.663 638.329C271.685 634.196 270.842 630.179 270.881 626.062L270.892 625.478C270.915 625.396 270.931 625.311 270.962 625.231C271.349 624.241 271.674 623.548 271.837 622.484C272.24 619.852 273.434 617.223 273.246 614.555C273.042 614.45 272.255 614.059 272.103 613.92C271.916 613.748 271.74 613.545 271.649 613.308C271.216 612.19 272.449 602.755 272.526 600.701C272.971 588.714 273.324 576.618 273.479 564.62C273.527 560.905 273.135 557.21 273.222 553.502L274.205 553.153C274.858 549.29 273.329 544.855 273.462 540.858C273.889 528.062 274.464 515.301 275.134 502.513C275.428 496.903 275.454 491.308 276.009 485.712C276.67 484.086 277.631 477.179 276.648 475.487C276.214 474.741 275.742 475.395 275.472 474.17L277.208 473.882L277.382 473.097C275.059 467.693 278.49 465.385 277.52 463.242C277.126 462.372 276.197 461.404 275.712 460.502C276.161 459.792 276.57 459.064 277.007 458.349C278.896 455.255 278.722 441.026 278.89 436.403Q280.19 435.829 281.464 435.2L281.914 433.881Z"/>
	<path fill="#2B464D" d="M36.7417 331.419C38.171 331.796 38.6531 332.096 39.8747 332.918C42.1561 334.451 47.4595 334.87 48.378 337.662C48.4628 337.92 48.4762 338.196 48.5254 338.463L50.2374 336.899C51.3006 337.098 50.9753 336.942 51.7976 337.727C51.9615 337.883 52.1632 337.995 52.3426 338.133C53.3487 338.911 54.2068 339.817 55.0954 340.722C56.2293 340.574 56.2457 340.167 56.9664 339.333C57.5429 340.026 57.6882 340.363 58.0385 341.163C58.5031 342.225 58.8693 342.736 59.8324 343.427C65.0906 343.82 62.0143 340.282 68.2521 345.922C68.9262 345.632 68.628 345.795 69.1588 345.455L70.0336 347.585L70.5567 347.68L71.5277 345.814C74.763 345.764 75.3551 351.727 79.4039 348.592C79.9877 349.491 80.1364 350.271 80.3432 351.314L81.3609 352.195C81.5245 352.171 81.6879 352.145 81.8518 352.124C84.7156 351.746 86.9681 352.349 89.2928 354.096C90.7117 355.162 91.374 356.522 92.1192 358.09L93.185 358.707C93.5581 358.16 93.9367 357.637 94.3364 357.108C97.6065 358.082 100.559 359.32 103.963 359.777C104.304 359.823 104.642 359.89 104.982 359.949L104.735 361.86L105.829 362.817C105.99 362.749 106.151 362.679 106.314 362.614C107.099 362.299 106.806 362.409 107.751 362.181L107.801 363.587C109.451 364.07 112.116 361.112 113.125 362.842C113.44 363.384 114.317 366.002 114.568 366.719C114.675 367.027 114.665 367.364 114.714 367.686L114.587 367.711L114.591 367.299C114.77 367.148 114.956 367.006 115.128 366.847C115.933 366.096 116.194 365.398 116.771 364.505C116.972 364.195 117.207 363.957 117.452 363.692C117.674 363.871 117.892 364.055 118.118 364.228C119.023 364.921 118.618 364.731 119.625 364.932L119.997 365.58C118.84 366.001 117.602 366.135 116.938 367.197C117.367 368.16 118.204 369.08 119.279 369.413C119.575 369.504 119.89 369.513 120.195 369.563C120.627 368.949 121.022 368.355 121.405 367.707C122.401 368.533 122.422 368.861 122.909 370.029C123.34 371.064 123.67 372.218 124.785 372.712C125.22 372.905 125.51 372.927 125.957 372.999C127.344 371.814 127.34 369.019 128.807 368.787C130.534 370.046 130.185 374.407 132.621 374.32C133.829 374.277 136.025 373.077 137.22 372.613C138.873 374.5 136.416 376.7 139.409 378.068C140.904 377.953 142.413 377.771 143.912 377.857L143.749 378.908C146.146 380.756 149.344 380.777 151.969 382.876L152.558 382.518C152.34 381.255 151.926 380.982 151.148 380.001L151.438 379.652C152.589 380.707 153.109 381.749 153.775 383.122C155.618 384.045 156.552 382.377 158.085 383.402Q157.976 384.578 157.894 385.757L158.469 385.924C158.781 385.288 159.062 384.669 159.332 384.012C162.399 384.842 163.96 387.085 167.383 386.988C169.42 386.93 172.316 386.638 174.059 387.756L174.485 388.607L173.667 390.661C174.218 391.699 174.907 392.091 176.014 392.451C178.167 393.151 180.389 390.999 182.592 391.743L182.97 393.743C184.676 393.682 183.648 392.439 185.578 393.371C186.024 394.202 186.341 394.32 186.072 395.286C185.806 396.241 185.417 396.818 184.857 397.615L184.823 398.253L185.834 398.15C186.492 397.049 187.082 396.11 188.009 395.201L189.263 395.108C190.311 396.65 191.355 398.665 192.813 399.813C193.833 398.906 193.209 397.454 194.375 396.965C194.476 397.11 194.559 397.27 194.677 397.401C196.221 399.106 201.635 399.69 201.739 401.981C201.753 402.287 201.733 402.594 201.729 402.9C202.95 402.704 203.448 402.031 204.297 401.2L205.257 401.278L204.925 401.86C204.627 402.386 204.354 402.927 204.089 403.471L204.993 403.667C205.713 403.068 206.423 402.472 207.117 401.843C208.258 402.859 208.344 404.341 208.642 405.768L209.417 406.364L209.92 406.086L209.153 404.012L209.625 403.679C213.017 404.417 216.298 405.815 219.545 407.03L218.431 408.393L218.97 409.001C220.712 408.728 220.97 408.84 222.39 409.837C223.047 410.299 223.674 410.813 224.302 411.313C225.107 411.057 225.53 410.867 226.225 410.438C226.8 411.416 226.933 412.297 227.146 413.396L228.011 413.938C228.628 413.058 228.866 412.192 229.19 411.179L229.842 410.75C229.73 411.757 229.611 412.733 229.618 413.748L230.16 414.335C231.34 413.966 231.284 413.08 232.378 412.988L234.99 415.464C235.901 415.045 236.037 414.878 236.633 414.124C237.292 414.934 237.076 414.435 237.084 415.69C238.094 415.578 239.069 415.419 240.066 415.22L243.005 416.239L242.994 416.601C241.466 416.594 239.313 416.309 238.019 417.147C238.034 418.493 238.501 418.789 239.3 419.838C240.161 419.145 240.863 418.419 241.597 417.594C242.998 418.328 242.211 419.486 243.762 419.943L244.736 419.096L245.126 420.37C246.482 420.787 247.875 419.642 249.235 419.187L249.318 421.044C251.156 422.259 253.111 420.806 254.655 422.047C256.189 423.279 258.966 428.989 260.768 428.761L259.749 427.275C261.671 425.917 262.95 429.078 263.795 425.586L264.526 425.923L265.179 428.316L265.779 428.234L266.767 426.898L267.468 427.036L267.328 428.637L269.163 428.799L269.291 429.556L268.234 430.343L268.786 430.893C269.856 430.583 270.589 430.252 271.51 429.625L271.949 429.995L271.128 431.512L271.503 431.989L271.89 431.625C272.518 431.045 272.282 431.257 273.053 430.649C273.105 430.863 273.148 431.08 273.209 431.292C273.277 431.528 273.363 431.758 273.44 431.991C273.705 431.956 273.968 431.912 274.233 431.887C276.155 431.704 278.268 432.693 280.151 433.062C280.797 433.189 281.394 433.474 281.914 433.881L281.464 435.2Q280.19 435.829 278.89 436.403C278.722 441.026 278.896 455.255 277.007 458.349C276.57 459.064 276.161 459.792 275.712 460.502C276.197 461.404 277.126 462.372 277.52 463.242C278.49 465.385 275.059 467.693 277.382 473.097L277.208 473.882L275.472 474.17C275.742 475.395 276.214 474.741 276.648 475.487C277.631 477.179 276.67 484.086 276.009 485.712L275.302 480.975L274.596 480.635C274.27 481.188 274.102 481.526 273.585 481.922C271.365 479.367 270.027 478.391 266.763 477.457C265.777 477.175 265.483 476.511 264.825 475.749C263.942 475.674 264.207 475.599 263.484 475.841C263.335 475.89 263.191 475.953 263.044 476.009C262.931 475.897 262.82 475.785 262.705 475.675C262.537 475.514 262.363 475.36 262.196 475.197C260.274 473.324 257.713 472.906 255.508 471.484C252.076 469.272 248.879 466.048 245.755 463.403L244.867 463.723L245.131 463.403C244.488 463.441 244.099 463.483 243.429 463.421C242.4 463.326 241.582 463.067 240.971 462.235L241.619 460.953L240.874 460.456C239.981 460.561 239.124 460.62 238.271 460.92C238.13 460.97 237.995 461.035 237.856 461.093C235.683 459.598 233.643 458.347 231.207 457.316L230.554 457.047L230.436 455.846L229.367 455.012L230.366 455.237C229.866 454.751 229.402 455.323 228.789 455.245C227.983 455.141 226.489 453.796 225.811 453.281C220.342 449.13 214.976 444.675 209.208 440.949C198.529 434.05 187.161 428.538 176.074 422.391C175.966 421.71 175.845 421.078 175.685 420.411C175.22 420.201 174.75 420 174.301 419.758C172.726 418.911 169.375 416.849 168.236 415.505C167.999 415.226 167.772 413.871 167.652 413.448C165.768 413.015 163.774 412.708 161.841 412.619L160.645 413.985L159.879 411.761C157.711 409.609 153.151 409.512 150.466 407.825C148.198 406.4 139.972 398.489 138.358 398.267C137.137 398.099 137.102 398.893 135.645 397.887C132.681 395.843 130.19 392.584 126.683 391.415C114.823 387.465 104.846 379.351 94.719 372.227C92.8646 370.922 90.0957 368.084 88.1877 367.331C86.5534 366.687 85.3567 367.743 83.7451 366.529L84.7758 365.981C84.1998 364.726 78.2927 361.933 76.7023 361.062C74.7622 360 73.181 358.554 71.0033 359.191C70.6399 359.011 70.2004 358.816 69.8931 358.553C68.6357 357.478 68.659 356.644 68.3782 355.143C66.829 353.903 67.1444 354.802 65.5518 354.48C65.3471 354.438 48.369 343.735 46.9592 342.817C44.979 341.749 42.9338 340.548 41.0844 339.271C39.1168 337.912 35.8949 335.455 35.445 332.987L36.7417 331.419Z"/>
	<path fill="#16BC74" d="M524.453 272.013C525.892 271.922 527.135 271.828 528.554 272.186C534.754 279.252 536.444 274.042 543.47 275.255C543.487 275.444 543.55 275.634 543.522 275.821C543.478 276.121 543.344 276.4 543.256 276.689C546.092 277.803 548.735 278.728 551.247 280.518C554.471 282.815 562.093 292.294 562.327 296.344C562.564 300.459 563.491 299.448 564.334 302.826C563.578 303.852 563.365 304.551 563.129 305.798C563.857 306.628 564.659 307.403 564.978 308.487C565.196 309.225 561.882 312.13 561.342 313.294L562.372 314.321C562.381 314.553 562.374 314.786 562.399 315.018C562.518 316.147 562.683 316.175 563.555 316.823C562.987 318.605 560.812 319.46 560.083 321.273L560.531 322.134L562.557 322.504C561.734 323.895 559.098 323.367 557.779 324.701C558.352 325.804 558.208 325.256 558.309 326.318C556.968 327.284 556.009 326.657 554.921 327.394L554.563 330.28C551.09 332.65 546.699 336.25 543.432 338.291C542.059 339.149 539.23 339.575 537.603 340.113Q536.566 340.472 535.507 340.758Q534.448 341.044 533.371 341.255Q532.294 341.465 531.206 341.6Q530.117 341.734 529.021 341.792Q527.925 341.85 526.828 341.831Q525.732 341.811 524.639 341.715Q523.546 341.619 522.462 341.446Q521.379 341.273 520.31 341.025C517.968 340.468 516.59 340.274 515.337 338.132L514.416 338.1C513.832 339.263 514.191 338.753 513.368 339.648C512.407 339.246 512.274 339.199 511.615 338.325L512.719 337.234L511.786 336.417C510.041 336.2 508.801 335.991 507.467 334.78C502.116 329.921 496.672 321.773 496.498 314.372C496.429 311.418 495.36 309.735 496.562 306.904L496.273 306.302C495.313 306.053 494.757 305.848 493.987 305.218C494.469 302.172 498.008 298.611 497.863 295.7C497.513 288.687 510.113 280.398 514.324 274.839L517.9 275.653C518.748 275.525 519.086 275.367 519.711 274.77C521.346 273.207 522.233 272.548 524.453 272.013Z"/>
	<path fill="#16BC74" d="M526.886 360.244C528.307 360.151 537.241 360.878 538.956 361.25C540.193 361.518 541.161 361.649 541.883 362.746L540.876 363.298C541.059 365.098 542.961 366.116 543.547 367.936L543.229 368.326L542.6 367.829L542.016 367.906C542.078 369.239 541.887 371.785 542.543 372.861L543.266 371.661L543.687 372.097L543.173 371.746L543.667 372.814C543.353 373.63 543.121 374.48 542.828 375.304C542.549 376.088 542.161 376.896 542.043 377.725C541.85 379.09 541.798 380.142 542.678 381.194L543.105 380.692L542.724 379.573C543.672 381.339 544.476 382.834 544.843 384.817L543.38 384.651L543.094 385.266C543.62 385.924 543.992 386.561 544.374 387.311L542.641 386.765C541.322 388.273 543.269 399.401 542.059 402.71C541.772 403.496 541.646 403.708 541.618 404.622C541.591 405.521 541.909 405.558 542.482 406.168L543.101 405.727C543.269 404.275 543.241 402.84 544.235 401.684L544.241 403.425L545.72 403.538C545.795 403.924 545.97 404.746 545.977 405.119C545.997 406.059 545.749 406.17 545.037 406.748C543.941 406.8 543.34 406.82 542.312 407.252L542.863 409.49C542.238 410.653 541.564 411.725 540.832 412.82L541.056 413.78L542.78 414.152C542.907 414.757 542.944 415.541 543.329 416.029L543.921 415.363L544.448 415.445C544.851 416.64 545.045 416.922 544.746 418.125L543.292 418.877C543.46 421.38 543.892 423.842 545.131 426.053C545.679 427.03 546.049 427.837 546.383 428.906C545.283 430.249 544.361 431.229 544.047 432.969C544.597 434.656 544.977 435.834 544.731 437.61L542.791 438.728L542.695 439.786C544.161 440.881 544.856 439.369 546.313 440.251L544.296 440.657L544.068 441.005C544.559 441.623 545.011 442.235 545.436 442.9C544.573 443.042 544.245 443.13 543.459 443.581L543.476 444.44C543.643 444.558 543.812 444.674 543.977 444.795C546.42 446.575 546.214 449.42 546.606 452.297C546.926 454.638 545.411 455.153 544.135 456.781C545.33 456.948 546.024 456.773 546.844 457.721L545.538 457.633L546.414 457.915L545.352 457.735C544.905 459.891 546.462 460.991 545.973 463.119C545.206 463.674 544.672 464.017 544.128 464.805C545.213 465.277 544.835 464.915 545.365 465.771C544.532 466.327 544.505 466.367 544.047 467.344L544.521 468.007L545.66 467.763L545.857 468.512L544.477 469.999L544.598 470.892C545.839 471.217 545.231 471.011 546.422 471.511C545.801 472.995 545.408 471.733 544.232 472.426C545.544 473.885 546.438 474.666 546.487 476.715C545.981 476.683 545.473 476.683 544.966 476.688L544.561 477.527L545.812 478.511C545.401 479.594 545.63 479.223 544.962 480.115C544.811 480.318 544.65 480.514 544.495 480.713L544.72 481.816L546.05 481.188L546.289 481.573C545.979 481.932 545.665 482.287 545.371 482.66C543.907 484.521 545.356 490.676 545.639 493.217C545.11 493.877 544.694 494.486 544.306 495.238L544.682 496.105L546.348 495.633L546.584 496.213Q545.495 497.388 544.349 498.507L544.446 499.511L545.988 500.773C545.089 501.312 544.944 501.191 544.553 502.222C545.033 503.328 545.388 504.3 545.654 505.486C544.925 506.608 544.455 507.297 544.254 508.651C545.216 508.775 544.791 508.822 545.82 508.463C546.08 508.373 546.335 508.27 546.592 508.173L546.151 509.088C546.483 510.634 546.945 512.328 546.156 513.786L544.832 514.17C545.396 515.072 545.593 515.6 545.69 516.66C543.717 519.578 541.053 522.736 537.74 524.151C535.885 524.944 534.499 524.796 532.647 524.112C532.747 523.935 532.874 523.77 532.948 523.58C533.305 522.662 526.719 519.557 525.659 517.178C526.307 512.838 523.565 510.639 523.65 506.829C524.296 506.195 524.794 505.549 525.703 505.31C525.852 505.27 526.008 505.268 526.16 505.247C526.491 504.233 524.57 502.734 524.547 501.523C524.526 500.445 525.929 497.848 525.214 496.884C524.479 495.894 523.222 495.938 522.66 494.617L523.771 494.804L523.492 494.619L525.841 494.567C525.912 493.642 523.912 492.871 523.394 491.746C523.836 491.063 524.272 490.466 524.806 489.847C524.981 489.644 525.161 489.445 525.338 489.244C524.84 488.735 524.384 488.248 523.96 487.673C522.136 485.199 525.046 480.017 524.597 477.364C524.35 475.905 522.991 474.866 523.238 473.279L524.827 472.805C524.48 471.166 523.19 469.977 522.136 468.731L523.414 467.991C524.739 463.386 524.563 459.681 523.231 455.189C523.083 454.691 522.512 453.424 522.515 452.93C522.523 451.766 523.583 450.509 523.698 449.324C523.899 447.263 521.688 442.647 522.628 441.044C523.374 439.772 523.935 439.97 524.336 438.314C523.54 437.806 523.908 438.003 522.963 437.575L522.259 437.262C522.122 435.418 523.319 434.801 523.823 433.087L522.681 431.013L523.268 431.611C520.831 426.945 524.096 426.102 523.862 421.984C523.215 421.336 522.64 420.679 522.072 419.961C523.055 419.434 522.608 419.799 523.357 418.802C523.461 416.149 522.762 413.305 522.179 410.72C521.366 407.115 523.527 404.816 523.809 401.353C523.91 400.108 523.424 399.033 522.67 398.077L521.765 398.362L521.507 397.802C522.322 397.119 522.833 396.636 523.324 395.686L522.038 394.703C521.593 393.592 521.598 393.486 521.849 392.313L523.563 391.947L523.864 391.269L522.655 390.694C521.692 389.12 523.805 387.052 523.448 385.295C522.886 382.524 519.782 382.181 520.185 378.522C521.261 379.273 521.3 379.434 522.586 379.345C522.076 378.816 521.751 378.555 521.065 378.241C520.871 378.152 520.67 378.076 520.473 377.994L520.49 377.442C521.123 377.011 522.31 376.401 522.759 375.816C523.555 374.781 521.533 372.875 521.149 371.592L522.587 370.76L522.78 369.887L520.647 367.97C520.439 367.28 520.28 366.67 520.352 365.94C520.8 361.376 524.482 362.387 526.886 360.244Z"/>
	<path fill="#16BC74" d="M679.055 633.187Q680.042 632.403 681.041 631.636C682.64 632.029 684.287 632.533 685.923 632.703L686.787 631.593L687.525 631.932L688.037 633.461C689.486 633.272 690.653 632.597 691.965 631.983C693.287 633.017 693.807 633.101 695.484 632.964C696.866 632.851 698.997 631.947 700.123 632.667L700.441 633.648L701.308 633.851C701.26 632.958 701.151 633.015 700.624 632.354C702.248 631.942 703.764 632.134 705.409 632.264C705.875 632.969 706.021 633.287 706.242 634.066C706.832 633.329 707.245 632.564 707.687 631.732C708.943 631.476 709.229 631.761 710.259 632.483C711.306 633.218 711.819 633.793 713.188 633.862L713.665 633.548C714.831 632.793 715.59 632.208 717.041 632.255L718.025 633.735C723.136 633.79 735.159 631.273 738.944 633.279C739.566 633.608 740.19 633.929 740.809 634.264L744.87 633.264L745.327 633.653L745.224 635.257C747.596 635.551 748.742 633.528 750.898 633.219C754.962 632.636 760.304 633.639 764.45 633.93C765.471 633.1 765.502 632.71 766.87 632.763L768.008 634.103C769.659 633.907 771.016 633.462 772.564 634.116C771.933 634.578 771.576 634.724 770.851 634.963L772.282 635.646C776.044 634.299 780.613 632.395 784.529 634.015C784.757 634.109 784.97 634.236 785.192 634.342C786.039 634.745 786.877 635.144 787.832 635.172C790.846 635.258 794.001 634.55 797.016 634.337C801.031 634.053 805.058 634.181 809.079 633.861C810.025 633.785 813.036 633.172 813.804 633.444C815.438 634.022 815.752 635.648 817.779 635.588L817.749 634.035C820.536 633.824 823.452 634.879 826.278 634.952C828.1 634.999 829.947 634.47 831.74 634.581C833.251 634.674 834.682 635.406 836.226 635.568C844.787 634.585 852.694 634.908 861.245 634.991C863.735 635.015 866.293 634.585 868.761 634.879C869.968 636.444 871.187 637.873 871.834 639.771L871.669 640.851L870.657 640.215L871.57 640.858L870.432 640.811C871.096 642.266 871.467 641.462 872.161 642.333C873.135 643.557 876.401 656.615 876.287 658.545L875.218 657.238L874.797 657.579L874.827 656.932L874.882 657.42C875.144 659.595 878.328 667.726 878.327 667.729C878.28 667.984 878.066 668.178 877.935 668.402L876.455 668.473L876.19 669.242C876.319 669.322 876.449 669.399 876.576 669.482C879.173 671.16 879.625 673.645 880.249 676.515C880.679 678.498 879.963 679.963 880.114 681.88C880.31 684.377 882.023 686.783 882.311 689.488L881.942 689.962C880.716 688.749 882.374 688.099 880.69 687.068L880.27 687.514L880.356 687.944C880.592 689.156 880.697 690.164 880.612 691.41C881.233 692.419 881.845 692.899 882.807 693.58C882.89 694.8 882.721 695.654 882.454 696.85C881.679 700.329 882.126 705.483 881.786 709.266L881.377 709.454L880.752 708.084L880.053 708.259C879.464 709.58 879.72 711.101 880.191 712.49C880.415 713.15 880.554 713.3 880.898 713.812L881.493 713.505C881.712 712.348 881.633 711.048 882.59 710.326L882.89 710.753C882.798 710.958 882.698 711.159 882.613 711.367C882.103 712.626 882.363 716.14 882.894 717.401C883.122 717.943 883.535 718.493 883.866 718.98C882.632 718.642 882.742 718.446 882.011 717.47C882.033 717.228 882.06 716.987 882.075 716.744C882.137 715.737 882.183 716.131 881.839 715.229C880.655 715.871 880.649 716.018 880.057 717.247C880.21 718.536 880.2 719.158 881.262 720.076C881.79 720.533 882.783 720.852 883.435 721.123L883.83 721.906L882.308 721.816C882.436 722.955 882.935 723.318 883.608 724.219C883.444 724.191 883.282 724.157 883.117 724.136C882.333 724.036 882.623 724.054 881.758 724.308C881.833 725.254 881.644 725.384 882.355 726.063C883.089 726.765 883.534 727.131 883.693 728.127C883.817 728.897 884.03 729.334 884.408 729.998C883.756 732.073 882.171 731.426 882.083 733.483C882.965 734.813 884.366 736.236 884.191 737.821L882.722 738.159C882.732 738.351 882.744 738.542 882.752 738.733C882.819 740.279 882.868 741.14 882.075 742.521C881.916 742.798 881.767 743.081 881.608 743.358C881.483 743.577 881.353 743.792 881.225 744.009C881.907 744.647 881.501 744.323 882.479 744.929L882.445 745.994L882.044 746.168L881.32 745.824C881.419 747.094 881.513 748.193 881.224 749.453L882.248 749.213C882.337 750.271 882.129 750.846 881.831 751.849C881.078 751.453 880.325 751.066 879.561 750.692L879.159 751.306L880.476 752.766C880.139 754.486 879.669 755.529 880.293 757.193L881.32 757.654C881.962 756.758 882.068 756.046 882.245 754.971L882.865 754.747C882.796 755.648 882.703 756.381 882.458 757.252C882.209 758.138 882.249 758.724 882.336 759.626C880.959 760.368 880.337 760.718 879.825 762.258C879.438 763.424 879.294 764.622 879.454 765.829C880.415 765.561 880.842 765.319 881.654 764.78C881.625 767.455 878.671 768.611 878.548 771.108L879.73 771.874L879.201 775.22L879.172 774.972C878.227 779.122 875.426 792.048 873.641 794.867C873.601 794.93 872.37 795.747 872.359 795.753C871.841 796.069 871.296 796.339 870.758 796.621L870.431 797.431C871.116 798.316 871.836 798.882 872.712 799.564L872.767 800.409L872.174 800.65L870.726 799.638C870.602 801.38 871.461 801.125 871.856 802.484C872.544 804.852 866.998 811.404 865.275 812.968C854.567 814.84 843.066 812.906 832.229 813.125C825.849 813.254 819.469 813.856 813.088 814.072C807.077 814.276 801.072 814.057 795.058 814.356C786.244 814.794 776.895 815.815 768.098 815.14L767.062 814.187L765.985 814.268L765.807 815.423C761.445 816.372 756.358 814.877 752.034 814.19L752.702 814.857L752.63 815.229C743.818 815.518 734.756 815.678 726.023 816.853C725.195 815.848 726.108 815.031 725.123 814.459C723.642 815.212 721.844 816.334 720.226 816.697C717.213 817.373 712.645 816.401 709.468 816.359C703.189 816.276 696.896 816.826 690.62 816.971C686.777 817.059 682.499 816.556 678.756 817.138C679.36 807.217 681.94 797.142 683.347 787.277C684.233 781.071 684.106 774.722 684.682 768.48C685.785 756.538 687.931 744.484 687.727 732.467C687.547 721.931 686.795 711.378 686.327 700.857C685.946 692.299 685.967 683.582 685.078 675.067C684.161 666.296 683.181 657.403 681.837 648.688C681.079 643.771 678.582 638.109 679.055 633.187Z"/>
	<path fill="#F83123" d="M257.13 781.174C261.789 786.842 273.622 787.626 280.537 788.316C284.754 788.737 300.869 787.634 304.886 786.762C307.15 786.271 309.873 785.059 311.677 783.605C312.222 783.166 312.647 782.603 313.119 782.093C313.667 781.499 314.214 781.299 314.965 781.06C317.105 784.517 318.717 787.791 319.782 791.731C321.801 799.197 322.407 807.163 323.343 814.832C323.582 816.792 323.464 819.691 324.041 821.486C324.228 822.067 324.486 822.484 324.938 822.87C325.129 824.538 324.068 825.08 324.22 826.439C324.552 829.416 326.745 832.143 327.593 834.989C328.595 838.349 325.48 837.304 328.426 842.53C328.368 843.785 327.685 844.718 327.068 845.77L327.112 847.15C328.019 847.203 328.26 847.166 329.076 846.888C329.82 849.386 329.969 862.101 329.973 862.108C330.118 862.389 330.413 862.571 330.681 862.738C330.901 862.876 331.168 862.917 331.412 863.007C330.883 864.388 330.054 865.918 330.22 867.419C330.453 867.613 330.688 867.803 330.919 868C331.815 868.765 331.503 868.413 332.069 869.244C331.994 870.628 331.566 871.802 332.485 872.892L333.441 873.152C332.822 873.96 331.264 874.516 331.28 875.339Q332.72 875.571 334.169 875.739L334.336 876.711C333.486 876.814 333.376 876.744 332.651 877.277L332.545 878.411C332.706 878.521 332.871 878.627 333.03 878.741C333.719 879.236 333.476 879.01 333.953 879.733C333.809 879.828 333.661 879.92 333.519 880.019C332.874 880.468 333.108 880.276 332.581 880.941L332.933 882.139C333.649 882.154 334.23 882.128 334.949 882.033C334.942 884.233 335.661 888.34 334.612 890.12L333.83 890.546L332.994 889.867L333.401 890.81L335.339 890.72C336.194 893.18 337.061 895.548 337.455 898.135L336.962 898.253L335.683 897.185C335.721 903.327 341.829 903.852 339.298 914.949L339.797 915.375L340.581 915.104C340.361 921.346 336.631 922.802 335.292 926.506L335.864 926.002C332.559 929.752 329.009 931.987 323.952 932.325C322.06 932.451 321.106 931.813 319.556 930.793C316.645 931.49 313.861 932.697 310.993 933.357C311.684 932.563 312.841 931.656 312.918 930.608C311.057 931.144 310.135 933.727 308.6 934.053C304.574 934.908 300.545 933.168 296.508 935.056C296.322 936.137 296.267 935.594 296.748 936.677C292.364 937.429 268.724 940.689 266.305 941.887L267.082 942.921L266.126 943.064L265.025 941.862C258.701 942.503 252.27 945.745 246.095 943.774L245.544 943.984L246.642 945.358L246.261 944.555L246.618 945.471C245.537 945.364 244.927 945.107 243.983 944.577C241.303 944.973 239.151 945.186 236.75 946.441C235.821 946.926 226.96 944.966 225.686 944.333C224.872 943.929 224.176 943.176 223.578 942.506C223.659 942.257 223.768 942.015 223.821 941.759C223.866 941.543 223.854 941.32 223.871 941.1C223.582 941.207 223.296 941.325 223.003 941.422C222.83 941.479 222.652 941.515 222.476 941.561C219.778 938.906 219.434 934.168 219.462 930.55C219.471 929.406 219.434 929.867 219.688 928.711C221.183 928.501 222.225 928.626 223.357 927.591L223.194 925.833L222.486 925.249C222.221 925.366 221.958 925.485 221.692 925.598C220.676 926.033 221.1 925.913 220.205 926.067C220.034 920.737 225.427 910.208 225.422 910.156C225.393 909.892 225.225 909.653 225.057 909.447C224.924 909.284 224.171 908.801 223.976 908.672L224.273 908.048C225.562 907.794 226.283 907.898 227.032 906.701C227.711 905.617 227.89 904.013 227.714 902.791C226.313 902.141 224.917 903.625 224.205 902.485C224.556 901.874 224.565 901.675 225.198 901.321C226.173 900.775 227.058 900.415 227.604 899.39C227.077 897.925 226.627 897.225 227.28 895.692C227.878 894.287 228.793 893.009 229.253 891.543C230.107 888.819 229.989 885.819 230.805 883.019C231.703 882.838 231.912 883.013 232.759 883.284L232.813 882.421L231.145 881.724C230.723 879.561 233.082 877.893 232.815 875.69L231.653 875.054C231.414 873.178 233.36 871.36 233.832 869.483C234.639 866.281 233.586 859.543 235.661 857.008C235.861 856.765 236.092 856.549 236.297 856.309C236.543 856.021 236.753 855.705 236.984 855.405L237.522 854.714C236.914 853.497 235.994 852.244 236.551 850.823C237.365 848.748 240.428 845.429 240.045 843.341L239.868 842.339C239.834 842.149 239.793 841.959 239.759 841.769C239.003 837.599 240.527 834.347 242.301 830.675L243.675 829.665C242.574 828.377 242.329 828.344 242.299 826.579C243.747 822.446 244.993 818.333 245.978 814.064C248.131 804.734 249.847 787.628 257.13 781.174Z"/>
</svg>
