<?xml version="1.0" encoding="utf-8" ?>
<svg xmlns="http://www.w3.org/2000/svg" xmlns:xlink="http://www.w3.org/1999/xlink" width="1024" height="1024">
	<path fill="#A3FFE2" d="M0 0L1024 0L1024 906.43L1024 1024L0 1024L0 906.037L0 0Z"/>
	<path fill="#0FB981" d="M0 0L1024 0L1024 906.43C1016.65 906.475 991.404 907.751 986.596 906.122C968.159 907.04 949.359 906.59 930.889 906.542C919.132 906.511 907.4 906.904 895.657 906.965C887.76 907.175 879.788 906.583 871.866 906.684C820.693 907.342 769.511 906.479 718.333 906.462C717.548 902.234 717.891 897.231 717.77 892.906L717.085 856.762L715.88 784.721C715.397 763.36 714.284 742.166 714.572 720.781C714.41 718.097 714.313 715.432 714.506 712.743C714.777 708.986 714.318 707.01 712.975 703.519C716.32 697.017 712.015 700.219 712.187 696.54C712.347 693.096 713.845 689.617 713.998 686.072C714.198 681.438 713.332 676.67 713.274 672.016C713.175 664.096 714.353 655.826 712.887 647.955L711.649 647.226C711.782 645.47 712.658 644.124 713.129 642.465C713.668 640.559 712.664 637.003 712.312 635.024C711.674 631.437 713.637 628.932 712.322 625.635C711.962 624.732 711.631 624.057 711.53 623.073C711.439 622.185 712.129 621.719 712.646 621.053C712.991 618.913 711.557 615.725 711.238 613.498L712.443 612.029C712.314 610.389 711.625 609.677 710.737 608.315L711.956 607.524C712.464 604.05 711.605 575.714 711.145 572.395C711.015 571.459 710.929 570.924 711.009 569.97C719.517 572.771 758.195 561.396 767.81 558.076Q771.358 556.763 774.85 555.309Q778.343 553.854 781.773 552.259Q785.204 550.665 788.568 548.933Q791.931 547.201 795.222 545.335Q798.513 543.468 801.725 541.471Q804.938 539.473 808.068 537.347Q811.197 535.221 814.238 532.971Q817.279 530.72 820.227 528.349C823.626 525.629 826.248 521.654 829.617 519.182L830.679 519.829L831.912 518.758C832.277 517.684 832.543 516.9 833.291 516.034C834.206 516.667 833.718 516.494 834.733 516.613C835.839 515.538 836.584 514.682 837.274 513.297L836.046 512.007L836.481 511.246C836.996 511.633 837.433 511.903 837.995 512.201C838.121 512.133 838.252 512.072 838.373 511.996C839.774 511.105 841.34 509.688 841.666 508.068C841.376 507.692 841.102 507.304 840.828 506.916C842.118 505.822 842.776 506.784 844.17 505.574C846.936 503.172 865.315 481.526 866.555 478.618C866.927 477.746 866.954 477.03 866.992 476.1C866.998 475.935 867.001 474.775 867.066 474.573C867.543 473.075 868.247 474.132 869.467 473.565C870.958 471.353 871.677 468.892 872.527 466.387C873.374 465.859 874.145 465.616 875.086 465.28C877.432 460.911 880.612 457.029 882.73 452.551C884.067 449.725 884.983 445.004 886.677 442.666L887.287 443.618L890.13 438.795L889.772 438.584L889.854 438.473L888.357 438.761L888.288 439.009C890.24 435.545 888.706 437.745 888.64 435.177C889.559 435.141 889.731 435.639 890.384 436.238C891.612 435.109 892.286 433.08 893.014 431.576L892.018 433.234C892.327 432.184 892.567 431.328 893.189 430.414C894.31 428.767 894.722 427.989 894.765 425.967C895.526 425.48 896.453 424.978 896.936 424.184C898.793 421.13 900.767 414.971 900.299 411.465C901.098 411.268 901.521 410.635 902.111 410.077C902.77 406.817 904.644 403.583 905.669 400.381C906.429 398.005 906.767 395.526 907.471 393.137L907.709 392.342C907.966 391.469 907.85 391.749 908.161 391.046C908.338 390.646 908.521 390.249 908.693 389.848C909.848 387.139 910.039 384.676 908.906 381.896L908.817 381.362L909.362 381.069C908.844 377.745 912.357 374.287 913.229 371.152C914.074 368.115 913.331 363.182 914.679 360.703C915.36 359.451 916.526 358.106 917.374 356.944C917.472 355.825 917.22 355.362 916.652 354.444C916.214 353.735 915.857 353.19 915.628 352.378C915.875 352.252 916.115 352.112 916.369 352C916.638 351.882 916.92 351.793 917.196 351.689C917.338 348.395 918.844 342.813 918.067 339.911C917.642 338.32 916.813 337.291 917.444 335.686L919.258 335.29C919.753 333.577 918.233 334.874 918.37 332.84C918.664 328.482 920.96 323.222 919.718 318.976L918.585 319.834L918.238 319.193C919.058 317.806 920.317 315.906 920.578 314.304C920.608 314.12 920.697 313.152 920.567 312.867C920.278 312.232 919.245 311.697 918.89 311.067C917.575 308.737 920.717 302.568 919.269 300.194C919.145 299.991 918.105 299.745 917.673 299.132L918.59 298.597C919.066 296.742 917.897 294.986 917.813 293.003C918.379 292.368 918.885 291.731 919.377 291.036L915.689 280.979C915.855 280.09 916.005 279.795 916.601 279.063C916.777 278.848 916.967 278.646 917.149 278.437C916.853 275.924 916.682 273.395 916.479 270.872C915.821 270.927 916.231 270.935 915.263 270.672L916.155 270.524C915.299 269.683 914.218 269.06 914.127 267.839L915.747 266.883C915.594 265.846 915.474 265.873 914.838 265.114C914.085 265.265 913.573 265.317 912.788 265.306L912.654 264.588L914.928 263.678C914.52 262.49 913.693 263.393 912.811 262.237L914.033 261.229C913.617 259.934 913.37 260.139 912.22 259.541C913.005 252.572 910.956 252.582 908.995 246.56C908.349 244.577 908.19 242.247 907.936 240.176C907.151 233.775 901.629 223.155 899.14 216.849C897.945 213.821 897.114 210.581 895.865 207.61C895.167 205.95 893.29 205.049 892.738 203.523C892.481 202.812 893.202 201.952 893.521 201.315C891.417 198.213 889.067 195.153 887.125 191.959C885.091 188.613 882.078 185.864 880.222 182.447L880.923 181.405C878.674 175.878 873.302 171.846 871.61 168.44C871.015 167.243 871.974 166.069 870.788 164.504C868.495 161.478 865.444 159.243 862.934 156.448L863.458 154.948C859.771 146.856 838.043 127.499 830.443 121.482C822.788 115.422 814.645 109.988 806.977 103.899C806.164 103.93 805.679 103.983 804.933 103.589C804.775 103.506 804.631 103.4 804.479 103.305L805.073 103.816C801.456 100.577 796.254 95.9059 791.44 94.7485C790.63 94.5536 790.129 95.1667 789.464 95.5837C787.67 94.7254 787.483 93.1053 786.089 91.9231C783.985 90.1384 776.4 89.8283 773.276 87.6187L773.127 86.6694L772.532 86.4291C771.72 86.8847 771.457 87.0855 770.501 87.0997C767.608 82.9023 765.07 84.6819 760.647 83.6305L762.882 83.5335L762.847 83.1166C758.504 80.5799 753.111 79.1941 748.307 77.7308L748.403 77.9456L747.779 77.8018L747.59 78.5916C743.497 77.3887 741.27 73.5388 736.453 74.3784C733.8 74.8408 732.3 73.324 729.889 72.5512C728.484 72.1008 727.767 71.9688 726.422 72.57C726.849 72.9089 726.559 72.7101 727.437 73.055L728.223 73.3588L727.554 73.9581C722.016 72.3353 715.874 70.2448 710.131 69.7717C707.346 69.5422 701.748 69.1799 699.607 67.517L700.169 66.8266C699.474 67.0847 698.785 67.313 698.085 67.5532C692.969 69.3109 682.115 65.4682 675.124 66.8912C674.532 67.9002 674.883 67.4694 674.103 68.2085C672.966 67.7798 672.652 67.2702 671.827 66.3891C668.384 66.4047 656.693 65.8855 654.386 66.9177C653.316 67.3963 652.202 68.6799 651.017 69.2855C646.929 68.4899 637.378 67.5928 633.547 68.9409C631.56 69.6402 629.729 71.1117 627.726 71.9722C619.722 68.681 622.945 72.8957 619.08 73.0677C618.218 73.1061 617.131 72.3983 616.259 72.412C613.167 72.4606 605.415 76.4155 602.244 77.6974L601.683 76.622C600.158 76.7778 585.783 81.4088 584.409 82.1319C582.203 83.2929 580.246 85.0926 578.335 86.6803L577.738 85.843C577.254 85.818 577.012 85.7706 576.5 85.9448C573.942 86.8159 570.909 88.9462 568.341 90.1489C545.259 100.958 528.221 113.916 509.558 131.067C506.861 133.546 502.442 136.406 500.791 139.673C498.856 143.5 495.104 144.451 492.416 147.456C491.267 148.741 492.364 149.901 491.639 150.838C490.094 152.834 488.006 154.502 486.345 156.435C484.369 158.735 482.844 161.265 480.978 163.618C479.77 165.141 478.247 166.247 477.464 168.083C477.56 169.393 478.146 169.59 479.044 170.471L478.43 171.186C477.171 171.312 476.202 171.454 475.005 171.905C474.638 173.103 474.429 174.311 474.207 175.541C473.494 175.926 473.768 175.863 473.035 175.965C472.876 175.987 472.715 175.999 472.554 176.016C469.742 180.625 449.298 216.382 449.708 219.043C449.817 219.756 450.719 220.231 450.38 221.191C449.867 222.644 447.63 224.058 446.966 225.658C446.195 227.517 447.919 227.761 447.385 229.391C446.401 232.4 443.78 234.824 443.732 238.176L444.56 239.01C441.034 242.552 440.813 247.931 439.701 252.639L439.285 251.692L439.805 252.705C440.386 252.278 440.692 252.015 441.142 251.43L441.69 251.259C441.559 251.572 441.433 251.888 441.297 252.199C440.825 253.277 440.33 253.706 439.338 254.35C439.652 254.918 440.139 255.327 439.881 255.983C439.555 256.809 438.935 257.201 438.275 257.747L439.534 258.765C439.539 260.454 439.153 260.795 438.277 262.211C437.241 263.885 435.205 277.898 435.115 280.602C435.032 283.091 435.64 285.635 435.366 288.108C434.972 291.655 433.776 295.364 432.772 298.793C433.133 299.409 434.128 300.682 434.253 301.316C434.718 303.685 432.127 308.785 432.29 311.74C432.391 313.562 434.199 316.519 433.821 318.021C433.574 319.002 433.144 319.876 432.731 320.796C433.778 328.374 433.294 336.375 435.455 343.704C435.15 344.201 434.677 344.628 434.54 345.194C434.232 346.463 435.906 351.847 436.252 353.299C436.526 354.445 436.835 355.226 437.48 356.212L438.546 356.838C438.431 356.946 438.312 357.05 438.201 357.161C437.651 357.708 437.843 357.506 437.4 358.302C437.833 361.108 438.685 363.854 438.824 366.683C438.922 368.669 439.47 369.959 440.516 371.63C443.203 375.922 442.733 387.303 445.21 390.252C446.044 391.244 447.203 391.065 448.061 392.462C447.954 392.698 447.841 392.93 447.741 393.169C447.398 393.987 447.273 394.59 447.175 395.457L448.654 397.098C448.344 397.794 448.115 397.972 447.554 398.461C448.569 400.504 452.697 405.067 452.547 406.766L451.885 407.556C452.051 408.697 452.129 409.673 453.141 410.4C453.572 410.709 454.136 410.949 454.617 411.174C454.54 412.646 454.119 414.724 454.82 415.988L456.11 416.412C461.84 434.023 479.43 459.769 491.336 474.183C495.891 479.699 500.837 484.703 505.728 489.903C507.706 492.007 511.198 497.066 513.665 498.234C514.415 498.589 515.373 498.765 516.181 498.967C516.278 499.116 516.374 499.267 516.473 499.416C523.043 509.229 546.243 522.48 556.611 529.817C557.401 529.899 558.058 529.946 558.855 529.893C559.136 530.421 559.47 531.345 559.852 531.77C562.737 534.978 576.786 539.33 581.195 544.195C574.364 545.66 547.993 544.535 539.684 544.53C535.368 544.527 532.045 544.009 527.804 545.125C527.318 545.253 526.82 545.328 526.326 545.418C525.894 545.062 525.538 544.587 525.032 544.349C524.473 544.086 511.62 544.584 509.82 544.583L383.25 544.568L342.553 544.422C337.817 544.39 333.114 544.737 328.376 544.477C296.284 543.431 264.136 544.168 232.029 544.023L36.0487 543.457C36.0831 546.425 35.3433 552.406 36.4434 554.955C36.9968 564.987 36.2589 575.433 36.1702 585.508L35.9854 641.954L35.5153 824.569C35.4146 836.221 33.8201 901.489 35.7323 906.841C34.7632 906.586 34.0281 906.46 33.0169 906.472C32.3321 906.48 31.6908 906.49 31.005 906.438C20.7148 905.654 10.3237 906.645 0 906.037L0 0Z"/>
	<defs>
		<linearGradient id="gradient_0" gradientUnits="userSpaceOnUse" x1="330.29166" y1="441.78345" x2="34.195797" y2="449.21689">
			<stop offset="0" stop-color="#FC9D00"/>
			<stop offset="1" stop-color="#FECE45"/>
		</linearGradient>
	</defs>
	<path fill="url(#gradient_0)" d="M36.0299 347.217C44.4141 347.253 53.0753 346.958 61.4083 347.845C73.8922 349.067 86.6548 348.294 99.1739 347.957C111.221 347.634 123.359 347.604 135.41 347.638Q201.704 348.268 268 347.976C280.048 347.989 292.092 348.14 304.139 347.991C307.549 347.948 311.811 348.425 315.099 347.682C319.239 347.388 323.357 347.423 327.504 347.456C327.935 348.155 328.864 349.273 329.083 350.017C329.974 353.05 328.777 361.492 328.869 365.2Q329.962 435.355 329.489 505.516C329.468 515.653 328.276 529.92 329.4 539.395C329.603 541.101 329.069 542.924 328.376 544.477C296.284 543.431 264.136 544.168 232.029 544.023L36.0487 543.457C34.8649 522.418 35.827 499.426 35.9114 478.228L36.0299 347.217Z"/>
	<path fill="white" d="M110.666 447.907C122.645 450.378 136.902 448.969 149.26 449.01C163.68 449.057 178.097 449.62 192.517 449.496C192.344 457.943 192.477 511.753 191.82 513.268L190.623 513.668C163.112 513.338 135.451 514.251 107.966 513.317C107.995 505.18 108.428 497.049 108.443 488.912C108.468 475.679 106.6 460.605 110.666 447.907Z"/>
	<path fill="white" d="M209.868 449.205C215.428 448.692 221.165 449.11 226.747 449.14L255.739 449.345C264.961 449.484 274.382 448.743 283.564 449.534C284.661 449.628 284.22 449.404 284.924 450.234C286.222 455.443 285.073 461.732 284.88 467.093C284.622 474.245 284.664 481.586 284.654 488.755C284.646 494.852 285.32 501.147 284.947 507.208C284.845 508.865 284.252 510.349 283.62 511.866L283.724 512.524L283.193 513.214C276.387 513.057 269.491 513.503 262.667 513.502L204.331 513.515C205.235 509.336 205.139 504.841 205.299 500.58C205.726 489.196 205.43 477.75 205.401 466.355C205.387 460.979 205.073 455.43 205.648 450.093C206.789 449.282 208.48 449.372 209.868 449.205Z"/>
	<path fill="white" d="M204.433 362.788C207.172 362.968 209.937 363.094 212.666 363.39C232.991 365.595 252.292 380.734 264.67 396.275C270.649 403.783 283.27 427.035 282.275 435.916L281.395 436.409C274.167 436.58 266.925 436.143 259.693 436.115Q232.359 435.929 205.028 436.423C206.088 427.093 205.554 417.612 205.449 408.252C205.278 393.078 205.02 377.959 204.433 362.788Z"/>
	<path fill="white" d="M192.433 363.754L192.967 364.261C193.321 369.529 192.832 375.084 192.714 380.376C192.543 388.044 192.584 395.715 192.502 403.385C192.386 414.345 193.224 425.539 192.52 436.451C174.502 436.741 156.403 436.204 138.366 436.298C131.955 436.331 124.819 435.606 118.531 436.692L112.981 436.8C116.834 421.437 123.744 408.069 134.04 395.993C148.768 378.72 169.462 365.562 192.433 363.754Z"/>
	<path fill="#FFC34E" d="M711.009 569.97C719.517 572.771 758.195 561.396 767.81 558.076C769.446 563.261 768.486 571.38 768.52 576.914C768.598 589.437 768.801 601.983 768.744 614.503C768.705 623.019 768.129 631.32 768.672 639.859Q770.043 639.441 771.433 639.091Q772.823 638.742 774.228 638.461Q775.633 638.181 777.051 637.971Q778.469 637.76 779.895 637.621Q781.321 637.481 782.753 637.412Q784.184 637.343 785.617 637.345Q787.051 637.347 788.482 637.421Q789.913 637.494 791.339 637.638Q792.765 637.782 794.182 637.997Q795.599 638.211 797.004 638.496Q798.408 638.78 799.797 639.134Q801.186 639.488 802.555 639.91Q803.925 640.332 805.272 640.822Q806.619 641.312 807.94 641.867Q809.261 642.423 810.553 643.044Q811.845 643.664 813.104 644.348C819.988 648.12 826.106 653.091 830.849 659.376C837.49 668.176 842.457 678.549 848.132 688.007C857.406 703.461 867.162 718.696 876.701 733.996C891.582 757.865 907.514 781.041 922.74 804.687C927.064 811.403 930.773 818.519 935.038 825.281C946.567 843.56 958.707 861.597 970.701 879.577C973.945 884.439 976.925 889.556 979.778 894.656C981.899 898.448 983.717 902.878 986.596 906.122C968.159 907.04 949.359 906.59 930.889 906.542C919.132 906.511 907.4 906.904 895.657 906.965C887.76 907.175 879.788 906.583 871.866 906.684C820.693 907.342 769.511 906.479 718.333 906.462C717.548 902.234 717.891 897.231 717.77 892.906L717.085 856.762L715.88 784.721C715.397 763.36 714.284 742.166 714.572 720.781C714.41 718.097 714.313 715.432 714.506 712.743C714.777 708.986 714.318 707.01 712.975 703.519C716.32 697.017 712.015 700.219 712.187 696.54C712.347 693.096 713.845 689.617 713.998 686.072C714.198 681.438 713.332 676.67 713.274 672.016C713.175 664.096 714.353 655.826 712.887 647.955L711.649 647.226C711.782 645.47 712.658 644.124 713.129 642.465C713.668 640.559 712.664 637.003 712.312 635.024C711.674 631.437 713.637 628.932 712.322 625.635C711.962 624.732 711.631 624.057 711.53 623.073C711.439 622.185 712.129 621.719 712.646 621.053C712.991 618.913 711.557 615.725 711.238 613.498L712.443 612.029C712.314 610.389 711.625 609.677 710.737 608.315L711.956 607.524C712.464 604.05 711.605 575.714 711.145 572.395C711.015 571.459 710.929 570.924 711.009 569.97Z"/>
	<path fill="#F83123" d="M714.572 720.781C721.017 721.506 727.697 721.28 734.181 721.334Q752.009 721.434 769.836 721.313C780.498 737.774 791.826 753.601 802.972 769.722C808.213 777.302 813.134 785.102 818.326 792.716C821.489 797.356 824.969 801.786 828.062 806.471L867.288 865.917C870.686 871.042 873.762 876.387 877.253 881.448C880.484 886.131 884.164 890.477 887.43 895.13C890.193 899.066 892.693 903.174 895.657 906.965C887.76 907.175 879.788 906.583 871.866 906.684C820.693 907.342 769.511 906.479 718.333 906.462C717.548 902.234 717.891 897.231 717.77 892.906L717.085 856.762L715.88 784.721C715.397 763.36 714.284 742.166 714.572 720.781Z"/>
	<path fill="#F83123" d="M61.4083 347.845C62.0525 332.047 68.5544 320.287 80.1093 309.634C83.6413 306.378 88.9052 302.503 93.5611 301.165L95.0534 301.911L95.5226 301.329L95.4071 300.307C98.4892 297.428 107.709 296.443 111.974 296.053C123.556 294.993 135.526 295.738 147.163 295.798C156.681 295.847 166.305 295.303 175.803 295.647C180.325 295.81 184.859 296.538 189.376 296.543C194.731 296.549 204.101 294.827 208.861 296.292C212.163 297.308 221.466 295.596 225.23 295.551C228.751 295.509 232.248 296.2 235.769 296.201C243.143 296.203 250.49 295.372 257.889 295.787C279.927 297.023 296.959 307.594 307.881 326.66C310.615 331.431 313.138 336.034 314.486 341.409C315.024 343.555 315.819 345.487 315.099 347.682C311.811 348.425 307.549 347.948 304.139 347.991C292.092 348.14 280.048 347.989 268 347.976Q201.704 348.268 135.41 347.638C123.359 347.604 111.221 347.634 99.1739 347.957C86.6548 348.294 73.8922 349.067 61.4083 347.845Z"/>
	<path fill="#FFC34E" d="M388.842 555.539C404.041 554.743 419.425 555.458 434.65 555.457C443.21 555.457 452.738 554.423 461.176 555.512C462.002 555.619 462.776 555.594 463.607 555.56C466.365 555.59 469.149 555.701 471.904 555.573C484.103 555.069 496.287 555.453 508.49 555.457C526.736 555.461 545.042 555.313 563.282 555.623L571.868 555.658Q590.267 555.011 608.665 555.693C612.467 556.436 617.959 557.129 621.044 559.572C628.548 561.693 636.059 564.298 643.626 566.121C652.487 568.257 661.871 569.372 670.957 570C674.625 570.254 678.209 570.759 681.837 570.032C682.633 569.873 683.37 569.836 684.179 569.846C686.331 578.669 682.826 598.249 684.736 603.195C685.559 605.325 683.806 673.917 684.636 684.499C683.513 686.167 683.278 686.576 683.621 688.679C683.963 690.77 685.089 693.068 684.657 695.177L683.548 696.11C683.682 697.335 684.227 698.245 684.795 699.309C684.442 702.536 683.408 703.982 685.036 707C684.739 707.702 683.484 709.972 683.478 710.542C683.462 712.142 685.322 713.894 684.798 715.455C684.072 717.617 683.842 719.336 683.885 721.607C684.474 723.244 684.67 724.21 684.462 725.925C684.094 728.973 683.348 740.934 684.006 743.533C684.368 744.962 686.052 749.003 685.365 750.081C684.842 750.902 683.988 752.001 683.817 752.972C683.382 755.458 684.136 758.847 684.122 761.439C684.055 774.295 683.485 787.121 683.76 799.986C686.568 804.651 680.984 808.075 684.893 812.303C684.581 813.391 684.439 813.52 683.671 814.284C683.878 831.898 683.079 849.519 683.147 867.14C683.19 878.259 684.6 896.155 683.047 906.576C662.57 905.859 641.953 907.31 621.502 906.121C611.884 906.265 579.382 904.966 572.624 906.573C569.319 907.481 565.95 907.365 562.657 906.498C551.225 905.454 539.24 906.572 527.742 906.436L496.886 906.126C488.78 906.022 480.439 905.619 472.368 906.522C470.795 906.726 469.193 907 467.613 907.123L463.322 906.936C453.989 906.362 444.583 906.54 435.234 906.507L378.403 906.407L364.691 906.613C361.477 906.187 357.576 906.608 354.276 906.603L330.389 906.493C329.546 906.172 329.052 905.937 328.418 905.289C329.057 860.023 328.391 814.757 328.928 769.498L329.471 739.499C329.523 734.786 328.867 729.363 329.743 724.749L330.298 724.765L330.114 724.234L330.433 724.234L329.127 723.683C328.216 719.787 329.211 715.167 329.39 711.198C324.814 706.061 286.316 712.93 281.065 709.321C282.394 705.937 281.441 694.037 281.518 689.68C281.746 676.797 281.363 558.487 282.685 555.668C291.174 554.106 307.369 555.206 316.568 555.261C337.755 555.388 358.91 555.207 380.101 555.564C383.025 555.628 385.919 555.667 388.842 555.539Z"/>
	<path fill="#0FB981" d="M329.39 711.198C335.092 712.83 361.586 711.969 368.397 711.807C371.905 711.723 376.613 710.988 379.961 711.997Q384.812 712.215 389.667 712.333C397.753 711.799 406.059 712.357 414.18 712.324C421.185 712.295 428.332 711.71 435.292 711.798C436.348 711.812 437.254 712.252 438.207 712.648C439.149 713.039 439.596 712.892 440.579 712.722C443.277 712.256 446.244 711.833 448.979 711.812C453.256 711.779 458.316 713.064 462.479 711.992C463.224 715.86 462.985 720.019 462.863 723.944C462.305 731.151 462.572 738.483 462.561 745.71L462.526 781.889Q462.277 844.418 463.322 906.936C453.989 906.362 444.583 906.54 435.234 906.507L378.403 906.407L364.691 906.613C361.477 906.187 357.576 906.608 354.276 906.603L330.389 906.493C329.546 906.172 329.052 905.937 328.418 905.289C329.057 860.023 328.391 814.757 328.928 769.498L329.471 739.499C329.523 734.786 328.867 729.363 329.743 724.749L330.298 724.765L330.114 724.234L330.433 724.234L329.127 723.683C328.216 719.787 329.211 715.167 329.39 711.198Z"/>
	<path fill="#A3FFE2" d="M329.39 711.198C335.092 712.83 361.586 711.969 368.397 711.807C371.905 711.723 376.613 710.988 379.961 711.997Q384.812 712.215 389.667 712.333C397.753 711.799 406.059 712.357 414.18 712.324C421.185 712.295 428.332 711.71 435.292 711.798C436.348 711.812 437.254 712.252 438.207 712.648C439.149 713.039 439.596 712.892 440.579 712.722C443.277 712.256 446.244 711.833 448.979 711.812C453.256 711.779 458.316 713.064 462.479 711.992C463.224 715.86 462.985 720.019 462.863 723.944C461.917 723.817 460.947 723.648 459.999 723.55C457.728 723.315 455.15 723.784 452.822 723.777L429.932 723.82C417.91 723.846 335.045 722.502 330.433 724.234L329.127 723.683C328.216 719.787 329.211 715.167 329.39 711.198Z"/>
	<path fill="white" d="M281.065 709.321C282.394 705.937 281.441 694.037 281.518 689.68C281.746 676.797 281.363 558.487 282.685 555.668C291.174 554.106 307.369 555.206 316.568 555.261C337.755 555.388 358.91 555.207 380.101 555.564L380.063 603.385C380.055 611.415 380.782 620.11 379.465 628.001C366.983 627.544 354.452 627.777 341.961 627.671C337.91 627.636 333.795 628.053 329.764 627.695C329.684 630.826 329.523 633.98 329.649 637.109C346.417 637.326 363.322 636.907 380.064 637.521C379.452 662.358 380.295 687.168 379.961 711.997C376.613 710.988 371.905 711.723 368.397 711.807C361.586 711.969 335.092 712.83 329.39 711.198C324.814 706.061 286.316 712.93 281.065 709.321Z"/>
	<path fill="#F76B5C" d="M621.345 722.172Q652.611 721.409 683.885 721.607C684.474 723.244 684.67 724.21 684.462 725.925C684.094 728.973 683.348 740.934 684.006 743.533C684.368 744.962 686.052 749.003 685.365 750.081C684.842 750.902 683.988 752.001 683.817 752.972C683.382 755.458 684.136 758.847 684.122 761.439C684.055 774.295 683.485 787.121 683.76 799.986C686.568 804.651 680.984 808.075 684.893 812.303C684.581 813.391 684.439 813.52 683.671 814.284C683.878 831.898 683.079 849.519 683.147 867.14C683.19 878.259 684.6 896.155 683.047 906.576C662.57 905.859 641.953 907.31 621.502 906.121L621.062 792.531L620.936 741.717C620.898 735.392 621.236 729.066 620.963 722.744L621.345 722.172Z"/>
	<path fill="#FFC34E" d="M621.044 559.572C628.548 561.693 636.059 564.298 643.626 566.121C652.487 568.257 661.871 569.372 670.957 570C674.625 570.254 678.209 570.759 681.837 570.032C682.633 569.873 683.37 569.836 684.179 569.846C686.331 578.669 682.826 598.249 684.736 603.195C685.559 605.325 683.806 673.917 684.636 684.499C683.513 686.167 683.278 686.576 683.621 688.679C683.963 690.77 685.089 693.068 684.657 695.177L683.548 696.11C683.682 697.335 684.227 698.245 684.795 699.309C684.442 702.536 683.408 703.982 685.036 707C684.739 707.702 683.484 709.972 683.478 710.542C683.462 712.142 685.322 713.894 684.798 715.455C684.072 717.617 683.842 719.336 683.885 721.607Q652.611 721.409 621.345 722.172C621.501 719.083 621.601 716.127 621.295 713.04C621.762 700.394 620.952 687.431 620.821 674.753C620.706 663.606 621.257 651.627 620.863 640.663C620.819 639.43 620.649 638.717 620.009 637.67L620.531 637.431C621.613 634.89 620.927 630.312 620.741 627.515C620.257 620.372 620.733 613.152 620.748 606.002L621.044 559.572Z"/>
	<path fill="#0FB981" d="M572.624 906.573Q572.125 840.368 572.441 774.162Q572.503 758.645 572.351 743.129C572.301 736.694 571.743 729.677 572.703 723.32C579.031 723.713 617.077 724.242 620.963 722.744C621.236 729.066 620.898 735.392 620.936 741.717L621.062 792.531L621.502 906.121C611.884 906.265 579.382 904.966 572.624 906.573Z"/>
	<path fill="white" d="M471.904 555.573C484.103 555.069 496.287 555.453 508.49 555.457C526.736 555.461 545.042 555.313 563.282 555.623L562.855 627.515Q517.728 627.773 472.6 627.522C471.838 603.571 473.213 579.51 471.904 555.573Z"/>
	<path fill="white" d="M389.51 637.03C413.862 637.56 438.189 637.094 462.536 636.918C462.866 655.15 462.568 673.442 462.444 691.676C462.409 696.841 461.378 707.373 462.479 711.992C458.316 713.064 453.256 711.779 448.979 711.812C446.244 711.833 443.277 712.256 440.579 712.722C439.596 712.892 439.149 713.039 438.207 712.648C437.254 712.252 436.348 711.812 435.292 711.798C428.332 711.71 421.185 712.295 414.18 712.324C406.059 712.357 397.753 711.799 389.667 712.333L389.51 637.03Z"/>
	<path fill="white" d="M388.842 555.539C404.041 554.743 419.425 555.458 434.65 555.457C443.21 555.457 452.738 554.423 461.176 555.512C462.002 555.619 462.776 555.594 463.607 555.56C462.377 561.934 462.761 569.085 462.666 575.575C462.412 592.872 463.195 610.393 462.367 627.65C450.649 627.743 438.924 627.239 427.207 627.339C414.499 627.448 401.644 628.228 388.963 627.393C390.243 614.489 389.486 601.024 389.49 588.039C389.494 577.474 390.573 565.926 388.842 555.539Z"/>
	<path fill="#0FB981" d="M472.57 853.637C488.693 853.104 504.93 853.598 521.066 853.673C533.309 853.731 545.81 853.226 558.026 853.91C559.675 854.002 561.596 854.085 563.01 854.982C563.779 861.578 563.107 868.699 563.065 875.352C563 885.682 563.39 896.194 562.657 906.498C551.225 905.454 539.24 906.572 527.742 906.436L496.886 906.126C488.78 906.022 480.439 905.619 472.368 906.522C474.037 898.969 473.063 889.981 472.933 882.277L472.57 853.637Z"/>
	<path fill="white" d="M572.882 715.011C572.046 709.052 572.537 702.52 572.593 696.511L572.91 664.441C572.945 657.774 571.819 650.02 572.705 643.467C572.939 641.736 572.47 638.66 573.169 637.28C581.231 636.207 590.245 637.217 598.418 637.383C605.607 637.528 612.834 637.223 620.009 637.67C620.649 638.717 620.819 639.43 620.863 640.663C621.257 651.627 620.706 663.606 620.821 674.753C620.952 687.431 621.762 700.394 621.295 713.04C621.601 716.127 621.501 719.083 621.345 722.172L620.963 722.744C617.077 724.242 579.031 723.713 572.703 723.32C572.978 720.553 572.905 717.788 572.882 715.011Z"/>
	<path fill="#A3FFE2" d="M572.882 715.011C573.018 714.706 573.12 714.384 573.289 714.096C573.306 714.068 573.954 713.322 574.052 713.282C578.193 711.592 613.298 713.927 621.295 713.04C621.601 716.127 621.501 719.083 621.345 722.172L620.963 722.744C617.077 724.242 579.031 723.713 572.703 723.32C572.978 720.553 572.905 717.788 572.882 715.011Z"/>
	<path fill="white" d="M571.868 555.658Q590.267 555.011 608.665 555.693C612.467 556.436 617.959 557.129 621.044 559.572L620.748 606.002C620.733 613.152 620.257 620.372 620.741 627.515C604.644 627.819 588.517 627.157 572.424 627.72L572.389 582.152C572.379 573.361 572.788 564.402 571.868 555.658Z"/>
	<path fill="white" d="M472.317 637.418C490.708 636.653 509.221 637.573 527.624 637.463L554.523 637.457C557.143 637.448 559.539 636.746 562.15 637.305C563.14 638.274 562.841 638.308 562.856 639.666L563.02 713.403L563.056 723.159Q562.863 746.444 563.182 769.727Q535.416 770.133 507.648 769.909C496.095 769.763 484.455 769.29 472.903 769.698C473.237 754.347 472.922 738.993 473.143 723.642C472.992 719.933 473.02 716.198 472.963 712.485C472.315 687.454 472.927 662.452 472.317 637.418Z"/>
	<path fill="#0FB981" d="M473.143 723.642C477.136 724.045 481.333 723.694 485.357 723.65L507.375 723.442C525.915 723.296 544.531 723.791 563.056 723.159Q562.863 746.444 563.182 769.727Q535.416 770.133 507.648 769.909C496.095 769.763 484.455 769.29 472.903 769.698C473.237 754.347 472.922 738.993 473.143 723.642Z"/>
	<path fill="#A3FFE2" d="M472.963 712.485C486.997 711.942 501.19 712.39 515.234 712.628C521.289 712.731 527.467 712.36 533.499 712.637C534.659 712.69 535.742 713.277 536.775 713.761C545.411 712.138 554.242 712.967 563.02 713.403L563.056 723.159C544.531 723.791 525.915 723.296 507.375 723.442L485.357 723.65C481.333 723.694 477.136 724.045 473.143 723.642C472.992 719.933 473.02 716.198 472.963 712.485Z"/>
	<path fill="#0FB981" d="M475.037 778.901C483.483 780.954 500.873 779.823 510.339 779.785L562.652 779.753C563.07 785.59 563.596 841.117 563.024 842.69C562.927 842.956 562.677 843.136 562.503 843.36L560.625 843.499Q529.741 843.947 498.855 843.662C490.058 843.646 481.255 843.962 472.462 843.614C472.366 838.197 472.271 782.018 473.023 779.804L475.037 778.901Z"/>
	<path fill="#A3FFE2" d="M0 906.037C10.3237 906.645 20.7148 905.654 31.005 906.438C31.6908 906.49 32.3321 906.48 33.0169 906.472C34.0281 906.46 34.7632 906.586 35.7323 906.841C42.9895 905.128 67.1685 906.809 76.2299 906.66C85.1802 908.029 95.1822 907.026 104.256 906.997Q125.587 907.098 146.918 906.947C158.084 906.803 169.335 906.227 180.501 906.742C211.932 908.043 243.789 907.137 275.251 906.991C281.662 906.961 288.19 906.503 294.574 906.612C306.487 906.97 318.465 906.446 330.389 906.493L354.276 906.603C357.576 906.608 361.477 906.187 364.691 906.613L378.403 906.407L435.234 906.507C444.583 906.54 453.989 906.362 463.322 906.936L467.613 907.123C469.193 907 470.795 906.726 472.368 906.522C480.439 905.619 488.78 906.022 496.886 906.126L527.742 906.436C539.24 906.572 551.225 905.454 562.657 906.498C565.95 907.365 569.319 907.481 572.624 906.573C579.382 904.966 611.884 906.265 621.502 906.121C641.953 907.31 662.57 905.859 683.047 906.576C681.966 919.806 682.579 933.295 682.552 946.561C682.54 952.262 681.766 958.356 682.347 964.002C682.548 965.956 683.185 967.935 684.433 969.477C686.171 971.624 688.75 972.476 691.434 972.654C697.272 973.042 708.173 971.369 713.705 969.455C715.686 968.77 717.443 967.587 719.315 966.663C719.293 957.675 718.869 948.688 718.919 939.705C718.98 929.015 719.755 917.031 718.333 906.462C769.511 906.479 820.693 907.342 871.866 906.684C879.788 906.583 887.76 907.175 895.657 906.965C907.4 906.904 919.132 906.511 930.889 906.542C949.359 906.59 968.159 907.04 986.596 906.122C991.404 907.751 1016.65 906.475 1024 906.43L1024 1024L0 1024L0 906.037Z"/>
	<defs>
		<linearGradient id="gradient_1" gradientUnits="userSpaceOnUse" x1="352.27499" y1="786.73035" x2="3.7358353" y2="712.78082">
			<stop offset="0" stop-color="#D9E7E8"/>
			<stop offset="1" stop-color="white"/>
		</linearGradient>
	</defs>
	<path fill="url(#gradient_1)" d="M84.5841 555.058C84.7648 555.077 84.9453 555.097 85.1262 555.114C90.2679 555.585 95.5839 555.164 100.745 555.112Q114.041 555.017 127.337 555.106C131.204 555.103 135.352 554.574 139.163 555.114C139.583 557.643 140.215 560.523 140.165 563.083C140.097 566.602 138.155 568.49 139.39 572.155C140.903 576.645 139.769 587.64 139.828 592.886L140.006 659.966C139.952 675.195 139.584 690.418 140.427 705.636C140.479 706.568 140.487 708.406 141.416 708.905C143.911 710.246 148.666 709.615 151.214 708.638L151.69 708.123C151.96 708.455 152.115 708.709 152.494 708.931C154.977 710.383 206.081 709.762 210.629 708.908L211.219 707.381C211.418 708.075 211.426 709.042 212.118 709.382C214.255 710.434 217.994 710.341 220.208 709.545C221.145 709.208 221.512 708.872 222.167 708.127C223.371 709.436 223.985 709.357 225.729 709.437C231.547 709.704 266.995 709.865 270.418 708.857L270.756 708.333C274.013 708.403 277.9 708.589 281.065 709.321C286.316 712.93 324.814 706.061 329.39 711.198C329.211 715.167 328.216 719.787 329.127 723.683L330.433 724.234L330.114 724.234L330.298 724.765L329.743 724.749C328.867 729.363 329.523 734.786 329.471 739.499L328.928 769.498C328.391 814.757 329.057 860.023 328.418 905.289C329.052 905.937 329.546 906.172 330.389 906.493C318.465 906.446 306.487 906.97 294.574 906.612C288.19 906.503 281.662 906.961 275.251 906.991C243.789 907.137 211.932 908.043 180.501 906.742C169.335 906.227 158.084 906.803 146.918 906.947Q125.587 907.098 104.256 906.997C95.1822 907.026 85.1802 908.029 76.2299 906.66C67.1685 906.809 42.9895 905.128 35.7323 906.841C33.8201 901.489 35.4146 836.221 35.5153 824.569L35.9854 641.954L36.1702 585.508C36.2589 575.433 36.9968 564.987 36.4434 554.955C43.6462 554.956 67.3753 554.549 73.128 555.776C73.9985 557.402 72.9804 560.675 73.1612 562.656C73.6582 568.101 73.0411 574.101 72.9534 579.593L72.609 613.286L72.5605 641.201C72.565 644.266 73.1529 648.314 72.7133 651.261C72.5779 652.169 71.9631 652.983 71.4567 653.723L71.6689 654.221L72.4979 653.688C72.4285 660.183 72.3375 666.658 72.4482 673.154C72.4836 675.226 73.1193 678.332 72.7827 680.271C72.689 680.811 71.5987 681.664 71.5579 682.176C71.4876 683.058 72.029 684.395 72.3952 685.165C74.1625 688.882 70.7918 703.106 74.1982 709.407C77.3627 709.571 81.3557 710.392 83.9178 708.153C85.4346 704.056 84.4843 668.772 84.4755 662.019L84.9521 593.47C84.9747 580.673 84.3109 567.848 84.5841 555.058Z"/>
	<path fill="#F83123" d="M182.621 743.123C202.416 740.103 225.05 750.179 240.621 761.629C246.63 766.049 252.3 770.875 257.207 776.51C271.572 793.005 285.703 821.776 289.031 843.652C289.435 846.304 289.75 856.308 290.259 857.702C290.461 858.255 291.247 858.86 291.695 859.222L291.693 860.248C291.484 860.403 291.272 860.555 291.066 860.714C290.172 861.397 290.506 861.101 289.762 861.961C290.476 862.207 290.834 862.196 291.574 862.171C293.017 864.345 291.769 867.282 292 869.691C292.452 874.398 293.697 878.931 294.015 883.76C294.516 891.37 293.935 899.026 294.574 906.612C288.19 906.503 281.662 906.961 275.251 906.991C243.789 907.137 211.932 908.043 180.501 906.742Q180.125 846.475 180.501 786.21C180.604 776.828 180.186 767.392 180.146 757.999C180.131 754.492 179.857 750.652 180.253 747.17C180.421 745.693 181.738 744.264 182.621 743.123Z"/>
	<path fill="#F76B5C" d="M76.2299 906.66C77.314 893.754 76.3909 880.571 77.0632 867.603C77.3446 862.175 78.7879 858.177 79.1718 853.697C79.3932 851.114 78.5751 848.446 79.0356 845.859C80.1911 839.369 83.5367 832.83 85.7714 826.665L84.984 825.395C90.0936 806.772 106.751 782.71 120.719 769.437C137.837 753.172 158.595 742.527 182.621 743.123C181.738 744.264 180.421 745.693 180.253 747.17C179.857 750.652 180.131 754.492 180.146 757.999C180.186 767.392 180.604 776.828 180.501 786.21Q180.125 846.477 180.501 906.742C169.335 906.227 158.084 906.803 146.918 906.947Q125.587 907.098 104.256 906.997C95.1822 907.026 85.1802 908.029 76.2299 906.66Z"/>
	<path fill="#2B464D" d="M682.595 286.602C674.967 281.021 666.816 276.171 659.318 270.4C639.341 255.025 620.238 234.442 606.995 213.02C604.508 208.998 597.201 198.899 598.284 194.28C598.999 193.195 599.848 192.047 601.15 191.619C609.201 188.973 615.521 212.38 621.432 214.642C623.918 212.567 622.656 192.967 625.666 187.741C626.632 186.93 627.464 186.557 628.772 186.667C630.165 186.785 631.063 187.567 631.825 188.668C635.03 193.3 631.858 219.411 630.668 225.919Q633.938 230.504 637.538 234.835Q641.138 239.165 645.05 243.217Q648.962 247.268 653.163 251.018Q657.364 254.769 661.832 258.197C666.657 261.83 671.898 264.898 676.751 268.484C678.171 269.533 679.334 270.825 680.789 271.863L681.992 271.054L681.929 271.079C682.729 266.355 682.285 261.089 682.229 256.298C682.084 243.739 681.574 231.22 681.664 218.655C681.702 213.459 681.467 207.944 682.321 202.816C682.703 200.52 683.703 198.156 684.493 195.967C686.324 194.83 688.355 193.431 690.498 193.024C693.075 192.534 695.66 192.998 697.766 194.593C699.531 195.929 700.823 197.689 701.463 199.81C704.01 208.253 703.469 217.424 703.774 226.147C704.48 246.323 704.828 266.367 705.085 286.553C705.197 295.361 704.309 307.33 705.676 315.641L706.223 315.848C710.166 312.248 713.386 307.348 716.758 303.197C719.743 299.522 723.026 296.1 725.98 292.401C732.793 283.871 758.101 250.146 760.026 241.438C761.794 233.439 757.224 218.371 759.211 211.587C759.762 209.708 758.894 207.652 758.55 205.756C758.028 202.868 757.934 200.343 759.871 197.921C760.725 196.852 761.345 196.728 762.646 196.598C772.001 200.767 765.315 220.016 768.666 227.783L769.221 227.161C769.275 226.076 769.583 225.512 770.153 224.59C774.703 217.229 776.522 208.122 780.586 200.445C781.683 198.373 783.085 196.127 785.51 195.541C786.585 195.281 787.834 195.69 788.67 196.4C789.556 197.152 789.961 198.115 790.075 199.252C790.475 203.272 788.191 206.668 787.006 210.34C785.034 216.448 782.453 222.037 780.063 227.962C778.22 232.528 776.703 237.345 774.378 241.69C771.628 246.827 768.078 251.51 764.915 256.392C753.866 273.44 742.352 289.706 729.758 305.665C729.154 305.919 728.769 306.063 728.099 306.071C727.933 306.073 727.766 306.06 727.599 306.054C727.427 306.769 727.229 307.462 727.039 308.17C725.756 312.954 711.527 326.311 707.355 330.756C706.869 330.708 706.379 330.703 705.891 330.696C705.59 334.5 706.175 338.479 706.415 342.291Q706.926 350.744 707.045 359.212L707.513 417.422C707.788 433.039 709.12 448.628 709.184 464.28C709.212 471.007 708.731 514.94 710.459 517.516C716.93 516.27 755.423 467.309 761.48 459.231C764.939 454.618 767.697 449.41 771.287 444.939C771.375 444.83 771.465 444.722 771.554 444.614C770.526 427.5 770.595 410.383 770.068 393.253C769.979 390.361 770.266 386.553 772.645 384.499C773.858 383.452 774.677 383.364 776.179 383.349C777.869 383.898 778.465 384.863 779.469 386.224C779.989 401.41 780.157 416.831 779.952 432.023C786.89 418.05 794.707 404.671 802.173 390.966C805.753 384.395 808.259 376.148 813.532 370.709C815.704 368.467 818.418 366.837 821.628 366.882C823.597 366.909 825.592 367.699 826.945 369.153C828.757 371.101 829.26 373.911 829.065 376.485C828.302 386.605 815.116 407.776 809.557 417.184C805.026 424.851 800.947 432.751 796.248 440.331C786.071 456.746 774.331 472.812 762.306 487.897C757.769 493.588 753.153 500.081 747.664 504.879C746.611 504.534 747.115 504.603 746.161 504.6C746.128 505.503 746.1 505.207 746.198 505.996C746.571 509.025 718.485 533.612 713.972 538.357C712.548 539.855 711.466 541.595 710.388 543.347C711.152 549.016 712.364 564.782 711.009 569.97C710.929 570.924 711.015 571.459 711.145 572.395C711.605 575.714 712.464 604.05 711.956 607.524L710.737 608.315C711.625 609.677 712.314 610.389 712.443 612.029L711.238 613.498C711.557 615.725 712.991 618.913 712.646 621.053C712.129 621.719 711.439 622.185 711.53 623.073C711.631 624.057 711.962 624.732 712.322 625.635C713.637 628.932 711.674 631.437 712.312 635.024C712.664 637.003 713.668 640.559 713.129 642.465C712.658 644.124 711.782 645.47 711.649 647.226L712.887 647.955C714.353 655.826 713.175 664.096 713.274 672.016C713.332 676.67 714.198 681.438 713.998 686.072C713.845 689.617 712.347 693.096 712.187 696.54C712.015 700.219 716.32 697.017 712.975 703.519C714.318 707.01 714.777 708.986 714.506 712.743C714.313 715.432 714.41 718.097 714.572 720.781C714.284 742.166 715.397 763.36 715.88 784.721L717.085 856.762L717.77 892.906C717.891 897.231 717.548 902.234 718.333 906.462C719.755 917.031 718.98 929.015 718.919 939.705C718.869 948.688 719.293 957.675 719.315 966.663C717.443 967.587 715.686 968.77 713.705 969.455C708.173 971.369 697.272 973.042 691.434 972.654C688.75 972.476 686.171 971.624 684.433 969.477C683.185 967.935 682.548 965.956 682.347 964.002C681.766 958.356 682.54 952.262 682.552 946.561C682.579 933.295 681.966 919.806 683.047 906.576C684.6 896.155 683.19 878.259 683.147 867.14C683.079 849.519 683.878 831.898 683.671 814.284C684.439 813.52 684.581 813.391 684.893 812.303C680.984 808.075 686.568 804.651 683.76 799.986C683.485 787.121 684.055 774.295 684.122 761.439C684.136 758.847 683.382 755.458 683.817 752.972C683.988 752.001 684.842 750.902 685.365 750.081C686.052 749.003 684.368 744.962 684.006 743.533C683.348 740.934 684.094 728.973 684.462 725.925C684.67 724.21 684.474 723.244 683.885 721.607C683.842 719.336 684.072 717.617 684.798 715.455C685.322 713.894 683.462 712.142 683.478 710.542C683.484 709.972 684.739 707.702 685.036 707C683.408 703.982 684.442 702.536 684.795 699.309C684.227 698.245 683.682 697.335 683.548 696.11L684.657 695.177C685.089 693.068 683.963 690.77 683.621 688.679C683.278 686.576 683.513 686.167 684.636 684.499C683.806 673.917 685.559 605.325 684.736 603.195C682.826 598.249 686.331 578.669 684.179 569.846C683.28 564.262 684.708 554.315 685.422 548.477C671.058 537.347 660.039 523.262 648.837 509.113Q624.362 478.387 603.492 445.108C596.662 434.174 590.236 422.799 584.029 411.495C582.035 407.861 579.29 403.843 577.809 400.003C577.575 399.396 577.704 398.893 577.865 398.289C577.913 398.11 577.975 397.935 578.03 397.758C577.325 397.546 576.648 397.304 575.957 397.049C574.008 393.332 564.059 376.493 563.974 373.587C563.962 373.177 564.203 372.799 564.318 372.405C561.078 369.429 557.353 362.959 556.95 358.537C556.817 357.074 557.076 355.54 558.192 354.481C559.326 353.403 561.337 352.686 562.888 353.046C563.853 353.269 564.582 353.798 565.173 354.563C569.653 360.371 572.978 368.2 576.54 374.656C586.798 393.246 596.316 412.234 607.55 430.263L607.076 431.42C611.237 436.938 615.017 442.465 618.426 448.475C618.681 441.576 615.247 414.697 619.868 410.166C620.8 409.251 621.814 408.732 623.152 408.807C632.328 409.327 627.519 456.087 629.161 463.369C629.986 467.028 660.505 506.938 665.046 512.348C671.356 519.866 678.362 526.906 684.807 534.344C684.536 529.579 684.882 524.646 684.788 519.846C684.583 509.336 683.903 498.803 685.081 488.335L683.595 487.84C682.967 485.145 684.326 467.81 684.34 463C684.407 441.176 683.631 419.272 683.555 397.423C683.542 393.659 682.44 388.638 683.409 385.092C684.617 380.673 683.307 368.65 683.21 363.216C682.867 343.84 682.594 324.483 682.735 305.106C682.78 298.954 682.138 292.734 682.595 286.602Z"/>
	<path fill="white" d="M151.417 555.578C159.695 555.229 207.91 554.469 210.963 556.011C211.694 558.747 210.664 565.849 210.618 569.116C210.538 574.697 211.563 598.137 210.468 601.306C209.39 604.424 211.031 607.092 210.937 610.235C210.829 613.851 209.757 635.207 210.808 637.193C212.244 639.906 209.261 642.517 209.928 645.476C211.634 653.045 210.515 678.972 210.326 688.501C210.247 692.503 209.689 696.968 210.46 700.903C210.887 703.084 211.067 705.168 211.219 707.381L210.629 708.908C206.081 709.762 154.977 710.383 152.494 708.931C152.115 708.709 151.96 708.455 151.69 708.123C150.95 696.45 151.609 684.393 151.597 672.673L151.748 618.861C152.014 597.799 152.433 576.621 151.417 555.578Z"/>
	<path fill="white" d="M221.652 554.94C226.497 554.693 231.18 555.178 236.004 555.297C242.58 555.458 249.203 555.168 255.793 555.252C260.015 555.306 265.201 555.981 269.279 554.903L270.267 555.436C271.806 561.049 270.021 569.119 270.039 575.047C270.085 590.546 271.156 606.137 271.102 621.629C271.096 623.574 269.86 625.513 269.993 627.378C270.118 629.129 271.33 630.529 271.307 632.41C271.262 635.943 270.075 639.506 270.031 643.009C270.013 644.462 271.028 644.411 271.376 645.476C271.854 646.935 270.519 655.095 270.438 657.337C270.394 658.581 269.934 661.793 270.557 662.746C270.654 662.894 271.4 663.414 271.423 663.504C271.426 663.517 270.975 664.676 270.948 664.745C270.88 664.915 270.495 665.897 270.378 666.083C270.119 666.496 269.957 666.591 269.617 666.862C270.065 668.335 270.551 669.749 271.135 671.174Q270.645 675.483 269.984 679.77C270.75 680.481 270.36 680.158 271.148 680.746C270.828 682.009 270.291 682.74 269.553 683.787C269.943 684.424 270.144 684.59 270.728 685.017C270.652 691.358 270.394 698.458 271.383 704.713C271.588 706.01 271.171 707.118 270.756 708.333L270.418 708.857C266.995 709.865 231.547 709.704 225.729 709.437C223.985 709.357 223.371 709.436 222.167 708.127C221.492 704.844 221.974 695.429 222.007 691.572C222.077 683.184 221.981 674.784 222.101 666.4C222.231 657.292 222.76 647.954 221.703 638.894C221.3 635.449 222.307 631.789 222.373 628.311C222.431 625.31 221.717 622.371 221.644 619.378C221.499 613.418 222.181 607.285 222.286 601.307C222.307 600.103 222.438 598.682 222.063 597.531C221.694 596.398 220.267 595.13 220.701 594.032C221.727 593.23 222.01 592.777 222.094 591.436C222.351 587.285 221.973 582.955 221.974 578.785C221.976 570.844 222.259 562.866 221.652 554.94Z"/>
</svg>
