<?xml version="1.0" encoding="utf-8" ?>
<svg xmlns="http://www.w3.org/2000/svg" xmlns:xlink="http://www.w3.org/1999/xlink" width="1024" height="1024">
	<path fill="#8B5CF6" d="M0 0L1024 0L1024 1024L0 1024L0 0Z"/>
	<path fill="#FEE3E0" d="M707.108 142.297C710.079 140.414 713.842 139.1 716.991 137.38C726.429 132.225 735.786 126.417 745.596 122.021C748.918 120.532 753.74 118.648 757.304 120.198C758.556 120.742 759.45 121.657 759.904 122.948C761.728 128.133 757.232 137.633 754.894 142.226C756.452 141.818 758.095 141.363 759.716 141.338C765.56 141.248 788.868 141.873 793.019 144.243C794.083 144.851 794.523 145.409 794.811 146.622C796.518 153.797 795.749 178.372 795.859 187.13L797.427 262.569C797.545 273.059 796.762 283.524 796.623 294C796.421 309.235 796.882 324.421 796.964 339.638C797.015 349.115 796.202 362.456 797.885 371.531C798.147 372.945 798.604 374.02 799.619 375.055L802.628 371.595C804.025 369.964 805.629 368.443 807.115 366.888C810.512 362.846 816.299 359.507 818.316 354.733C820.664 351.967 823.377 348.42 826.658 346.762C826.909 346.653 827.164 346.552 827.412 346.435C829.713 345.346 837.061 336.072 839.507 333.557C842.392 330.592 845.657 328.03 848.557 325.09C852.392 321.203 855.929 316.974 859.706 313.015C866.066 306.347 872.68 299.913 879.019 293.234C886.922 284.908 894.386 275.848 902.729 267.967C904.134 266.639 906.199 264.541 908.193 264.295C910.214 265.956 910.824 271.326 911.088 273.911C913.422 296.787 913.507 319.92 915.845 342.826C916.146 345.769 915.815 348.824 916.232 351.728C916.432 353.121 916.996 354.497 917.59 355.761C917.406 356.872 917.053 357.705 916.571 358.721C916.968 361.084 917.842 363.368 918.167 365.715C918.567 368.602 918.344 371.792 918.487 374.722C918.992 385.12 918.861 395.788 919.782 406.129C920.071 409.369 921.533 412.44 921.858 415.62C921.982 416.832 921.45 417.697 920.919 418.736C921.718 431.109 922.226 443.504 923.146 455.864C923.347 458.563 922.906 461.664 923.463 464.279C923.766 465.703 924.594 467.191 925.24 468.489L923.824 472.549C924.255 473.701 924.911 475.12 925.099 476.325C925.589 479.473 923.544 480.904 925.257 484.246C926.971 487.591 926.657 507.089 927.022 512.21C927.828 523.506 929.212 534.755 930.289 546.016C931.717 560.943 932.549 576.124 933.534 591.099C934.124 600.058 934.011 609.101 934.471 618.077C935.701 642.059 937.3 666.31 939.513 690.224C939.26 690.737 938.599 691.71 938.52 692.231C937.869 696.558 941.844 706.737 941.082 710.82C940.965 711.442 940.228 712.114 940.092 712.741C939.655 714.764 940.438 718.696 940.561 720.862C940.82 725.468 940.645 730.127 941.015 734.707C941.548 741.298 942.738 747.857 943.203 754.441C943.401 757.253 942.727 760.047 942.847 762.85C942.999 766.381 944.09 769.943 944.085 773.434C944.082 775.044 943.113 776.44 943.085 778.005C943.027 781.171 945.007 784.609 945.331 787.832C945.656 791.058 945.086 794.462 945.202 797.727C945.327 801.243 945.906 804.74 946.132 808.251C946.435 812.949 946.361 817.653 946.594 822.351C947.022 830.973 948.625 840.147 948.254 848.727C948.112 851.99 947.062 854.955 945.947 857.982C941.146 860.155 936.392 861.697 931.135 862.297C924.654 863.036 918.018 862.851 911.503 863.167L871.493 865.082L779.771 870.162C768.714 870.697 757.677 871.876 746.615 872.484C737.632 872.978 728.673 872.906 719.693 873.234C715.764 873.377 712.23 874.92 708.25 874.664C691.966 873.621 675.841 876.059 659.647 877.075C652.978 877.493 645.895 877.596 639.21 877.66C637.332 877.678 635.37 877.272 633.523 877.344C632.802 877.371 632.519 877.684 631.942 878.039C629.267 879.684 598.602 880.043 593.065 880.066C592.856 879.886 592.649 879.703 592.438 879.524C591.582 878.802 591.95 879.061 591.054 878.558C590.859 878.676 590.666 878.796 590.469 878.91C589.528 879.46 588.434 880.176 587.341 880.341C585.228 880.661 554.671 883.137 554.417 883.087C553.232 882.853 552.233 882.234 550.97 882.177C548.171 882.052 527.609 882.893 526.785 883.246C526.047 883.561 525.31 884.355 524.749 884.905Q521.987 884.013 519.253 883.035C517.799 883.628 516.372 884.224 514.799 884.395C507.078 885.233 499.415 884.947 491.72 885.373L432.882 888.461L350.439 892.537C340.555 892.981 330.682 894.011 320.781 894.092C314.523 894.143 308.29 893.917 302.185 892.451L303.432 886.359C307.224 882.944 309.489 878.543 313.067 875.099C315.605 872.656 318.427 870.504 320.895 867.988C325.22 863.577 329.131 858.872 333.582 854.547C342.426 845.953 351.624 837.657 360.244 828.845C364.1 824.903 370.266 816.354 374.442 813.623C374.2 813.401 373.345 812.697 373.058 812.599C372.389 812.373 360.288 812.98 358.15 812.913L267.004 810.009C264.624 809.916 262.322 809.214 259.96 809.098C256.73 808.938 253.376 809.427 250.13 809.476Q237.899 809.568 225.67 809.361C221.619 809.321 217.613 809.591 213.566 809.318C221.213 799.774 268.792 753.537 270.131 748.796C270.42 747.775 270.184 748.304 270.605 747.417C270.668 747.283 270.738 747.153 270.805 747.021C265.53 742.071 260.855 736.505 255.661 731.484C250.942 726.922 245.894 722.815 241.299 718.094C236.89 715.253 233.397 710.43 229.011 707.316C227.436 706.362 225.841 705.321 224.479 704.076C219.544 699.566 215.098 694.314 210.35 689.574C205.03 684.263 198.955 679.132 194.162 673.373C191.518 672.573 184.081 664.429 181.649 662.081C171.571 655.019 164.549 644.288 154.459 637.059C156.847 630.892 168.004 625.134 171.984 619.045C170.978 614.735 171.732 608.978 171.716 604.496C171.696 598.598 171.224 592.673 171.304 586.79C171.349 583.427 171.802 580.064 171.924 576.698C172.235 568.12 172.291 559.569 172.91 551.002C171.914 549.79 171.003 548.824 170.641 547.251C171.277 545.965 171.799 546.083 173.073 545.606C173.479 542.474 172.288 538.763 172.167 535.56C172.009 531.364 172.255 527.061 172.384 522.863C172.943 504.741 173.668 486.638 173.878 468.506C173.973 460.325 173.166 452.063 173.022 443.874C172.977 441.313 173.899 438.933 173.995 436.41C174.219 430.564 173.567 424.531 173.599 418.651L175.221 417.291C175.731 415.863 174.764 413.919 174.202 412.47C173.783 411.392 173.408 410.517 173.331 409.337C173.247 408.068 173.707 391.429 173.923 390.564C174.252 389.254 175.431 388.618 175.617 387.029Q174.407 386.157 173.185 385.301C173.073 382.88 175.395 381.28 175.448 378.762C175.135 378.149 174.71 377.433 174.484 376.772C174.02 375.416 174.105 375.207 174.604 373.931C175.338 373.54 175.992 373.219 176.792 372.973C177.004 372.908 177.218 372.854 177.431 372.794C176.17 372.476 175.234 372.375 174.233 371.497C175.798 367.831 174.099 364.951 174.429 361.202C175.422 360.072 176.02 361.38 177.5 361.165C178.214 358.31 175.162 354.918 173.939 352.279C174.912 347.952 176.207 342.009 175.882 337.581C175.753 335.825 174.221 334.492 174.404 332.762C174.856 328.47 177.43 325.317 175.494 320.939C175.161 320.186 174.758 319.557 174.725 318.7C174.466 312.149 176.348 305.288 176.619 298.725C176.847 293.223 175.496 287.609 175.505 282.075C175.512 277.415 176.964 273.013 177.176 268.457C177.397 263.721 175.843 258.349 176.4 253.754C176.458 253.282 177.329 252.233 177.576 251.916C177.751 251.691 177.932 251.47 178.111 251.247C177.917 249.778 177.488 249.872 176.371 248.995C176.394 247.963 176.257 248.196 176.641 247.448C177.212 246.336 177.706 245.542 177.986 244.286C177.693 243.698 177.402 243.109 177.153 242.5C176.546 241.013 176.768 226.923 177.271 225.112C177.433 224.529 178.297 223.832 178.393 223.265C178.806 220.815 178.393 212.51 178.465 209.39C178.53 206.617 177.495 197.398 178.368 195.588C180.689 190.775 177.266 184.827 180.031 180.37C180.073 180.302 180.754 179.299 180.797 179.159C181.16 177.973 179.429 177.909 178.66 176.896C179.167 169.007 178.156 160.694 180.223 153.062C181.913 146.822 189.195 143.65 195.004 142.555C200.888 141.447 207.044 142.153 212.999 142.201C221.636 142.27 230.175 142.163 238.819 142.375C243.445 142.488 247.97 141.183 252.578 141.14C261.631 141.056 270.749 142.192 279.848 142.201C302.119 142.221 324.49 142.471 346.752 142.08C354.247 141.949 361.806 140.542 369.282 140.665C374.97 140.758 398.431 143.323 401.999 141.236C402.862 140.732 403.396 140.27 404.466 140.59C405.924 141.027 407.131 141.833 408.708 142.01C412.213 142.403 416.437 141.638 420.05 141.611C436.033 141.49 452.015 140.758 468.003 140.54C478.548 140.396 488.98 141.288 499.481 141.271C502.154 141.266 504.612 140.162 507.247 140.126C511.056 140.073 514.882 140.436 518.695 140.464L548.915 140.487L631.64 140.461C655.376 140.686 683.887 138.736 707.108 142.297Z"/>
	<path fill="#16BC74" d="M826.658 346.762C826.909 346.653 827.164 346.552 827.412 346.435C829.713 345.346 837.061 336.072 839.507 333.557C842.392 330.592 845.657 328.03 848.557 325.09C852.392 321.203 855.929 316.974 859.706 313.015C866.066 306.347 872.68 299.913 879.019 293.234C886.922 284.908 894.386 275.848 902.729 267.967C904.134 266.639 906.199 264.541 908.193 264.295C910.214 265.956 910.824 271.326 911.088 273.911C913.422 296.787 913.507 319.92 915.845 342.826C916.146 345.769 915.815 348.824 916.232 351.728C916.432 353.121 916.996 354.497 917.59 355.761C917.406 356.872 917.053 357.705 916.571 358.721C916.968 361.084 917.842 363.368 918.167 365.715C918.567 368.602 918.344 371.792 918.487 374.722C918.992 385.12 918.861 395.788 919.782 406.129C920.071 409.369 921.533 412.44 921.858 415.62C921.982 416.832 921.45 417.697 920.919 418.736C921.718 431.109 922.226 443.504 923.146 455.864C923.347 458.563 922.906 461.664 923.463 464.279C923.766 465.703 924.594 467.191 925.24 468.489L923.824 472.549C924.255 473.701 924.911 475.12 925.099 476.325C925.589 479.473 923.544 480.904 925.257 484.246C926.971 487.591 926.657 507.089 927.022 512.21C927.828 523.506 929.212 534.755 930.289 546.016C931.717 560.943 932.549 576.124 933.534 591.099C934.124 600.058 934.011 609.101 934.471 618.077C935.701 642.059 937.3 666.31 939.513 690.224C939.26 690.737 938.599 691.71 938.52 692.231C937.869 696.558 941.844 706.737 941.082 710.82C940.965 711.442 940.228 712.114 940.092 712.741C939.655 714.764 940.438 718.696 940.561 720.862C940.82 725.468 940.645 730.127 941.015 734.707C941.548 741.298 942.738 747.857 943.203 754.441C943.401 757.253 942.727 760.047 942.847 762.85C942.999 766.381 944.09 769.943 944.085 773.434C944.082 775.044 943.113 776.44 943.085 778.005C943.027 781.171 945.007 784.609 945.331 787.832C945.656 791.058 945.086 794.462 945.202 797.727C945.327 801.243 945.906 804.74 946.132 808.251C946.435 812.949 946.361 817.653 946.594 822.351C947.022 830.973 948.625 840.147 948.254 848.727C948.112 851.99 947.062 854.955 945.947 857.982C941.146 860.155 936.392 861.697 931.135 862.297C924.654 863.036 918.018 862.851 911.503 863.167L871.493 865.082L779.771 870.162C768.714 870.697 757.677 871.876 746.615 872.484C737.632 872.978 728.673 872.906 719.693 873.234C715.764 873.377 712.23 874.92 708.25 874.664C691.966 873.621 675.841 876.059 659.647 877.075C652.978 877.493 645.895 877.596 639.21 877.66C637.332 877.678 635.37 877.272 633.523 877.344C632.802 877.371 632.519 877.684 631.942 878.039C629.267 879.684 598.602 880.043 593.065 880.066C592.856 879.886 592.649 879.703 592.438 879.524C591.582 878.802 591.95 879.061 591.054 878.558C590.859 878.676 590.666 878.796 590.469 878.91C589.528 879.46 588.434 880.176 587.341 880.341C585.228 880.661 554.671 883.137 554.417 883.087C553.232 882.853 552.233 882.234 550.97 882.177C548.171 882.052 527.609 882.893 526.785 883.246C526.047 883.561 525.31 884.355 524.749 884.905Q521.987 884.013 519.253 883.035C517.799 883.628 516.372 884.224 514.799 884.395C507.078 885.233 499.415 884.947 491.72 885.373L432.882 888.461L350.439 892.537C340.555 892.981 330.682 894.011 320.781 894.092C314.523 894.143 308.29 893.917 302.185 892.451L303.432 886.359C307.224 882.944 309.489 878.543 313.067 875.099C315.605 872.656 318.427 870.504 320.895 867.988C325.22 863.577 329.131 858.872 333.582 854.547C342.426 845.953 351.624 837.657 360.244 828.845C364.1 824.903 370.266 816.354 374.442 813.623C374.519 813.612 374.597 813.609 374.673 813.589C376.301 813.173 383.335 805.329 384.158 803.411C384.287 803.108 384.297 802.768 384.366 802.446L385.206 802.396C387.076 800.052 389.208 797.929 391.284 795.769C392.158 794.865 392.637 794.27 393.86 793.853C394.414 793.664 394.979 793.508 395.52 793.285C395.106 792.147 395.017 791.992 395.287 790.826C398.696 787.4 404.701 780.308 408.759 778.235C409.796 778.877 410.618 779.393 411.807 779.719L412.488 779.246C412.301 777.866 410.593 777.885 409.836 776.501C411.808 773.083 415.446 771.028 418.764 769.057C419.72 768.489 419.926 766.946 420.292 765.895C422.654 763.58 424.721 760.996 427.283 758.889C428.215 758.234 429.085 756.698 429.951 755.847C438.614 747.34 447.376 738.745 455.545 729.751C458.196 727.414 460.497 724.66 463.063 722.216C464.048 720.207 474.295 710.319 476.621 708.082C477.683 707.061 478.73 705.97 480.229 706.013L480.813 707.689L481.392 707.648L481.776 706.646L480.851 704.735C481.718 703.185 482.697 704.091 484.019 702.907L483.568 701.956C484.884 699.543 487.671 698.204 489.15 695.717C490.084 692.608 495.252 688.9 497.706 686.683C502.562 683.22 518.01 666.23 522.394 660.796C524.791 657.735 527.765 655.051 530.524 652.313C532.482 650.309 534.018 647.767 536.37 646.175C537.525 645.393 539.119 644.86 540.5 645.308C540.655 645.359 540.793 645.451 540.94 645.522L541.551 645.33L541.162 644.64C540.239 644.327 539.724 644.238 539.033 643.524C539.136 643.313 539.232 643.099 539.341 642.892C540.112 641.422 541.781 639.739 543.382 639.279C544.096 639.832 544.804 640.371 545.552 640.877L546.139 641.266L546.243 640.663C545.548 639.615 545.839 640.175 545.377 638.981C547.452 636.015 549.985 632.337 552.939 630.236L554.172 630.835L554.445 629.508L554.178 628.29C556.304 624.994 559.268 622.283 562.157 619.665C564.816 616.76 567.934 614.803 570.606 612.104C571.198 611.506 571.777 610.971 572.422 610.432C573.791 610.574 573.928 611.235 574.76 612.252L574.811 611.314C574.038 610.45 573.39 609.82 573.01 608.703C574.648 604.945 580.422 600.87 583.706 598.514L584.071 598.6C585.496 597.959 585.477 597.925 586.192 596.526C585.606 595.868 585.784 596.276 585.806 595.25C587.933 592.636 590.207 590.321 592.65 588.001C597.854 583.108 602.605 576.441 608.504 572.503C608.979 573.2 609.459 573.761 610.024 574.383L610.907 574.402L611.146 573.462C611.009 573.222 610.608 572.54 610.519 572.311C609.882 570.674 613.431 568.081 614.29 566.327C614.842 565.199 615.565 564.569 616.52 563.776C619.051 560.899 621.593 558.241 624.476 555.716C626.598 553.213 643.603 535.672 645.161 534.865C646.13 534.872 646.966 534.881 647.906 534.63C647.149 533.93 646.932 533.994 646.789 532.925L648.801 530.957C649.178 528.545 654.363 524.052 656.142 522.093C660.728 518.29 665.43 513.3 669.164 508.661C670.24 508.836 669.875 508.67 670.765 509.204C670.965 509.324 671.158 509.456 671.355 509.583C671.541 508.887 671.7 508.369 672.087 507.749C672.579 506.961 673.926 506.972 674.82 506.785L673.778 505.835C674.291 502.819 678.597 500.315 680.518 498.007C681.135 497.266 681.75 496.611 682.429 495.922C684.916 493.2 687.747 490.825 690.336 488.201C694.386 482.351 700.748 477.887 705.56 472.633C706.265 472.801 706.652 472.822 707.357 472.793L706.251 471.709C707.612 469.559 708.746 468.395 711.165 467.492C712.157 467.122 712.315 467.167 713.027 466.331L712.686 464.955L713.355 464.701C714.827 464.156 715.754 462.562 716.751 461.344C718.969 458.4 721.721 455.953 724.387 453.425C724.588 453.092 724.855 452.612 725.125 452.342C727.736 449.732 732.74 443.689 735.144 441.905C736.192 441.126 738.309 441 739.61 440.795L739.629 440.174L737.491 440.138L737.383 439.607C740.762 434.903 745.891 430.575 750.134 426.577C752.379 424.048 755.039 420.761 757.869 418.948C757.911 418.91 757.958 418.878 757.995 418.834C759.745 416.738 761.762 414.929 763.524 412.835L764.639 411.296C766.437 410.887 767.377 411.488 769.097 412.082L769.306 411.357C768.948 410.876 768.585 410.429 768.187 409.98L767.77 409.518C768.122 405.289 780.012 394.623 783.696 391.18C786.204 388.144 788.54 385.159 791.943 383.078C794.669 380.705 797.119 377.687 799.619 375.055L802.628 371.595C804.025 369.964 805.629 368.443 807.115 366.888C810.512 362.846 816.299 359.507 818.316 354.733C820.664 351.967 823.377 348.42 826.658 346.762Z"/>
	<path fill="#2B464D" d="M391.284 795.769C395.656 798.259 424.279 827.147 425.051 830.189C425.445 831.747 425.41 833.438 424.52 834.834C423.731 836.072 421.837 837.531 420.332 837.585C414.274 837.802 395.512 815.524 390.963 810.163C389.43 808.357 385.477 804.418 385.206 802.396C387.076 800.052 389.208 797.929 391.284 795.769Z"/>
	<path fill="#2B464D" d="M463.063 722.216C466.837 725.851 470.335 729.748 474.082 733.41C479.326 738.536 485.719 743.647 489.89 749.659C490.852 751.046 491.463 752.139 491.426 753.881C491.395 755.269 490.374 757.625 489.187 758.362C487.886 759.169 485.545 759.541 484.067 759.074C480.491 757.942 459.777 734.168 455.545 729.751C458.196 727.414 460.497 724.66 463.063 722.216Z"/>
	<path fill="#2B464D" d="M497.706 686.683C502.116 690.527 505.793 695.338 509.951 699.48C514.116 703.627 519.01 707.299 522.856 711.716C523.96 712.985 525.152 714.436 525.248 716.153C525.322 717.479 525.113 718.815 524.169 719.832C522.862 721.238 520.218 721.826 518.444 722.364C508.427 717.146 498.826 703.187 489.15 695.717C490.084 692.608 495.252 688.9 497.706 686.683Z"/>
	<path fill="#2B464D" d="M530.524 652.313Q538.902 661.411 547.76 670.042C550.599 672.849 554.437 675.875 556.772 679.072C557.592 680.194 558.11 681.379 558.03 682.81C557.934 684.535 556.872 686.316 555.42 687.252C553.9 688.23 552.276 688.529 550.523 688.096C547.042 687.236 526.657 664.719 522.394 660.796C524.791 657.735 527.765 655.051 530.524 652.313Z"/>
	<path fill="#2B464D" d="M562.157 619.665C565.453 621.126 587.607 644.331 588.859 647.599C589.353 648.888 589.391 650.394 588.806 651.66C588.136 653.108 586.507 654.498 584.914 654.772C582.418 655.202 579.885 653.343 578.134 651.796C574.08 648.213 558.835 629.47 554.445 629.508L554.178 628.29C556.304 624.994 559.268 622.283 562.157 619.665Z"/>
	<path fill="#2B464D" d="M656.142 522.093C661.637 526.832 683.201 545.033 683.573 551.476C683.646 552.75 683.133 553.686 682.249 554.566C680.874 555.935 678.698 556.255 676.856 555.984C671.972 555.267 654.324 535.488 648.801 530.957C649.178 528.545 654.363 524.052 656.142 522.093Z"/>
	<path fill="#2B464D" d="M724.387 453.425C729.426 457.729 745.12 472.519 748.624 477.204C749.468 478.333 750.082 479.664 750.21 481.08Q750.234 481.372 750.229 481.665Q750.223 481.957 750.187 482.248Q750.151 482.539 750.086 482.824Q750.021 483.11 749.926 483.387Q749.832 483.664 749.71 483.93Q749.587 484.196 749.438 484.448Q749.289 484.701 749.115 484.936Q748.941 485.172 748.744 485.388C747.729 486.5 746.252 487.234 744.726 487.199C740.124 487.094 721.176 465.874 716.751 461.344C718.969 458.4 721.721 455.953 724.387 453.425Z"/>
	<path fill="#2B464D" d="M616.52 563.776C619.051 560.899 621.593 558.241 624.476 555.716C629.722 560.44 649.44 576.832 649.61 583.426C649.644 584.764 649.139 585.934 648.15 586.838C646.982 587.907 645.137 588.678 643.553 588.513C637.166 587.845 622.561 568.811 616.684 563.915L616.52 563.776Z"/>
	<path fill="#2B464D" d="M690.336 488.201C694.2 492.201 698.049 496.266 702.111 500.067C706.219 503.911 711.269 507.685 714.658 512.176C715.501 513.292 716.037 514.556 716.009 515.985C715.98 517.503 715.163 518.849 713.975 519.746C712.552 520.821 710.694 521.326 708.929 520.953C704.586 520.035 685.94 500.457 682.429 495.922C684.916 493.2 687.747 490.825 690.336 488.201Z"/>
	<path fill="#2B464D" d="M427.283 758.889C432.381 762.615 436.263 768.273 440.566 772.879C443.912 776.46 447.856 779.767 450.781 783.699C451.67 784.894 452.734 786.485 452.945 787.999C453.174 789.646 453.057 791.232 451.934 792.554C451.026 793.624 450.077 794.04 448.68 794.043C443.33 794.055 425.812 773.296 421.964 768.232Q421.099 767.084 420.292 765.895C422.654 763.58 424.721 760.996 427.283 758.889Z"/>
	<path fill="#2B464D" d="M586.192 596.526C585.606 595.868 585.784 596.276 585.806 595.25C587.933 592.636 590.207 590.321 592.65 588.001L609.594 604.656C611.858 606.887 614.798 609.132 616.629 611.698C617.559 613.001 618.276 614.661 618.339 616.277C618.391 617.618 617.965 619.042 617.069 620.057C616.08 621.176 614.646 621.687 613.172 621.603C605.734 621.179 593.401 600.626 586.192 596.526Z"/>
	<path fill="#2B464D" d="M818.316 354.733C820.664 351.967 823.377 348.42 826.658 346.762C830.611 350.963 850.494 367.988 850.374 372.276C850.326 374 848.922 375.781 847.596 376.798C846.473 377.658 845.132 378.088 843.717 377.91C841.982 377.693 840.365 376.68 839.037 375.595C835.73 372.892 833.034 369.261 830.142 366.125C826.464 362.137 822.367 358.341 818.316 354.733Z"/>
	<path fill="#2B464D" d="M750.134 426.577C752.379 424.048 755.039 420.761 757.869 418.948C758.061 419.214 758.249 419.482 758.445 419.745C762.676 425.408 782.635 438.974 781.593 445.303C781.365 446.684 780.962 447.377 779.839 448.213C778.329 449.337 775.628 449.22 773.92 448.761C772.156 448.288 770.478 447.312 769.131 446.083C766.566 443.744 764.557 440.629 762.138 438.097C758.298 434.078 754.08 430.484 750.134 426.577Z"/>
	<path fill="#2B464D" d="M783.696 391.18C786.204 388.144 788.54 385.159 791.943 383.078C795.176 387.235 798.696 390.975 802.468 394.637C805.483 397.564 809.243 400.57 811.591 404.057C812.451 405.334 813.172 407.004 813.046 408.584C812.923 410.114 812.461 410.792 811.436 411.879C809.576 412.645 808.263 412.439 806.473 411.666C802.03 409.744 786.252 395.569 783.696 391.18Z"/>
	<path fill="#FEE3E0" d="M829.575 518.572C827.297 526.283 829.393 534.063 829.818 541.825C830.11 547.16 829.814 552.315 830.63 557.647C830.899 559.408 830.321 560.495 829.542 562.055C829.777 562.896 829.96 563.099 830.425 563.801C833.008 567.7 831.482 581.087 831.738 586.251C831.858 588.677 832.912 591.062 832.883 593.451C832.851 596.082 832.213 598.728 832.288 601.363C832.428 606.261 834.686 612.92 833.373 617.657C833.261 618.062 832.947 618.59 832.791 618.929C832.637 619.267 832.524 619.622 832.392 619.969L832.081 620.77C832.366 621.626 832.698 622.203 833.18 622.946C834.753 625.366 834.725 641.93 834.589 645.683C834.499 648.17 833.92 650.595 833.678 653.069C833.665 653.207 833.554 653.373 833.639 653.482C834.23 654.243 835.037 653.873 835.292 655.029C836.432 660.2 834.716 667.389 834.739 672.738C834.759 677.112 836.193 681.282 836.12 685.753C835.979 694.464 838.309 760.457 836.66 763.413C835.704 763.65 835.426 763.585 834.453 763.34C830.9 762.443 825.593 763.895 821.951 764.256C816.695 764.776 797.516 766.39 793.566 765.578C790.82 765.441 785.25 767.157 783.644 766.373C781.992 765.565 773.064 767.345 770.585 767.542C760.759 768.322 750.905 768.751 741.093 769.531C731.579 770.288 722.211 771.351 712.663 771.805C701.768 772.323 690.889 772.657 679.999 773.356C670.338 773.976 660.672 774.935 650.992 775.193C636.794 775.57 622.498 775.277 608.27 775.588C604.055 775.68 598.415 775.159 594.44 776.179C593.493 776.422 593.718 776.417 592.962 776.497C591.807 776.619 591.932 776.759 590.977 775.966L591.12 775.091C593.82 771.79 596.212 768.273 599.029 765.063C607.645 755.245 617.25 746.383 625.896 736.653C628.378 733.861 635.904 723.512 638.271 722.409C639.259 721.948 639.793 721.574 640.612 720.84L640.641 718.926C647.112 714.006 650.677 708.986 655.967 702.968C658.565 700.013 661.52 697.376 664.175 694.472C666.458 691.976 668.506 689.271 670.771 686.76C674.562 682.556 678.886 678.849 682.678 674.641C698.038 657.597 713.134 639.783 729.826 624.033C729.2 623.776 729.472 623.966 729.011 623.461C734.382 618.775 738.532 613.512 743.201 608.202C747.164 603.697 751.401 599.371 755.458 594.942C758.709 591.394 762.339 588.265 765.622 584.77C774.446 575.376 783.15 565.98 792.215 556.809C798.832 547.828 812.428 534.363 820.681 526.595C823.596 523.851 826.772 521.443 829.575 518.572Z"/>
	<path fill="#8B5CF6" d="M829.575 518.572C827.297 526.283 829.393 534.063 829.818 541.825C830.11 547.16 829.814 552.315 830.63 557.647C830.899 559.408 830.321 560.495 829.542 562.055C829.777 562.896 829.96 563.099 830.425 563.801C833.008 567.7 831.482 581.087 831.738 586.251C831.858 588.677 832.912 591.062 832.883 593.451C832.851 596.082 832.213 598.728 832.288 601.363C832.428 606.261 834.686 612.92 833.373 617.657C833.261 618.062 832.947 618.59 832.791 618.929C832.637 619.267 832.524 619.622 832.392 619.969L832.081 620.77C832.366 621.626 832.698 622.203 833.18 622.946C834.753 625.366 834.725 641.93 834.589 645.683C834.499 648.17 833.92 650.595 833.678 653.069C833.665 653.207 833.554 653.373 833.639 653.482C834.23 654.243 835.037 653.873 835.292 655.029C836.432 660.2 834.716 667.389 834.739 672.738C834.759 677.112 836.193 681.282 836.12 685.753C835.979 694.464 838.309 760.457 836.66 763.413C835.704 763.65 835.426 763.585 834.453 763.34C830.9 762.443 825.593 763.895 821.951 764.256C816.695 764.776 797.516 766.39 793.566 765.578C794.198 763.915 795.056 762.527 795.351 760.738C794.385 759.195 794.181 758.332 794.147 756.52C794.317 756.241 794.505 755.972 794.655 755.682C795.48 754.093 793.915 754.491 793.353 753.021C794.439 751.803 795.2 750.757 795.103 749.046C795.026 747.677 794.751 747.124 793.777 746.204C794.58 744.936 795.636 743.776 795.429 742.26C794.673 741.63 794.402 741.42 793.975 740.504C794.559 739.782 795.119 739.075 795.633 738.3C796.19 737.459 796.052 737.912 795.823 736.765L794.172 736.383C792.98 734.894 794.53 721.294 794.706 718.494L793.467 717.461L793.473 716.561L794.78 715.693L794.866 714.824C793.932 714.344 793.4 714.129 792.728 713.299C793.935 712.547 794.511 712.51 795.06 711.174C794.532 710.479 794.312 710.117 794.007 709.27L795.822 706.853L795.543 706.089L793.618 705.795C793.007 704.911 793.255 705.044 793.597 704.068C796.492 695.815 793.955 700.408 793.52 696.633L795.91 695.218L795.894 694.507C794.918 694.063 794.312 693.811 793.53 693.055C794.459 692.415 795.191 691.862 795.917 690.995C794.956 690.079 793.981 690.143 792.704 689.908L792.668 689.401L794.787 687.458C794.713 687.169 794.643 686.878 794.565 686.589C793.562 682.857 795.492 676.488 794.4 674.093C793.504 673.922 793.008 673.804 792.188 673.365C792.67 672.236 793.857 672.649 794.854 671.711C793.525 668.1 795.929 667.246 795.094 665.931C794.507 665.006 793.662 665.538 793.272 664.157L794.722 663.42C795.215 660.635 794.436 657.829 794.333 655.011C794.709 654.573 795.267 654.005 795.541 653.478C797.178 650.328 794.844 650.965 793.963 648.713C794.254 647.149 794.73 646.776 795.74 645.585C795.829 643.694 794.262 641.931 793.411 640.297L794.653 639.94C794.605 638.035 794.522 636.117 794.684 634.216C794.839 632.412 793.563 632.528 793.558 630.75C794.404 629.429 795.294 628.308 795.381 626.688C794.622 626.037 793.893 625.382 793.187 624.673C794.121 623.941 793.753 624.15 794.733 623.663C794.948 623.556 795.167 623.457 795.385 623.354C795.456 621.902 794.049 621.704 793.567 620.269C796.562 616.566 793.26 617.453 793.64 614.309L795.068 613.421C795.972 610.771 794.356 606.505 793.624 603.836L793.767 604.045L793.827 602.633C794.514 602.197 795.097 601.864 795.601 601.207C796.229 600.388 794.239 597.898 794.02 596.854C793.652 595.099 795.53 592.09 795.232 589.897L794.096 589.473C792.75 587.681 795.693 581.885 794.923 579.233C794.719 578.529 793.899 578.437 793.281 578.164L793.3 577.198C793.804 576.721 794.765 576.013 795.084 575.424C795.629 574.418 795.233 574.539 794.533 574.001C792.283 572.268 795.15 566.077 794.54 563.149C794.277 561.89 793.149 561.636 792.092 560.982L792.26 560.208C793.492 559.935 794.499 559.711 795.629 559.124L795.776 558.069C794.781 557.03 793.596 557.087 792.215 556.809C798.832 547.828 812.428 534.363 820.681 526.595C823.596 523.851 826.772 521.443 829.575 518.572Z"/>
	<path fill="white" d="M641.838 216.688C650.845 221.133 656.366 229.618 664.128 235.696C667.119 238.038 670.94 238.066 673.677 240.661C676.853 241.955 679.917 243.474 681.326 246.778C682.314 249.095 681.648 251.162 680.729 253.396L680.347 253.829C677.852 256.689 675.823 259.877 673.336 262.76C667.262 269.801 660.545 276.617 654.046 283.29C653.37 283.984 651.527 286.14 650.654 286.481C649.357 286.986 649.166 286.165 648.101 287.429L648.368 288.609Q632.503 305.926 616.435 323.055C611.515 328.367 606.837 333.925 601.903 339.212C599.267 342.036 596.28 344.51 593.691 347.394C586.348 355.572 579.305 364.091 572.059 372.368L518.329 433.524C509.775 443.245 500.922 452.873 492.176 462.429C484.716 470.581 477.074 478.527 470.608 487.514L469.976 486.846L469.461 486.895L469.086 487.505C463.067 497.103 450.36 508.15 442.232 516.523C437.264 521.64 432.733 527.784 426.954 531.969C425.755 532.838 423.743 533.953 423.393 535.367C423.338 535.593 423.298 536.301 423.28 536.562C410.238 551.156 396.146 564.661 382.379 578.554C377.849 583.125 373.758 588.087 369.157 592.609C363.658 598.012 357.816 603.092 352.388 608.562C344.904 616.104 319.24 645.063 311.993 648.006L311.697 648.998L311.566 648.624C311.444 648.827 311.325 649.031 311.201 649.232C307.615 655.022 290.36 670.422 284.561 675.946C276.142 683.968 268.398 692.69 260.126 700.849C256.668 704.259 253.211 707.703 249.637 710.991C247.584 712.879 245.191 714.587 243.305 716.621C242.694 717.28 242.065 717.643 241.299 718.094C236.89 715.253 233.397 710.43 229.011 707.316C227.436 706.362 225.841 705.321 224.479 704.076C219.544 699.566 215.098 694.314 210.35 689.574C205.03 684.263 198.955 679.132 194.162 673.373C196.74 669.101 204.553 663.021 208.344 659.078C230.918 635.599 254.151 612.765 276.999 589.565C283.452 583.011 290.114 576.682 296.536 570.107C301.619 564.903 306.601 558.989 312.233 554.403C314.138 552.764 315.701 550.907 317.332 549.005C333.827 531.561 350.943 514.856 367.88 497.864C373.796 491.929 379.196 485.471 385.118 479.53L404.236 460.453C411.505 453.329 418.679 446.935 424.611 438.547C425.4 439.218 424.969 439.047 425.854 439.17C429.162 435.367 432.886 432.006 436.385 428.388C441.417 423.187 446.209 417.794 451.328 412.661C455.699 408.276 460.75 403.884 464.451 398.932L464.117 397.728C465.062 397.558 464.724 397.596 465.601 397.518L466.176 397.472C469.733 394.489 472.358 391.37 474.96 387.532L476.308 387.29L475.577 387.193C478.75 385.793 481.031 383.521 482.761 380.559C485.416 376.017 490.546 372.985 494.191 369.176C512.637 349.901 530.884 330.31 549.967 311.657C550.272 310.513 550.462 309.662 551.179 308.696Q552.43 308.637 553.678 308.531C554.37 308.051 554.8 307.701 555.133 306.905C555.475 306.086 555.697 305.186 556.296 304.507C561.938 298.108 568.715 292.255 574.713 286.118L617.38 242.324C624.494 235.074 634.121 222.122 641.838 216.688Z"/>
	<path fill="#2B464D" d="M673.677 240.661C676.853 241.955 679.917 243.474 681.326 246.778C682.314 249.095 681.648 251.162 680.729 253.396L680.347 253.829C677.852 256.689 675.823 259.877 673.336 262.76C667.262 269.801 660.545 276.617 654.046 283.29C653.37 283.984 651.527 286.14 650.654 286.481C649.357 286.986 649.166 286.165 648.101 287.429L648.368 288.609Q632.503 305.926 616.435 323.055C611.515 328.367 606.837 333.925 601.903 339.212C599.267 342.036 596.28 344.51 593.691 347.394C586.348 355.572 579.305 364.091 572.059 372.368L518.329 433.524C509.775 443.245 500.922 452.873 492.176 462.429C484.716 470.581 477.074 478.527 470.608 487.514L469.976 486.846L469.461 486.895L469.086 487.505C463.067 497.103 450.36 508.15 442.232 516.523C437.264 521.64 432.733 527.784 426.954 531.969C425.755 532.838 423.743 533.953 423.393 535.367C423.338 535.593 423.298 536.301 423.28 536.562C410.238 551.156 396.146 564.661 382.379 578.554C377.849 583.125 373.758 588.087 369.157 592.609C363.658 598.012 357.816 603.092 352.388 608.562C344.904 616.104 319.24 645.063 311.993 648.006L311.697 648.998L311.566 648.624C311.444 648.827 311.325 649.031 311.201 649.232C307.615 655.022 290.36 670.422 284.561 675.946C276.142 683.968 268.398 692.69 260.126 700.849C256.668 704.259 253.211 707.703 249.637 710.991C247.584 712.879 245.191 714.587 243.305 716.621C242.694 717.28 242.065 717.643 241.299 718.094C236.89 715.253 233.397 710.43 229.011 707.316C234.152 699.12 242.864 692.201 249.816 685.474C258.018 677.537 265.776 669.488 274.673 662.297C274.481 661.529 274.543 661.986 274.62 660.912C285.007 651.913 294.398 641.659 304.116 631.945C309.738 626.325 315.895 621.13 321.355 615.38C324.609 611.952 327.546 608.222 330.847 604.843C335.817 599.758 341.136 595.016 346.118 589.942C350.298 585.685 354.626 580.225 359.531 576.85C361.284 575.645 362.013 576.918 363.505 576.096C362.666 575.215 362.584 575.204 362.461 574.007C363.476 572.096 397.288 536.619 398.682 535.733C399.689 536.248 399.17 536.146 400.229 536.092L400.569 535.377L399.469 534.872C401.541 531.56 405.418 528.523 408.175 525.719Q413.227 520.507 417.998 515.036C418.754 514.831 419.467 514.596 420.196 514.31C426.203 506.425 433.065 499.644 439.836 492.442C445.383 486.54 450.72 480.453 456.246 474.537C458.843 471.756 464.188 467.967 465.592 464.616C467.284 460.578 477.371 450.486 480.845 447.167L482.01 447.51C483.39 446.851 481.877 446.092 482.716 444.716C484.694 441.471 490.681 436.277 493.469 433.109C506.747 418.023 520.506 403.22 533.567 387.959C535.266 385.973 538.448 380.66 540.491 379.883L541.793 380.589C542.211 380.085 542.062 380.362 542.258 379.622C542.607 378.303 542.893 376.862 543.686 375.721C547.187 370.684 552.801 366.482 556.818 361.717Q591.713 320.887 629.157 282.382C630.144 282.658 629.65 282.558 630.638 282.686Q631.704 280.606 633.118 278.744Q634.532 276.882 636.25 275.297C641.39 270.535 646.406 265.308 651.325 260.302C652.867 258.733 654.27 256.854 655.931 255.426C657.193 254.341 658.625 253.662 659.874 252.52C660.9 247.363 666.034 244.845 669.568 241.208C670.969 241.429 672.318 240.978 673.677 240.661Z"/>
	<path fill="white" d="M171.984 619.045C173.11 618.571 173.987 618.224 174.769 617.239C181.115 609.24 188.469 602.856 195.627 595.642L236.838 554.562C248.872 542.739 260.316 530.2 272.131 518.143L321.226 468.885L506.009 281.772C510.477 277.285 514.656 272.545 519.083 268.03C534.762 252.04 550.648 236.291 566.592 220.563C571.529 215.693 575.954 210.096 581.047 205.475C587.473 199.645 596.277 194.08 604.569 191.447C607.137 190.632 608.326 190.032 610.794 191.304L611.429 191.605C620.866 195.979 618.817 193.682 625.919 201.849C627.95 202.23 630.37 202.431 632.202 203.395C633.288 201.652 632.032 200.856 634.571 200.221Q635.146 200.079 635.732 199.997Q636.318 199.915 636.91 199.894Q637.501 199.874 638.092 199.915Q638.682 199.955 639.266 200.057Q639.849 200.159 640.418 200.321Q640.988 200.482 641.537 200.702Q642.087 200.922 642.611 201.198Q643.135 201.474 643.627 201.802C645.312 202.912 646.74 204.508 647.182 206.524C647.493 207.941 647.373 209.051 646.762 210.369C645.891 211.175 645.422 211.564 644.252 211.816C644.06 213.816 644.241 214.738 642.592 216.117C642.35 216.319 642.089 216.497 641.838 216.688C634.121 222.122 624.494 235.074 617.38 242.324L574.713 286.118C568.715 292.255 561.938 298.108 556.296 304.507C555.697 305.186 555.475 306.086 555.133 306.905C554.8 307.701 554.37 308.051 553.678 308.531Q552.43 308.637 551.179 308.696C550.462 309.662 550.272 310.513 549.967 311.657C530.884 330.31 512.637 349.901 494.191 369.176C490.546 372.985 485.416 376.017 482.761 380.559C481.031 383.521 478.75 385.793 475.577 387.193L476.308 387.29L474.96 387.532C472.358 391.37 469.733 394.489 466.176 397.472L465.601 397.518C464.724 397.596 465.062 397.558 464.117 397.728L464.451 398.932C460.75 403.884 455.699 408.276 451.328 412.661C446.209 417.794 441.417 423.187 436.385 428.388C432.886 432.006 429.162 435.367 425.854 439.17C424.969 439.047 425.4 439.218 424.611 438.547C418.679 446.935 411.505 453.329 404.236 460.453L385.118 479.53C379.196 485.471 373.796 491.929 367.88 497.864C350.943 514.856 333.827 531.561 317.332 549.005C315.701 550.907 314.138 552.764 312.233 554.403C306.601 558.989 301.619 564.903 296.536 570.107C290.114 576.682 283.452 583.011 276.999 589.565C254.151 612.765 230.918 635.599 208.344 659.078C204.553 663.021 196.74 669.101 194.162 673.373C191.518 672.573 184.081 664.429 181.649 662.081C171.571 655.019 164.549 644.288 154.459 637.059C156.847 630.892 168.004 625.134 171.984 619.045Z"/>
	<path fill="#2B464D" d="M632.202 203.395C633.288 201.652 632.032 200.856 634.571 200.221Q635.146 200.079 635.732 199.997Q636.318 199.915 636.91 199.894Q637.501 199.874 638.092 199.915Q638.682 199.955 639.266 200.057Q639.849 200.159 640.418 200.321Q640.988 200.482 641.537 200.702Q642.087 200.922 642.611 201.198Q643.135 201.474 643.627 201.802C645.312 202.912 646.74 204.508 647.182 206.524C647.493 207.941 647.373 209.051 646.762 210.369C645.891 211.175 645.422 211.564 644.252 211.816C644.06 213.816 644.241 214.738 642.592 216.117C642.35 216.319 642.089 216.497 641.838 216.688C634.121 222.122 624.494 235.074 617.38 242.324L574.713 286.118C568.715 292.255 561.938 298.108 556.296 304.507C555.697 305.186 555.475 306.086 555.133 306.905C554.8 307.701 554.37 308.051 553.678 308.531Q552.43 308.637 551.179 308.696C550.462 309.662 550.272 310.513 549.967 311.657C530.884 330.31 512.637 349.901 494.191 369.176C490.546 372.985 485.416 376.017 482.761 380.559C481.031 383.521 478.75 385.793 475.577 387.193L476.308 387.29L474.96 387.532C472.358 391.37 469.733 394.489 466.176 397.472L465.601 397.518C464.724 397.596 465.062 397.558 464.117 397.728L464.451 398.932C460.75 403.884 455.699 408.276 451.328 412.661C446.209 417.794 441.417 423.187 436.385 428.388C432.886 432.006 429.162 435.367 425.854 439.17C424.969 439.047 425.4 439.218 424.611 438.547C418.679 446.935 411.505 453.329 404.236 460.453L385.118 479.53C379.196 485.471 373.796 491.929 367.88 497.864C350.943 514.856 333.827 531.561 317.332 549.005C315.701 550.907 314.138 552.764 312.233 554.403C306.601 558.989 301.619 564.903 296.536 570.107C290.114 576.682 283.452 583.011 276.999 589.565C254.151 612.765 230.918 635.599 208.344 659.078C204.553 663.021 196.74 669.101 194.162 673.373C191.518 672.573 184.081 664.429 181.649 662.081C183.803 658.053 200.854 641.964 205.11 637.599C209.807 632.781 214.164 627.654 219.055 623.023C221.403 620.799 225.386 618.334 227.319 616.098C227.557 615.823 227.796 614.394 227.916 613.967C231.58 610.334 241.106 598.558 245.48 597.488C246.615 597.211 247.312 597.01 248.272 596.287C248.414 595.597 248.514 594.937 248.59 594.234C248.706 593.165 249.153 592.636 249.866 591.859C252.345 589.155 255.303 586.731 257.945 584.171L276.208 566.326C277.93 564.631 278.979 562.414 280.677 560.73L313.358 527.797C317.04 524.06 321.816 520.901 324.831 516.655C325.797 515.293 327.089 513.187 328.57 512.345C329.913 511.582 331.166 511.227 332.68 511.649C332.98 511.733 333.276 511.832 333.574 511.923L334.045 511.498C333.285 510.68 333.585 510.961 332.799 510.266L332.271 509.807C333.136 506.467 360.942 479.628 365.836 474.788C367.299 473.343 369.009 472.409 370.307 470.832C371.265 468.369 375.613 464.977 377.515 462.819C380.949 458.638 385.622 455.975 389.217 452.1C391.601 449.531 393.443 445.472 396.112 443.325C397.701 442.047 399.884 441.123 401.706 440.201C401.627 439.561 401.58 438.963 401.556 438.322C405.118 434.813 408.578 431.074 412.305 427.747C413.806 426.407 413.714 426.215 415.743 426.313C416.124 425.133 416.432 423.846 417.179 422.84C417.647 422.208 418.505 422.187 419.239 422.062C419.414 422.032 419.589 422.006 419.764 421.978L419.814 420.374C423.423 416.542 447.373 390.358 450.571 389.299C453.089 384.812 457.427 382.986 460.504 379.102C462.473 376.428 483.638 354.104 486.047 352.833C487.083 352.286 488.073 351.657 489.079 351.056C489.565 350.111 489.485 350.495 489.575 349.486C489.595 349.258 489.602 349.029 489.615 348.801C493.671 343.894 498.389 339.552 502.809 334.979C505.738 331.948 508.476 328.604 511.694 325.882C512.634 325.914 513.067 326.018 513.916 325.566C515.095 322.725 516.916 320.348 518.904 318.03C520.559 316.099 547.588 288.673 547.99 288.464C551.201 286.798 553.232 283.372 555.695 280.681C560.564 275.36 575.805 257.787 581.824 255.578L583.298 256.322L583.605 255.981C583.07 255.054 582.776 254.426 582.637 253.361C586.213 248.77 589.842 242.589 595.697 241.133L596.469 240.945C597.252 239.907 597.266 238.92 597.473 237.665C602.485 231.793 608.018 226.339 613.299 220.706C618.207 215.472 623.257 209.234 628.95 204.831C629.886 204.107 631.085 203.743 632.202 203.395Z"/>
	<path fill="white" d="M241.299 718.094C242.065 717.643 242.694 717.28 243.305 716.621C245.191 714.587 247.584 712.879 249.637 710.991C253.211 707.703 256.668 704.259 260.126 700.849C268.398 692.69 276.142 683.968 284.561 675.946C290.36 670.422 307.615 655.022 311.201 649.232C311.325 649.031 311.444 648.827 311.566 648.624L311.697 648.998L311.993 648.006C319.24 645.063 344.904 616.104 352.388 608.562C357.816 603.092 363.658 598.012 369.157 592.609C373.758 588.087 377.849 583.125 382.379 578.554C396.146 564.661 410.238 551.156 423.28 536.562C423.298 536.301 423.338 535.593 423.393 535.367C423.743 533.953 425.755 532.838 426.954 531.969C432.733 527.784 437.264 521.64 442.232 516.523C450.36 508.15 463.067 497.103 469.086 487.505L469.461 486.895L469.976 486.846L470.608 487.514C477.074 478.527 484.716 470.581 492.176 462.429C500.922 452.873 509.775 443.245 518.329 433.524L572.059 372.368C579.305 364.091 586.348 355.572 593.691 347.394C596.28 344.51 599.267 342.036 601.903 339.212C606.837 333.925 611.515 328.367 616.435 323.055Q632.503 305.926 648.368 288.609L648.101 287.429C649.166 286.165 649.357 286.986 650.654 286.481C651.527 286.14 653.37 283.984 654.046 283.29C660.545 276.617 667.262 269.801 673.336 262.76C675.823 259.877 677.852 256.689 680.347 253.829L680.729 253.396C683.039 258.539 687.785 262.214 690.858 266.891C693.897 271.518 695.277 277.153 698.47 281.624C692.762 289.543 685.577 296.337 678.937 303.477L648.698 336.388L545.528 448.398Q443.697 561.391 339.439 672.148L296.644 718.368C287.978 727.897 280.034 737.975 270.805 747.021C265.53 742.071 260.855 736.505 255.661 731.484C250.942 726.922 245.894 722.815 241.299 718.094Z"/>
	<path fill="#2B464D" d="M707.108 142.297C710.079 140.414 713.842 139.1 716.991 137.38C726.429 132.225 735.786 126.417 745.596 122.021C748.918 120.532 753.74 118.648 757.304 120.198C758.556 120.742 759.45 121.657 759.904 122.948C761.728 128.133 757.232 137.633 754.894 142.226C749.97 154.382 745.48 166.649 740.417 178.762C738.888 182.421 737.686 186.68 735.756 190.107C735.013 191.427 733.791 192.193 732.53 192.959C731.715 192.619 732.097 192.834 731.229 192.151C730.999 191.97 730.773 191.784 730.544 191.6C725.867 191.808 718.108 192.381 713.681 191.212C711.041 190.516 708.676 189.173 705.979 188.59C705.614 188.793 704.807 189.263 704.425 189.375C701.822 190.135 702.352 185.772 700.018 184.527C699.061 185.162 699.024 185.218 697.886 185.154C696.083 183.499 693.435 180.713 692.401 178.586C690.171 174.12 687.171 171.474 683.516 168.193L683.915 167.025C683.469 164.999 681.33 163.42 680.261 161.595C679.632 160.519 678.896 159.566 678.13 158.584C682.958 156.228 687.454 153.349 692.16 150.777C697.149 148.05 702.626 145.825 707.108 142.297Z"/>
	<path fill="#F83123" d="M154.459 637.059C164.549 644.288 171.571 655.019 181.649 662.081C184.081 664.429 191.518 672.573 194.162 673.373C198.955 679.132 205.03 684.263 210.35 689.574C215.098 694.314 219.544 699.566 224.479 704.076C225.841 705.321 227.436 706.362 229.011 707.316C233.397 710.43 236.89 715.253 241.299 718.094C245.894 722.815 250.942 726.922 255.661 731.484C260.855 736.505 265.53 742.071 270.805 747.021C270.738 747.153 270.668 747.283 270.605 747.417C270.184 748.304 270.42 747.775 270.131 748.796C268.792 753.537 221.213 799.774 213.566 809.318C206.198 814.801 193.36 832.386 185.476 834.557C183.052 835.225 180.385 833.889 178.336 832.65C173.019 829.435 168.379 823.037 164.098 818.522Q154.699 808.59 145.101 798.85C136.905 790.609 128.164 783.07 119.761 775.069C113.847 769.438 108.43 763.321 102.62 757.593C94.0156 749.11 85.1242 740.451 77.8742 730.729C75.7709 727.909 75.3304 724.359 74.5826 720.988C76.5835 718.196 78.2715 715.23 80.4507 712.552C85.3306 706.556 90.8982 701.275 96.3069 695.784L116.174 675.67C124.226 667.658 131.935 659.396 139.783 651.192C144.437 646.328 150.446 642.432 154.459 637.059Z"/>
</svg>
