<?xml version="1.0" encoding="utf-8" ?>
<svg xmlns="http://www.w3.org/2000/svg" xmlns:xlink="http://www.w3.org/1999/xlink" width="1024" height="1024">
	<path fill="#45B0CA" d="M0 0L1024 0L1024 1024L0 1024L0 0Z"/>
	<path fill="white" d="M259.347 213.142C265.464 205.031 270.692 196.232 276.87 188.121C292.814 167.185 312.162 149.254 332.853 133.129Q335.733 130.918 338.667 128.779Q341.6 126.639 344.585 124.572Q347.57 122.505 350.604 120.512Q353.639 118.518 356.722 116.6Q359.804 114.681 362.933 112.839Q366.061 110.996 369.234 109.231Q372.406 107.466 375.621 105.778Q378.836 104.091 382.092 102.483Q385.347 100.875 388.641 99.3475Q391.934 97.8197 395.264 96.373Q398.594 94.9262 401.959 93.5614Q405.323 92.1967 408.72 90.9146Q412.117 89.6326 415.544 88.4341Q418.972 87.2356 422.427 86.1214Q425.883 85.0071 429.365 83.9778Q432.846 82.9485 436.352 82.0047Q439.858 81.0609 443.386 80.2032Q446.914 79.3456 450.462 78.5745Q454.01 77.8034 457.576 77.1194Q461.142 76.4354 464.723 75.8389Q468.305 75.2424 471.9 74.7337Q475.495 74.225 479.101 73.8045Q482.707 73.384 486.323 73.0519Q489.938 72.7198 493.561 72.4762Q497.184 72.2327 500.811 72.0779Q504.438 71.9232 508.069 71.8572Q511.699 71.7913 515.33 71.8142Q518.96 71.8372 522.589 71.949Q526.218 72.0607 529.844 72.2613Q533.469 72.4619 537.088 72.7512Q540.707 73.0405 544.318 73.4183Q547.929 73.7961 551.53 74.2621Q554.66 74.6656 557.781 75.1368Q560.901 75.608 564.011 76.1467Q567.121 76.6854 570.218 77.2913Q573.316 77.8973 576.399 78.5702Q579.483 79.2431 582.551 79.9826Q585.619 80.7221 588.67 81.5279Q591.722 82.3338 594.755 83.2055Q597.788 84.0772 600.802 85.0145Q603.816 85.9517 606.808 86.954Q609.801 87.9563 612.771 89.0232Q615.742 90.0901 618.688 91.2211Q621.635 92.3521 624.556 93.5466Q627.477 94.7412 630.372 95.9987Q633.266 97.2563 636.133 98.5762Q639 99.8962 641.837 101.278Q644.675 102.66 647.482 104.103Q650.289 105.546 653.064 107.049Q655.839 108.552 658.581 110.115Q661.322 111.679 664.03 113.301Q666.737 114.923 669.408 116.603Q672.08 118.284 674.714 120.022Q677.349 121.759 679.945 123.554Q682.541 125.349 685.098 127.199Q687.654 129.049 690.17 130.955Q692.686 132.86 695.161 134.819Q697.635 136.779 700.066 138.791Q702.497 140.804 704.884 142.869Q707.271 144.933 709.613 147.049Q711.954 149.165 714.25 151.331Q716.545 153.497 718.793 155.713Q721.041 157.928 723.24 160.192Q725.439 162.455 727.589 164.766C740.982 179.009 752.124 194.512 764.047 209.916C769.02 207.028 774.674 203.428 779.941 201.24C781.999 200.385 784.32 200.173 786.344 199.222C789.598 197.693 792.108 195.017 795.603 193.648C796.887 193.145 797.318 193.118 798.588 193.635C805.763 188.255 819.431 181.018 827.971 178.834C831.748 182.347 828.116 193.978 830.485 199.204C830.576 199.404 830.674 199.6 830.768 199.798L830.98 201.048C831.951 201.03 831.513 201.193 832.138 200.715C837.978 196.242 847.131 193.343 854.132 190.979C855.549 192.226 855.562 194.443 855.676 196.256C856.157 203.886 855.482 211.638 855.664 219.294L856.203 223.055C861.403 223.205 893.073 209.542 899.848 206.181C900.389 213.4 899.483 238.788 901.127 242.529L901.374 243.103C901.687 243.815 901.926 244.371 902.484 244.928C912.929 241.165 923.486 237.458 933.75 233.227C939.039 231.046 946.57 226.659 951.81 225.552C952.753 226.158 952.679 226.517 952.912 227.567C953.566 230.515 952.936 234.035 952.855 237.048C952.697 242.903 952.118 260.831 953.771 265.469C954.232 266.761 954.474 267.701 953.85 268.998C953.739 269.23 953.541 269.412 953.42 269.639C951.884 272.521 953.402 281.54 953.834 284.95C953.298 286.036 952.163 287.912 952.19 289.136C952.264 292.485 954.913 294.495 950.861 296.761L950.89 297.49L952.876 297.699C953.511 298.685 953.53 298.956 953.176 300.13C952.915 300.994 952.269 301.939 951.821 302.73C952.317 303.635 952.9 304.405 953.532 305.218C953.782 306.542 953.513 307.193 953.095 308.422C951.433 313.317 953.628 317.619 953.764 322.495C953.838 325.153 952.962 327.868 952.917 330.543C952.807 337.228 953.907 358.583 952.651 363.269C952.47 363.944 951.813 364.51 951.356 365.008L951.621 365.347C952.057 365.913 952.821 366.727 953.093 367.359C954.339 370.247 952.905 396.136 953.038 401.363C953.107 404.09 954.518 407.082 954.092 409.742C953.642 412.556 952.477 415.415 952.466 418.276C952.445 423.473 954.106 429.042 952.935 434.139C951.823 438.978 953.402 458.454 953.497 465.13C953.614 473.29 952.569 481.497 952.544 489.684C952.526 495.684 952.959 501.696 953.036 507.698C953.098 512.575 952.767 517.447 952.83 522.325C952.893 527.168 953.236 532.098 953.036 536.932C952.899 540.225 952.332 543.493 952.115 546.78C951.951 549.259 952.393 551.955 952.496 554.457C952.677 558.863 952.458 563.173 951.879 567.541C952.921 569.009 954.159 570.732 953.842 572.642C953.518 574.588 951.632 575.642 951.7 577.715L953.328 578.35L953.558 579.255C953.462 579.401 953.362 579.545 953.27 579.693C952.724 580.58 952.216 581.498 952.14 582.557C951.851 586.54 952.534 591.041 952.719 595.052C953.011 601.358 953.017 607.728 953.02 614.042L952.708 698.064L952.711 717.412C952.714 719.565 953.207 721.76 952.836 723.878C952.546 727.607 952.869 731.415 951.95 735.082C953.398 738.629 952.532 814.063 952.39 824.227C946.844 826.381 940.411 826.057 934.545 826.663C920.872 828.076 907.154 829.064 893.492 830.537L692.198 851.377L636.075 856.814C629.81 857.427 623.439 857.689 617.207 858.504C607.943 858.724 598.549 859.879 589.31 860.649Q565.597 862.688 541.856 864.369C535.52 864.827 526.663 867.002 520.605 865.315C519.27 865.786 518.039 865.891 516.644 866.003C513.842 866.254 505.461 867.75 503.385 866.377L502.505 866.137C499.108 866.11 495.621 865.416 492.229 865.071Q482.098 864.054 471.953 863.194L432.491 859.939C423.715 859.234 415.081 859.041 406.449 857.109C393.328 855.413 379.872 855.123 366.675 853.868C342.435 851.564 318.22 848.563 293.977 846.433C289.533 846.043 250.239 842.74 249.746 842.372C249.568 842.238 249.289 841.394 249.145 841.334C247.875 840.81 232.427 840.509 229.871 840.339C215.116 839.357 197.129 838.498 183.046 834.277C181.896 834.752 180.95 835.182 179.677 835.088C157.985 833.5 136.482 830.89 114.829 828.83C103.532 827.755 81.3281 827.436 71.4127 823.905C70.3263 820.261 71.3031 814.398 71.2728 810.508C71.2215 803.925 70.7569 797.347 70.8141 790.763C70.8866 782.414 71.5179 774.088 71.5366 765.727L71.618 712.51C71.526 698.193 71.0099 683.752 71.4462 669.451L72.9536 668.697L73.0422 667.775L71.4958 666.235C71.3248 662.911 72.8163 659.818 73.0753 656.494L71.5564 655.241C71.0267 650.924 72.2445 646.092 72.3344 641.692C72.4225 637.387 71.7718 632.865 71.5794 628.54L70.665 627.982C69.1504 625.292 72.006 621.944 72.0932 619.118C72.1494 617.295 70.7847 609.385 71.2808 608.327C71.6986 607.435 72.3705 607.577 72.69 606.279C72.0095 605.033 71.2316 603.953 71.3484 602.479L72.8238 601.477C72.2945 598.753 71.4169 595.608 71.4759 592.83C71.6367 585.256 74.6164 584.898 71.5385 575.862C69.9088 571.077 72.8011 566.092 72.9786 561.176C73.0288 559.787 72.67 559.414 71.7386 558.442C71.6468 556.558 73.3311 556.784 73.36 554.767C73.3978 552.131 69.9387 546.498 70.8213 544.642C71.53 543.151 73.3474 541.879 73.9783 540.337C75.061 537.691 71.0932 531.088 73.0202 526.466C74.1305 523.804 72.3222 521.212 71.7662 518.565C71.4642 517.128 71.3656 516.31 72.2134 515.101C72.4072 514.824 72.6066 514.552 72.8032 514.278C69.848 508.556 74.5725 503.362 73.1259 497.491C72.5155 496.802 71.7203 496.025 71.27 495.226C70.16 493.258 71.1056 491.576 71.7912 489.654L73.5794 490.316C73.9753 488.768 71.8957 488.503 71.6951 486.835C71.9994 486.635 72.5538 486.283 72.8175 486.06C72.8965 485.992 73.5533 485.312 73.5579 485.254C73.6273 484.375 72.2662 482.643 72.014 481.754C71.7281 480.745 73.0316 473.089 73.0752 471.311L71.2758 471.934L70.8121 471.441C70.864 469.303 71.9144 467.598 72.4724 465.578C72.8912 464.062 72.7101 463.748 71.9041 462.416C70.5939 460.252 72.8775 460.022 73.2426 458.418C72.3353 457.782 71.9115 457.396 71.4145 456.4C71.7355 454.107 72.5231 454.172 73.3899 452.328C73.9959 451.039 72.0637 446.857 71.6914 445.238C72.1978 445.008 72.701 444.811 73.221 444.616C73.1822 444.366 73.1494 444.116 73.1047 443.868C72.3816 439.852 74.4555 435.552 72.8808 431.953C72.3958 430.845 72.1732 430.208 72.2313 428.96C73.0434 429.221 72.7269 429.082 73.4951 429.479C73.6761 429.573 73.855 429.671 74.035 429.767L74.923 429.292C74.8245 427.773 73.9432 427.666 73.0367 426.563C71.3762 424.543 71.7939 406.519 72.0636 402.831C73.2379 402.435 72.8156 402.806 73.3743 401.77C72.9865 400.814 72.6311 399.846 72.2487 398.888C70.2428 393.863 73.5875 389.156 73.4803 384.018C72.8356 383.137 72.2141 382.427 71.9568 381.347C73.0925 380.723 73.8997 380.396 74.5764 379.244C74.2343 377.826 73.6692 376.936 72.857 375.764L72.4195 375.904L71.7848 377.758C71.4107 374.754 73.1363 371.981 72.8698 369.186C72.7251 367.668 71.41 367.563 71.9218 365.74L72.9602 365.913L73.4187 365.507C72.7643 365.144 72.2178 364.759 71.6383 364.286C71.6861 362.409 72.5533 362.932 73.2352 361.643C73.9735 360.247 72.0557 359.97 71.9769 358.223C71.826 354.88 73.2822 352.647 72.0674 349.078L71.0217 349.1C70.2635 346.959 73.4173 339.881 73.7087 337.156C73.037 336.468 72.0922 335.636 71.7835 334.706C71.3562 333.42 71.7546 332.034 72.3266 330.881C74.1873 327.13 70.039 324.099 70.8737 320.351L72.5422 319.55C73.1756 318.456 73.325 317.817 73.3835 316.557C71.2489 312.278 73.4696 312.76 73.3614 308.952C72.875 308.704 71.3406 308.005 71.1263 307.492C69.998 304.789 73.5992 299.772 71.827 295.432C70.0208 291.009 73.0617 291.91 73.5927 288.343C73.9224 286.129 72.5038 281.07 72.141 278.696C71.5387 274.755 72.4402 271.259 72.4897 267.349C72.5479 262.746 71.9274 258.063 71.916 253.435L71.8802 235.302C71.8742 232.359 72.2116 229.591 71.9653 226.628L71.8997 225.902C79.4936 229.418 87.2594 232.139 95.0277 235.203C104.151 238.802 113.147 242.678 122.329 246.14C121.979 244.511 121.229 210.49 121.495 208.781C128.465 207.533 154.477 222.96 163.625 224.378C163.826 224.409 164.027 224.434 164.228 224.462C164.107 221.841 164.836 212.617 164.442 211.177C164.031 209.678 162.789 209.624 162.847 207.642C162.905 205.687 163.983 203.84 164.066 201.868C164.137 200.156 163.308 198.39 163.071 196.707C162.732 194.306 163.352 194.147 164.829 192.255C165.812 191.939 166.195 191.8 167.231 192.121C168.931 192.647 170.496 193.961 172.079 194.799C176.089 196.923 180.752 199.398 184.942 201.081C185.673 201.375 186.361 201.521 186.991 202.03C187.652 202.565 188.299 203.204 188.939 203.768C189.037 200.068 189.141 196.373 189.1 192.671C189.354 192.458 189.616 192.254 189.861 192.032C190.038 191.873 190.199 191.696 190.367 191.528C189.766 188.517 188.15 183.44 189.83 180.597C190.139 180.074 190.539 179.695 190.95 179.265C196.669 179.898 201.604 184.798 206.704 187.172C211.532 189.42 216.552 191.272 221.39 193.551C228.74 197.013 235.884 200.923 243.147 204.564C248.216 207.105 253.275 209.33 258.089 212.361L259.347 213.142Z"/>
	<path fill="#FFC34E" d="M764.047 209.916C769.02 207.028 774.674 203.428 779.941 201.24C781.999 200.385 784.32 200.173 786.344 199.222C789.598 197.693 792.108 195.017 795.603 193.648C796.887 193.145 797.318 193.118 798.588 193.635C805.763 188.255 819.431 181.018 827.971 178.834C831.748 182.347 828.116 193.978 830.485 199.204C830.576 199.404 830.674 199.6 830.768 199.798L830.98 201.048C831.951 201.03 831.513 201.193 832.138 200.715C837.978 196.242 847.131 193.343 854.132 190.979C855.549 192.226 855.562 194.443 855.676 196.256C856.157 203.886 855.482 211.638 855.664 219.294L856.203 223.055C861.403 223.205 893.073 209.542 899.848 206.181C900.389 213.4 899.483 238.788 901.127 242.529L901.374 243.103C901.687 243.815 901.926 244.371 902.484 244.928C912.929 241.165 923.486 237.458 933.75 233.227C939.039 231.046 946.57 226.659 951.81 225.552C952.753 226.158 952.679 226.517 952.912 227.567C953.566 230.515 952.936 234.035 952.855 237.048C952.697 242.903 952.118 260.831 953.771 265.469C954.232 266.761 954.474 267.701 953.85 268.998C953.739 269.23 953.541 269.412 953.42 269.639C951.884 272.521 953.402 281.54 953.834 284.95C953.298 286.036 952.163 287.912 952.19 289.136C952.264 292.485 954.913 294.495 950.861 296.761L950.89 297.49L952.876 297.699C953.511 298.685 953.53 298.956 953.176 300.13C952.915 300.994 952.269 301.939 951.821 302.73C952.317 303.635 952.9 304.405 953.532 305.218C953.782 306.542 953.513 307.193 953.095 308.422C951.433 313.317 953.628 317.619 953.764 322.495C953.838 325.153 952.962 327.868 952.917 330.543C952.807 337.228 953.907 358.583 952.651 363.269C952.47 363.944 951.813 364.51 951.356 365.008L951.621 365.347C952.057 365.913 952.821 366.727 953.093 367.359C954.339 370.247 952.905 396.136 953.038 401.363C953.107 404.09 954.518 407.082 954.092 409.742C953.642 412.556 952.477 415.415 952.466 418.276C952.445 423.473 954.106 429.042 952.935 434.139C951.823 438.978 953.402 458.454 953.497 465.13C953.614 473.29 952.569 481.497 952.544 489.684C952.526 495.684 952.959 501.696 953.036 507.698C953.098 512.575 952.767 517.447 952.83 522.325C952.893 527.168 953.236 532.098 953.036 536.932C952.899 540.225 952.332 543.493 952.115 546.78C951.951 549.259 952.393 551.955 952.496 554.457C952.677 558.863 952.458 563.173 951.879 567.541C952.921 569.009 954.159 570.732 953.842 572.642C953.518 574.588 951.632 575.642 951.7 577.715L953.328 578.35L953.558 579.255C953.462 579.401 953.362 579.545 953.27 579.693C952.724 580.58 952.216 581.498 952.14 582.557C951.851 586.54 952.534 591.041 952.719 595.052C953.011 601.358 953.017 607.728 953.02 614.042L952.708 698.064L952.711 717.412C952.714 719.565 953.207 721.76 952.836 723.878C952.546 727.607 952.869 731.415 951.95 735.082C953.398 738.629 952.532 814.063 952.39 824.227C946.844 826.381 940.411 826.057 934.545 826.663C920.872 828.076 907.154 829.064 893.492 830.537L692.198 851.377L636.075 856.814C629.81 857.427 623.439 857.689 617.207 858.504C607.943 858.724 598.549 859.879 589.31 860.649Q565.597 862.688 541.856 864.369C535.52 864.827 526.663 867.002 520.605 865.315C519.27 865.786 518.039 865.891 516.644 866.003L516.878 862.609C517.057 854.564 516.572 846.333 516.546 838.255C516.668 836.058 516.62 833.839 516.631 831.638C515.922 825.73 517.661 820.341 517.435 815.377C517.355 813.619 516.445 812.123 516.282 810.432C516.057 808.101 517.211 805.651 517.353 803.318C517.485 801.134 516.117 799.041 515.853 796.923C515.579 794.723 517.583 792.343 517.306 790.165C517.127 788.757 515.789 787.437 515.692 786.069C515.604 784.829 516.942 782.751 517.32 781.465L516.28 780.928C515.868 775.873 516.797 771.235 517.411 766.277L516.093 765.719C518.136 757.952 517.737 751.33 517.435 743.468C517.368 741.737 517.664 739.951 517.478 738.24C517.33 736.881 517.322 735.966 517.487 734.609C517.241 733.764 517.316 734.208 517.302 733.152C517.265 730.216 516.661 727.198 517.441 724.335C517.493 721.473 516.79 718.802 516.696 715.978C516.595 712.992 516.636 692.146 516.97 690.573C517.133 689.804 517.175 689.225 517.163 688.438L516.777 687.59C517.753 681.309 516.036 654.301 517.734 651.198C516.499 648.111 516.995 644.134 517.058 640.855C518.072 634.174 516.803 626.251 516.798 619.43L516.815 590.588C516.833 587.068 517.362 583.196 517.164 579.749C517.103 578.696 516.837 577.623 516.59 576.6C516.335 573.813 516.554 570.9 516.599 568.1L516.476 566.083C515.901 561.27 517.818 553.255 516.152 549.23C516.522 548.514 516.538 548.689 516.583 548.042C516.725 545.999 517.383 541.201 516.434 539.449C517.176 535.59 516.73 531.255 516.671 527.326C518.022 525.677 516.706 517.818 516.813 515.375C516.881 513.813 516.853 512.196 517.226 510.672C517.295 510.392 517.371 510.113 517.443 509.834L516.822 509.496Q516.815 506.5 516.901 503.506C516.764 502.863 516.704 502.302 516.726 501.643C516.779 500.068 516.725 499.028 516.259 497.516L515.582 497.073C516.164 494.818 516.946 492.649 517.431 490.367C516.674 486.323 517.201 481.805 517.115 477.685C517.019 473.059 516.647 468.413 516.362 463.793C519.175 458.058 515.374 456.035 516.823 451.844C517.155 450.886 517.245 451.078 517.009 449.984L515.812 450.538C515.671 449.599 515.615 449.999 515.96 449.082C518.223 443.072 516.316 436.555 516.699 430.252L516.417 427.539C516.366 426.322 516.309 425.084 516.373 423.866C516.568 420.154 519.612 415.758 522.199 413.317C522.528 413.338 522.859 413.427 523.185 413.38C524.256 413.226 525.151 410.043 526.024 409.053C531.846 407.475 529.96 400.799 532.997 399.498C533.677 399.207 533.726 399.936 534.971 399.277C535.558 397.917 536.18 396.456 537.058 395.257C538.822 392.846 541.545 390.701 543.616 388.499C547.986 383.856 551.984 379.036 556.635 374.645C556.671 373.731 556.708 374.005 556.593 373.241C556.313 371.391 566.456 364.913 568.168 362.824C568.416 362.522 568.571 361.21 568.62 360.895C568.661 360.635 568.695 360.374 568.733 360.114C575.671 353.801 581.739 346.553 588.366 339.933C590.583 337.719 593.474 336.467 595.759 334.365C601.018 329.527 613.888 314.392 619.102 312.597C625.762 310.305 635.158 294.302 640.613 293.25C641.442 293.09 642.002 293.031 642.716 292.567C645.556 290.722 648.179 287.135 650.907 284.902C658.358 278.802 666.225 273.197 673.796 267.242C676.548 265.078 680.677 263.859 683.012 261.448C687.202 257.123 691.704 254.194 697.09 251.548L698.358 248.976C701.737 246.935 704.134 244.962 708.103 244.025C709.313 243.739 708.901 243.066 709.566 242.187C710.176 241.38 720.592 235.324 722.267 234.262C727.136 231.173 732.248 228.592 737.254 225.747C741.35 223.419 745.271 220.792 749.366 218.458C753.808 215.927 760.769 213.779 764.047 209.916Z"/>
	<path fill="white" d="M764.047 209.916C769.02 207.028 774.674 203.428 779.941 201.24C781.999 200.385 784.32 200.173 786.344 199.222C789.598 197.693 792.108 195.017 795.603 193.648C796.887 193.145 797.318 193.118 798.588 193.635C805.763 188.255 819.431 181.018 827.971 178.834C831.748 182.347 828.116 193.978 830.485 199.204C830.576 199.404 830.674 199.6 830.768 199.798C830.037 201.618 829.681 203.316 829.538 205.273C828.825 215.033 829.604 224.97 829.65 234.752L829.564 289.674C829.573 303.811 829.647 318.081 829.398 332.213C829.324 336.429 828.746 340.621 828.68 344.84C828.54 353.737 828.87 362.672 828.821 371.579L828.213 430.598C828.198 432.526 829.008 434.185 829.035 436.03C829.223 448.719 829.15 462.559 828.912 475.266C828.833 479.488 828.395 483.707 828.357 487.924C828.261 498.382 829.024 508.851 828.408 519.345C826.741 520.27 823.759 522.432 822.008 522.893C821.284 523.084 821.045 522.37 820.668 523.261L820.814 521.758C817.945 521.68 807.385 530.827 805.139 530.029L804.612 529.092C802.882 529.782 801.879 531.399 800.758 532.805C799.16 534.812 789.395 537.474 786.377 538.898C784.91 541.126 783.57 541.67 781.114 542.452L780.734 542.908C779.381 544.507 777.906 546.289 775.747 546.559L775.444 545.051L774.582 545.537L774.684 545.364C769.387 549.373 764.258 553.436 758.517 556.809C755.413 558.633 751.608 559.852 748.714 561.821C746.645 563.229 745.194 565.365 743.08 566.799C739.641 569.131 735.84 570.303 732.659 573.113C730.285 575.21 726.604 578.905 723.615 579.84C722.881 579.633 722.22 579.396 721.526 579.08C721.389 579.286 721.255 579.496 721.114 579.7C720.672 580.342 720.242 580.842 719.696 581.39L718.855 581.391C717.264 581.404 716.17 581.353 714.833 582.335C714.994 584.092 716.329 584.938 715.85 586.654C714.805 586.799 714.398 586.548 713.437 586.175C712.168 586.873 711.172 587.635 710.754 589.096C710.616 589.579 710.548 590.031 710.454 590.532C706.192 594.085 700.8 595.841 696.305 598.97C693.678 600.799 690.895 604.603 687.981 605.66L687.69 604.145L686.956 604.206L686.284 605.172L687.517 606.209C686.965 607.323 687.129 607.077 686.147 607.539L684.706 607.128L684.464 607.521L684.906 608.432C684.322 609.252 683.822 609.476 682.961 609.93C677.353 612.884 673.983 618.119 669.471 622.322C664.197 627.233 658.306 631.792 653.267 636.914C651.501 638.709 650.842 641.477 648.775 642.942C647.885 642.425 647.863 642.271 646.782 642.306C641.404 648.874 634.669 655.005 630.013 662.018C629.402 662.196 628.719 662.214 628.178 662.551C626.869 663.365 617.087 676.387 615.435 678.605C614.856 679.382 613.69 681.516 612.951 682.013C612.47 682.338 611.293 682.532 610.699 682.718C605.011 694.018 595.349 704.314 588.12 714.798C586.014 717.852 584.939 721.615 582.374 724.351L581.82 724.403C580.972 724.49 581.299 724.449 580.386 724.622C579.858 726.704 579.475 728.754 579.168 730.88L578.497 731.21L577.685 730.074C576.499 730.316 576.763 730.269 576.104 731.138L576.288 733.398L575.694 733.933L574.361 733.78C573.674 734.95 573.478 734.976 573.803 736.29C573.879 736.596 573.966 736.899 574.047 737.203C571.53 741.863 566.227 745.941 565.867 751.362C565.843 751.729 565.793 752.094 565.756 752.46L565.679 753.265C565.054 753.77 564.422 754.219 563.751 754.66Q560.208 761.791 556.94 769.053C555.484 769.344 554.933 769.188 554.162 770.562C552.661 773.235 551.912 776.677 550.56 779.493C548.447 783.896 545.712 787.975 543.564 792.358C538.537 802.615 518.242 848.407 518.998 857.002C519.053 857.625 518.888 858.676 518.756 859.257C518.445 860.48 518.381 862.002 517.398 862.808L516.878 862.609C517.057 854.564 516.572 846.333 516.546 838.255C516.668 836.058 516.62 833.839 516.631 831.638C515.922 825.73 517.661 820.341 517.435 815.377C517.355 813.619 516.445 812.123 516.282 810.432C516.057 808.101 517.211 805.651 517.353 803.318C517.485 801.134 516.117 799.041 515.853 796.923C515.579 794.723 517.583 792.343 517.306 790.165C517.127 788.757 515.789 787.437 515.692 786.069C515.604 784.829 516.942 782.751 517.32 781.465L516.28 780.928C515.868 775.873 516.797 771.235 517.411 766.277L516.093 765.719C518.136 757.952 517.737 751.33 517.435 743.468C517.368 741.737 517.664 739.951 517.478 738.24C517.33 736.881 517.322 735.966 517.487 734.609C517.241 733.764 517.316 734.208 517.302 733.152C517.265 730.216 516.661 727.198 517.441 724.335C517.493 721.473 516.79 718.802 516.696 715.978C516.595 712.992 516.636 692.146 516.97 690.573C517.133 689.804 517.175 689.225 517.163 688.438L516.777 687.59C517.753 681.309 516.036 654.301 517.734 651.198C516.499 648.111 516.995 644.134 517.058 640.855C518.072 634.174 516.803 626.251 516.798 619.43L516.815 590.588C516.833 587.068 517.362 583.196 517.164 579.749C517.103 578.696 516.837 577.623 516.59 576.6C516.335 573.813 516.554 570.9 516.599 568.1L516.476 566.083C515.901 561.27 517.818 553.255 516.152 549.23C516.522 548.514 516.538 548.689 516.583 548.042C516.725 545.999 517.383 541.201 516.434 539.449C517.176 535.59 516.73 531.255 516.671 527.326C518.022 525.677 516.706 517.818 516.813 515.375C516.881 513.813 516.853 512.196 517.226 510.672C517.295 510.392 517.371 510.113 517.443 509.834L516.822 509.496Q516.815 506.5 516.901 503.506C516.764 502.863 516.704 502.302 516.726 501.643C516.779 500.068 516.725 499.028 516.259 497.516L515.582 497.073C516.164 494.818 516.946 492.649 517.431 490.367C516.674 486.323 517.201 481.805 517.115 477.685C517.019 473.059 516.647 468.413 516.362 463.793C519.175 458.058 515.374 456.035 516.823 451.844C517.155 450.886 517.245 451.078 517.009 449.984L515.812 450.538C515.671 449.599 515.615 449.999 515.96 449.082C518.223 443.072 516.316 436.555 516.699 430.252L516.417 427.539C516.366 426.322 516.309 425.084 516.373 423.866C516.568 420.154 519.612 415.758 522.199 413.317C522.528 413.338 522.859 413.427 523.185 413.38C524.256 413.226 525.151 410.043 526.024 409.053C531.846 407.475 529.96 400.799 532.997 399.498C533.677 399.207 533.726 399.936 534.971 399.277C535.558 397.917 536.18 396.456 537.058 395.257C538.822 392.846 541.545 390.701 543.616 388.499C547.986 383.856 551.984 379.036 556.635 374.645C556.671 373.731 556.708 374.005 556.593 373.241C556.313 371.391 566.456 364.913 568.168 362.824C568.416 362.522 568.571 361.21 568.62 360.895C568.661 360.635 568.695 360.374 568.733 360.114C575.671 353.801 581.739 346.553 588.366 339.933C590.583 337.719 593.474 336.467 595.759 334.365C601.018 329.527 613.888 314.392 619.102 312.597C625.762 310.305 635.158 294.302 640.613 293.25C641.442 293.09 642.002 293.031 642.716 292.567C645.556 290.722 648.179 287.135 650.907 284.902C658.358 278.802 666.225 273.197 673.796 267.242C676.548 265.078 680.677 263.859 683.012 261.448C687.202 257.123 691.704 254.194 697.09 251.548L698.358 248.976C701.737 246.935 704.134 244.962 708.103 244.025C709.313 243.739 708.901 243.066 709.566 242.187C710.176 241.38 720.592 235.324 722.267 234.262C727.136 231.173 732.248 228.592 737.254 225.747C741.35 223.419 745.271 220.792 749.366 218.458C753.808 215.927 760.769 213.779 764.047 209.916Z"/>
	<path fill="#A09E9D" d="M517.441 724.335C517.518 726.033 517.405 728.002 517.742 729.653C525.465 719.772 531.564 708.636 538.423 698.157C545.077 687.99 552.31 678.354 559.503 668.575C562.371 664.675 564.982 660.579 567.902 656.721C570.598 653.156 573.796 649.995 576.579 646.497C578.896 643.585 580.873 640.392 583.171 637.447C588.778 630.257 594.729 623.295 600.691 616.397Q609.611 606.103 618.896 596.138Q628.182 586.173 637.821 576.55Q647.46 566.926 657.441 557.657Q667.421 548.388 677.729 539.485Q688.038 530.582 698.661 522.057Q709.284 513.532 720.208 505.396Q731.132 497.26 742.342 489.524Q753.553 481.788 765.035 474.461C771.237 470.583 806.889 449.003 811.475 448.396C812.778 448.224 813.243 448.477 814.407 448.99L815.044 449.888C814.877 450.199 814.797 450.577 814.543 450.823C814.184 451.169 790.733 463.518 787.179 465.602Q764.898 478.629 743.629 493.251Q722.361 507.872 702.219 524.011Q692.913 531.517 683.843 539.307Q674.773 547.097 665.947 555.163Q657.122 563.229 648.549 571.563Q639.977 579.898 631.666 588.493Q623.355 597.088 615.313 605.935Q607.272 614.783 599.507 623.874Q591.742 632.966 584.261 642.292Q576.78 651.619 569.591 661.172Q558.401 675.761 547.995 690.919C541.889 700.003 524.637 728.64 517.487 734.609C517.241 733.764 517.316 734.208 517.302 733.152C517.265 730.216 516.661 727.198 517.441 724.335Z"/>
	<path fill="#A09E9D" d="M517.775 645.417C526.233 634.689 533.793 623.193 541.832 612.143C550.525 600.192 559.865 588.576 569.262 577.17C576.912 567.884 585.123 559.087 593.233 550.206Q602.762 539.643 612.669 529.433Q622.575 519.224 632.847 509.381Q643.119 499.539 653.742 490.077Q664.365 480.615 675.325 471.545Q686.285 462.476 697.568 453.811Q708.851 445.147 720.441 436.898Q732.032 428.65 743.915 420.829Q755.798 413.008 767.958 405.624C777.575 399.881 805.996 382.353 815.052 381.223L815.972 381.673C816.07 382.873 816.048 382.856 815.285 383.73C813.675 385.574 787.337 398.665 782.558 401.379C758.427 415.084 735.039 431.065 712.543 447.292C656.204 487.93 602.892 540.951 559.533 595.172C544.95 613.407 531.878 632.671 517.734 651.198C516.499 648.111 516.995 644.134 517.058 640.855Q517.398 643.139 517.775 645.417Z"/>
	<path fill="#A09E9D" d="M516.599 568.1L516.989 567.669C524.258 559.528 530.576 550.214 537.32 541.612C546.426 529.996 556.166 518.781 565.941 507.721Q576.6 495.502 587.725 483.706Q598.85 471.911 610.425 460.556Q622 449.202 634.008 438.305Q646.015 427.409 658.437 416.987Q670.858 406.565 683.676 396.634Q696.493 386.703 709.686 377.277Q722.879 367.851 736.428 358.945Q749.978 350.038 763.863 341.665C770.531 337.583 808.068 316.362 812.414 315.884C813.281 315.789 813.743 315.885 814.525 316.215L814.994 316.871C813.524 320.04 784.889 333.853 779.382 337.026C760.737 347.768 742.467 359.593 724.597 371.584Q701.786 387.22 680.064 404.337Q658.341 421.453 637.804 439.975C632.431 444.898 627.466 450.172 622.206 455.2C617.518 459.681 612.635 463.909 608.014 468.481Q587.923 488.448 569.196 509.699Q550.469 530.951 533.189 553.395C528.562 559.522 520.736 566.402 517.278 572.895C516.713 573.956 516.696 575.419 516.59 576.6C516.335 573.813 516.554 570.9 516.599 568.1Z"/>
	<path fill="#A09E9D" d="M517.431 490.367C519.743 489.487 535.575 469.098 538.934 465.262Q561.962 438.945 586.487 414.017Q597.135 403.195 608.159 392.757Q619.184 382.319 630.571 372.277Q641.958 362.236 653.693 352.604Q665.428 342.972 677.497 333.761Q689.566 324.551 701.954 315.773Q714.341 306.996 727.031 298.662Q739.722 290.329 752.699 282.45Q765.677 274.571 778.925 267.156C786.929 262.72 804.944 252.018 813.187 250.266C814.177 250.765 814.613 251.127 815.256 252.031L814.504 251.799L814.532 252.865C794.254 263.736 773.704 274.011 753.948 285.85C705.35 314.972 657.39 352.076 616.103 390.827C600.266 405.691 585.236 421.506 570.069 437.044C555.11 452.367 541.218 468.322 527.351 484.638C524.05 488.522 518.881 493.307 516.259 497.516L515.582 497.073C516.164 494.818 516.946 492.649 517.431 490.367Z"/>
	<path fill="#16BC74" d="M902.484 244.928C912.929 241.165 923.486 237.458 933.75 233.227C939.039 231.046 946.57 226.659 951.81 225.552C952.753 226.158 952.679 226.517 952.912 227.567C953.566 230.515 952.936 234.035 952.855 237.048C952.697 242.903 952.118 260.831 953.771 265.469C954.232 266.761 954.474 267.701 953.85 268.998C953.739 269.23 953.541 269.412 953.42 269.639C951.884 272.521 953.402 281.54 953.834 284.95C953.298 286.036 952.163 287.912 952.19 289.136C952.264 292.485 954.913 294.495 950.861 296.761L950.89 297.49L952.876 297.699C953.511 298.685 953.53 298.956 953.176 300.13C952.915 300.994 952.269 301.939 951.821 302.73C952.317 303.635 952.9 304.405 953.532 305.218C953.782 306.542 953.513 307.193 953.095 308.422C951.433 313.317 953.628 317.619 953.764 322.495C953.838 325.153 952.962 327.868 952.917 330.543C952.807 337.228 953.907 358.583 952.651 363.269C952.47 363.944 951.813 364.51 951.356 365.008L951.621 365.347C952.057 365.913 952.821 366.727 953.093 367.359C954.339 370.247 952.905 396.136 953.038 401.363C953.107 404.09 954.518 407.082 954.092 409.742C953.642 412.556 952.477 415.415 952.466 418.276C952.445 423.473 954.106 429.042 952.935 434.139C951.823 438.978 953.402 458.454 953.497 465.13C953.614 473.29 952.569 481.497 952.544 489.684C952.526 495.684 952.959 501.696 953.036 507.698C953.098 512.575 952.767 517.447 952.83 522.325C952.893 527.168 953.236 532.098 953.036 536.932C952.899 540.225 952.332 543.493 952.115 546.78C951.951 549.259 952.393 551.955 952.496 554.457C952.677 558.863 952.458 563.173 951.879 567.541C952.921 569.009 954.159 570.732 953.842 572.642C953.518 574.588 951.632 575.642 951.7 577.715L953.328 578.35L953.558 579.255C953.462 579.401 953.362 579.545 953.27 579.693C952.724 580.58 952.216 581.498 952.14 582.557C951.851 586.54 952.534 591.041 952.719 595.052C953.011 601.358 953.017 607.728 953.02 614.042L952.708 698.064L952.711 717.412C952.714 719.565 953.207 721.76 952.836 723.878C952.546 727.607 952.869 731.415 951.95 735.082C953.398 738.629 952.532 814.063 952.39 824.227C946.844 826.381 940.411 826.057 934.545 826.663C920.872 828.076 907.154 829.064 893.492 830.537L692.198 851.377L636.075 856.814C629.81 857.427 623.439 857.689 617.207 858.504C607.943 858.724 598.549 859.879 589.31 860.649Q565.597 862.688 541.856 864.369C535.52 864.827 526.663 867.002 520.605 865.315C521.481 864.607 522.584 864.024 523.548 863.435C536.767 855.357 550.637 848.262 564.397 841.16C584.007 831.038 603.913 820.95 624.346 812.578C644.548 804.301 665.146 797.684 685.926 791.067C691.532 789.282 697.05 787.177 702.687 785.506C720.399 780.255 740.251 775.547 758.424 772.254C778.23 768.665 798.374 767.139 818.376 765.137C841.216 762.851 878.379 760.78 900.165 766.063C901.648 749.265 901.228 731.962 901.254 715.098L901.168 632.325L901.234 359.252L901.155 277.69C901.121 274.074 900.346 247.999 900.672 246.62C900.911 245.608 901.651 245.47 902.484 244.928Z"/>
	<path fill="#F56C60" d="M899.848 206.181C900.389 213.4 899.483 238.788 901.127 242.529L901.374 243.103C901.687 243.815 901.926 244.371 902.484 244.928C901.651 245.47 900.911 245.608 900.672 246.62C900.346 247.999 901.121 274.074 901.155 277.69L901.234 359.252L901.168 632.325L901.254 715.098C901.228 731.962 901.648 749.265 900.165 766.063C878.379 760.78 841.216 762.851 818.376 765.137C798.374 767.139 778.23 768.665 758.424 772.254C740.251 775.547 720.399 780.255 702.687 785.506C697.05 787.177 691.532 789.282 685.926 791.067C665.146 797.684 644.548 804.301 624.346 812.578C603.913 820.95 584.007 831.038 564.397 841.16C550.637 848.262 536.767 855.357 523.548 863.435C522.584 864.024 521.481 864.607 520.605 865.315C519.27 865.786 518.039 865.891 516.644 866.003L516.878 862.609L517.398 862.808C518.381 862.002 518.445 860.48 518.756 859.257C521.174 857.632 527.576 850.914 529.197 848.388L528.332 847.541L528.351 846.933L529.274 846.509C529.83 847.103 529.913 847.195 530.729 847.451C532.337 846.446 532.697 845.413 533.399 843.74L533.738 842.919C535.766 842.091 538.665 841.098 539.924 839.26C539.01 838.594 539.216 839.01 539.049 838.177C542.721 835.39 553.497 824.964 556.979 824.15C558.571 823.779 559.656 823.512 560.817 822.278C559.974 822.282 559.139 822.262 558.297 822.221C558.409 822.064 558.507 821.895 558.632 821.749C560.551 819.509 564.29 818.083 566.619 816.131C571.384 812.136 575.733 807.437 580.758 803.767C583.983 801.412 587.514 799.487 590.786 797.199C594.543 794.572 598.144 791.602 602.057 789.215C609.264 784.818 616.742 780.741 623.82 776.142C626.795 774.209 634.209 767.157 636.874 767.02L636.812 767.808C635.322 768.75 633.849 769.67 632.462 770.761C636.246 770.515 642.438 765.347 645.627 763.229L646.716 763.923L647.492 763.518L647.43 761.886C648.815 761.054 649.162 761.219 650.727 761.327C650.854 761.184 651.005 761.06 651.106 760.899C651.447 760.355 651.61 759.718 652.018 759.207C652.787 758.243 653.524 757.889 654.688 757.637L654.45 759.065L655.278 759.3C657.486 758.674 665.283 754.982 666.861 753.402C667.651 752.612 667.172 751.361 668.536 750.686C671.524 749.209 676.845 750.499 679.124 747.512L677.973 746.045L678.308 745.248C680.06 745.706 681.39 745.956 683.201 745.814C686.354 743.744 690.151 741.779 693.747 740.637L694.747 741.879C700.975 739.977 706.051 735.671 712.016 733.268C716.392 731.505 721.234 730.643 725.716 729.122C728.875 728.05 748.571 720.162 749.653 720.3C750.219 720.373 750.67 720.897 751.239 720.946C752.012 721.014 766.939 716.438 769.741 716.007L770.414 717.516C771.589 717.839 771.439 717.714 772.479 717.275C771.85 716.746 771.511 716.459 771.089 715.737C773.647 714.328 775.143 716 777.725 715.841C778.46 715.795 779.072 714.782 779.556 714.246C786.912 714.117 794.256 712.042 801.443 710.612C808.31 709.246 815.539 708.082 822.481 707.157C826 706.688 830.008 709.22 833.197 708.634C833.818 708.52 834.882 707.083 835.522 706.775C836.787 706.164 848.018 706.332 849.997 706.453C850.902 706.508 851.565 706.631 852.468 706.383C853.192 706.184 852.979 706.222 853.409 705.513L852.522 704.521C852.974 703.975 853.534 703.394 853.744 702.699C854.778 699.285 854.032 693.33 854.028 689.615C854.015 678.645 854.314 667.692 854.143 656.715C854.034 649.711 852.796 641.455 853.905 634.618C854.413 635.215 854.1 634.88 854.883 635.585L854.927 634.657L853.857 633.979C853.202 630.196 854.431 625.369 854.483 621.449C854.544 616.905 853.681 612.333 853.712 607.771C854.188 607.317 854.576 606.946 854.911 606.369C855.329 605.648 854.303 603.248 854.07 602.261C853.489 599.801 852.992 598.078 854.395 595.825C854.51 595.64 854.637 595.462 854.752 595.277C856.159 593.026 853.483 593.972 853.809 590.276C854.11 586.865 855.529 581.341 854.805 578.204C854.411 578.626 854.097 578.952 853.619 579.282C852.616 576.355 854.594 574.599 854.428 571.81C854.284 569.376 853.542 566.945 853.373 564.459L854.47 565.523L853.87 566.104L854.942 565.836C855.751 563.97 853.832 559.59 853.564 557.411C853.213 554.556 853.52 551.364 853.623 548.482L855.082 548.758L855.011 548.007L855.198 548.609C854.527 544.324 853.125 519.292 854.303 516.8C854.671 516.021 855.067 516.699 855.47 515.311C855.247 515.074 854.28 514.15 854.151 513.781C854.14 513.75 854.016 468.568 854.083 464.593C854.121 462.335 855.346 460.152 855.104 457.947L854.11 457.21C853.661 456.131 853.696 438.475 854.121 437.085C855.432 432.8 854.348 425.675 854.373 421.001L854.737 390.531C854.757 382.239 854.464 374.522 855.357 366.239C855.374 366.074 855.48 365.894 855.41 365.744C855.165 365.212 854.518 364.949 854.241 364.434C853.59 363.226 854.267 356.894 854.296 355.277Q855.045 354.681 855.772 354.058C855.328 352.893 854.918 351.736 854.54 350.547C855.085 349.282 855.729 348.192 855.453 346.779L854.14 346.212C853.61 344.281 855.486 342.563 855.351 340.446C854.812 339.718 854.081 338.896 853.988 337.95C853.701 335.038 855.026 331.551 855.075 328.533C855.176 322.316 854.142 315.808 854.543 309.602C854.634 308.2 856.119 303.07 855.491 301.999C855.297 301.668 854.616 301.773 854.235 301.105C854.411 300.977 854.934 300.605 855.062 300.46C855.777 299.642 855.598 299.888 854.918 299.101C854.718 298.869 854.426 298.692 854.318 298.405C854.164 297.994 855.005 273.936 854.981 271.468C854.829 271.336 854.292 270.887 854.196 270.732C853.561 269.704 854.921 264.293 855.152 262.739C855.997 257.054 854.272 243.539 855.767 240.221C855.848 240.042 855.945 239.872 856.035 239.697C855.535 238.684 855.767 238.971 855.108 238.23C854.97 238.074 854.75 237.97 854.681 237.774C854.395 236.973 855.116 233.497 855.21 232.492C855.617 228.109 855.627 223.693 855.664 219.294L856.203 223.055C861.403 223.205 893.073 209.542 899.848 206.181Z"/>
	<path fill="#2B464D" d="M164.228 224.462C164.107 221.841 164.836 212.617 164.442 211.177C164.031 209.678 162.789 209.624 162.847 207.642C162.905 205.687 163.983 203.84 164.066 201.868C164.137 200.156 163.308 198.39 163.071 196.707C162.732 194.306 163.352 194.147 164.829 192.255C165.812 191.939 166.195 191.8 167.231 192.121C168.931 192.647 170.496 193.961 172.079 194.799C176.089 196.923 180.752 199.398 184.942 201.081C185.673 201.375 186.361 201.521 186.991 202.03C187.652 202.565 188.299 203.204 188.939 203.768C189.793 220.458 189.552 237.027 189.77 253.722L190.666 350.75C190.735 359.409 190.636 368.098 190.5 376.757C190.409 382.57 189.625 388.049 190.86 393.786C191.583 397.143 190.944 400.397 190.979 403.788C191.113 416.794 190.778 429.749 190.618 442.75C190.528 450.154 191.373 457.592 191.485 465.002C191.711 479.979 191.235 495.311 192.704 510.22C192.083 510.891 191.481 511.569 190.894 512.27L191.127 513.324C191.384 513.483 191.644 513.639 191.899 513.802C192.907 514.442 192.536 514.14 193.263 514.888L192.851 515.346C191.954 516.356 191.155 517.067 190.973 518.464C191.467 520.006 191.641 520.47 193.153 521.261C195.279 522.374 212.894 530.876 214.256 531.226C215.576 531.565 217.118 531.504 218.478 531.528C219.27 532.112 219.387 532.418 219.894 533.237C221.065 535.131 221.696 535.677 223.895 536.174C234.347 538.536 232.334 541.544 239.588 545.182C241.455 546.118 241.862 544.064 243.501 544.74C243.103 545.484 242.819 545.863 242.26 546.465C243.208 547.738 245.486 548.612 247.038 548.838C247.271 548.872 247.506 548.893 247.74 548.921L248.006 548.543L246.979 547.04L247.362 546.619C248.024 547.366 248.651 548.125 249.266 548.91C250.021 548.741 250.744 548.557 251.489 548.342L252.228 548.813L251.375 550.286C251.982 551.429 253.297 551.951 254.49 552.315C255.429 552.601 256.431 552.748 257.399 552.904C258.522 553.805 259.214 554.79 260.02 555.96C264.198 557.414 268.033 561.036 269.994 561.563L271.557 560.57C272.841 561.769 271.855 562.58 273.332 563.829C273.957 563.051 273.367 562.422 273.824 561.856L275.017 562.291C275.357 564.026 274.371 564.648 275.288 566.309C279.514 568.51 294.363 577.633 297.901 578.013L298.78 577.667L299.181 576.585C300.788 580.154 302.062 585.261 305.215 587.744C307.354 589.429 309.208 590.133 311.021 592.349C312.599 592.078 314.474 591.459 315.976 591.98C316.771 592.968 317.585 593.941 318.361 594.943C321.721 599.285 328.817 602.782 333.238 606.296C336.48 608.875 339.463 611.778 342.542 614.545C343.669 615.558 346.455 617.363 346.416 618.836C346.41 619.048 346.297 619.632 346.255 619.865C347.01 620.669 347.607 620.695 348.637 620.955C352.92 622.038 354.348 626.354 357.304 629.215C358.739 630.605 360.307 629.438 361.392 631.275C361.521 631.493 361.54 631.758 361.617 631.999C363.196 636.934 372.329 640.42 372.865 642.859C372.894 642.989 372.316 643.916 372.29 644.153C372.211 644.851 377.723 650.912 378.655 651.823C380.809 653.929 383.52 654.72 385.608 657.173Q401.069 675.307 415.25 694.458Q429.43 713.609 442.264 733.688C445.172 738.245 447.926 742.998 450.498 747.752C451.526 749.652 452.222 751.772 453.382 753.591C455.343 756.667 457.906 759.288 459.727 762.47C463.451 768.978 466.619 776.239 470.003 782.964C473.555 790.024 477.534 796.916 480.956 804.026C482.385 806.994 483.419 810.136 484.827 813.108C486.244 816.102 488.093 818.892 489.473 821.9C490.839 824.876 491.586 828.097 492.896 831.091C495.908 837.973 502.894 848.018 501.618 856.136C501.457 857.158 501.273 857.303 500.465 857.869C499.671 858.424 499.94 858.168 499.516 858.626C500.664 859.804 501.676 861.102 502.719 862.374C503.445 861.118 503.167 858.872 503.187 857.381C503.579 860.379 503.453 863.362 503.385 866.377L502.505 866.137C499.108 866.11 495.621 865.416 492.229 865.071Q482.098 864.054 471.953 863.194L432.491 859.939C423.715 859.234 415.081 859.041 406.449 857.109C393.328 855.413 379.872 855.123 366.675 853.868C342.435 851.564 318.22 848.563 293.977 846.433C289.533 846.043 250.239 842.74 249.746 842.372C249.568 842.238 249.289 841.394 249.145 841.334C247.875 840.81 232.427 840.509 229.871 840.339C215.116 839.357 197.129 838.498 183.046 834.277C181.896 834.752 180.95 835.182 179.677 835.088C157.985 833.5 136.482 830.89 114.829 828.83C103.532 827.755 81.3281 827.436 71.4127 823.905C70.3263 820.261 71.3031 814.398 71.2728 810.508C71.2215 803.925 70.7569 797.347 70.8141 790.763C70.8866 782.414 71.5179 774.088 71.5366 765.727L71.618 712.51C71.526 698.193 71.0099 683.752 71.4462 669.451L72.9536 668.697L73.0422 667.775L71.4958 666.235C71.3248 662.911 72.8163 659.818 73.0753 656.494L71.5564 655.241C71.0267 650.924 72.2445 646.092 72.3344 641.692C72.4225 637.387 71.7718 632.865 71.5794 628.54L70.665 627.982C69.1504 625.292 72.006 621.944 72.0932 619.118C72.1494 617.295 70.7847 609.385 71.2808 608.327C71.6986 607.435 72.3705 607.577 72.69 606.279C72.0095 605.033 71.2316 603.953 71.3484 602.479L72.8238 601.477C72.2945 598.753 71.4169 595.608 71.4759 592.83C71.6367 585.256 74.6164 584.898 71.5385 575.862C69.9088 571.077 72.8011 566.092 72.9786 561.176C73.0288 559.787 72.67 559.414 71.7386 558.442C71.6468 556.558 73.3311 556.784 73.36 554.767C73.3978 552.131 69.9387 546.498 70.8213 544.642C71.53 543.151 73.3474 541.879 73.9783 540.337C75.061 537.691 71.0932 531.088 73.0202 526.466C74.1305 523.804 72.3222 521.212 71.7662 518.565C71.4642 517.128 71.3656 516.31 72.2134 515.101C72.4072 514.824 72.6066 514.552 72.8032 514.278C69.848 508.556 74.5725 503.362 73.1259 497.491C72.5155 496.802 71.7203 496.025 71.27 495.226C70.16 493.258 71.1056 491.576 71.7912 489.654L73.5794 490.316C73.9753 488.768 71.8957 488.503 71.6951 486.835C71.9994 486.635 72.5538 486.283 72.8175 486.06C72.8965 485.992 73.5533 485.312 73.5579 485.254C73.6273 484.375 72.2662 482.643 72.014 481.754C71.7281 480.745 73.0316 473.089 73.0752 471.311L71.2758 471.934L70.8121 471.441C70.864 469.303 71.9144 467.598 72.4724 465.578C72.8912 464.062 72.7101 463.748 71.9041 462.416C70.5939 460.252 72.8775 460.022 73.2426 458.418C72.3353 457.782 71.9115 457.396 71.4145 456.4C71.7355 454.107 72.5231 454.172 73.3899 452.328C73.9959 451.039 72.0637 446.857 71.6914 445.238C72.1978 445.008 72.701 444.811 73.221 444.616C73.1822 444.366 73.1494 444.116 73.1047 443.868C72.3816 439.852 74.4555 435.552 72.8808 431.953C72.3958 430.845 72.1732 430.208 72.2313 428.96C73.0434 429.221 72.7269 429.082 73.4951 429.479C73.6761 429.573 73.855 429.671 74.035 429.767L74.923 429.292C74.8245 427.773 73.9432 427.666 73.0367 426.563C71.3762 424.543 71.7939 406.519 72.0636 402.831C73.2379 402.435 72.8156 402.806 73.3743 401.77C72.9865 400.814 72.6311 399.846 72.2487 398.888C70.2428 393.863 73.5875 389.156 73.4803 384.018C72.8356 383.137 72.2141 382.427 71.9568 381.347C73.0925 380.723 73.8997 380.396 74.5764 379.244C74.2343 377.826 73.6692 376.936 72.857 375.764L72.4195 375.904L71.7848 377.758C71.4107 374.754 73.1363 371.981 72.8698 369.186C72.7251 367.668 71.41 367.563 71.9218 365.74L72.9602 365.913L73.4187 365.507C72.7643 365.144 72.2178 364.759 71.6383 364.286C71.6861 362.409 72.5533 362.932 73.2352 361.643C73.9735 360.247 72.0557 359.97 71.9769 358.223C71.826 354.88 73.2822 352.647 72.0674 349.078L71.0217 349.1C70.2635 346.959 73.4173 339.881 73.7087 337.156C73.037 336.468 72.0922 335.636 71.7835 334.706C71.3562 333.42 71.7546 332.034 72.3266 330.881C74.1873 327.13 70.039 324.099 70.8737 320.351L72.5422 319.55C73.1756 318.456 73.325 317.817 73.3835 316.557C71.2489 312.278 73.4696 312.76 73.3614 308.952C72.875 308.704 71.3406 308.005 71.1263 307.492C69.998 304.789 73.5992 299.772 71.827 295.432C70.0208 291.009 73.0617 291.91 73.5927 288.343C73.9224 286.129 72.5038 281.07 72.141 278.696C71.5387 274.755 72.4402 271.259 72.4897 267.349C72.5479 262.746 71.9274 258.063 71.916 253.435L71.8802 235.302C71.8742 232.359 72.2116 229.591 71.9653 226.628L71.8997 225.902C79.4936 229.418 87.2594 232.139 95.0277 235.203C104.151 238.802 113.147 242.678 122.329 246.14C121.979 244.511 121.229 210.49 121.495 208.781C128.465 207.533 154.477 222.96 163.625 224.378C163.826 224.409 164.027 224.434 164.228 224.462Z"/>
	<path fill="#FFC34E" d="M164.228 224.462C164.107 221.841 164.836 212.617 164.442 211.177C164.031 209.678 162.789 209.624 162.847 207.642C162.905 205.687 163.983 203.84 164.066 201.868C164.137 200.156 163.308 198.39 163.071 196.707C162.732 194.306 163.352 194.147 164.829 192.255C165.812 191.939 166.195 191.8 167.231 192.121C168.931 192.647 170.496 193.961 172.079 194.799C176.089 196.923 180.752 199.398 184.942 201.081C185.673 201.375 186.361 201.521 186.991 202.03C187.652 202.565 188.299 203.204 188.939 203.768C189.793 220.458 189.552 237.027 189.77 253.722L190.666 350.75C190.735 359.409 190.636 368.098 190.5 376.757C190.409 382.57 189.625 388.049 190.86 393.786C191.583 397.143 190.944 400.397 190.979 403.788C191.113 416.794 190.778 429.749 190.618 442.75C190.528 450.154 191.373 457.592 191.485 465.002C191.711 479.979 191.235 495.311 192.704 510.22C192.083 510.891 191.481 511.569 190.894 512.27L191.127 513.324C191.384 513.483 191.644 513.639 191.899 513.802C192.907 514.442 192.536 514.14 193.263 514.888L192.851 515.346C191.954 516.356 191.155 517.067 190.973 518.464C191.467 520.006 191.641 520.47 193.153 521.261C195.279 522.374 212.894 530.876 214.256 531.226C215.576 531.565 217.118 531.504 218.478 531.528C219.27 532.112 219.387 532.418 219.894 533.237C221.065 535.131 221.696 535.677 223.895 536.174C234.347 538.536 232.334 541.544 239.588 545.182C241.455 546.118 241.862 544.064 243.501 544.74C243.103 545.484 242.819 545.863 242.26 546.465C243.208 547.738 245.486 548.612 247.038 548.838C247.271 548.872 247.506 548.893 247.74 548.921L248.006 548.543L246.979 547.04L247.362 546.619C248.024 547.366 248.651 548.125 249.266 548.91C250.021 548.741 250.744 548.557 251.489 548.342L252.228 548.813L251.375 550.286C251.982 551.429 253.297 551.951 254.49 552.315C255.429 552.601 256.431 552.748 257.399 552.904C258.522 553.805 259.214 554.79 260.02 555.96C264.198 557.414 268.033 561.036 269.994 561.563L271.557 560.57C272.841 561.769 271.855 562.58 273.332 563.829C273.957 563.051 273.367 562.422 273.824 561.856L275.017 562.291C275.357 564.026 274.371 564.648 275.288 566.309C279.514 568.51 294.363 577.633 297.901 578.013L298.78 577.667L299.181 576.585C300.788 580.154 302.062 585.261 305.215 587.744C307.354 589.429 309.208 590.133 311.021 592.349C312.599 592.078 314.474 591.459 315.976 591.98C316.771 592.968 317.585 593.941 318.361 594.943C321.721 599.285 328.817 602.782 333.238 606.296C336.48 608.875 339.463 611.778 342.542 614.545C343.669 615.558 346.455 617.363 346.416 618.836C346.41 619.048 346.297 619.632 346.255 619.865C347.01 620.669 347.607 620.695 348.637 620.955C352.92 622.038 354.348 626.354 357.304 629.215C358.739 630.605 360.307 629.438 361.392 631.275C361.521 631.493 361.54 631.758 361.617 631.999C363.196 636.934 372.329 640.42 372.865 642.859C372.894 642.989 372.316 643.916 372.29 644.153C372.211 644.851 377.723 650.912 378.655 651.823C380.809 653.929 383.52 654.72 385.608 657.173Q401.069 675.307 415.25 694.458Q429.43 713.609 442.264 733.688C445.172 738.245 447.926 742.998 450.498 747.752C451.526 749.652 452.222 751.772 453.382 753.591C455.343 756.667 457.906 759.288 459.727 762.47C463.451 768.978 466.619 776.239 470.003 782.964C473.555 790.024 477.534 796.916 480.956 804.026C482.385 806.994 483.419 810.136 484.827 813.108C486.244 816.102 488.093 818.892 489.473 821.9C490.839 824.876 491.586 828.097 492.896 831.091C495.908 837.973 502.894 848.018 501.618 856.136C501.457 857.158 501.273 857.303 500.465 857.869C499.671 858.424 499.94 858.168 499.516 858.626C494.062 854.731 489.958 847.611 485.354 842.686C476.366 833.07 442.524 801.336 432.148 797.818C428.666 796.637 427.888 793.995 425.048 792.133C420.991 789.473 416.469 787.448 412.318 784.926C407.681 782.11 403.398 778.73 398.713 775.979C392.327 772.231 381.935 768.913 377.24 763.757L376.813 763.28C376.286 763.636 375.763 763.97 375.22 764.299C366.948 758.824 355.713 753.185 346.532 749.366C343.646 748.166 340.626 747.283 337.776 746.001C331.908 743.363 326.696 740.567 320.562 738.442Q312.029 735.407 303.351 732.816C297.905 731.235 291.991 729.989 286.83 727.628C283.133 725.937 279.774 723.42 276.315 721.286C276.143 721.392 275.952 721.472 275.799 721.604C275.571 721.8 275.388 722.043 275.183 722.262L274.397 721.955C273.126 717.939 269.544 721.698 267.003 720.361C266.87 720.291 266.346 719.249 266.19 719.138C265.736 718.818 254.592 717.466 252.727 716.995C247.467 715.668 242.436 713.449 237.161 712.18C224.441 709.119 210.503 707.454 197.481 706.046C192.609 705.518 188.148 707.25 183.367 707.367C181.294 707.417 181.485 706.102 179.526 705.72C174.571 704.753 170.931 705.469 166.204 702.998C165.075 695.819 166.421 688.011 166.377 680.711C166.35 676.25 165.785 671.816 165.687 667.358C165.383 653.549 165.427 639.535 165.516 625.722C165.533 623.086 166.429 620.525 166.461 617.886C166.549 610.476 165.479 603.156 165.298 595.787C165.021 584.542 166.486 573.273 166.162 562.049C166.03 557.457 164.96 543.456 166.043 540.06C166.186 539.611 166.427 538.988 166.463 538.511C166.668 535.779 165.708 532.384 165.515 529.588C165.174 524.638 165.258 519.617 165.241 514.656L165.702 436.669C165.71 432.515 164.593 420.932 165.364 417.718L166.216 417.222C164.21 397.184 165.357 376.799 165.338 356.697C165.322 339.914 164.651 323.123 164.726 306.349C164.748 301.489 165.108 296.635 165.111 291.776C165.121 274.933 164.563 258.079 164.181 241.247C164.059 235.881 164.51 230.47 164.262 225.116L164.228 224.462Z"/>
	<path fill="#F56C60" d="M122.329 246.14C121.979 244.511 121.229 210.49 121.495 208.781C128.465 207.533 154.477 222.96 163.625 224.378C163.826 224.409 164.027 224.434 164.228 224.462L164.262 225.116C164.51 230.47 164.059 235.881 164.181 241.247C164.563 258.079 165.121 274.933 165.111 291.776C165.108 296.635 164.748 301.489 164.726 306.349C164.651 323.123 165.322 339.914 165.338 356.697C165.357 376.799 164.21 397.184 166.216 417.222L165.364 417.718C164.593 420.932 165.71 432.515 165.702 436.669L165.241 514.656C165.258 519.617 165.174 524.638 165.515 529.588C165.708 532.384 166.668 535.779 166.463 538.511C166.427 538.988 166.186 539.611 166.043 540.06C164.96 543.456 166.03 557.457 166.162 562.049C166.486 573.273 165.021 584.542 165.298 595.787C165.479 603.156 166.549 610.476 166.461 617.886C166.429 620.525 165.533 623.086 165.516 625.722C165.427 639.535 165.383 653.549 165.687 667.358C165.785 671.816 166.35 676.25 166.377 680.711C166.421 688.011 165.075 695.819 166.204 702.998C170.931 705.469 174.571 704.753 179.526 705.72C181.485 706.102 181.294 707.417 183.367 707.367C188.148 707.25 192.609 705.518 197.481 706.046C210.503 707.454 224.441 709.119 237.161 712.18C242.436 713.449 247.467 715.668 252.727 716.995C254.592 717.466 265.736 718.818 266.19 719.138C266.346 719.249 266.87 720.291 267.003 720.361C269.544 721.698 273.126 717.939 274.397 721.955L275.183 722.262C275.388 722.043 275.571 721.8 275.799 721.604C275.952 721.472 276.143 721.392 276.315 721.286C279.774 723.42 283.133 725.937 286.83 727.628C291.991 729.989 297.905 731.235 303.351 732.816Q312.029 735.407 320.562 738.442C326.696 740.567 331.908 743.363 337.776 746.001C340.626 747.283 343.646 748.166 346.532 749.366C355.713 753.185 366.948 758.824 375.22 764.299C375.763 763.97 376.286 763.636 376.813 763.28L377.24 763.757C381.935 768.913 392.327 772.231 398.713 775.979C403.398 778.73 407.681 782.11 412.318 784.926C416.469 787.448 420.991 789.473 425.048 792.133C427.888 793.995 428.666 796.637 432.148 797.818C442.524 801.336 476.366 833.07 485.354 842.686C489.958 847.611 494.062 854.731 499.516 858.626C500.664 859.804 501.676 861.102 502.719 862.374C503.445 861.118 503.167 858.872 503.187 857.381C503.579 860.379 503.453 863.362 503.385 866.377L502.505 866.137C500.073 864.198 496.888 862.846 494.17 861.321C489.887 858.919 485.697 856.33 481.467 853.834C458.793 840.456 435.703 828.27 411.432 818.04C396.154 811.6 380.339 806.724 365.03 800.479C363.252 799.754 361.613 798.721 359.837 797.999C358.398 797.414 356.895 797.838 355.421 797.455C351.98 796.563 348.504 794.742 345.165 793.476C339.219 791.221 333.204 790.087 327.714 786.691L327.131 786.323C320.214 788.433 300.367 779.816 291.992 778.365C287.62 777.607 283.085 777.861 278.677 777.174C277.411 775.924 278.535 775.839 277.865 774.243C276.844 773.91 276.334 774.014 275.302 774.273L275.955 775.68C273.347 777.054 272.02 774.002 269.732 773.385C268.245 772.985 266.566 773.578 264.98 773.068C262.88 772.391 262.002 770.028 259.591 769.712L259.566 770.204L258.977 770.799L259.705 770.359L262.904 772.829C260.774 772.914 258.676 771.298 256.639 770.674C255.026 770.181 254.47 770.462 253.004 771.207C249.789 769.788 246.314 769.673 242.927 768.999C232.543 766.934 221.881 765.689 211.692 762.834L211.499 763.908L210.961 764.155C208.794 762.513 207.589 763.575 205.16 763.813C204.473 763.074 203.911 762.425 203.014 761.943C202.226 762.4 201.175 763.102 200.306 763.384C198.376 764.011 194.819 763.291 192.963 762.529C192.851 761.335 193.04 761.853 192.483 760.945L190.229 761.064L189.979 761.618L191.199 762.461L191.231 763.21C188.107 763.581 186.38 764.084 183.486 762.52C183.162 762.345 182.132 761.666 181.859 761.618C180.978 761.464 179.37 762.423 178.278 762.361C175.267 762.191 172.1 761.577 169.107 761.135C168.954 760.356 169.103 760.707 168.681 760.075C168.097 760.897 167.827 761.305 166.959 761.855L164.242 760.707C163.04 761.177 162.328 761.525 161.012 761.346C161.743 760.866 161.947 760.69 162.441 760.028C161.456 759.635 161.381 759.642 160.398 759.803L160.649 761.492L159.975 761.926C158.749 762.049 157.616 762.189 156.413 761.831C156.149 761.753 155.888 761.664 155.625 761.58L152.809 763.321L153.684 761.773C152.092 762.422 151 763.215 149.273 762.909C148.952 762.09 148.612 761.286 148.255 760.482C148.243 760.65 148.179 761.521 148.181 761.669C148.189 762.474 148.434 761.702 147.811 762.811C147.028 762.435 146.263 762.038 145.495 761.634L144.118 762.676L142.811 761.831C141.791 761.988 140.873 762.05 139.842 762.022C139.441 761.325 139.192 761.042 138.588 760.446L137.637 761.71L137.209 761.721L136.376 761.171C134.297 761.554 134.346 761.52 133.128 763.247L132.45 763.062C132.218 762.171 132.224 762.444 132.217 761.671C132.215 761.517 132.223 761.362 132.226 761.208C130.411 761.589 130.291 763.106 128.501 763.386L127.584 762.268C126.196 762.088 125.567 762.331 124.362 762.931C124.229 762.997 124.098 763.066 123.966 763.134C122.773 761.791 122.573 760.252 122.446 758.488C122.214 755.262 122.799 752.028 122.828 748.798C122.901 740.67 122.845 732.635 123.032 724.493C123.268 714.235 122.49 703.929 122.515 693.659C122.527 688.873 122.461 684.042 122.708 679.263C122.879 675.954 123.372 672.621 123.36 669.313C122.727 669.318 122.102 669.31 121.47 669.293C121.087 666.225 123.861 662.694 123.448 659.802C123.218 658.185 121.896 656.093 121.181 654.63C121.593 654.274 122.207 653.816 122.535 653.363C123.322 652.277 123.464 651.964 123.325 650.71L121.709 650.737C121.631 649.279 123.365 647.084 123.239 646.317C123.208 646.128 122.173 645.234 122.085 644.988C121.507 643.355 123.194 635.542 123.384 633.242C123.538 631.376 122.637 629.63 122.53 627.783C122.152 621.303 124.14 614.407 123.64 607.847C123.483 605.794 122.211 604.396 121.897 602.38C122.258 601.814 122.611 601.346 123.06 600.839C123.213 600.666 123.371 600.497 123.527 600.326Q122.894 596.009 122.308 591.685C121.251 584.382 124.701 577.314 122.724 570.016C122.28 568.375 122.509 568.132 123.424 566.698C123.25 564.668 122.157 563.801 121.293 561.991L121.653 561.228C122.867 561.378 122.305 561.397 123.343 561.241C122.88 559.295 122.274 557.231 122.054 555.246C121.779 552.771 122.547 549.604 122.59 547.035C122.806 533.919 121.625 520.307 123.299 507.3C122.837 506.55 122.309 505.695 122.114 504.828C121.762 503.272 121.808 494.321 122.522 493.071C122.966 492.296 123.25 491.613 123.556 490.774L123.053 489.882L121.229 489.468L120.843 488.754C121.462 487.739 121.184 488.068 121.95 487.265C122.12 487.088 122.296 486.916 122.469 486.741C122.262 485.16 122.091 483.573 121.872 481.994C121.612 480.116 121.292 478.791 122.066 476.986C122.518 475.934 122.781 475.265 122.87 474.087C121.817 472.606 120.942 471.446 121.079 469.567L122.492 469.373L122.883 468.737C122.797 467.587 122.736 466.863 122.103 465.872C121.942 465.62 121.772 465.374 121.607 465.126L122.375 465.208L121.467 464.955C121.499 460.298 124.062 455.537 123.84 450.729C123.724 448.198 121.741 446.016 121.606 443.285C122.159 442.705 122.612 442.162 123.046 441.488Q122.148 439.126 121.277 436.754C121.559 436.472 122.214 435.846 122.415 435.522C123.073 434.461 122.051 433 121.628 431.997C122.194 429.074 123.203 421.675 122.081 418.931L120.681 418.902L120.452 418.328L121.085 418.052C121.706 417.363 122.018 416.841 122.292 415.935C123.101 413.249 121.52 409.471 121.386 406.708C121.242 403.725 123.588 399.734 122.165 396.957L120.773 396.881L120.608 396.514L122.313 395.399C123.802 392.688 121.888 388.175 121.609 385.209L122.897 383.741C122.741 382.425 122.275 381.777 121.516 380.745L121.229 380.363C121.406 378.566 122.598 376.616 123.355 374.982L122.854 374.476L123.305 374.566C120.421 370.602 123.267 365.392 122.396 360.704C121.148 360.386 121.727 360.646 120.659 359.922L120.753 358.688C121.688 357.636 122.703 356.748 122.931 355.303C122.75 355.22 122.114 354.938 121.972 354.833C121.009 354.123 122.831 352.236 122.469 350.75L121.048 350.186C122.03 344.784 123.657 329.978 122.166 324.77L120.617 324.841C121.217 324.247 123.341 322.434 123.372 321.604C123.414 320.494 121.543 318.534 121.399 317.322C121.061 314.478 122.614 310.706 122.719 307.724C122.865 303.58 122.663 299.095 122.297 294.964C122.157 293.391 121.7 291.816 121.702 290.236C121.706 286.553 122.35 282.743 122.624 279.052C122.111 278.108 121.512 277.136 121.433 276.041C121.235 273.314 122.6 269.912 122.636 267.009C122.711 261.022 121.074 251.547 122.329 246.14Z"/>
	<path fill="#F83123" d="M259.347 213.142C265.464 205.031 270.692 196.232 276.87 188.121C292.814 167.185 312.162 149.254 332.853 133.129Q335.733 130.918 338.667 128.779Q341.6 126.639 344.585 124.572Q347.57 122.505 350.604 120.512Q353.639 118.518 356.722 116.6Q359.804 114.681 362.933 112.839Q366.061 110.996 369.234 109.231Q372.406 107.466 375.621 105.778Q378.836 104.091 382.092 102.483Q385.347 100.875 388.641 99.3475Q391.934 97.8197 395.264 96.373Q398.594 94.9262 401.959 93.5614Q405.323 92.1967 408.72 90.9146Q412.117 89.6326 415.544 88.4341Q418.972 87.2356 422.427 86.1214Q425.883 85.0071 429.365 83.9778Q432.846 82.9485 436.352 82.0047Q439.858 81.0609 443.386 80.2032Q446.914 79.3456 450.462 78.5745Q454.01 77.8034 457.576 77.1194Q461.142 76.4354 464.723 75.8389Q468.305 75.2424 471.9 74.7337Q475.495 74.225 479.101 73.8045Q482.707 73.384 486.323 73.0519Q489.938 72.7198 493.561 72.4762Q497.184 72.2327 500.811 72.0779Q504.438 71.9232 508.069 71.8572Q511.699 71.7913 515.33 71.8142Q518.96 71.8372 522.589 71.949Q526.218 72.0607 529.844 72.2613Q533.469 72.4619 537.088 72.7512Q540.707 73.0405 544.318 73.4183Q547.929 73.7961 551.53 74.2621Q554.66 74.6656 557.781 75.1368Q560.901 75.608 564.011 76.1467Q567.121 76.6854 570.218 77.2913Q573.316 77.8973 576.399 78.5702Q579.483 79.2431 582.551 79.9826Q585.619 80.7221 588.67 81.5279Q591.722 82.3338 594.755 83.2055Q597.788 84.0772 600.802 85.0145Q603.816 85.9517 606.808 86.954Q609.801 87.9563 612.771 89.0232Q615.742 90.0901 618.688 91.2211Q621.635 92.3521 624.556 93.5466Q627.477 94.7412 630.372 95.9987Q633.266 97.2563 636.133 98.5762Q639 99.8962 641.837 101.278Q644.675 102.66 647.482 104.103Q650.289 105.546 653.064 107.049Q655.839 108.552 658.581 110.115Q661.322 111.679 664.03 113.301Q666.737 114.923 669.408 116.603Q672.08 118.284 674.714 120.022Q677.349 121.759 679.945 123.554Q682.541 125.349 685.098 127.199Q687.654 129.049 690.17 130.955Q692.686 132.86 695.161 134.819Q697.635 136.779 700.066 138.791Q702.497 140.804 704.884 142.869Q707.271 144.933 709.613 147.049Q711.954 149.165 714.25 151.331Q716.545 153.497 718.793 155.713Q721.041 157.928 723.24 160.192Q725.439 162.455 727.589 164.766C740.982 179.009 752.124 194.512 764.047 209.916C760.769 213.779 753.808 215.927 749.366 218.458C745.271 220.792 741.35 223.419 737.254 225.747C732.248 228.592 727.136 231.173 722.267 234.262C720.592 235.324 710.176 241.38 709.566 242.187C708.901 243.066 709.313 243.739 708.103 244.025C704.134 244.962 701.737 246.935 698.358 248.976L697.09 251.548C691.704 254.194 687.202 257.123 683.012 261.448C680.677 263.859 676.548 265.078 673.796 267.242C666.225 273.197 658.358 278.802 650.907 284.902C648.179 287.135 645.556 290.722 642.716 292.567C642.002 293.031 641.442 293.09 640.613 293.25C635.158 294.302 625.762 310.305 619.102 312.597C613.888 314.392 601.018 329.527 595.759 334.365C593.474 336.467 590.583 337.719 588.366 339.933C581.739 346.553 575.671 353.801 568.733 360.114C568.695 360.374 568.661 360.635 568.62 360.895C568.571 361.21 568.416 362.522 568.168 362.824C566.456 364.913 556.313 371.391 556.593 373.241C556.708 374.005 556.671 373.731 556.635 374.645C551.984 379.036 547.986 383.856 543.616 388.499C541.545 390.701 538.822 392.846 537.058 395.257C536.18 396.456 535.558 397.917 534.971 399.277C533.726 399.936 533.677 399.207 532.997 399.498C529.96 400.799 531.846 407.475 526.024 409.053C525.151 410.043 524.256 413.226 523.185 413.38C522.859 413.427 522.528 413.338 522.199 413.317C519.612 415.758 516.568 420.154 516.373 423.866C516.309 425.084 516.366 426.322 516.417 427.539C516.227 425.989 516.322 424.803 515.379 423.537C513.414 424.395 512.092 427.048 510.644 428.679C509.545 428.591 504.003 422.421 502.89 421.342C498.785 414.183 491.387 403.246 485.118 398.143L484.381 399.097C483.268 397.708 483.886 396.407 483.164 395.144C482.912 394.703 475.34 386.181 474.966 385.949C473.975 385.334 473.151 386.115 472.335 384.842C470.801 382.45 471.164 380.145 468.54 378.186L467.855 378.908C466.111 376.609 464.34 374.202 462.359 372.101C461.543 371.235 458.019 368.464 457.735 367.6C457.32 366.338 458.284 366.484 456.93 365.247C454.414 362.949 448.381 360.403 447.579 357.047C447.419 356.378 447.419 356.064 446.999 355.453C445.121 352.715 441.271 350.239 438.905 347.783C437.753 346.588 435.898 343.692 434.591 342.925C433.899 342.519 432.591 342.607 431.936 342.135C429.828 340.617 428.276 336.919 426.117 335.009C415.524 325.637 405.908 315.132 394.75 306.498L393.576 307.067C391.397 305.475 390.079 302.811 388.44 300.678C386.759 298.492 386.042 298.268 383.317 297.937L382.661 297.863L382.853 296.288C377.572 290.39 367.609 283.438 361.207 278.445C358.331 276.201 355.671 273.636 352.723 271.491C351.147 270.345 343.434 265.059 342.01 265.46C341.736 265.537 341.484 265.676 341.221 265.785C340.931 264.576 341.106 265.162 340.701 264.025L339.944 263.958L339.007 265.374L338.257 264.753C338.349 263.917 338.504 263.19 338.237 262.37C337.873 261.258 331.901 257.605 330.557 256.648C329.437 255.851 321.139 248.803 320.642 248.683C320.194 248.576 319.734 248.994 319.28 248.917C318.867 248.846 309.532 241.424 307.951 240.447C298.513 234.616 288.78 229.501 279.153 224.049C272.489 220.275 266.29 216.435 259.347 213.142Z"/>
	<path fill="#2B464D" d="M502.89 421.342C504.003 422.421 509.545 428.591 510.644 428.679C512.092 427.048 513.414 424.395 515.379 423.537C516.322 424.803 516.227 425.989 516.417 427.539L516.699 430.252C516.316 436.555 518.223 443.072 515.96 449.082C515.615 449.999 515.671 449.599 515.812 450.538L517.009 449.984C517.245 451.078 517.155 450.886 516.823 451.844C515.374 456.035 519.175 458.058 516.362 463.793C516.647 468.413 517.019 473.059 517.115 477.685C517.201 481.805 516.674 486.323 517.431 490.367C516.946 492.649 516.164 494.818 515.582 497.073L516.259 497.516C516.725 499.028 516.779 500.068 516.726 501.643C516.704 502.302 516.764 502.863 516.901 503.506Q516.815 506.5 516.822 509.496L517.443 509.834C517.371 510.113 517.295 510.392 517.226 510.672C516.853 512.196 516.881 513.813 516.813 515.375C516.706 517.818 518.022 525.677 516.671 527.326C516.73 531.255 517.176 535.59 516.434 539.449C517.383 541.201 516.725 545.999 516.583 548.042C516.538 548.689 516.522 548.514 516.152 549.23C517.818 553.255 515.901 561.27 516.476 566.083L516.599 568.1C516.554 570.9 516.335 573.813 516.59 576.6C516.837 577.623 517.103 578.696 517.164 579.749C517.362 583.196 516.833 587.068 516.815 590.588L516.798 619.43C516.803 626.251 518.072 634.174 517.058 640.855C516.995 644.134 516.499 648.111 517.734 651.198C516.036 654.301 517.753 681.309 516.777 687.59L517.163 688.438C517.175 689.225 517.133 689.804 516.97 690.573C516.636 692.146 516.595 712.992 516.696 715.978C516.79 718.802 517.493 721.473 517.441 724.335C516.661 727.198 517.265 730.216 517.302 733.152C517.316 734.208 517.241 733.764 517.487 734.609C517.322 735.966 517.33 736.881 517.478 738.24C517.664 739.951 517.368 741.737 517.435 743.468C517.737 751.33 518.136 757.952 516.093 765.719L517.411 766.277C516.797 771.235 515.868 775.873 516.28 780.928L517.32 781.465C516.942 782.751 515.604 784.829 515.692 786.069C515.789 787.437 517.127 788.757 517.306 790.165C517.583 792.343 515.579 794.723 515.853 796.923C516.117 799.041 517.485 801.134 517.353 803.318C517.211 805.651 516.057 808.101 516.282 810.432C516.445 812.123 517.355 813.619 517.435 815.377C517.661 820.341 515.922 825.73 516.631 831.638C516.62 833.839 516.668 836.058 516.546 838.255C516.572 846.333 517.057 854.564 516.878 862.609L516.644 866.003C513.842 866.254 505.461 867.75 503.385 866.377C503.453 863.362 503.579 860.379 503.187 857.381C504.005 853.934 503.186 849.246 503.146 845.622C503.094 840.84 502.173 803.205 502.779 802.138C503.29 801.239 503.655 801.977 503.944 800.56L502.802 799.838C502.827 778.662 501.983 757.445 502.71 736.273C502.613 733.666 502.65 731.005 502.084 728.452C502.088 728.347 502.088 728.242 502.096 728.138C502.759 719.701 502.071 711.221 502.328 702.765C502.366 697.312 502.756 691.374 501.866 686L502.544 665.716C502.653 662.639 502.458 659.231 502.854 656.198C503.129 654.092 502.971 653.682 502.261 651.582C502.064 649.735 502.059 647.846 501.985 645.989C502.748 639.848 502.319 633.433 502.381 627.238C502.408 624.579 502.805 621.851 502.683 619.209C502.575 616.86 501.546 614.639 501.669 612.26C501.789 609.924 503.28 607.77 503.492 605.57C503.6 604.451 502.289 601.916 502.039 600.65C501.798 599.43 501.982 589.466 502.538 588.606C502.962 587.952 503.72 588.537 504.149 587.428L502.457 586.57C501.964 584.585 501.832 578.74 502.728 576.94L503.661 576.779L503.787 576.375L502.439 575.631L503.227 573.716L502.793 572.986C502.919 570.328 502.526 567.624 502.462 564.955C502.414 564.085 502.314 563.31 502.57 562.463C503.073 560.802 503.285 559.019 503.585 557.305C502.808 557.3 503.218 557.318 502.356 557.241C502.77 555.763 501.991 519.506 501.981 515.371C501.97 510.614 502.369 505.918 502.439 501.171C502.657 496.855 501.866 492.492 502.32 488.208C503.037 484.382 502.362 479.462 502.378 475.474Q502.415 459.074 502.193 442.675C502.164 435.66 501.814 428.289 502.89 421.342Z"/>
	<path fill="#A09E9D" d="M502.71 736.273C501.729 735.603 500.903 734.886 500.196 733.929C494.925 726.79 490.643 718.872 485.876 711.395Q474.783 694.352 463.097 677.709C439.011 643.366 405.763 604.679 375.66 575.217Q363.776 563.452 351.334 552.278Q338.892 541.105 325.921 530.549Q312.95 519.994 299.482 510.082Q286.013 500.17 272.079 490.924C256.855 480.822 241.051 471.515 225.311 462.241C221.988 460.284 209.546 454.219 207.627 452.21C207.34 451.203 207.12 451.148 207.558 450.144C211.863 449.16 232.983 462.877 237.952 465.84C244.927 470 252.208 473.876 259.017 478.276C265.457 482.438 271.582 487.097 277.991 491.309C287.614 497.634 297.393 503.883 306.638 510.757C358.255 549.135 404.902 596.579 444.472 647.158C454.256 659.664 463.362 672.452 472.51 685.421C479.243 694.966 486.091 704.438 492.18 714.413C494.439 718.115 498.241 726.859 502.084 728.452C502.65 731.005 502.613 733.666 502.71 736.273Z"/>
	<path fill="#A09E9D" d="M502.261 651.582C496.816 646.091 492.533 638.086 487.906 631.791Q472.511 610.929 456.376 590.635Q443.125 574.325 429.094 558.681Q415.063 543.037 400.287 528.095Q385.51 513.154 370.023 498.95Q354.535 484.747 338.374 471.315C326.625 461.583 314.11 452.753 301.742 443.839C295.727 439.504 289.915 434.855 283.722 430.774C269.966 421.707 255.756 413.327 241.639 404.835C232.72 399.47 223.374 395.017 214.246 390.037C212.206 388.924 209.524 388.161 207.725 386.754C206.781 386.016 206.771 385.769 206.609 384.656L207.376 383.748C208.099 383.84 208.758 383.937 209.456 384.158C218.686 387.085 231.638 395.489 240.58 400.359C262.877 412.504 283.776 426.552 304.378 441.315Q326.289 456.933 347.063 474.033Q367.837 491.133 387.375 509.633C415.564 536.613 441.483 566.51 465.815 596.971C478.324 612.63 492.236 628.462 501.985 645.989C502.059 647.846 502.064 649.735 502.261 651.582Z"/>
	<path fill="#A09E9D" d="M502.793 572.986C497.041 566.491 492.166 559.087 486.864 552.21C477.82 540.479 468.202 528.808 458.519 517.584Q450.183 507.976 441.569 498.616Q432.955 489.257 424.07 480.155Q415.185 471.052 406.037 462.214Q396.889 453.376 387.485 444.81Q378.082 436.244 368.431 427.958Q358.78 419.672 348.89 411.673Q339.001 403.673 328.88 395.967Q318.76 388.262 308.418 380.856C291.071 368.519 273.051 356.621 254.573 346.041Q240.135 337.949 225.483 330.25C221.62 328.241 209.915 323.359 207.321 320.886C206.788 320.379 206.781 320.295 206.463 319.747L206.73 318.972L207.76 318.52C215.337 320.926 222.874 325.195 229.927 328.838C243.39 335.792 256.606 342.937 269.507 350.901Q282.771 359.189 295.719 367.962Q308.667 376.735 321.282 385.981Q333.896 395.227 346.16 404.934Q358.423 414.64 370.319 424.794Q382.215 434.948 393.728 445.535Q405.24 456.123 416.352 467.129Q427.464 478.135 438.162 489.544Q448.859 500.954 459.127 512.752Q478.749 535.358 497.133 558.983C498.803 561.102 500.033 563.477 501.706 565.584L502.462 564.955C502.526 567.624 502.919 570.328 502.793 572.986Z"/>
	<path fill="#A09E9D" d="M502.09 495.631C493.859 483.618 483.003 472.356 473.359 461.417Q459.124 445.315 444.185 429.863Q429.247 414.412 413.634 399.642Q398.021 384.872 381.765 370.813Q365.51 356.753 348.643 343.433C324.699 324.355 300.149 306.14 273.765 290.521C260.488 282.661 246.802 274.904 233.038 267.919C225.483 264.085 217.479 260.849 210.064 256.792C208.62 256.002 207.197 255.393 206.377 253.938C206.882 252.895 206.963 252.935 208.027 252.438C212.755 253.12 232.112 263.82 237.307 266.542Q251.064 273.914 264.527 281.809Q277.991 289.703 291.141 298.109Q304.292 306.514 317.111 315.418Q329.929 324.321 342.397 333.71Q354.864 343.1 366.962 352.96Q379.06 362.821 390.771 373.138Q402.482 383.455 413.788 394.215Q425.094 404.974 435.979 416.159Q455.647 436.107 474.345 456.966C480.706 464.166 495.524 483.326 501.967 487.965C502.083 488.048 502.202 488.127 502.32 488.208C501.866 492.492 502.657 496.855 502.439 501.171C501.913 499.289 502.019 497.571 502.09 495.631Z"/>
	<path fill="#F83123" d="M406.449 857.109C415.081 859.041 423.715 859.234 432.491 859.939L471.953 863.194Q482.098 864.054 492.229 865.071C495.621 865.416 499.108 866.11 502.505 866.137L503.385 866.377C505.461 867.75 513.842 866.254 516.644 866.003C518.039 865.891 519.27 865.786 520.605 865.315C526.663 867.002 535.52 864.827 541.856 864.369Q565.597 862.688 589.31 860.649C598.549 859.879 607.943 858.724 617.207 858.504C613.511 874.298 607.515 890.776 598.09 904.048C581.438 927.494 555.95 942.12 527.803 946.73C501.079 951.107 472.326 944.688 450.321 928.821C425.606 911 411.272 887.018 406.449 857.109Z"/>
</svg>
